<?xml version="1.0" encoding="UTF-8" standalone="no"?>
<!-- Created with Inkscape (http://www.inkscape.org/) -->

<svg
   xmlns:dc="http://purl.org/dc/elements/1.1/"
   xmlns:cc="http://creativecommons.org/ns#"
   xmlns:rdf="http://www.w3.org/1999/02/22-rdf-syntax-ns#"
   xmlns:svg="http://www.w3.org/2000/svg"
   xmlns="http://www.w3.org/2000/svg"
   xmlns:sodipodi="http://sodipodi.sourceforge.net/DTD/sodipodi-0.dtd"
   xmlns:inkscape="http://www.inkscape.org/namespaces/inkscape"
   version="1.1"
   id="svg2"
   width="71.9571"
   height="71.0103"
   viewBox="0 0 71.9571 71.0103"
   sodipodi:docname="ava.svg"
   inkscape:version="0.92.4 (unknown)">
  <metadata
     id="metadata8">
    <rdf:RDF>
      <cc:Work
         rdf:about="">
        <dc:format>image/svg+xml</dc:format>
        <dc:type
           rdf:resource="http://purl.org/dc/dcmitype/StillImage" />
        <dc:title />
      </cc:Work>
    </rdf:RDF>
  </metadata>
  <defs
     id="defs6" />
  <sodipodi:namedview
     pagecolor="#ffffff"
     bordercolor="#666666"
     borderopacity="1"
     objecttolerance="10"
     gridtolerance="10"
     guidetolerance="10"
     inkscape:pageopacity="0"
     inkscape:pageshadow="2"
     inkscape:window-width="1920"
     inkscape:window-height="1012"
     id="namedview4"
     showgrid="false"
     inkscape:snap-global="false"
     fit-margin-top="0"
     fit-margin-left="0"
     fit-margin-right="0"
     fit-margin-bottom="0"
     inkscape:zoom="4.2247392"
     inkscape:cx="18.819127"
     inkscape:cy="52.256082"
     inkscape:window-x="1920"
     inkscape:window-y="0"
     inkscape:window-maximized="1"
     inkscape:current-layer="svg2" />
  <g
     id="g894"
     transform="translate(-95.775719,4.0800099)">
    <rect
       y="-4.0800099"
       x="95.775719"
       height="71.0103"
       width="71.9571"
       id="rect830"
       style="opacity:1;fill:#009ee3;fill-opacity:1;stroke:none;stroke-width:1.00199997;stroke-linecap:round;stroke-linejoin:round;stroke-miterlimit:4;stroke-dasharray:none;stroke-dashoffset:0;stroke-opacity:1" />
    <g
       id="g884">
      <path
         style="opacity:1;fill:#ffffff;stroke:none;stroke-width:1.10059381px;stroke-linecap:butt;stroke-linejoin:miter;stroke-opacity:1"
         d="m 100.50394,47.675449 c 0.85256,-10.897035 0.21251,-22.542167 4.8194,-31.557555 l 37.6627,0.09505 c 5.79098,5.521475 8.6985,8.173764 14.96559,14.272421 l 4.26144,0.689481 0.0506,16.690714 -4.66542,0.228325 c -0.57656,5.883192 -13.92756,6.608243 -14.31362,-0.519994 l -21.07832,0.291672 c -5.18904,8.589288 -13.2675,5.109855 -15.63347,0 z"
         id="path817"
         inkscape:connector-curvature="0"
         sodipodi:nodetypes="ccccccccccc" />
      <g
         id="g862"
         transform="translate(18.275948,-59.985448)">
        <path
           style="fill:none;stroke:none;stroke-width:1px;stroke-linecap:butt;stroke-linejoin:miter;stroke-opacity:1"
           d="m 83.736731,105.30397 c 0.799441,-9.593965 0.199271,-19.846571 4.519068,-27.783898 l 35.315681,0.08369 c 4.56691,5.598009 9.72043,10.82939 16.06779,15.314618 l 2.00848,0.08369 v 12.46928 l -4.01695,-0.16737 c -4.21663,9.03376 -9.25605,2.80982 -11.63242,0.33474 l -24.10169,-0.16737 c -3.84556,8.15161 -10.250747,4.49882 -12.469281,0 z"
           id="path826"
           inkscape:connector-curvature="0"
           sodipodi:nodetypes="ccccccccccc" />
        <g
           style="stroke:none"
           transform="translate(-18.852419,62.428643)"
           id="g856">
          <path
             sodipodi:nodetypes="ccccccccccc"
             inkscape:connector-curvature="0"
             id="path832"
             d="m 104.37684,38.692367 c 0.71062,-7.712773 0.17713,-15.955039 4.01703,-22.336009 l 31.39242,0.06729 c 4.05957,4.500346 8.64057,8.705954 14.28281,12.311715 l 1.78535,0.06728 V 38.82694 l -4.44672,-0.134555 c -2.67752,5.663659 -11.34248,2.93203 -11.3135,0.100819 l -17.62817,0.03374 c -3.41834,6.55324 -11.05866,3.616686 -13.03072,0 z"
             style="fill:#009ee3;fill-opacity:1;stroke:none;stroke-width:0.84534645px;stroke-linecap:butt;stroke-linejoin:miter;stroke-opacity:1" />
          <path
             style="fill:#82d0f5;fill-opacity:1;stroke:none;stroke-width:1px;stroke-linecap:butt;stroke-linejoin:miter;stroke-opacity:1"
             d="m 107.47173,15.072186 c -4.3198,7.93732 -3.72009,18.19119 -4.51953,27.78516 l 5.68945,0.16796 c 0.96323,5.37753 10.13151,7.81687 12.47071,0 l 24.10155,0.16602 c 0.009,3.95446 8.95474,7.33874 11.63283,-0.33398 l 4.01562,0.16796 v -12.4707 l -2.00781,-0.084 c -5.79088,-4.93043 -10.94213,-10.163914 -16.06837,-15.31446 z m 30.58593,6.73828 5.23047,0.0195 5,5.92188 h -10.14648 z m -33.01367,11.67383 h 25.94336 v 1.67383 h -25.94336 z"
             id="path823"
             inkscape:connector-curvature="0"
             sodipodi:nodetypes="ccccccccccccccccccccc" />
        </g>
      </g>
    </g>
  </g>
</svg>
