<?xml version="1.0" encoding="UTF-8" standalone="no"?>
<!-- Created with Inkscape (http://www.inkscape.org/) -->

<svg
   xmlns:dc="http://purl.org/dc/elements/1.1/"
   xmlns:cc="http://creativecommons.org/ns#"
   xmlns:rdf="http://www.w3.org/1999/02/22-rdf-syntax-ns#"
   xmlns:svg="http://www.w3.org/2000/svg"
   xmlns="http://www.w3.org/2000/svg"
   xmlns:sodipodi="http://sodipodi.sourceforge.net/DTD/sodipodi-0.dtd"
   xmlns:inkscape="http://www.inkscape.org/namespaces/inkscape"
   version="1.1"
   id="svg2"
   width="68.08062"
   height="71.61161"
   viewBox="0 0 68.08062 71.611611"
   sodipodi:docname="iso.svg"
   inkscape:version="0.92.4 (unknown)">
  <metadata
     id="metadata8">
    <rdf:RDF>
      <cc:Work
         rdf:about="">
        <dc:format>image/svg+xml</dc:format>
        <dc:type
           rdf:resource="http://purl.org/dc/dcmitype/StillImage" />
        <dc:title />
      </cc:Work>
    </rdf:RDF>
  </metadata>
  <defs
     id="defs6">
    <clipPath
       clipPathUnits="userSpaceOnUse"
       id="clipPath942">
      <rect
         style="opacity:1;fill:#009ee3;fill-opacity:1;stroke:none;stroke-width:2.5;stroke-linecap:round;stroke-linejoin:round;stroke-miterlimit:4;stroke-dasharray:none;stroke-dashoffset:0;stroke-opacity:1"
         id="rect944"
         width="68.455505"
         height="65.275421"
         x="32.135593"
         y="213.44463" />
    </clipPath>
    <clipPath
       clipPathUnits="userSpaceOnUse"
       id="clipPath954">
      <rect
         style="opacity:1;fill:#82d0f5;fill-opacity:1;stroke:none;stroke-width:2.5;stroke-linecap:round;stroke-linejoin:round;stroke-miterlimit:4;stroke-dasharray:none;stroke-dashoffset:0;stroke-opacity:1"
         id="rect956"
         width="66.94915"
         height="58.580509"
         x="84.523308"
         y="108.16708" />
    </clipPath>
  </defs>
  <sodipodi:namedview
     pagecolor="#ffffff"
     bordercolor="#666666"
     borderopacity="1"
     objecttolerance="10"
     gridtolerance="10"
     guidetolerance="10"
     inkscape:pageopacity="0"
     inkscape:pageshadow="2"
     inkscape:window-width="1920"
     inkscape:window-height="1012"
     id="namedview4"
     showgrid="false"
     inkscape:snap-global="false"
     fit-margin-top="0"
     fit-margin-left="0"
     fit-margin-right="0"
     fit-margin-bottom="0"
     inkscape:zoom="0.74683543"
     inkscape:cx="27.418124"
     inkscape:cy="273.51287"
     inkscape:window-x="1920"
     inkscape:window-y="0"
     inkscape:window-maximized="1"
     inkscape:current-layer="svg2"
     inkscape:pagecheckerboard="true" />
  <g
     id="g1172"
     transform="translate(28.778481,-133.89323)">
    <rect
       y="133.89323"
       x="-28.778481"
       height="71.61161"
       width="68.08062"
       id="rect1164"
       style="opacity:1;fill:#10a1e1;fill-opacity:1;stroke:none;stroke-width:2.4737227;stroke-linecap:round;stroke-linejoin:round;stroke-miterlimit:4;stroke-dasharray:none;stroke-dashoffset:0;stroke-opacity:1" />
    <g
       transform="translate(-0.52818508,1.7399769)"
       id="g1162">
      <path
         inkscape:connector-curvature="0"
         style="opacity:1;fill:#83d0f5;fill-opacity:1;stroke:none;stroke-width:2.79291725;stroke-linecap:round;stroke-linejoin:round;stroke-miterlimit:4;stroke-dasharray:none;stroke-dashoffset:0;stroke-opacity:1"
         d="m 19.763672,155.70703 a 9.527216,12.351436 0 0 0 -9.525391,12.35156 9.527216,12.351436 0 0 0 9.525391,12.34961 9.527216,12.351436 0 0 0 9.527344,-12.34961 9.527216,12.351436 0 0 0 -9.527344,-12.35156 z m 0,5.29102 a 3.7300146,7.0605216 0 0 1 3.730469,7.06054 3.7300146,7.0605216 0 0 1 -3.730469,7.06055 3.7300146,7.0605216 0 0 1 -3.728516,-7.06055 3.7300146,7.0605216 0 0 1 3.728516,-7.06054 z"
         id="path1154" />
      <path
         style="fill:#83d0f5;fill-opacity:1;stroke:none;stroke-width:1px;stroke-linecap:butt;stroke-linejoin:miter;stroke-opacity:1"
         d="m -6.0254237,173.66361 0.041843,5.60699 5.31408897,0.41844 4.18432203,-0.92056 2.5942797,-2.30137 1.0042373,-3.55668 -0.3347458,-2.46875 -2.3013771,-2.67796 -2.4269068,-2.05032 c 0,0 -2.17584746,-2.134 -2.17584746,-2.34322 0,-0.20922 -0.87870764,-1.92479 -0.87870764,-1.92479 0,0 3.1382415,-0.25106 3.3474576,-0.25106 0.2092161,0 3.1800848,-0.41843 3.3893009,-0.62765 0.2092161,-0.20921 0.5439619,-1.71557 0.5858051,-1.88294 0.041843,-0.16737 -0.8787076,-2.13401 -1.0460805,-2.13401 -0.1673729,0 -3.2637712,-0.33474 -3.598517,-0.33474 -0.3347457,0 -4.1424788,0.54396 -4.3098517,0.71133 -0.1673729,0.16738 -2.5524364,2.25954 -2.5524364,2.25954 0,0 -1.3389831,3.13824 -1.2971399,3.59851 0.041843,0.46028 0.1673729,2.05032 0.8368644,3.0964 0.6694916,1.04608 3.8495763,3.3893 4.3098517,3.97511 0.46027547,0.5858 2.6361229,2.46875 2.6361229,2.46875 0,0 0.2510594,1.96663 0.083687,2.09216 -0.1673729,0.12553 -1.25529664,0.5858 -2.25953393,0.5858 -1.00423727,0 -3.51483047,-0.54396 -3.51483047,-0.54396 z"
         id="path1152"
         inkscape:connector-curvature="0" />
      <rect
         style="opacity:1;fill:#83d0f5;fill-opacity:1;stroke:none;stroke-width:0.85528576;stroke-linecap:round;stroke-linejoin:round;stroke-miterlimit:4;stroke-dasharray:none;stroke-dashoffset:0;stroke-opacity:1"
         id="rect1148"
         width="6.0253506"
         height="25.310184"
         x="-17.710987"
         y="155.30397" />
    </g>
    <path
       sodipodi:nodetypes="cccccccccccccccccccccccccccssscscscccsssccscaacsccsccssacssscsccssssccsscccc"
       style="fill:#f9fcfd"
       d="m -25.738173,169.69904 v -31 H 5.2618282 36.261831 v 31 31 H 5.2618282 -25.738173 Z m 58.765814,0.25 -0.26581,-27.75 H 5.2618282 -22.238173 l -0.265819,27.75 -0.265818,27.75 H 5.2618282 33.293461 Z m -51.765814,-0.25 v -13 h 3.5 3.5 v 13 13 h -3.5 -3.5 z m 5,0.5 c 0,-8.66667 -0.261905,-10.5 -1.5,-10.5 -1.231638,0 -1.5,1.75926 -1.5,9.83333 0,5.40834 0.3,10.13334 0.666667,10.5 1.843936,1.84394 2.333333,-0.21852 2.333333,-9.83333 z m 7.7500012,11.81067 c -1.30185,-0.3402 -1.75,-1.49028 -1.75,-4.49098 0,-3.45514 0.250991,-3.92817 1.75,-3.29808 0.9625,0.40457 2.875,0.95005 4.25,1.21218 2.22977396,0.42508 2.04061695,0.0453 -1.75,-3.51307 -3.412641,-3.20361 -4.25,-4.67149 -4.25,-7.45021 0,-5.32313 4.464055,-8.33688 10.634243,-7.17935 3.154096,0.59171 3.365757,0.8827 3.365757,4.62712 0,3.41321 -0.255111,3.89067 -1.75,3.27525 -5.20305505,-2.142 -5.54983,-1.5357 -1.369734,2.39483 4.039226,3.79806 4.333563,4.41043 3.780414,7.86519 -0.960436,5.99852 -5.746543,8.42931 -12.91068,6.55712 z m 9.25,-3.31067 c 1.3061199,-0.77793 2.2012895,-2.59194 2,-4.09879 -0.4706127,-3.523 -7.0273679,-8.01956 -7.0273679,-8.01956 0,0 -0.9679361,-0.89415 -0.7921831,-2.13165 0.256881,-1.80873 0.956938,-2.2481 3.569551,-2.24033 3.875467,0.0115 4.401021,-2.18268 0.742715,-3.10085 -3.462499,-0.86904 -7.492715,1.90752 -7.492715,5.16198 0,2.29941 6.03903395,7.4292 6.03903395,7.4292 0,0 1.96264805,2.83204 1.28699705,4.59276 -0.437929,1.14123 -1.56299921,1.48164 -3.968615,1.2008 -2.1839102,-0.25496 -3.357416,0.033 -3.357416,0.82391 0,2.83591 6.42020616,1.91906 9,0.38253 z m 10.8310208,2.47048 c -3.399831,-1.84636 -5.2047118,-7.2296 -4.5852862,-13.6761 0.6332812,-6.59069 4.0864432,-10.24893 9.6743882,-10.24893 4.86251,0 7.72266,2.41424 9.15296,7.72598 3.14573,11.68234 -5.16114,21.13064 -14.242062,16.19905 z m 8.917782,-2.00709 c 3.06325,-2.14558 4.60775,-8.42553 3.28256,-13.3469 -1.17625,-4.36827 -2.38149,-5.6643 -6.14623,-6.60918 -4.432822,-1.11257 -8.09352,2.9604 -8.645739,9.61945 -0.400633,4.8311 -0.140283,5.83758 2.242569,8.66944 2.964089,3.52262 5.87115,4.04562 9.26684,1.66719 z m -7.71362,-3.39765 c -1.377094,-2.57312 -1.314135,-8.3594 0.125331,-11.51869 1.334129,-2.92809 4.869469,-3.42077 6.909349,-0.96287 1.70119,2.04981 1.70119,10.78183 0,12.83164 -1.81432,2.18612 -5.783045,1.98862 -7.03468,-0.35008 z m 6.03087,-2.73946 c 1.08529,-2.85454 0.41075,-7.91357 -1.1868,-8.9009 -2.779134,-1.7176 -5.075262,5.2943 -3.272265,9.99283 0.941563,2.45368 3.333745,1.86788 4.459065,-1.09193 z"
       id="path1142"
       inkscape:connector-curvature="0" />
  </g>
</svg>
