<?xml version="1.0" encoding="UTF-8" standalone="no"?>
<!-- Created with Inkscape (http://www.inkscape.org/) -->

<svg
   xmlns:dc="http://purl.org/dc/elements/1.1/"
   xmlns:cc="http://creativecommons.org/ns#"
   xmlns:rdf="http://www.w3.org/1999/02/22-rdf-syntax-ns#"
   xmlns:svg="http://www.w3.org/2000/svg"
   xmlns="http://www.w3.org/2000/svg"
   xmlns:sodipodi="http://sodipodi.sourceforge.net/DTD/sodipodi-0.dtd"
   xmlns:inkscape="http://www.inkscape.org/namespaces/inkscape"
   width="70.418732mm"
   height="20.367338mm"
   viewBox="0 0 70.418732 20.367338"
   version="1.1"
   id="svg8"
   inkscape:version="0.92.4 (unknown)"
   sodipodi:docname="ISOcertified.svg">
  <defs
     id="defs2" />
  <sodipodi:namedview
     id="base"
     pagecolor="#ffffff"
     bordercolor="#666666"
     borderopacity="1.0"
     inkscape:pageopacity="0.0"
     inkscape:pageshadow="2"
     inkscape:zoom="1.4"
     inkscape:cx="275.49083"
     inkscape:cy="51.996824"
     inkscape:document-units="mm"
     inkscape:current-layer="layer1"
     showgrid="false"
     fit-margin-top="0"
     fit-margin-left="0"
     fit-margin-right="0"
     fit-margin-bottom="0"
     inkscape:window-width="1920"
     inkscape:window-height="1012"
     inkscape:window-x="1920"
     inkscape:window-y="0"
     inkscape:window-maximized="1" />
  <metadata
     id="metadata5">
    <rdf:RDF>
      <cc:Work
         rdf:about="">
        <dc:format>image/svg+xml</dc:format>
        <dc:type
           rdf:resource="http://purl.org/dc/dcmitype/StillImage" />
        <dc:title></dc:title>
      </cc:Work>
    </rdf:RDF>
  </metadata>
  <g
     inkscape:label="Layer 1"
     inkscape:groupmode="layer"
     id="layer1"
     transform="translate(373.87603,-80.441331)">
    <g
       id="g854"
       transform="matrix(0.26458333,0,0,0.26458333,-380.6517,76.506572)">
      <path
         sodipodi:nodetypes="cscscccccccccccscssscccccccccccscscsssccscccssssssssssssssssscsccccsssscscccssssssssssscsssssssscccssssscccscsccssssssscsscccsccsssscscsscsccccscsscsssccssccccscssss"
         style="fill:#185ba8;fill-opacity:1"
         d="m 83.937227,89.755664 c 6.07854,-2.14464 13.26169,-7.078787 16.789163,-11.532581 4.22119,-5.329679 2.95749,-6.047276 -1.656193,-0.94048 -2.03176,2.24891 -4.29018,4.088928 -5.01873,4.088928 -2.2764,0 -2.68302,-1.98421 -0.94894,-4.63074 2.33798,-3.568213 1.0927,-4.162529 -1.76372,-0.841742 -2.09366,2.434018 -2.71688,2.641119 -5.30128,1.76164 -1.89005,-0.643186 -2.8245,-1.580488 -2.63487,-2.642902 0.33996,-1.904672 -1.42385,-2.256224 -2.04037,-0.406673 -0.46615,1.398458 -7.66455,1.164922 -9.17968,-0.297814 -0.53646,-0.517911 -1.37805,-0.522636 -2,-0.01123 -1.77828,1.462236 -8.8646,1.69703 -9.32726,0.309044 -0.61652,-1.849551 -2.38033,-1.497999 -2.04037,0.406673 0.18963,1.062414 -0.74482,1.999716 -2.63487,2.642902 -2.5844,0.879479 -3.20762,0.672378 -5.30128,-1.76164 -3.07547,-3.575447 -4.28906,-2.397128 -1.46508,1.422505 l 2.16286,2.925425 -2.17069,0.688951 c -1.71835,0.545382 -2.98598,-0.185075 -6.08302,-3.505267 -4.36593,-4.680507 -6.08591,-4.794427 -2.80423,-0.185733 4.66741,6.554767 14.75698,12.513274 23.96078,14.150314 5.63746,1.0027 13.95528,0.30181 19.45778,-1.63958 z m -17.32841,-0.27032 c -3.33098,-0.63207 -3.37927,-0.69848 -1,-1.37532 3.58239,-1.01909 10.24302,-0.87394 12,0.26151 1.18993,0.76899 0.98322,0.97536 -1,0.99834 -1.375,0.0159 -3.4,0.19786 -4.5,0.40429 -1.1,0.20642 -3.575,0.0765 -5.5,-0.28882 z m -9,-1.81766 c -0.825,-0.30027 -3.01167,-1.456839 -4.85927,-2.570147 -2.81046,-1.693494 -3.09667,-2.171158 -1.75189,-2.923737 1.17467,-0.657378 2.68473,-0.03377 5.60928,2.316459 4.89268,3.931865 5.12836,4.679335 1.00188,3.177425 z m 24,0.4386 c 0,-0.22001 1.80085,-1.847224 4.00188,-3.616025 2.92455,-2.350228 4.43461,-2.973837 5.60928,-2.316459 1.34515,0.752784 1.05933,1.231557 -1.75189,2.934615 -3.35981,2.035399 -7.85927,3.751689 -7.85927,2.997869 z m -23.28198,-4.653598 -3.78199,-2.863205 2.95198,-1.029065 c 2.77008,-0.965654 3.11184,-0.787505 5.54617,2.891024 2.26555,3.423475 2.3707,3.916567 0.83001,3.892271 -0.9703,-0.0153 -3.46608,-1.316262 -5.54617,-2.891025 z m 19.28198,2.476005 c 0,-0.243562 0.90686,-1.979848 2.01524,-3.858415 1.62851,-2.760117 2.49207,-3.324423 4.5,-2.940583 3.31837,0.634348 3.13306,1.645569 -0.85963,4.690947 -3.01157,2.297038 -5.65561,3.282564 -5.65561,2.108051 z m -12.91844,-3.925194 c -2.73936,-4.432381 -2.67824,-4.631966 1.41844,-4.631966 3.41667,0 3.5,0.09524 3.5,4 0,5.047318 -2.02852,5.307961 -4.91844,0.631966 z m 7.5479,0.265328 c -0.81989,-4.099449 -0.1797,-4.897294 3.92956,-4.897294 4.03383,0 4.09446,0.206577 1.35942,4.631966 -2.59655,4.201314 -4.48286,4.295943 -5.28898,0.265328 z m 1.84375,-11.887108 c 4.43432,-1.685927 7.52679,-5.852239 7.52679,-10.140432 0,-5.96099 -3.76905,-9.378527 -13.5,-12.240934 -4.4,-1.294282 -7.775,-2.752746 -7.5,-3.24103 0.90347,-1.604185 7.10227,-0.688298 10.03961,1.483377 1.66196,1.228738 4.37637,2.128833 6.4199,2.128833 h 3.54049 v -6.057355 -6.057354 l -5.25,0.09948 c -2.8875,0.05471 -7.77541,-0.195052 -10.86203,-0.555034 -6.771,-0.789679 -12.19908,1.337411 -14.43202,5.65545 -3.86503,7.474149 0.51741,13.265505 12.79405,16.90722 8.88119,2.634495 10.22254,4.499633 2.71737,3.778481 -3.3278,-0.319759 -5.8314,-1.233975 -7.39058,-2.698748 -1.68485,-1.582829 -3.31694,-2.123395 -5.71737,-1.893657 l -3.35942,0.321517 -0.29772,6.25 -0.29771,6.25 h 4.54771 c 2.50125,0 4.54772,-0.396973 4.54772,-0.882162 0,-0.485189 1.6875,-0.279941 3.75,0.456107 4.52195,1.613756 9.20388,1.774286 12.72321,0.436241 z m 35.355413,-1.018455 c 5.35937,-2.432105 7.71157,-5.224509 9.14665,-10.858404 3.46576,-13.606072 -5.0634,-23.971514 -18.867883,-22.930024 -11.53008,0.869897 -17.10739,6.48228 -17.10739,17.21497 0,9.406724 3.14026,14.442549 10.6838,17.132915 5.3923,1.923133 11.110873,1.724971 16.144823,-0.559457 z M 98.608817,61.64264 c -2.46302,-0.937586 -2.96861,-2.459736 -2.98469,-8.985925 -0.0126,-5.13039 0.3222,-6.395446 1.91895,-7.25 5.338503,-2.857081 9.065743,0.509009 9.065743,8.187322 0,6.631111 -3.2182,9.868864 -8.000003,8.048603 z m -51,4.228891 c 0,-4.133333 -0.2037,-4.5 -2.5,-4.5 -2.47059,0 -2.5,-0.1 -2.5,-8.5 0,-8.4 0.0294,-8.5 2.5,-8.5 2.2963,0 2.5,-0.366667 2.5,-4.5 v -4.5 h -11 -11 v 4.5 c 0,4.133333 0.2037,4.5 2.5,4.5 2.47059,0 2.5,0.1 2.5,8.5 0,8.4 -0.0294,8.5 -2.5,8.5 -2.2963,0 -2.5,0.366667 -2.5,4.5 v 4.5 h 11 11 z m -4.38103,-37.5 c 3.90847,-4.326215 4.14151,-4.436924 6.37162,-3.026978 1.3028,0.82367 1.26418,1.325676 -0.30654,3.984687 -2.18791,3.703844 -1.37785,3.954366 1.61392,0.499124 1.99017,-2.29849 2.50886,-2.435432 5.39124,-1.423367 2.11164,0.741442 3.00466,1.600728 2.64301,2.543167 -0.30041,0.782852 -0.048,1.423367 0.56079,1.423367 0.60885,0 1.10699,-0.45 1.10699,-1 0,-1.255639 4.08898,-1.296869 7.30623,-0.07367 1.55782,0.592282 3.97411,0.536026 6.70048,-0.156001 3.14774,-0.798981 4.74865,-0.779694 6.1151,0.07367 2.42832,1.516513 2.68202,1.466292 2.51708,-0.498278 -0.0874,-1.041443 0.97247,-1.968476 2.86111,-2.50242 2.58734,-0.731477 3.30341,-0.474911 5.20575,1.865199 1.21316,1.492337 2.45696,2.462124 2.764,2.155083 0.30704,-0.307042 -0.36226,-1.728513 -1.48735,-3.158824 l -2.0456,-2.600567 2.11267,-1.130668 c 1.85554,-0.993054 2.58967,-0.613993 6.03174,3.114437 2.155483,2.334809 4.189563,3.974601 4.520183,3.643983 1.37124,-1.371243 -9.204103,-10.920821 -15.512273,-14.007643 -6.08614,-2.978173 -7.35247,-3.224301 -16.58912,-3.224301 -9.10283,0 -10.58316,0.276917 -16.5,3.086563 -5.85497,2.780265 -16,11.389719 -16,13.578197 0,1.535 0.97906,0.864182 4.61897,-3.16476 z m 21.63103,0.294267 c -2.7822,-0.535875 -2.81169,-1.31047 -0.17742,-4.659408 3.09043,-3.928842 4.92742,-3.419903 4.92742,1.365141 0,4.0872 -0.13763,4.182649 -4.75,3.294267 z m 7.36806,-0.0095 c -0.33993,-0.339975 -0.61806,-2.1181 -0.61806,-3.951434 0,-4.52042 3.26443,-4.591219 5.97768,-0.129644 1.07155,1.762029 1.85244,3.27239 1.7353,3.356359 -0.88194,0.632211 -6.60304,1.216562 -7.09492,0.724674 z m -16.08257,-2.193386 c -1.75251,-0.685162 -1.4935,-1.10925 2.40003,-3.929715 6.44556,-4.669134 7.52991,-4.268845 3.98292,1.4703 -2.13794,3.459264 -2.98788,3.786755 -6.38295,2.459415 z m 22.67567,-2.729094 c -2.48169,-3.922791 -2.37062,-4.870631 0.46348,-3.955476 2.40594,0.776896 7.96505,5.272478 7.32331,5.922269 -0.27613,0.279594 -1.62613,0.765483 -3,1.079754 -2.06965,0.473429 -2.89039,-0.04893 -4.78679,-3.046547 z m -28.53813,-0.02259 c -0.82947,-0.829464 1.72549,-2.643713 6.57883,-4.67157 4.85361,-2.027968 4.72037,-0.893174 -0.30316,2.581875 -4.13029,2.857146 -5.16401,3.201358 -6.27567,2.089695 z m 34.71447,-2.426371 c -2.13812,-1.697671 -4.0792,-3.276872 -4.3135,-3.509335 -0.92527,-0.91801 6.59466,2.0515 9.23035,3.644929 2.29963,1.390267 2.50988,1.808389 1.16821,2.323237 -2.17205,0.833493 -1.69657,1.025625 -6.08506,-2.458831 z m -19.1375,-2.891504 c -3.75074,-1.59594 -2.60274,-2.021822 5.45,-2.021822 5.08359,0 7.36347,0.336533 6.7096,0.990402 -1.45393,1.453927 -9.55223,2.140854 -12.1596,1.03142 z"
         id="path827"
         inkscape:connector-curvature="0" />
      <text
         transform="scale(0.95427934,1.0479112)"
         id="text849"
         y="61.424576"
         x="132.07278"
         style="font-style:normal;font-variant:normal;font-weight:normal;font-stretch:normal;font-size:25.79144287px;line-height:1.25;font-family:sans-serif;-inkscape-font-specification:'sans-serif, Normal';font-variant-ligatures:normal;font-variant-caps:normal;font-variant-numeric:normal;text-align:start;letter-spacing:0px;word-spacing:0px;writing-mode:lr-tb;text-anchor:start;fill:#004896;fill-opacity:1;stroke:none;stroke-width:1.93435848"
         xml:space="preserve"><tspan
           style="fill:#004896;fill-opacity:1;stroke-width:1.93435848"
           y="61.424576"
           x="132.07278"
           id="tspan847"
           sodipodi:role="line">9001Certified</tspan></text>
    </g>
  </g>
</svg>
