<?xml version="1.0" encoding="UTF-8" standalone="no"?>
<!-- Created with Inkscape (http://www.inkscape.org/) -->

<svg
   xmlns:dc="http://purl.org/dc/elements/1.1/"
   xmlns:cc="http://creativecommons.org/ns#"
   xmlns:rdf="http://www.w3.org/1999/02/22-rdf-syntax-ns#"
   xmlns:svg="http://www.w3.org/2000/svg"
   xmlns="http://www.w3.org/2000/svg"
   xmlns:xlink="http://www.w3.org/1999/xlink"
   xmlns:sodipodi="http://sodipodi.sourceforge.net/DTD/sodipodi-0.dtd"
   xmlns:inkscape="http://www.inkscape.org/namespaces/inkscape"
   width="85.357269mm"
   height="65.060593mm"
   viewBox="0 0 85.357269 65.060593"
   version="1.1"
   id="svg8"
   inkscape:version="0.92.4 (unknown)"
   sodipodi:docname="ISOsqsIQNet.svg">
  <defs
     id="defs2">
    <circle
       style="opacity:1;fill:none;fill-opacity:1;stroke:none;stroke-width:2.89887643;stroke-linecap:square;stroke-linejoin:miter;stroke-miterlimit:4;stroke-dasharray:none;stroke-dashoffset:0;stroke-opacity:1"
       id="path872"
       cx="-93.262718"
       cy="-349.67383"
       r="45.18644"
       transform="scale(-1)" />
  </defs>
  <sodipodi:namedview
     id="base"
     pagecolor="#ffffff"
     bordercolor="#666666"
     borderopacity="1.0"
     inkscape:pageopacity="0.0"
     inkscape:pageshadow="2"
     inkscape:zoom="0.98994949"
     inkscape:cx="501.15181"
     inkscape:cy="-14.164841"
     inkscape:document-units="mm"
     inkscape:current-layer="layer1"
     showgrid="false"
     fit-margin-top="0"
     fit-margin-left="0"
     fit-margin-right="0"
     fit-margin-bottom="0"
     inkscape:window-width="1920"
     inkscape:window-height="1012"
     inkscape:window-x="1920"
     inkscape:window-y="0"
     inkscape:window-maximized="1" />
  <metadata
     id="metadata5">
    <rdf:RDF>
      <cc:Work
         rdf:about="">
        <dc:format>image/svg+xml</dc:format>
        <dc:type
           rdf:resource="http://purl.org/dc/dcmitype/StillImage" />
        <dc:title></dc:title>
      </cc:Work>
    </rdf:RDF>
  </metadata>
  <g
     inkscape:label="Layer 1"
     inkscape:groupmode="layer"
     id="layer1"
     transform="translate(351.10721,-154.85661)">
    <g
       transform="matrix(0.26458333,0,0,0.26458333,-450.49275,74.754141)"
       id="g1546">
      <rect
         y="302.74948"
         x="375.6304"
         height="245.89832"
         width="322.61017"
         id="rect1370"
         style="opacity:1;fill:#a3abaf;fill-opacity:1;stroke:none;stroke-width:3;stroke-linecap:square;stroke-linejoin:miter;stroke-miterlimit:4;stroke-dasharray:none;stroke-dashoffset:0;stroke-opacity:1" />
      <g
         transform="translate(82.360261,168.99567)"
         id="g1461">
        <g
           id="g1086"
           transform="translate(506.0248,-34.180823)">
          <g
             transform="translate(-330.49153,13.135593)"
             id="g1026">
            <g
               id="g939">
              <circle
                 r="58.584747"
                 cy="329.35486"
                 cx="205.06914"
                 id="path911"
                 style="opacity:1;fill:none;fill-opacity:1;stroke:#ffffff;stroke-width:1;stroke-linecap:square;stroke-linejoin:miter;stroke-miterlimit:4;stroke-dasharray:none;stroke-dashoffset:0;stroke-opacity:1" />
              <path
                 inkscape:connector-curvature="0"
                 id="path932"
                 d="m 168.50125,317.88842 a 38.323483,38.323483 0 0 1 36.56789,-26.85704 38.323483,38.323483 0 0 1 36.56437,26.84584"
                 style="opacity:1;fill:none;fill-opacity:1;stroke:#ffffff;stroke-width:1;stroke-linecap:round;stroke-linejoin:miter;stroke-miterlimit:4;stroke-dasharray:none;stroke-dashoffset:0;stroke-opacity:1" />
              <path
                 inkscape:connector-curvature="0"
                 id="circle913"
                 d="m 241.44956,341.40286 a 38.323483,38.323483 0 0 1 -36.38042,26.27548 38.323483,38.323483 0 0 1 -36.37871,-26.27031"
                 style="opacity:1;fill:none;fill-opacity:1;stroke:#ffffff;stroke-width:1;stroke-linecap:round;stroke-linejoin:miter;stroke-miterlimit:4;stroke-dasharray:none;stroke-dashoffset:0;stroke-opacity:1" />
            </g>
            <g
               id="g1000"
               transform="translate(166.81728,-8.9167365)">
              <text
                 xml:space="preserve"
                 style="font-style:normal;font-variant:normal;font-weight:normal;font-stretch:normal;font-size:13.57685947px;line-height:1.25;font-family:sans-serif;-inkscape-font-specification:'sans-serif, Normal';font-variant-ligatures:normal;font-variant-caps:normal;font-variant-numeric:normal;text-align:start;letter-spacing:0px;word-spacing:0px;writing-mode:lr-tb;text-anchor:start;fill:#ffffff;fill-opacity:1;stroke:none"
                 id="text964"
                 x="115.53069"
                 y="-20.062656"
                 transform="translate(-54.906781,-13.135593)"><textPath
                   xlink:href="#path872"
                   id="textPath962"
                   style="font-size:8px;fill:#ffffff">Zertifiziertes Managementssystem</textPath></text>
              <g
                 aria-label="ISO 9001 / ISO 14001"
                 transform="matrix(1.0365289,0,0,1,-86.465717,-100.68481)"
                 style="font-style:normal;font-variant:normal;font-weight:normal;font-stretch:normal;font-size:13.33333302px;line-height:1.25;font-family:sans-serif;-inkscape-font-specification:'sans-serif, Normal';font-variant-ligatures:normal;font-variant-caps:normal;font-variant-numeric:normal;text-align:start;letter-spacing:0px;word-spacing:0px;writing-mode:lr-tb;text-anchor:start;fill:#ffffff;fill-opacity:1;stroke:none"
                 id="g998">
                <path
                   inkscape:connector-curvature="0"
                   d="m 89.072022,466.87858 0.449322,0.64864 -4.794128,3.32098 -0.449323,-0.64864 z"
                   style="font-size:8px;fill:#ffffff"
                   id="path966" />
                <path
                   inkscape:connector-curvature="0"
                   d="m 92.207216,471.25877 -0.594758,0.48831 q -0.119001,-0.48352 -0.290314,-0.85839 -0.171313,-0.37487 -0.406789,-0.66169 -0.408986,-0.49814 -0.82529,-0.61122 -0.413826,-0.11007 -0.770077,0.18242 -0.298888,0.24539 -0.306618,0.54993 -0.0022,0.30508 0.315642,0.88309 l 0.226925,0.43029 q 0.430366,0.7889 0.366508,1.38212 -0.05836,0.59376 -0.607832,1.04488 -0.65514,0.53788 -1.355167,0.37471 -0.697548,-0.16015 -1.394064,-1.00851 -0.262742,-0.32002 -0.487729,-0.7418 -0.222508,-0.41876 -0.397885,-0.9217 l 0.627968,-0.51557 q 0.09656,0.54238 0.283383,0.98538 0.18682,0.44301 0.469392,0.78718 0.428815,0.5223 0.867111,0.63754 0.438295,0.11524 0.818698,-0.19707 0.332099,-0.27266 0.35073,-0.63164 0.02111,-0.35595 -0.267019,-0.89773 l -0.232423,-0.43084 q -0.424328,-0.79385 -0.384846,-1.33673 0.03948,-0.54288 0.555744,-0.96674 0.597777,-0.49078 1.286492,-0.35371 0.691193,0.1401 1.298475,0.87978 0.260264,0.317 0.47308,0.69317 0.212816,0.37618 0.380663,0.81454 z"
                   style="font-size:8px;fill:#ffffff"
                   id="path968" />
                <path
                   inkscape:connector-curvature="0"
                   d="m 94.259078,473.80177 q -0.624576,-0.59028 -1.43367,-0.47349 -0.806256,0.11948 -1.56557,0.92291 -0.756631,0.80059 -0.830429,1.6123 -0.07096,0.8144 0.553617,1.40468 0.624576,0.59028 1.427992,0.46812 0.806256,-0.11948 1.562887,-0.92007 0.759314,-0.80343 0.833112,-1.61514 0.07664,-0.80903 -0.547939,-1.39931 z m 0.440027,-0.46559 q 0.89144,0.84249 0.859037,1.94593 -0.02972,1.10061 -0.979534,2.10561 -0.947131,1.00216 -2.046991,1.09676 -1.097178,0.0918 -1.988618,-0.75072 -0.894279,-0.84517 -0.867398,-1.94846 0.02972,-1.10061 0.979534,-2.10561 0.949813,-1.005 2.046991,-1.09677 1.102699,-0.0919 1.996979,0.75326 z"
                   style="font-size:8px;fill:#ffffff"
                   id="path970" />
                <path
                   inkscape:connector-curvature="0"
                   d="m 95.757764,481.72282 0.389963,-0.60376 q 0.173083,0.2792 0.388758,0.50686 0.215676,0.22765 0.461775,0.3866 0.656264,0.42388 1.284798,0.20671 0.633935,-0.21832 1.263861,-1.08561 -0.372582,0.15927 -0.762111,0.12158 -0.389528,-0.0377 -0.743911,-0.26657 -0.735016,-0.47474 -0.878754,-1.19535 -0.138338,-0.72178 0.359713,-1.49289 0.487455,-0.75471 1.228307,-0.92258 0.740852,-0.16787 1.482427,0.31111 0.84987,0.54892 0.87437,1.49014 0.0299,0.94005 -0.77121,2.18039 -0.748141,1.15831 -1.746589,1.49461 -0.993048,0.33514 -1.921662,-0.26464 -0.24938,-0.16107 -0.473533,-0.3756 -0.224152,-0.21453 -0.436202,-0.491 z m 2.660651,-1.22509 q 0.446259,0.28824 0.902585,0.1505 0.459607,-0.13561 0.80294,-0.66718 0.34122,-0.5283 0.27582,-1.00301 -0.06,-0.47587 -0.506266,-0.76411 -0.446259,-0.28823 -0.907985,-0.14934 -0.456326,0.13774 -0.797544,0.66603 -0.343338,0.53157 -0.281215,1.00417 0.0654,0.47471 0.511665,0.76294 z"
                   style="font-size:8px;fill:#ffffff"
                   id="path972" />
                <path
                   inkscape:connector-curvature="0"
                   d="m 103.87601,480.4842 q -0.54593,-0.27075 -1.08966,0.13108 -0.5385,0.40006 -1.07304,1.47791 -0.5328,1.07436 -0.52711,1.74866 0.0109,0.67253 0.55685,0.94328 0.54943,0.27247 1.08793,-0.12759 0.54373,-0.40182 1.07654,-1.47617 0.53454,-1.07786 0.52361,-1.7504 -0.006,-0.6743 -0.55512,-0.94677 z m 0.27769,-0.55993 q 0.87838,0.43562 0.99495,1.36111 0.1218,0.92374 -0.53422,2.24656 -0.6543,1.31933 -1.4651,1.78491 -0.80558,0.46382 -1.68396,0.0282 -0.87838,-0.43562 -1.00019,-1.35935 -0.11657,-0.92549 0.53773,-2.24482 0.65602,-1.32282 1.4616,-1.78664 0.8108,-0.46559 1.68919,-0.03 z"
                   style="font-size:8px;fill:#ffffff"
                   id="path974" />
                <path
                   inkscape:connector-curvature="0"
                   d="m 108.00747,482.25111 q -0.57288,-0.20771 -1.06804,0.25264 -0.49016,0.458 -0.90026,1.58908 -0.40876,1.1274 -0.32737,1.79679 0.0864,0.66706 0.65927,0.87477 0.57656,0.20904 1.06672,-0.24897 0.49516,-0.46035 0.90393,-1.58775 0.4101,-1.13107 0.3237,-1.79812 -0.0814,-0.6694 -0.65795,-0.87844 z m 0.21304,-0.58757 q 0.92176,0.3342 1.14153,1.24075 0.22479,0.90421 -0.27852,2.29234 -0.50197,1.38447 -1.25535,1.93817 -0.74838,0.55136 -1.67013,0.21716 -0.92176,-0.3342 -1.14654,-1.23841 -0.21978,-0.90655 0.28219,-2.29101 0.50331,-1.38814 1.25169,-1.9395 0.75338,-0.55371 1.67513,-0.2195 z"
                   style="font-size:8px;fill:#ffffff"
                   id="path976" />
                <path
                   inkscape:connector-curvature="0"
                   d="m 109.71968,487.70227 1.25343,0.301 1.0389,-4.32623 -1.42925,-0.054 0.16782,-0.69888 1.42166,0.0521 0.76725,0.18424 -1.20673,5.02511 1.25343,0.301 -0.15506,0.64571 -3.26651,-0.78442 z"
                   style="font-size:8px;fill:#ffffff"
                   id="path978" />
                <path
                   inkscape:connector-curvature="0"
                   d="m 118.65232,484.02476 0.66114,0.0622 -2.63847,6.35491 -0.66114,-0.0622 z"
                   style="font-size:8px;fill:#ffffff"
                   id="path980" />
                <path
                   inkscape:connector-curvature="0"
                   d="m 122.00024,484.13572 0.78894,-0.0144 0.10616,5.83106 -0.78893,0.0144 z"
                   style="font-size:8px;fill:#ffffff"
                   id="path982" />
                <path
                   inkscape:connector-curvature="0"
                   d="m 127.37879,483.9519 0.0773,0.76564 q -0.46853,-0.16864 -0.87555,-0.23355 -0.40702,-0.0649 -0.77623,-0.0276 -0.64127,0.0647 -0.96594,0.34879 -0.32079,0.28366 -0.27449,0.74227 0.0388,0.38476 0.28816,0.55982 0.25281,0.17078 0.91013,0.22612 l 0.48397,0.0493 q 0.89522,0.0784 1.35384,0.46008 0.46212,0.37736 0.53353,1.0847 0.0851,0.84337 -0.43833,1.33595 -0.51959,0.49218 -1.6117,0.60244 -0.41196,0.0416 -0.88776,-0.005 -0.47191,-0.0466 -0.98782,-0.17902 l -0.0816,-0.80839 q 0.50511,0.21991 0.97745,0.30963 0.47234,0.0897 0.9154,0.045 0.67237,-0.0679 1.01101,-0.36905 0.33865,-0.30117 0.28921,-0.79087 -0.0432,-0.42751 -0.33177,-0.64179 -0.28473,-0.21467 -0.89541,-0.27473 l -0.48745,-0.045 q -0.89601,-0.0862 -1.32621,-0.41968 -0.43021,-0.33348 -0.49731,-0.99807 -0.0777,-0.76952 0.4178,-1.26712 0.49938,-0.498 1.45157,-0.59413 0.40808,-0.0412 0.83916,-0.0101 0.43108,0.0311 0.88906,0.13403 z"
                   style="font-size:8px;fill:#ffffff"
                   id="path984" />
                <path
                   inkscape:connector-curvature="0"
                   d="m 130.63047,483.65032 q -0.8373,0.19355 -1.18777,0.93209 -0.34668,0.73766 -0.0977,1.81472 0.24811,1.07326 0.88335,1.58393 0.63905,0.50979 1.47635,0.31624 0.83729,-0.19356 1.18016,-0.93033 0.34667,-0.73766 0.0986,-1.81092 -0.24898,-1.07707 -0.88423,-1.58774 -0.63144,-0.51155 -1.46873,-0.31799 z m -0.14429,-0.62417 q 1.19505,-0.27626 2.09619,0.36139 0.90026,0.63383 1.21171,1.98111 0.31057,1.34348 -0.2193,2.31192 -0.53075,0.96464 -1.7258,1.24089 -1.19885,0.27714 -2.10292,-0.35581 -0.90026,-0.63384 -1.21171,-1.98112 -0.31145,-1.34728 0.2193,-2.31192 0.53368,-0.96932 1.73253,-1.24646 z"
                   style="font-size:8px;fill:#ffffff"
                   id="path986" />
                <path
                   inkscape:connector-curvature="0"
                   d="m 137.94432,486.24235 1.18183,-0.51475 -1.77669,-4.07909 -1.17337,0.81784 -0.28701,-0.65895 1.16621,-0.81473 0.72342,-0.31509 2.06369,4.73804 1.18183,-0.51475 0.26517,0.60882 -3.0799,1.34148 z"
                   style="font-size:8px;fill:#ffffff"
                   id="path988" />
                <path
                   inkscape:connector-curvature="0"
                   d="m 142.02289,479.24306 -0.17025,3.6922 1.72572,-0.99534 z m -0.52282,-0.49211 0.85947,-0.49571 1.89896,3.2924 0.72074,-0.4157 0.32787,0.56847 -0.72074,0.4157 0.68698,1.19109 -0.68013,0.39228 -0.68698,-1.19109 -2.28066,1.31541 -0.38057,-0.65983 z"
                   style="font-size:8px;fill:#ffffff"
                   id="path990" />
                <path
                   inkscape:connector-curvature="0"
                   d="m 145.29141,476.87583 q -0.49084,0.36113 -0.38292,1.02855 0.10875,0.66197 0.82174,1.63108 0.71066,0.96595 1.31258,1.26995 0.60274,0.29853 1.09359,-0.0626 0.49399,-0.36344 0.38524,-1.02541 -0.10793,-0.66742 -0.81859,-1.63338 -0.71299,-0.96911 -1.31573,-1.26764 -0.60192,-0.30399 -1.09591,0.0594 z m -0.37038,-0.50343 q 0.78976,-0.58103 1.66575,-0.26045 0.87682,0.31511 1.75185,1.50447 0.87271,1.18621 0.91489,2.12023 0.043,0.92856 -0.74674,1.5096 -0.78976,0.58103 -1.66658,0.26592 -0.87599,-0.32058 -1.7487,-1.50679 -0.87503,-1.18936 -0.91804,-2.11792 -0.0422,-0.93402 0.74757,-1.51506 z"
                   style="font-size:8px;fill:#ffffff"
                   id="path992" />
                <path
                   inkscape:connector-curvature="0"
                   d="m 148.75737,474.01438 q -0.44727,0.41387 -0.2652,1.06499 0.18228,0.6456 0.99941,1.52867 0.81448,0.8802 1.44668,1.11479 0.63241,0.22908 1.07968,-0.18479 0.45013,-0.41653 0.26785,-1.06213 -0.18206,-0.65112 -0.99654,-1.53132 -0.81713,-0.88307 -1.44955,-1.11214 -0.6322,-0.2346 -1.08233,0.18193 z m -0.42449,-0.45874 q 0.71964,-0.66591 1.62605,-0.44556 0.90663,0.21484 1.90947,1.2986 1.00019,1.08089 1.14682,2.0043 0.14685,0.91788 -0.5728,1.58379 -0.71964,0.66591 -1.62626,0.45108 -0.90641,-0.22035 -1.9066,-1.30125 -1.00284,-1.08376 -1.14969,-2.00164 -0.14663,-0.92341 0.57301,-1.58932 z"
                   style="font-size:8px;fill:#ffffff"
                   id="path994" />
                <path
                   inkscape:connector-curvature="0"
                   d="m 154.38582,474.99234 0.84101,-0.97693 -3.37187,-2.90276 -0.70177,1.24627 -0.54471,-0.46893 0.69667,-1.24035 0.51481,-0.598 3.91658,3.3717 0.84101,-0.97693 0.50326,0.43325 -2.19173,2.54592 z"
                   style="font-size:8px;fill:#ffffff"
                   id="path996" />
              </g>
            </g>
          </g>
          <path
             style="fill:#ffffff"
             d="m -89.797621,353.29527 c 1.25699,-0.91914 1.76153,-2.65805 1.76153,-6.07116 0,-6.59363 -1.51357,-7.5 -12.524459,-7.5 -7.16344,0 -8.80887,-0.28019 -8.80887,-1.5 0,-1.2 1.5,-1.5 7.5,-1.5 4.333329,0 7.499999,0.42222 7.499999,1 0,0.55 1.35,1 3,1 2.49213,0 3,-0.40249 3,-2.37756 0,-1.30765 -0.61562,-2.88847 -1.36805,-3.51293 -0.97751,-0.81126 -11.468899,-1.06032 -36.749999,-0.87245 l -35.38195,0.26294 -0.95027,3.84785 c -0.72593,2.93946 -0.59952,4.47396 0.53547,6.5 1.41831,2.5318 1.90387,2.6652 10.70026,2.93968 7.28789,0.2274 9.21454,0.59331 9.21454,1.75 0,1.13991 -1.49977,1.46247 -6.8,1.46247 -3.74,0 -7.2881,-0.4881 -7.88466,-1.08466 -0.59657,-0.59657 -2.14907,-0.93261 -3.45,-0.74677 -1.83619,0.26231 -2.30533,0.87845 -2.09709,2.75419 0.5631,5.07221 0.0597,5.0041 36.72805,4.96916 26.371439,-0.0251 34.721699,-0.33084 36.075499,-1.32076 z m -70.905129,-1.23783 c -0.36667,-0.36666 -0.66667,-1.49166 -0.66667,-2.5 0,-1.94007 2.45477,-2.52454 3.5,-0.83333 0.33992,0.55 4.2056,1 8.5904,1 6.19389,0 8.10187,-0.33746 8.55286,-1.51273 1.29544,-3.37588 -1.50776,-4.48727 -11.31796,-4.48727 h -9.42982 l 0.30226,-5.25 0.30226,-5.25 h 11.5 c 11.16458,0 11.50932,0.0656 11.81955,2.25 0.32966,2.32119 -2.09357,3.23367 -3.31955,1.25 -0.33992,-0.55 -4.14333,-1 -8.45203,-1 -6.31234,0 -7.95524,0.31597 -8.45823,1.62675 -1.28896,3.35897 1.2447,4.37325 10.9243,4.37325 9.1738,0 9.27593,0.027 9.92882,2.62835 0.36282,1.44559 0.37585,3.92059 0.0289,5.5 l -0.63072,2.87165 h -11.25388 c -6.18963,0 -11.55388,-0.3 -11.92054,-0.66667 z m 25.05733,-3.31223 c 0.36707,-2.73674 0.0252,-4.75495 -1.09516,-6.46481 -2.02497,-3.09049 -2.03144,-3.55629 -0.0494,-3.55629 1.2347,0 1.43563,-0.65481 0.92054,-3 l -0.65891,-3 h 11.02044 c 6.96271,0 11.27175,0.40664 11.70298,1.10439 1.25089,2.02397 1.64067,13.35695 0.55531,16.14561 l -1.07032,2.75 h -10.92959 -10.9296 z m 16.86046,0.23003 c -0.41188,-0.41188 -3.47016,-0.59212 -6.79617,-0.40053 -6.82946,0.3934 -7.75766,-0.30663 -7.75766,-5.8506 0,-5.52077 0.86153,-6.14089 8.06043,-5.80184 l 6.40894,0.30184 0.31842,3.31788 c 0.31693,3.30235 0.30702,3.31042 -2.11681,1.72226 -2.31783,-1.5187 -2.51397,-1.47546 -4.06842,0.89693 -1.53741,2.34638 -1.51975,2.55327 0.30107,3.52775 2.84027,1.52006 3.87021,1.20184 1.61949,-0.50037 -1.46173,-1.10549 -1.66123,-1.75697 -0.80135,-2.61685 0.85988,-0.85988 1.77132,-0.73447 3.66107,0.50375 1.38389,0.90676 2.757,1.64865 3.05135,1.64865 0.88227,0 0.60489,-4.68646 -0.44007,-7.4349 -0.91538,-2.40763 -1.39421,-2.5651 -7.8,-2.5651 -3.9748,0 -7.32586,0.50111 -8.02475,1.2 -1.25544,1.25544 -1.63812,8.49471 -0.59301,11.21821 0.47942,1.24936 2.19572,1.58179 8.16667,1.58179 4.15782,0 7.22268,-0.33699 6.8108,-0.74887 z m 6.41554,2.28162 c 0,-1.26944 1.632,-1.53275 9.5,-1.53275 9.353399,0 9.499999,-0.0369 9.499999,-2.39301 0,-3.07953 -1.5474,-3.60699 -10.581789,-3.60699 h -7.41821 v -3.56574 c 0,-1.96116 -0.46583,-4.43616 -1.03518,-5.5 -0.99539,-1.8599 -0.59584,-1.93426 10.39301,-1.93426 11.578709,0 12.642169,0.34336 12.642169,4.08179 0,1.25495 -3.35621,1.162 -4.6469,-0.12869 -0.59933,-0.59933 -4.21187,-0.91997 -8.449999,-0.75 -7.1508,0.28678 -7.4031,0.3821 -7.4031,2.7969 0,2.46667 0.13333,2.50667 9.999999,3 l 10,0.5 v 5 5 l -11.249999,0.28275 c -9.56315,0.24036 -11.25,0.0529 -11.25,-1.25 z m 1.66667,-3.19942 c -1.79056,-1.79056 0.0316,-2.33333 7.83333,-2.33333 6.888889,0 8.499999,0.28431 8.499999,1.5 0,1.20567 -1.53704,1.5 -7.833329,1.5 -4.30834,0 -8.13334,-0.3 -8.5,-0.66667 z m -45.66667,-9.83333 c 0,-1.18116 1.39683,-1.5 6.57143,-1.5 4.50794,0 7.04244,0.47101 8.07143,1.5 1.33333,1.33333 0.60317,1.5 -6.57143,1.5 -6.50794,0 -8.07143,-0.29056 -8.07143,-1.5 z"
             id="path1058"
             inkscape:connector-curvature="0"
             sodipodi:nodetypes="cssssssssscsccssscscccssssscccscsscscccsccccsscsccccccsssscscsccscscsscsssssscsssssssscccsscssscsssss" />
        </g>
        <g
           id="g1310"
           transform="translate(-270.0678,6.3050848)">
          <g
             id="g950">
            <rect
               y="313.50488"
               x="759.88672"
               height="1.8634537"
               width="80.733025"
               id="rect926"
               style="opacity:1;fill:#ffffff;fill-opacity:1;stroke:none;stroke-width:2.50747228;stroke-linecap:square;stroke-linejoin:miter;stroke-miterlimit:4;stroke-dasharray:none;stroke-dashoffset:0;stroke-opacity:1" />
            <path
               style="opacity:1;fill:#004896;fill-opacity:1;stroke:none;stroke-width:1.08483446;stroke-linecap:round;stroke-linejoin:miter;stroke-miterlimit:4;stroke-dasharray:none;stroke-dashoffset:0;stroke-opacity:1"
               d="m 800.2522,239.98328 a 58.845196,58.845196 0 0 0 -58.72658,55.49609 h 17.91408 a 40.980789,40.980789 0 0 1 40.8125,-37.63086 40.980789,40.980789 0 0 1 40.82421,37.63086 h 17.85352 A 58.845196,58.845196 0 0 0 800.2522,239.98328 Z m -58.67774,62.19531 a 58.845196,58.845196 0 0 0 58.67774,55.49609 58.845196,58.845196 0 0 0 58.72851,-55.49609 H 841.0647 a 40.980789,40.980789 0 0 1 -40.8125,37.63086 40.980789,40.980789 0 0 1 -40.82227,-37.63086 z"
               id="circle1138"
               inkscape:connector-curvature="0" />
            <path
               inkscape:connector-curvature="0"
               style="opacity:1;fill:#ffffff;fill-opacity:1;stroke:none;stroke-width:1.62113154;stroke-linecap:square;stroke-linejoin:miter;stroke-miterlimit:4;stroke-dasharray:none;stroke-dashoffset:0;stroke-opacity:1"
               d="m 741.17602,297.84363 v 1.9707 h 17.87695 a 41.377121,41.377121 0 0 1 0.1582,-1.9707 z m 100.17187,0 a 41.377121,41.377121 0 0 1 0.22461,1.9707 h 17.75781 v -1.9707 z"
               id="rect874" />
            <rect
               style="opacity:1;fill:#004896;fill-opacity:1;stroke:none;stroke-width:3.33071375;stroke-linecap:square;stroke-linejoin:miter;stroke-miterlimit:4;stroke-dasharray:none;stroke-dashoffset:0;stroke-opacity:1"
               id="rect924"
               width="79.246902"
               height="3.3495765"
               x="760.62976"
               y="288.42654" />
          </g>
          <text
             transform="scale(0.97445914,1.0262103)"
             id="text954"
             y="302.56586"
             x="785.26727"
             style="font-style:normal;font-variant:normal;font-weight:normal;font-stretch:normal;font-size:12.99278831px;line-height:1.25;font-family:sans-serif;-inkscape-font-specification:'sans-serif, Normal';font-variant-ligatures:normal;font-variant-caps:normal;font-variant-numeric:normal;text-align:start;letter-spacing:0px;word-spacing:0px;writing-mode:lr-tb;text-anchor:start;fill:#ffffff;fill-opacity:1;stroke:none;stroke-width:0.97445917"
             xml:space="preserve"><tspan
               style="font-style:normal;font-variant:normal;font-weight:bold;font-stretch:normal;font-size:23.38702011px;font-family:sans-serif;-inkscape-font-specification:'sans-serif Bold';fill:#ffffff;stroke-width:0.97445917"
               y="302.56586"
               x="785.26727"
               id="tspan952"
               sodipodi:role="line">I  Net</tspan></text>
          <g
             id="g1147">
            <path
               inkscape:transform-center-y="-0.12087554"
               inkscape:transform-center-x="-0.060722237"
               d="m 776.18363,299.24487 -0.77572,-0.51316 -0.86546,0.34066 0.24833,-0.89633 -0.59143,-0.71783 0.9292,-0.0408 0.49993,-0.78431 0.32595,0.87111 0.9004,0.23311 -0.72775,0.57918 z"
               inkscape:randomized="0"
               inkscape:rounded="0"
               inkscape:flatsided="false"
               sodipodi:arg2="1.6755161"
               sodipodi:arg1="1.0471976"
               sodipodi:r2="0.7064057"
               sodipodi:r1="1.40376"
               sodipodi:cy="298.02917"
               sodipodi:cx="775.48175"
               sodipodi:sides="5"
               id="path958"
               style="opacity:1;fill:#004896;fill-opacity:1;stroke:none;stroke-width:3.40554237;stroke-linecap:square;stroke-linejoin:miter;stroke-miterlimit:4;stroke-dasharray:none;stroke-dashoffset:0;stroke-opacity:1"
               sodipodi:type="star" />
            <path
               inkscape:transform-center-y="-0.12087554"
               inkscape:transform-center-x="-0.060722237"
               d="m 779.0153,296.14584 -0.77572,-0.51316 -0.86546,0.34066 0.24833,-0.89632 -0.59143,-0.71784 0.92919,-0.0408 0.49994,-0.7843 0.32594,0.8711 0.90041,0.23311 -0.72775,0.57918 z"
               inkscape:randomized="0"
               inkscape:rounded="0"
               inkscape:flatsided="false"
               sodipodi:arg2="1.6755161"
               sodipodi:arg1="1.0471976"
               sodipodi:r2="0.7064057"
               sodipodi:r1="1.40376"
               sodipodi:cy="294.93015"
               sodipodi:cx="778.31342"
               sodipodi:sides="5"
               id="path960"
               style="opacity:1;fill:#004896;fill-opacity:1;stroke:none;stroke-width:3.40554237;stroke-linecap:square;stroke-linejoin:miter;stroke-miterlimit:4;stroke-dasharray:none;stroke-dashoffset:0;stroke-opacity:1"
               sodipodi:type="star" />
            <path
               inkscape:transform-center-y="-0.12084503"
               inkscape:transform-center-x="-0.060722237"
               d="m 782.85398,295.44851 -0.77572,-0.51316 -0.86546,0.34067 0.24833,-0.89633 -0.59143,-0.71783 0.9292,-0.0408 0.49993,-0.7843 0.32595,0.87111 0.9004,0.2331 -0.72775,0.57918 z"
               inkscape:randomized="0"
               inkscape:rounded="0"
               inkscape:flatsided="false"
               sodipodi:arg2="1.6755161"
               sodipodi:arg1="1.0471976"
               sodipodi:r2="0.7064057"
               sodipodi:r1="1.40376"
               sodipodi:cy="294.23282"
               sodipodi:cx="782.1521"
               sodipodi:sides="5"
               id="path962"
               style="opacity:1;fill:#004896;fill-opacity:1;stroke:none;stroke-width:3.40554237;stroke-linecap:square;stroke-linejoin:miter;stroke-miterlimit:4;stroke-dasharray:none;stroke-dashoffset:0;stroke-opacity:1"
               sodipodi:type="star" />
            <path
               inkscape:transform-center-y="-0.12084503"
               inkscape:transform-center-x="-0.060789375"
               d="m 786.77305,296.09017 -0.77572,-0.51315 -0.86546,0.34066 0.24833,-0.89633 -0.59143,-0.71783 0.92919,-0.0408 0.49994,-0.78431 0.32594,0.87111 0.90041,0.2331 -0.72775,0.57918 z"
               inkscape:randomized="0"
               inkscape:rounded="0"
               inkscape:flatsided="false"
               sodipodi:arg2="1.6755161"
               sodipodi:arg1="1.0471976"
               sodipodi:r2="0.7064057"
               sodipodi:r1="1.40376"
               sodipodi:cy="294.87448"
               sodipodi:cx="786.07117"
               sodipodi:sides="5"
               id="path964"
               style="opacity:1;fill:#004896;fill-opacity:1;stroke:none;stroke-width:3.40554237;stroke-linecap:square;stroke-linejoin:miter;stroke-miterlimit:4;stroke-dasharray:none;stroke-dashoffset:0;stroke-opacity:1"
               sodipodi:type="star" />
            <path
               inkscape:transform-center-y="-0.12084503"
               inkscape:transform-center-x="-0.060722237"
               d="m 789.54001,299.20702 -0.77571,-0.51315 -0.86546,0.34066 0.24833,-0.89633 -0.59143,-0.71783 0.92919,-0.0408 0.49994,-0.78431 0.32594,0.87111 0.90041,0.2331 -0.72775,0.57918 z"
               inkscape:randomized="0"
               inkscape:rounded="0"
               inkscape:flatsided="false"
               sodipodi:arg2="1.6755161"
               sodipodi:arg1="1.0471976"
               sodipodi:r2="0.7064057"
               sodipodi:r1="1.40376"
               sodipodi:cy="297.99133"
               sodipodi:cx="788.83813"
               sodipodi:sides="5"
               id="path967"
               style="opacity:1;fill:#004896;fill-opacity:1;stroke:none;stroke-width:3.40554237;stroke-linecap:square;stroke-linejoin:miter;stroke-miterlimit:4;stroke-dasharray:none;stroke-dashoffset:0;stroke-opacity:1"
               sodipodi:type="star" />
            <path
               inkscape:transform-center-y="-0.12084503"
               inkscape:transform-center-x="-0.060722237"
               d="m 790.29313,303.00118 -0.77572,-0.51315 -0.86546,0.34066 0.24833,-0.89633 -0.59143,-0.71783 0.92919,-0.0408 0.49994,-0.78431 0.32595,0.87111 0.9004,0.2331 -0.72775,0.57918 z"
               inkscape:randomized="0"
               inkscape:rounded="0"
               inkscape:flatsided="false"
               sodipodi:arg2="1.6755161"
               sodipodi:arg1="1.0471976"
               sodipodi:r2="0.7064057"
               sodipodi:r1="1.40376"
               sodipodi:cy="301.78549"
               sodipodi:cx="789.59125"
               sodipodi:sides="5"
               id="path969"
               style="opacity:1;fill:#004896;fill-opacity:1;stroke:none;stroke-width:3.40554237;stroke-linecap:square;stroke-linejoin:miter;stroke-miterlimit:4;stroke-dasharray:none;stroke-dashoffset:0;stroke-opacity:1"
               sodipodi:type="star" />
            <path
               inkscape:transform-center-y="-0.12919104"
               inkscape:transform-center-x="-0.064907061"
               d="m 789.14605,307.18072 -0.8291,-0.54847 -0.925,0.3641 0.26541,-0.958 -0.63212,-0.76722 0.99313,-0.0436 0.53433,-0.83827 0.34837,0.93105 0.96236,0.24914 -0.77782,0.61903 z"
               inkscape:randomized="0"
               inkscape:rounded="0"
               inkscape:flatsided="false"
               sodipodi:arg2="1.6755161"
               sodipodi:arg1="1.0471976"
               sodipodi:r2="0.75501043"
               sodipodi:r1="1.5003465"
               sodipodi:cy="305.88138"
               sodipodi:cx="788.39587"
               sodipodi:sides="5"
               id="path971"
               style="opacity:1;fill:#004896;fill-opacity:1;stroke:none;stroke-width:3.63986301;stroke-linecap:square;stroke-linejoin:miter;stroke-miterlimit:4;stroke-dasharray:none;stroke-dashoffset:0;stroke-opacity:1"
               sodipodi:type="star" />
            <path
               inkscape:transform-center-y="-0.12084503"
               inkscape:transform-center-x="-0.060722237"
               d="m 775.15867,303.1148 -0.77572,-0.51316 -0.86546,0.34067 0.24833,-0.89633 -0.59143,-0.71783 0.92919,-0.0408 0.49994,-0.7843 0.32594,0.87111 0.90041,0.2331 -0.72775,0.57918 z"
               inkscape:randomized="0"
               inkscape:rounded="0"
               inkscape:flatsided="false"
               sodipodi:arg2="1.6755161"
               sodipodi:arg1="1.0471976"
               sodipodi:r2="0.7064057"
               sodipodi:r1="1.40376"
               sodipodi:cy="301.89911"
               sodipodi:cx="774.45679"
               sodipodi:sides="5"
               id="path973"
               style="opacity:1;fill:#004896;fill-opacity:1;stroke:none;stroke-width:3.40554237;stroke-linecap:square;stroke-linejoin:miter;stroke-miterlimit:4;stroke-dasharray:none;stroke-dashoffset:0;stroke-opacity:1"
               sodipodi:type="star" />
            <path
               inkscape:transform-center-y="-0.12084503"
               inkscape:transform-center-x="-0.060722237"
               d="m 776.08781,306.97802 -0.77572,-0.51315 -0.86546,0.34066 0.24833,-0.89633 -0.59143,-0.71783 0.92919,-0.0408 0.49994,-0.7843 0.32594,0.87111 0.90041,0.2331 -0.72775,0.57918 z"
               inkscape:randomized="0"
               inkscape:rounded="0"
               inkscape:flatsided="false"
               sodipodi:arg2="1.6755161"
               sodipodi:arg1="1.0471976"
               sodipodi:r2="0.7064057"
               sodipodi:r1="1.40376"
               sodipodi:cy="305.76233"
               sodipodi:cx="775.38593"
               sodipodi:sides="5"
               id="path975"
               style="opacity:1;fill:#004896;fill-opacity:1;stroke:none;stroke-width:3.40554237;stroke-linecap:square;stroke-linejoin:miter;stroke-miterlimit:4;stroke-dasharray:none;stroke-dashoffset:0;stroke-opacity:1"
               sodipodi:type="star" />
            <path
               inkscape:transform-center-y="-0.12087554"
               inkscape:transform-center-x="-0.060722237"
               d="m 778.9885,309.71612 -0.77572,-0.51316 -0.86546,0.34066 0.24833,-0.89632 -0.59143,-0.71783 0.9292,-0.0408 0.49993,-0.7843 0.32595,0.87111 0.90041,0.2331 -0.72776,0.57918 z"
               inkscape:randomized="0"
               inkscape:rounded="0"
               inkscape:flatsided="false"
               sodipodi:arg2="1.6755161"
               sodipodi:arg1="1.0471976"
               sodipodi:r2="0.7064057"
               sodipodi:r1="1.40376"
               sodipodi:cy="308.50043"
               sodipodi:cx="778.28662"
               sodipodi:sides="5"
               id="path977"
               style="opacity:1;fill:#004896;fill-opacity:1;stroke:none;stroke-width:3.40554237;stroke-linecap:square;stroke-linejoin:miter;stroke-miterlimit:4;stroke-dasharray:none;stroke-dashoffset:0;stroke-opacity:1"
               sodipodi:type="star" />
            <path
               inkscape:transform-center-y="-0.12087554"
               inkscape:transform-center-x="-0.060789375"
               d="m 782.89854,310.87466 -0.77572,-0.51316 -0.86546,0.34066 0.24833,-0.89632 -0.59143,-0.71783 0.92919,-0.0408 0.49994,-0.7843 0.32594,0.8711 0.90041,0.23311 -0.72775,0.57918 z"
               inkscape:randomized="0"
               inkscape:rounded="0"
               inkscape:flatsided="false"
               sodipodi:arg2="1.6755161"
               sodipodi:arg1="1.0471976"
               sodipodi:r2="0.7064057"
               sodipodi:r1="1.40376"
               sodipodi:cy="309.65897"
               sodipodi:cx="782.19666"
               sodipodi:sides="5"
               id="path979"
               style="opacity:1;fill:#004896;fill-opacity:1;stroke:none;stroke-width:3.40554237;stroke-linecap:square;stroke-linejoin:miter;stroke-miterlimit:4;stroke-dasharray:none;stroke-dashoffset:0;stroke-opacity:1"
               sodipodi:type="star" />
            <path
               inkscape:transform-center-y="-0.12087554"
               inkscape:transform-center-x="-0.060722237"
               d="m 786.83304,309.62704 -0.77571,-0.51316 -0.86546,0.34066 0.24833,-0.89632 -0.59143,-0.71783 0.92919,-0.0408 0.49994,-0.7843 0.32594,0.8711 0.90041,0.23311 -0.72775,0.57918 z"
               inkscape:randomized="0"
               inkscape:rounded="0"
               inkscape:flatsided="false"
               sodipodi:arg2="1.6755161"
               sodipodi:arg1="1.0471976"
               sodipodi:r2="0.7064057"
               sodipodi:r1="1.40376"
               sodipodi:cy="308.41135"
               sodipodi:cx="786.13116"
               sodipodi:sides="5"
               id="path981"
               style="opacity:1;fill:#004896;fill-opacity:1;stroke:none;stroke-width:3.40554237;stroke-linecap:square;stroke-linejoin:miter;stroke-miterlimit:4;stroke-dasharray:none;stroke-dashoffset:0;stroke-opacity:1"
               sodipodi:type="star" />
            <path
               inkscape:transform-center-y="-0.12084503"
               inkscape:transform-center-x="-0.060789375"
               d="m 784.25986,306.21386 -0.77572,-0.51316 -0.86546,0.34067 0.24833,-0.89633 -0.59143,-0.71783 0.9292,-0.0408 0.49994,-0.7843 0.32594,0.87111 0.90041,0.2331 -0.72775,0.57918 z"
               inkscape:randomized="0"
               inkscape:rounded="0"
               inkscape:flatsided="false"
               sodipodi:arg2="1.6755161"
               sodipodi:arg1="1.0471976"
               sodipodi:r2="0.7064057"
               sodipodi:r1="1.40376"
               sodipodi:cy="304.99817"
               sodipodi:cx="783.55798"
               sodipodi:sides="5"
               id="path983"
               style="opacity:1;fill:#004896;fill-opacity:1;stroke:none;stroke-width:3.40554237;stroke-linecap:square;stroke-linejoin:miter;stroke-miterlimit:4;stroke-dasharray:none;stroke-dashoffset:0;stroke-opacity:1"
               sodipodi:type="star" />
            <path
               sodipodi:type="star"
               style="opacity:1;fill:#004896;fill-opacity:1;stroke:none;stroke-width:3.40554237;stroke-linecap:square;stroke-linejoin:miter;stroke-miterlimit:4;stroke-dasharray:none;stroke-dashoffset:0;stroke-opacity:1"
               id="path956"
               sodipodi:sides="5"
               sodipodi:cx="788.22992"
               sodipodi:cy="311.37"
               sodipodi:r1="1.40376"
               sodipodi:r2="0.7064057"
               sodipodi:arg1="1.0471976"
               sodipodi:arg2="1.6755161"
               inkscape:flatsided="false"
               inkscape:rounded="0"
               inkscape:randomized="0"
               d="m 788.9318,312.58569 -0.77572,-0.51316 -0.86546,0.34066 0.24833,-0.89632 -0.59143,-0.71784 0.9292,-0.0408 0.49993,-0.7843 0.32595,0.8711 0.9004,0.23311 -0.72775,0.57918 z"
               inkscape:transform-center-x="-0.060722237"
               inkscape:transform-center-y="-0.12087554" />
          </g>
          <g
             transform="translate(272.70353,-10.031329)"
             id="text1181"
             style="font-style:normal;font-variant:normal;font-weight:normal;font-stretch:normal;font-size:13.33333302px;line-height:1.25;font-family:sans-serif;-inkscape-font-specification:'sans-serif, Normal';font-variant-ligatures:normal;font-variant-caps:normal;font-variant-numeric:normal;text-align:start;letter-spacing:0px;word-spacing:0px;writing-mode:lr-tb;text-anchor:start;fill:#ffffff;fill-opacity:1;stroke:none"
             inkscape:transform-center-y="-10.508475"
             inkscape:transform-center-x="-33.62712"
             aria-label="CERTIFIED">
            <path
               inkscape:connector-curvature="0"
               id="path1194"
               style="font-size:10.66666698px;letter-spacing:3px;fill:#ffffff"
               d="m 492.62277,269.03047 0.77825,0.79058 q -0.7257,0.0201 -1.32798,0.26947 -0.59857,0.24574 -1.08109,0.72073 -0.95019,0.93537 -0.88133,2.01502 0.0652,1.07594 1.14673,2.1746 1.07787,1.09494 2.1563,1.18076 1.07478,0.0821 2.02497,-0.85327 0.48252,-0.47499 0.73763,-1.06963 0.25883,-0.59828 0.29031,-1.32358 l 0.77095,0.78316 q -0.13037,0.65455 -0.44052,1.22297 -0.30644,0.56476 -0.79638,1.04707 -1.25826,1.23863 -2.73837,1.1828 -1.48377,-0.0595 -2.79548,-1.39203 -1.31537,-1.3362 -1.34792,-2.81701 -0.0362,-1.48451 1.22204,-2.72315 0.49737,-0.48961 1.06688,-0.78714 0.56957,-0.30489 1.21501,-0.42135 z" />
            <path
               inkscape:connector-curvature="0"
               id="path1196"
               style="font-size:10.66666698px;letter-spacing:3px;fill:#ffffff"
               d="m 497.28219,264.72817 4.18309,-2.58368 0.46528,0.75331 -3.28798,2.03082 1.20974,1.95861 3.1506,-1.94598 0.46529,0.75331 -3.15061,1.94598 1.48069,2.39729 3.36774,-2.08008 0.46528,0.75331 -4.26285,2.63295 z" />
            <path
               inkscape:connector-curvature="0"
               id="path1198"
               style="font-size:10.66666698px;letter-spacing:3px;fill:#ffffff"
               d="m 512.20884,262.04416 q 0.35739,-0.004 0.78136,0.24461 0.42889,0.24688 0.95093,0.75915 l 1.71123,1.65146 -1.06642,0.37431 -1.59931,-1.55274 q -0.62241,-0.60952 -1.05094,-0.72957 -0.42361,-0.12179 -1.01334,0.0852 l -1.08117,0.37949 1.08845,3.10098 -0.99271,0.34844 -2.57536,-7.33719 2.24097,-0.78658 q 1.25808,-0.44159 2.06187,-0.13309 0.80378,0.30849 1.17637,1.37 0.24322,0.69293 0.0793,1.26382 -0.15902,0.56916 -0.71122,0.9617 z m -3.56823,-2.2085 0.91423,2.60463 1.24826,-0.43814 q 0.7175,-0.25184 0.96559,-0.70876 0.25128,-0.46355 0.0253,-1.10733 -0.22596,-0.64379 -0.70839,-0.83877 -0.47924,-0.20161 -1.19674,0.0502 z" />
            <path
               inkscape:connector-curvature="0"
               id="path1200"
               style="font-size:10.66666698px;letter-spacing:3px;fill:#ffffff"
               d="m 517.15119,256.45501 6.52592,-0.82715 0.11133,0.87839 -2.73851,0.3471 0.86645,6.83594 -1.0489,0.13294 -0.86645,-6.83593 -2.7385,0.3471 z" />
            <path
               inkscape:connector-curvature="0"
               id="path1202"
               style="font-size:10.66666698px;letter-spacing:3px;fill:#ffffff"
               d="m 529.04635,255.65122 1.05096,0.0487 -0.35985,7.76771 -1.05096,-0.0487 z" />
            <path
               inkscape:connector-curvature="0"
               id="path1204"
               style="font-size:10.66666698px;letter-spacing:3px;fill:#ffffff"
               d="m 536.46571,256.40908 4.36557,0.95473 -0.18917,0.86498 -3.33778,-0.72996 -0.48961,2.23875 3.01215,0.65875 -0.18917,0.86497 -3.01214,-0.65874 -0.79339,3.6278 -1.02779,-0.22478 z" />
            <path
               inkscape:connector-curvature="0"
               id="path1206"
               style="font-size:10.66666698px;letter-spacing:3px;fill:#ffffff"
               d="m 546.5146,259.29383 0.9749,0.39554 -2.92343,7.20558 -0.9749,-0.39554 z" />
            <path
               inkscape:connector-curvature="0"
               id="path1208"
               style="font-size:10.66666698px;letter-spacing:3px;fill:#ffffff"
               d="m 553.31719,262.50041 4.15957,2.62137 -0.47207,0.74907 -3.26949,-2.06044 -1.22738,1.9476 3.1329,1.97436 -0.47207,0.74907 -3.1329,-1.97435 -1.50229,2.38382 3.34881,2.11042 -0.47207,0.74908 -4.23888,-2.67135 z" />
            <path
               inkscape:connector-curvature="0"
               id="path1210"
               style="font-size:10.66666698px;letter-spacing:3px;fill:#ffffff"
               d="m 562.80013,270.59354 -4.30467,4.2467 0.8925,0.90468 q 1.13026,1.14569 2.17241,1.16381 1.0458,0.0218 2.16554,-1.08284 1.11232,-1.09734 1.10097,-2.13968 -0.004,-1.0423 -1.13424,-2.18799 z m -0.12339,-1.35616 1.51799,1.53871 q 1.58748,1.60915 1.65891,3.02388 0.0752,1.41108 -1.34862,2.81567 -1.43119,1.41191 -2.84848,1.31759 -1.41729,-0.0943 -2.99745,-1.69605 l -1.51799,-1.53871 z" />
          </g>
          <g
             transform="translate(273.74577,-9.983051)"
             id="text1221"
             style="font-style:normal;font-variant:normal;font-weight:normal;font-stretch:normal;font-size:13.33333302px;line-height:1.25;font-family:sans-serif;-inkscape-font-specification:'sans-serif, Normal';font-variant-ligatures:normal;font-variant-caps:normal;font-variant-numeric:normal;text-align:start;letter-spacing:0px;word-spacing:0px;writing-mode:lr-tb;text-anchor:start;fill:#ffffff;fill-opacity:1;stroke:none"
             aria-label="MANAGEMENT SYSTEM">
            <path
               inkscape:connector-curvature="0"
               id="path1228"
               style="font-size:8px;letter-spacing:2px;fill:#ffffff"
               d="m 483.67783,328.5924 0.56613,1.03052 -2.76183,3.21532 4.19877,-0.59966 0.56613,1.03052 -5.1115,2.80806 -0.37052,-0.67446 4.4884,-2.46575 -4.22993,0.60785 -0.3818,-0.695 2.78169,-3.24406 -4.48839,2.46576 -0.36864,-0.67104 z" />
            <path
               inkscape:connector-curvature="0"
               id="path1230"
               style="font-size:8px;letter-spacing:2px;fill:#ffffff"
               d="m 488.33092,337.51799 -2.95504,0.91483 1.30385,1.70264 z m 0.34642,-0.82617 0.54387,0.71021 -3.27895,5.31049 -0.49875,-0.65129 0.86482,-1.33139 -1.59835,-2.0872 -1.51081,0.48783 -0.50587,-0.66059 z" />
            <path
               inkscape:connector-curvature="0"
               id="path1232"
               style="font-size:8px;letter-spacing:2px;fill:#ffffff"
               d="m 491.93477,340.65281 0.76022,0.74227 -1.5582,5.29743 3.40845,-3.49087 0.5478,0.53487 -4.0743,4.17284 -0.76023,-0.74227 1.5582,-5.29744 -3.40844,3.49088 -0.54781,-0.53487 z" />
            <path
               inkscape:connector-curvature="0"
               id="path1234"
               style="font-size:8px;letter-spacing:2px;fill:#ffffff"
               d="m 498.31911,347.26995 -2.57693,1.71132 1.73123,1.26565 z m 0.0993,-0.89034 0.72213,0.52792 -1.64761,6.01982 -0.66222,-0.48413 0.45409,-1.52129 -2.12226,-1.55151 -1.31182,0.89423 -0.67167,-0.49104 z" />
            <path
               inkscape:connector-curvature="0"
               id="path1236"
               style="font-size:8px;letter-spacing:2px;fill:#ffffff"
               d="m 503.71157,355.47054 0.73431,-1.38362 -1.13864,-0.6043 0.30398,-0.57277 1.82873,0.97054 -1.17381,2.21172 q -0.55569,0.0721 -1.12094,-0.0377 -0.56342,-0.11328 -1.11549,-0.40627 -1.20765,-0.64092 -1.51727,-1.70739 -0.30433,-1.06809 0.36406,-2.32749 0.67022,-1.26286 1.72352,-1.606 1.05859,-0.34476 2.26624,0.29616 0.50376,0.26736 0.88984,0.63146 0.38953,0.36594 0.64435,0.81073 l -0.39371,0.74185 q -0.21249,-0.53289 -0.55934,-0.92924 -0.34686,-0.39636 -0.82647,-0.65089 -0.94542,-0.50176 -1.70175,-0.22655 -0.75288,0.27704 -1.30774,1.32252 -0.55303,1.04203 -0.36049,1.82082 0.19598,0.78063 1.1414,1.28238 0.3692,0.19594 0.69199,0.28765 0.32463,0.0883 0.62723,0.0764 z" />
            <path
               inkscape:connector-curvature="0"
               id="path1238"
               style="font-size:8px;letter-spacing:2px;fill:#ffffff"
               d="m 509.17101,352.44323 3.46693,1.2562 -0.22622,0.62434 -2.72507,-0.9874 -0.58818,1.62329 2.61122,0.94615 -0.22623,0.62434 -2.61121,-0.94615 -0.71993,1.98688 2.79118,1.01135 -0.22623,0.62434 -3.53303,-1.28016 z" />
            <path
               inkscape:connector-curvature="0"
               id="path1240"
               style="font-size:8px;letter-spacing:2px;fill:#ffffff"
               d="m 515.05416,354.43491 1.15214,0.23459 0.66654,4.18589 2.25783,-3.59047 1.15215,0.23459 -1.16357,5.71477 -0.75406,-0.15353 1.02172,-5.01813 -2.27172,3.61953 -0.77703,-0.15821 -0.67561,-4.21963 -1.02173,5.01813 -0.75023,-0.15275 z" />
            <path
               inkscape:connector-curvature="0"
               id="path1242"
               style="font-size:8px;letter-spacing:2px;fill:#ffffff"
               d="m 522.98553,355.77735 3.68223,0.19698 -0.0355,0.66312 -2.8943,-0.15483 -0.0922,1.72409 2.77338,0.14836 -0.0355,0.66312 -2.77337,-0.14836 -0.11289,2.11026 2.96451,0.15859 -0.0355,0.66311 -3.75245,-0.20074 z" />
            <path
               inkscape:connector-curvature="0"
               id="path1244"
               style="font-size:8px;letter-spacing:2px;fill:#ffffff"
               d="m 529.23244,355.95128 1.05855,-0.0916 2.99683,4.63787 -0.42052,-4.86075 0.76278,-0.066 0.50267,5.81032 -1.05854,0.0916 -2.99684,-4.63786 0.42052,4.86075 -0.76277,0.066 z" />
            <path
               inkscape:connector-curvature="0"
               id="path1246"
               style="font-size:8px;letter-spacing:2px;fill:#ffffff"
               d="m 535.56956,355.28491 4.80952,-1.09946 0.14799,0.64736 -2.01825,0.46137 1.1517,5.03801 -0.77303,0.17672 -1.1517,-5.03801 -2.01825,0.46138 z" />
            <path
               inkscape:connector-curvature="0"
               id="path1248"
               style="font-size:8px;letter-spacing:2px;fill:#ffffff"
               d="m 549.35137,350.82836 0.32561,0.69725 q -0.49793,-0.005 -0.90357,0.0684 -0.40564,0.073 -0.74188,0.23004 -0.58399,0.27272 -0.79675,0.64799 -0.20922,0.37362 -0.0142,0.79127 0.16363,0.35039 0.45674,0.43338 0.295,0.0778 0.93377,-0.0869 l 0.47312,-0.11317 q 0.87097,-0.22135 1.42983,-0.0124 0.56076,0.20374 0.86158,0.8479 0.35866,0.76804 0.027,1.40576 -0.32808,0.63606 -1.32264,1.10051 -0.37517,0.1752 -0.83955,0.2886 -0.46085,0.11174 -0.99157,0.15696 l -0.34379,-0.73619 q 0.54938,0.0409 1.02487,-0.0302 0.47549,-0.0712 0.87898,-0.25958 0.6123,-0.28594 0.83261,-0.68198 0.2203,-0.39605 0.0121,-0.842 -0.18181,-0.38933 -0.52497,-0.49638 -0.33961,-0.10869 -0.9359,0.0361 l -0.47501,0.11836 q -0.87427,0.21427 -1.39041,0.0414 -0.51615,-0.17284 -0.79878,-0.77807 -0.32727,-0.70079 -0.0237,-1.33402 0.30708,-0.63488 1.17422,-1.03982 0.37163,-0.17355 0.78882,-0.28646 0.41719,-0.11291 0.88349,-0.16684 z" />
            <path
               inkscape:connector-curvature="0"
               id="path1250"
               style="font-size:8px;letter-spacing:2px;fill:#ffffff"
               d="m 551.0832,349.71697 0.71606,-0.45363 2.64965,1.16066 0.0727,-2.88526 0.71607,-0.45362 -0.1076,3.68421 1.4863,2.34618 -0.66987,0.42436 -1.4863,-2.34618 z" />
            <path
               inkscape:connector-curvature="0"
               id="path1252"
               style="font-size:8px;letter-spacing:2px;fill:#ffffff"
               d="m 559.65538,343.76861 0.49236,0.59141 q -0.4827,0.1223 -0.85639,0.29618 -0.37369,0.17387 -0.65888,0.41131 -0.49534,0.41238 -0.60557,0.82945 -0.10723,0.41457 0.18769,0.76881 0.24743,0.2972 0.55202,0.30285 0.30508,1.4e-4 0.8809,-0.32168 l 0.42873,-0.22986 q 0.78594,-0.43576 1.37958,-0.37596 0.59415,0.0543 1.04902,0.60067 0.54235,0.65144 0.38397,1.35257 -0.15538,0.69863 -0.99895,1.40093 -0.31822,0.26493 -0.73845,0.4928 -0.41722,0.22536 -0.91895,0.40418 l -0.51986,-0.62443 q 0.54171,-0.10027 0.98342,-0.29012 0.44172,-0.18984 0.78395,-0.47476 0.51936,-0.43238 0.6316,-0.87145 0.11224,-0.43908 -0.20267,-0.81734 -0.27493,-0.33022 -0.63402,-0.3464 -0.3561,-0.0187 -0.89589,0.27316 l -0.42924,0.23536 q -0.79093,0.42975 -1.33407,0.39399 -0.54314,-0.0358 -0.97052,-0.54912 -0.49486,-0.59441 -0.36249,-1.28404 0.13536,-0.69214 0.87086,-1.30447 0.31522,-0.26242 0.68993,-0.47781 0.37471,-0.21538 0.81192,-0.38623 z" />
            <path
               inkscape:connector-curvature="0"
               id="path1254"
               style="font-size:8px;letter-spacing:2px;fill:#ffffff"
               d="m 561.03026,342.26539 3.35029,-3.62159 0.48747,0.45095 -1.40591,1.51975 3.79364,3.50945 -0.53849,0.5821 -3.79363,-3.50946 -1.40591,1.51975 z" />
            <path
               inkscape:connector-curvature="0"
               id="path1256"
               style="font-size:8px;letter-spacing:2px;fill:#ffffff"
               d="m 565.61397,337.04953 2.1337,-3.00749 0.5416,0.38425 -1.67712,2.36393 1.40816,0.99904 1.60706,-2.26517 0.5416,0.38425 -1.60705,2.26517 1.72357,1.22281 1.71781,-2.42128 0.5416,0.38425 -2.17439,3.06483 z" />
            <path
               inkscape:connector-curvature="0"
               id="path1258"
               style="font-size:8px;letter-spacing:2px;fill:#ffffff"
               d="m 569.09683,331.91055 0.53225,-1.04842 4.21254,0.46947 -2.86161,-3.13057 0.53224,-1.04842 5.2003,2.63999 -0.34835,0.68617 -4.56636,-2.31817 2.88594,3.15168 -0.35896,0.70708 -4.24748,-0.46968 4.56636,2.31816 -0.34657,0.68269 z" />
          </g>
        </g>
        <g
           transform="translate(294.27911,131.14003)"
           id="g1378">
          <path
             inkscape:connector-curvature="0"
             id="path1372"
             d="m 83.937227,89.755664 c 6.07854,-2.14464 13.26169,-7.078787 16.789163,-11.532581 4.22119,-5.329679 2.95749,-6.047276 -1.656193,-0.94048 -2.03176,2.24891 -4.29018,4.088928 -5.01873,4.088928 -2.2764,0 -2.68302,-1.98421 -0.94894,-4.63074 2.33798,-3.568213 1.0927,-4.162529 -1.76372,-0.841742 -2.09366,2.434018 -2.71688,2.641119 -5.30128,1.76164 -1.89005,-0.643186 -2.8245,-1.580488 -2.63487,-2.642902 0.33996,-1.904672 -1.42385,-2.256224 -2.04037,-0.406673 -0.46615,1.398458 -7.66455,1.164922 -9.17968,-0.297814 -0.53646,-0.517911 -1.37805,-0.522636 -2,-0.01123 -1.77828,1.462236 -8.8646,1.69703 -9.32726,0.309044 -0.61652,-1.849551 -2.38033,-1.497999 -2.04037,0.406673 0.18963,1.062414 -0.74482,1.999716 -2.63487,2.642902 -2.5844,0.879479 -3.20762,0.672378 -5.30128,-1.76164 -3.07547,-3.575447 -4.28906,-2.397128 -1.46508,1.422505 l 2.16286,2.925425 -2.17069,0.688951 c -1.71835,0.545382 -2.98598,-0.185075 -6.08302,-3.505267 -4.36593,-4.680507 -6.08591,-4.794427 -2.80423,-0.185733 4.66741,6.554767 14.75698,12.513274 23.96078,14.150314 5.63746,1.0027 13.95528,0.30181 19.45778,-1.63958 z m -17.32841,-0.27032 c -3.33098,-0.63207 -3.37927,-0.69848 -1,-1.37532 3.58239,-1.01909 10.24302,-0.87394 12,0.26151 1.18993,0.76899 0.98322,0.97536 -1,0.99834 -1.375,0.0159 -3.4,0.19786 -4.5,0.40429 -1.1,0.20642 -3.575,0.0765 -5.5,-0.28882 z m -9,-1.81766 c -0.825,-0.30027 -3.01167,-1.456839 -4.85927,-2.570147 -2.81046,-1.693494 -3.09667,-2.171158 -1.75189,-2.923737 1.17467,-0.657378 2.68473,-0.03377 5.60928,2.316459 4.89268,3.931865 5.12836,4.679335 1.00188,3.177425 z m 24,0.4386 c 0,-0.22001 1.80085,-1.847224 4.00188,-3.616025 2.92455,-2.350228 4.43461,-2.973837 5.60928,-2.316459 1.34515,0.752784 1.05933,1.231557 -1.75189,2.934615 -3.35981,2.035399 -7.85927,3.751689 -7.85927,2.997869 z m -23.28198,-4.653598 -3.78199,-2.863205 2.95198,-1.029065 c 2.77008,-0.965654 3.11184,-0.787505 5.54617,2.891024 2.26555,3.423475 2.3707,3.916567 0.83001,3.892271 -0.9703,-0.0153 -3.46608,-1.316262 -5.54617,-2.891025 z m 19.28198,2.476005 c 0,-0.243562 0.90686,-1.979848 2.01524,-3.858415 1.62851,-2.760117 2.49207,-3.324423 4.5,-2.940583 3.31837,0.634348 3.13306,1.645569 -0.85963,4.690947 -3.01157,2.297038 -5.65561,3.282564 -5.65561,2.108051 z m -12.91844,-3.925194 c -2.73936,-4.432381 -2.67824,-4.631966 1.41844,-4.631966 3.41667,0 3.5,0.09524 3.5,4 0,5.047318 -2.02852,5.307961 -4.91844,0.631966 z m 7.5479,0.265328 c -0.81989,-4.099449 -0.1797,-4.897294 3.92956,-4.897294 4.03383,0 4.09446,0.206577 1.35942,4.631966 -2.59655,4.201314 -4.48286,4.295943 -5.28898,0.265328 z m 1.84375,-11.887108 c 4.43432,-1.685927 7.52679,-5.852239 7.52679,-10.140432 0,-5.96099 -3.76905,-9.378527 -13.5,-12.240934 -4.4,-1.294282 -7.775,-2.752746 -7.5,-3.24103 0.90347,-1.604185 7.10227,-0.688298 10.03961,1.483377 1.66196,1.228738 4.37637,2.128833 6.4199,2.128833 h 3.54049 v -6.057355 -6.057354 l -5.25,0.09948 c -2.8875,0.05471 -7.77541,-0.195052 -10.86203,-0.555034 -6.771,-0.789679 -12.19908,1.337411 -14.43202,5.65545 -3.86503,7.474149 0.51741,13.265505 12.79405,16.90722 8.88119,2.634495 10.22254,4.499633 2.71737,3.778481 -3.3278,-0.319759 -5.8314,-1.233975 -7.39058,-2.698748 -1.68485,-1.582829 -3.31694,-2.123395 -5.71737,-1.893657 l -3.35942,0.321517 -0.29772,6.25 -0.29771,6.25 h 4.54771 c 2.50125,0 4.54772,-0.396973 4.54772,-0.882162 0,-0.485189 1.6875,-0.279941 3.75,0.456107 4.52195,1.613756 9.20388,1.774286 12.72321,0.436241 z m 35.355413,-1.018455 c 5.35937,-2.432105 7.71157,-5.224509 9.14665,-10.858404 3.46576,-13.606072 -5.0634,-23.971514 -18.867883,-22.930024 -11.53008,0.869897 -17.10739,6.48228 -17.10739,17.21497 0,9.406724 3.14026,14.442549 10.6838,17.132915 5.3923,1.923133 11.110873,1.724971 16.144823,-0.559457 z M 98.608817,61.64264 c -2.46302,-0.937586 -2.96861,-2.459736 -2.98469,-8.985925 -0.0126,-5.13039 0.3222,-6.395446 1.91895,-7.25 5.338503,-2.857081 9.065743,0.509009 9.065743,8.187322 0,6.631111 -3.2182,9.868864 -8.000003,8.048603 z m -51,4.228891 c 0,-4.133333 -0.2037,-4.5 -2.5,-4.5 -2.47059,0 -2.5,-0.1 -2.5,-8.5 0,-8.4 0.0294,-8.5 2.5,-8.5 2.2963,0 2.5,-0.366667 2.5,-4.5 v -4.5 h -11 -11 v 4.5 c 0,4.133333 0.2037,4.5 2.5,4.5 2.47059,0 2.5,0.1 2.5,8.5 0,8.4 -0.0294,8.5 -2.5,8.5 -2.2963,0 -2.5,0.366667 -2.5,4.5 v 4.5 h 11 11 z m -4.38103,-37.5 c 3.90847,-4.326215 4.14151,-4.436924 6.37162,-3.026978 1.3028,0.82367 1.26418,1.325676 -0.30654,3.984687 -2.18791,3.703844 -1.37785,3.954366 1.61392,0.499124 1.99017,-2.29849 2.50886,-2.435432 5.39124,-1.423367 2.11164,0.741442 3.00466,1.600728 2.64301,2.543167 -0.30041,0.782852 -0.048,1.423367 0.56079,1.423367 0.60885,0 1.10699,-0.45 1.10699,-1 0,-1.255639 4.08898,-1.296869 7.30623,-0.07367 1.55782,0.592282 3.97411,0.536026 6.70048,-0.156001 3.14774,-0.798981 4.74865,-0.779694 6.1151,0.07367 2.42832,1.516513 2.68202,1.466292 2.51708,-0.498278 -0.0874,-1.041443 0.97247,-1.968476 2.86111,-2.50242 2.58734,-0.731477 3.30341,-0.474911 5.20575,1.865199 1.21316,1.492337 2.45696,2.462124 2.764,2.155083 0.30704,-0.307042 -0.36226,-1.728513 -1.48735,-3.158824 l -2.0456,-2.600567 2.11267,-1.130668 c 1.85554,-0.993054 2.58967,-0.613993 6.03174,3.114437 2.155483,2.334809 4.189563,3.974601 4.520183,3.643983 1.37124,-1.371243 -9.204103,-10.920821 -15.512273,-14.007643 -6.08614,-2.978173 -7.35247,-3.224301 -16.58912,-3.224301 -9.10283,0 -10.58316,0.276917 -16.5,3.086563 -5.85497,2.780265 -16,11.389719 -16,13.578197 0,1.535 0.97906,0.864182 4.61897,-3.16476 z m 21.63103,0.294267 c -2.7822,-0.535875 -2.81169,-1.31047 -0.17742,-4.659408 3.09043,-3.928842 4.92742,-3.419903 4.92742,1.365141 0,4.0872 -0.13763,4.182649 -4.75,3.294267 z m 7.36806,-0.0095 c -0.33993,-0.339975 -0.61806,-2.1181 -0.61806,-3.951434 0,-4.52042 3.26443,-4.591219 5.97768,-0.129644 1.07155,1.762029 1.85244,3.27239 1.7353,3.356359 -0.88194,0.632211 -6.60304,1.216562 -7.09492,0.724674 z m -16.08257,-2.193386 c -1.75251,-0.685162 -1.4935,-1.10925 2.40003,-3.929715 6.44556,-4.669134 7.52991,-4.268845 3.98292,1.4703 -2.13794,3.459264 -2.98788,3.786755 -6.38295,2.459415 z m 22.67567,-2.729094 c -2.48169,-3.922791 -2.37062,-4.870631 0.46348,-3.955476 2.40594,0.776896 7.96505,5.272478 7.32331,5.922269 -0.27613,0.279594 -1.62613,0.765483 -3,1.079754 -2.06965,0.473429 -2.89039,-0.04893 -4.78679,-3.046547 z m -28.53813,-0.02259 c -0.82947,-0.829464 1.72549,-2.643713 6.57883,-4.67157 4.85361,-2.027968 4.72037,-0.893174 -0.30316,2.581875 -4.13029,2.857146 -5.16401,3.201358 -6.27567,2.089695 z m 34.71447,-2.426371 c -2.13812,-1.697671 -4.0792,-3.276872 -4.3135,-3.509335 -0.92527,-0.91801 6.59466,2.0515 9.23035,3.644929 2.29963,1.390267 2.50988,1.808389 1.16821,2.323237 -2.17205,0.833493 -1.69657,1.025625 -6.08506,-2.458831 z m -19.1375,-2.891504 c -3.75074,-1.59594 -2.60274,-2.021822 5.45,-2.021822 5.08359,0 7.36347,0.336533 6.7096,0.990402 -1.45393,1.453927 -9.55223,2.140854 -12.1596,1.03142 z"
             style="fill:#185ba8;fill-opacity:1"
             sodipodi:nodetypes="cscscccccccccccscssscccccccccccscscsssccscccssssssssssssssssscsccccsssscscccssssssssssscsssssssscccssssscccscsccssssssscsscccsccsssscscsscsccccscsscsssccssccccscssss" />
          <text
             xml:space="preserve"
             style="font-style:normal;font-variant:normal;font-weight:normal;font-stretch:normal;font-size:25.79144287px;line-height:1.25;font-family:sans-serif;-inkscape-font-specification:'sans-serif, Normal';font-variant-ligatures:normal;font-variant-caps:normal;font-variant-numeric:normal;text-align:start;letter-spacing:0px;word-spacing:0px;writing-mode:lr-tb;text-anchor:start;fill:#004896;fill-opacity:1;stroke:none;stroke-width:1.93435848"
             x="132.07278"
             y="61.424576"
             id="text1376"
             transform="scale(0.95427934,1.0479112)"><tspan
               sodipodi:role="line"
               id="tspan1374"
               x="132.07278"
               y="61.424576"
               style="fill:#004896;fill-opacity:1;stroke-width:1.93435848">9001Certified</tspan></text>
        </g>
      </g>
    </g>
  </g>
</svg>
