<?xml version="1.0" encoding="UTF-8" standalone="no"?>
<!-- Created with Inkscape (http://www.inkscape.org/) -->

<svg
   xmlns:dc="http://purl.org/dc/elements/1.1/"
   xmlns:cc="http://creativecommons.org/ns#"
   xmlns:rdf="http://www.w3.org/1999/02/22-rdf-syntax-ns#"
   xmlns:svg="http://www.w3.org/2000/svg"
   xmlns="http://www.w3.org/2000/svg"
   xmlns:xlink="http://www.w3.org/1999/xlink"
   xmlns:sodipodi="http://sodipodi.sourceforge.net/DTD/sodipodi-0.dtd"
   xmlns:inkscape="http://www.inkscape.org/namespaces/inkscape"
   version="1.1"
   id="svg2"
   xml:space="preserve"
   width="793.69995"
   height="1122.52"
   viewBox="0 0 793.69995 1122.52"
   sodipodi:docname="P12BACKGROUND.svg"
   inkscape:version="0.92.4 (unknown)"><metadata
     id="metadata8"><rdf:RDF><cc:Work
         rdf:about=""><dc:format>image/svg+xml</dc:format><dc:type
           rdf:resource="http://purl.org/dc/dcmitype/StillImage" /><dc:title></dc:title></cc:Work></rdf:RDF></metadata><defs
     id="defs6"><clipPath
       clipPathUnits="userSpaceOnUse"
       id="clipPath18"><path
         d="M 0,0 H 595.275 V 841.89 H 0 Z"
         id="path16"
         inkscape:connector-curvature="0" /></clipPath><linearGradient
       x1="0"
       y1="0"
       x2="1"
       y2="0"
       gradientUnits="userSpaceOnUse"
       gradientTransform="matrix(0,-858.89764,-858.89764,0,603.77951,850.39372)"
       spreadMethod="pad"
       id="linearGradient36"><stop
         style="stop-opacity:1;stop-color:#8d969c"
         offset="0"
         id="stop24" /><stop
         style="stop-opacity:1;stop-color:#8d969c"
         offset="0.247253"
         id="stop26" /><stop
         style="stop-opacity:1;stop-color:#dce0e3"
         offset="0.483516"
         id="stop28" /><stop
         style="stop-opacity:1;stop-color:#e8ebec"
         offset="0.538462"
         id="stop30" /><stop
         style="stop-opacity:1;stop-color:#dce0e3"
         offset="0.587912"
         id="stop32" /><stop
         style="stop-opacity:1;stop-color:#8d969c"
         offset="1"
         id="stop34" /></linearGradient><linearGradient
       inkscape:collect="always"
       xlink:href="#linearGradient36"
       id="linearGradient877"
       gradientUnits="userSpaceOnUse"
       gradientTransform="matrix(0,-858.89764,-858.89764,0,603.77951,850.39372)"
       x1="0"
       y1="0"
       x2="1"
       y2="0"
       spreadMethod="pad" /><linearGradient
       inkscape:collect="always"
       xlink:href="#linearGradient36"
       id="linearGradient879"
       gradientUnits="userSpaceOnUse"
       gradientTransform="matrix(0,-858.89764,-858.89764,0,603.77951,850.39372)"
       x1="0"
       y1="0"
       x2="1"
       y2="0"
       spreadMethod="pad" /></defs><sodipodi:namedview
     pagecolor="#ffffff"
     bordercolor="#666666"
     borderopacity="1"
     objecttolerance="10"
     gridtolerance="10"
     guidetolerance="10"
     inkscape:pageopacity="0"
     inkscape:pageshadow="2"
     inkscape:window-width="1920"
     inkscape:window-height="1052"
     id="namedview4"
     showgrid="false"
     fit-margin-top="0"
     fit-margin-left="0"
     fit-margin-right="0"
     fit-margin-bottom="0"
     inkscape:zoom="0.29732601"
     inkscape:cx="549.5486"
     inkscape:cy="542.63558"
     inkscape:window-x="0"
     inkscape:window-y="0"
     inkscape:window-maximized="1"
     inkscape:current-layer="g10" /><g
     id="g10"
     inkscape:groupmode="layer"
     inkscape:label="Brugg_CTPCatalog2017_EN"
     transform="matrix(1.3333333,0,0,-1.3333333,1106.5295,1162.8797)"><g
       id="g12"><g
         id="g14"
         clip-path="url(#clipPath18)"><g
           id="g20"><g
             id="g22"><path
               d="M 0,0 H 595.275 V 841.89 H 0 Z"
               style="fill:url(#linearGradient879);stroke:none"
               id="path38"
               inkscape:connector-curvature="0" /></g></g></g></g><text
       transform="matrix(1,0,0,-1,249.7242,43.1043)"
       style="font-variant:normal;font-weight:bold;font-stretch:normal;font-size:12px;font-family:'Frutiger LT Com 45 Light';-inkscape-font-specification:FrutigerLTCom-Bold;writing-mode:lr-tb;fill:#ffffff;fill-opacity:1;fill-rule:nonzero;stroke:none"
       id="text42"><tspan
         x="0 7.4400001 12.1632 19.603201 27.0432 34.396801 37.736401 41.079601 46.096802 50.872799 54.2304 61.635601 69.0756 72.391197 77.7444 85.155602"
         y="0"
         sodipodi:role="line"
         id="tspan40">brugglifting.com</tspan></text>
<text
       transform="matrix(1,0,0,-1,264.0668,183.7382)"
       style="font-variant:normal;font-weight:bold;font-stretch:normal;font-size:9px;font-family:'Frutiger 45 Light';-inkscape-font-specification:Frutiger-Bold;writing-mode:lr-tb;fill:#5f696d;fill-opacity:1;fill-rule:nonzero;stroke:none"
       id="text46"><tspan
         x="0 5.7887998 11.4363 18.1152 24.816601 31.4055 33.997501 38.767502 41.507099 46.441799 51.715801 54.487801 61.209"
         y="0"
         sodipodi:role="line"
         id="tspan44">BRUGG LIFTING</tspan></text>
<text
       transform="matrix(1,0,0,-1,264.4538,171.7412)"
       style="font-variant:normal;font-weight:300;font-stretch:normal;font-size:9px;font-family:'Frutiger 45 Light';-inkscape-font-specification:Frutiger-Light;writing-mode:lr-tb;fill:#5f696d;fill-opacity:1;fill-rule:nonzero;stroke:none"
       id="text60"><tspan
         x="0 8.8037996 12.861 18.045 22.662001 27.726299 31.4424 34.5564 37.588501 42.205502 45.9072 49.592701 54.182701 56.7747 61.931702 66.932999"
         y="0"
         sodipodi:role="line"
         id="tspan48">Wydenstrasse 36 </tspan><tspan
         x="15.57 20.534401 25.3764 30.3543 35.448299 38.040298 43.1595 45.222301 48.3615 51.354"
         y="11.997"
         sodipodi:role="line"
         id="tspan50">5242 Birr </tspan><tspan
         x="10.647 15.1299 22.316401 24.4224 27.7362 31.7502 36.366299 39.4884 41.556599 46.152 51.264"
         y="23.993999"
         sodipodi:role="line"
         id="tspan52">Switzerland</tspan><tspan
         x="-12.915 -8.3249998 -5.7329998 0.17550001 4.7474999 9.8415003 12.4335 15.3945 20.865601 23.4576 26.049601 31.177799 36.271801 38.8638 44.149502 49.4991 54.593102 57.185101 62.162998 67.257004 69.848999 74.826897 79.830002"
         y="38.826"
         sodipodi:role="line"
         id="tspan54">T +41 (0) 56 464 42 42 </tspan><tspan
         x="-12.852 -8.7659998 -6.1739998 -0.26550001 4.3065 9.4005003 11.9925 14.9535 20.424601 23.0166 25.608601 30.736799 35.830799 38.422798 43.7085 49.058998 54.153 56.744999 61.7229 66.816902 69.408897 74.771103"
         y="50.823002"
         sodipodi:role="line"
         id="tspan56">F +41 (0) 56 464 42 84</tspan><tspan
         x="-12.312 -10.251 -5.2154999 -2.2212 2.7864001 5.3144999 7.3755002 9.4860001 12.7962 15.9093 17.970301 23.0679 28.7118 36.529202 41.643902 44.765999 49.880699 55.030499 60.0975 62.567101 66.593697 71.733597"
         y="65.654999"
         sodipodi:role="line"
         id="tspan58">info.lifting@brugg.com</tspan></text>
<g
       id="g875"
       transform="translate(-829.89714,30.269804)"><g
         clip-path="url(#clipPath18)"
         id="g873"><g
           id="g871"><g
             id="g869"><path
               inkscape:connector-curvature="0"
               id="path867"
               style="fill:url(#linearGradient877);stroke:none"
               d="M 0,0 H 595.275 V 841.89 H 0 Z" /></g></g></g></g></g></svg>