<?xml version="1.0"?>
<svg xmlns="http://www.w3.org/2000/svg" height="512px" viewBox="0 -4 480 480" width="512px"><path d="m440 456v-288h-64v288h-48v-176h-64v176h-48v-256h-64v256h-48v-144h-64v144h-40v16h480v-16zm0 0" fill="#a3a3a3"/><path d="m408 0c-17.671875 0-32 14.328125-32 32 .027344 5.695312 1.589844 11.277344 4.527344 16.160156l-68.359375 68.351563c-12.527344-7.414063-28.484375-5.414063-38.792969 4.863281-.167969.167969-.277344.367188-.445312.535156l-58.648438-48c4.585938-13.972656-.972656-29.273437-13.460938-37.046875-12.484374-7.773437-28.667968-6.007812-39.183593 4.273438-10.519531 10.28125-12.648438 26.421875-5.15625 39.078125l-68.3125 68.3125c-13.882813-8.183594-31.683594-4.769532-41.550781 7.96875-9.867188 12.738281-8.722657 30.828125 2.671874 42.222656 11.394532 11.394531 29.484376 12.539062 42.222657 2.671875s16.152343-27.667969 7.96875-41.550781l68.375-68.375c12.089843 7.160156 27.441406 5.5625 37.800781-3.929688l59.441406 48.664063c-3.574218 13.996093 2.695313 28.644531 15.285156 35.71875 12.589844 7.078125 28.363282 4.820312 38.460938-5.503907 10.097656-10.324218 12.007812-26.144531 4.652344-38.574218l68.359375-68.351563c4.878906 2.925781 10.457031 4.484375 16.144531 4.511719 17.671875 0 32-14.328125 32-32s-14.328125-32-32-32zm0 0" fill="#a3a3a3"/></svg>
