<?xml version="1.0"?>
<svg xmlns="http://www.w3.org/2000/svg" height="512px" viewBox="0 -16 480 480" width="512px"><path d="m456 0h-432c-13.253906 0-24 10.746094-24 24v304c0 13.253906 10.746094 24 24 24h184v48h-112c-4.417969 0-8 3.582031-8 8v32c0 4.417969 3.582031 8 8 8h288c4.417969 0 8-3.582031 8-8v-32c0-4.417969-3.582031-8-8-8h-112v-48h184c13.253906 0 24-10.746094 24-24v-304c0-13.253906-10.746094-24-24-24zm-80 432h-272v-16h272zm-120-32h-32v-48h32zm208-72c0 4.417969-3.582031 8-8 8h-432c-4.417969 0-8-3.582031-8-8v-304c0-4.417969 3.582031-8 8-8h432c4.417969 0 8 3.582031 8 8zm0 0" fill="#a1a1a1"/><path d="m347.574219 168.839844-160-80c-2.480469-1.238282-5.425781-1.105469-7.78125.351562-2.359375 1.460938-3.792969 4.035156-3.792969 6.808594v160c-.015625 2.78125 1.414062 5.367188 3.773438 6.835938 2.363281 1.46875 5.316406 1.605468 7.800781.363281l160-80c2.71875-1.351563 4.433593-4.125 4.433593-7.160157 0-3.03125-1.714843-5.804687-4.433593-7.160156zm-155.574219 74.214844v-134.109376l134.113281 67.054688zm0 0" fill="#a1a1a1"/></svg>
