<?xml version="1.0"?>
<svg xmlns="http://www.w3.org/2000/svg" height="512px" viewBox="0 -32 480 480" width="512px"><path d="m56 336c2.128906.023438 4.175781-.8125 5.679688-2.320312 1.507812-1.503907 2.34375-3.550782 2.320312-5.679688-.03125-2.117188-.859375-4.148438-2.320312-5.679688-2.316407-2.238281-5.738282-2.894531-8.71875-1.679687-.980469.386719-1.875.957031-2.640626 1.679687-1.464843 1.53125-2.292968 3.5625-2.320312 5.679688-.023438 2.128906.8125 4.175781 2.320312 5.679688 1.503907 1.507812 3.550782 2.34375 5.679688 2.320312zm0 0" fill="#FFFFFF"/><path d="m224 344c-13.253906 0-24 10.746094-24 24s10.746094 24 24 24 24-10.746094 24-24-10.746094-24-24-24zm0 32c-4.417969 0-8-3.582031-8-8s3.582031-8 8-8 8 3.582031 8 8-3.582031 8-8 8zm0 0" fill="#FFFFFF"/><path d="m160 344c-13.253906 0-24 10.746094-24 24s10.746094 24 24 24 24-10.746094 24-24-10.746094-24-24-24zm0 32c-4.417969 0-8-3.582031-8-8s3.582031-8 8-8 8 3.582031 8 8-3.582031 8-8 8zm0 0" fill="#FFFFFF"/><path d="m288 344c-13.253906 0-24 10.746094-24 24s10.746094 24 24 24 24-10.746094 24-24-10.746094-24-24-24zm0 32c-4.417969 0-8-3.582031-8-8s3.582031-8 8-8 8 3.582031 8 8-3.582031 8-8 8zm0 0" fill="#FFFFFF"/><path d="m352 344c-13.253906 0-24 10.746094-24 24s10.746094 24 24 24 24-10.746094 24-24-10.746094-24-24-24zm0 32c-4.417969 0-8-3.582031-8-8s3.582031-8 8-8 8 3.582031 8 8-3.582031 8-8 8zm0 0" fill="#FFFFFF"/><path d="m416 344c-13.253906 0-24 10.746094-24 24s10.746094 24 24 24 24-10.746094 24-24-10.746094-24-24-24zm0 32c-4.417969 0-8-3.582031-8-8s3.582031-8 8-8 8 3.582031 8 8-3.582031 8-8 8zm0 0" fill="#FFFFFF"/><path d="m432 320h-328.71875c-2.398438-14.070312-10.929688-26.347656-23.28125-33.503906v-145.601563c4.605469-5.226562 7.339844-11.835937 7.777344-18.789062l56.222656-56.152344 79.199219 79.199219c3.125 3.121094 8.1875 3.121094 11.3125 0l5.664062-5.664063 5.601563 5.601563c-1.117188 1.113281-1.882813 2.53125-2.191406 4.078125l-5.65625 28.28125c-.515626 2.613281.304687 5.3125 2.191406 7.199219l22.679687 22.710937c1.5 1.5 3.535157 2.34375 5.65625 2.34375h22.621094v-16h-19.308594l-17.265625-17.253906 4.335938-21.707031 7.273437-7.261719h27.3125l12.277344 12.289062v19.308594h16v-22.621094c0-2.121093-.84375-4.15625-2.34375-5.65625l-16.960937-16.976562c-1.5-1.5-3.53125-2.34375-5.65625-2.34375h-33.941407c-2.121093 0-4.15625.84375-5.65625 2.34375l-5.601562-5.601563 5.664062-5.664062c3.125-3.121094 3.125-8.1875 0-11.3125l-81.40625-81.398438c-1.054687-16.785156-14.980469-29.8593748-31.800781-29.847656-16.785156.0429688-30.671875 13.074219-31.777344 29.824219l-58.320312 58.398437c-16.773438 1.074219-29.847656 14.96875-29.902344 31.777344.019531 7.714844 2.867188 15.160156 8 20.921875v145.597656c-12.34375 7.152344-20.875 19.417969-23.28125 33.480469h-.71875c-4.417969 0-8 3.582031-8 8v80c0 4.417969 3.582031 8 8 8h424c26.507812 0 48-21.492188 48-48s-21.492188-48-48-48zm-203.121094-191.792969-68.613281-68.613281c.6875-.402344 1.300781-.914062 1.949219-1.371094.472656-.335937.960937-.636718 1.417968-1 1.484376-1.144531 2.859376-2.421875 4.109376-3.816406 1.328124-1.484375 2.515624-3.09375 3.546874-4.796875.078126-.136719.199219-.25.277344-.386719l68.640625 68.640625zm-84.878906-112.207031c4.5625-.03125 8.910156 1.929688 11.902344 5.367188 2.640625 2.914062 4.101562 6.703124 4.097656 10.632812l.070312-.257812c-.078124.394531-.125.792968-.140624 1.195312-.140626 3.644531-1.597657 7.117188-4.097657 9.773438-2.105469 2.390624-4.902343 4.066406-8 4.800781-.96875.238281-1.957031.382812-2.953125.433593-.230468 0-.445312.101563-.6875.132813-.367187-.070313-.742187-.117187-1.121094-.132813-8.105468-.433593-14.582031-6.910156-15.015624-15.015624.015624-.3125-.003907-.625-.054688-.929688 0-8.835938 7.164062-16 16-16zm-27.609375 32.296875c.152344.253906.386719.445313.539063.703125 2.542968 4.082031 5.988281 7.527344 10.070312 10.070312.257812.152344.449219.386719.703125.539063l-44.152344 44.09375c-.152343-.253906-.382812-.445313-.535156-.703125-1.230469-2.019531-2.683594-3.898438-4.328125-5.601562l-.101562-.101563c-1.703126-1.644531-3.582032-3.097656-5.601563-4.328125-.257813-.152344-.449219-.382812-.703125-.535156zm-60.328125 55.703125c.289062.046875.582031.078125.875.097656 8.304688.484375 14.855469 7.253906 15.0625 15.574219h.054688c.015624.109375.035156.21875.066406.328125h-.121094c.03125 4.5625-1.929688 8.910156-5.367188 11.902344-4.488281 3.886718-10.734374 5.027344-16.304687 2.976562-1.867187-.691406-3.589844-1.730468-5.070313-3.0625-3.378906-2.992187-5.296874-7.304687-5.257812-11.816406.035156-8.847656 7.21875-16 16.0625-16zm-8.0625 176v-129.015625c.472656.121094.953125.175781 1.433594.273437.476562.09375.917968.191407 1.382812.261719 1.625.285157 3.269532.445313 4.917969.480469h.265625.265625c1.640625-.023438 3.28125-.175781 4.902344-.449219.480469-.078125.953125-.175781 1.425781-.269531.46875-.097656.941406-.152344 1.40625-.273438v128.992188zm8 16c17.671875 0 32 14.328125 32 32s-14.328125 32-32 32-32-14.328125-32-32 14.328125-32 32-32zm-40 58.503906.097656.136719c.988282 1.464844 2.058594 2.878906 3.199219 4.230469.304687.359375.640625.695312.949219 1.050781.875.972656 1.777344 1.917969 2.730468 2.820313.429688.40625.871094.808593 1.320313 1.203124.925781.796876 1.886719 1.597657 2.871094 2.34375.457031.34375.894531.695313 1.367187 1.023438 1.28125.894531 2.609375 1.734375 4 2.503906.183594.105469.351563.222656.535156.328125 1.558594.84375 3.160157 1.605469 4.800782 2.28125.488281.199219 1 .367188 1.503906.550781 1.199219.4375 2.402344.847657 3.664062 1.199219.609376.167969 1.21875.328125 1.832032.472657 1.25.296874 2.511718.535156 3.792968.726562.566407.097656 1.128907.199219 1.703126.265625 3.734374.480469 7.515624.480469 11.25 0 .574218-.066406 1.136718-.167969 1.703124-.265625 1.28125-.191406 2.542969-.429688 3.792969-.726562.613281-.144532 1.222657-.304688 1.832031-.472657 1.246094-.351562 2.460938-.761719 3.664063-1.199219.503906-.183593 1.015625-.351562 1.503906-.550781 1.636719-.675781 3.242188-1.4375 4.796875-2.28125.1875-.105469.355469-.222656.539063-.328125 1.367187-.800781 2.695312-1.601562 4-2.503906.472656-.328125.910156-.679688 1.367187-1.023438.984375-.746093 1.945313-1.519531 2.871094-2.34375.449219-.394531.886719-.796874 1.320312-1.203124.953126-.902344 1.855469-1.847657 2.726563-2.820313.3125-.355469.648437-.691406.953125-1.050781 1.140625-1.351563 2.210938-2.765625 3.199219-4.230469l.113281-.136719v45.496094h-80zm416 45.496094h-320v-64h320c17.671875 0 32 14.328125 32 32s-14.328125 32-32 32zm0 0" fill="#FFFFFF"/><path d="m56 128c2.675781.027344 5.1875-1.300781 6.671875-3.527344 1.484375-2.226562 1.742187-5.050781.6875-7.511718-.386719-.980469-.957031-1.875-1.679687-2.640626-.394532-.363281-.820313-.683593-1.28125-.960937-.40625-.316406-.867188-.558594-1.359376-.71875-.476562-.242187-.996093-.40625-1.527343-.480469-1.023438-.238281-2.089844-.238281-3.113281 0-.5.085938-.984376.25-1.4375.480469-.511719.175781-1 .417969-1.449219.71875-.414063.296875-.8125.617187-1.191407.960937-.707031.777344-1.273437 1.671876-1.679687 2.640626-1.054687 2.460937-.796875 5.285156.6875 7.511718 1.484375 2.226563 3.996094 3.554688 6.671875 3.527344zm0 0" fill="#FFFFFF"/><path d="m138.320312 37.679688c3.15625 3.09375 8.203126 3.09375 11.359376 0 .703124-.777344 1.273437-1.671876 1.679687-2.640626.851563-1.9375.851563-4.140624 0-6.078124-.386719-.980469-.957031-1.875-1.679687-2.640626-2.300782-2.269531-5.742188-2.933593-8.71875-1.679687-2.011719.726563-3.59375 2.308594-4.320313 4.320313-.449219.949218-.667969 1.988281-.640625 3.039062-.015625 1.039062.171875 2.070312.550781 3.039062.472657.953126 1.066407 1.84375 1.769531 2.640626zm0 0" fill="#FFFFFF"/></svg>
