<?xml version="1.0" encoding="UTF-8" standalone="no"?>
<svg width="97px" height="85px" viewBox="0 0 97 85" version="1.1" xmlns="http://www.w3.org/2000/svg" xmlns:xlink="http://www.w3.org/1999/xlink">
    <!-- Generator: sketchtool 41.2 (35397) - http://www.bohemiancoding.com/sketch -->
    <title>89947DCD-5626-4689-89BA-293A417144F6</title>
    <desc>Created with sketchtool.</desc>
    <defs></defs>
    <g id="REVIEW" stroke="none" stroke-width="1" fill="none" fill-rule="evenodd">
        <g id="Rescue-Homepage-Concept---FINAL" transform="translate(-703.000000, -696.000000)">
            <g id="Features-Module" transform="translate(1.000000, 500.000000)">
                <g id="Feature-Icons" transform="translate(299.000000, 182.000000)">
                    <g id="brain_support_icon" transform="translate(405.000000, 14.000000)">
                        <path d="M40.6645083,6.69370707 C40.6645083,6.69370707 40.6558972,6.6799697 40.6395361,6.65421212 C40.6093972,6.61471717 40.5654806,6.55547475 40.5077861,6.47906061 C40.3812028,6.31764646 40.1702306,6.07123232 39.871425,5.77759596 C39.2763972,5.19118182 38.3093694,4.40557576 36.9505361,3.80971717 C35.5985917,3.20956566 33.8376194,2.84724242 31.888925,2.99577778 C30.9270639,3.06274747 29.8773694,3.24219192 28.9551194,3.57618182 C28.0199528,3.91188889 27.1235361,4.42188889 26.3287306,5.08729293 C24.7305083,6.40779798 23.5180639,8.26148485 22.650925,10.1186061 C21.790675,11.9800202 21.3282583,13.8783535 21.2395639,15.5319899 C21.1431194,17.1873434 21.3937028,18.5816869 21.6735639,19.518404 C21.8078972,19.9906263 21.9422306,20.3546667 22.0429806,20.5985051 C22.1437306,20.843202 22.1962583,20.9737071 22.1962583,20.9737071 C22.1962583,20.9737071 22.1299528,20.8492121 22.0059528,20.6156768 C21.8793694,20.3821414 21.7071472,20.0318384 21.5228694,19.5707778 C21.1439806,18.6546667 20.7383972,17.2611818 20.6600361,15.5285556 C20.5747861,13.8002222 20.8520639,11.7550707 21.5607583,9.68673737 C21.9163972,8.65385859 22.3693417,7.61325253 22.9411194,6.59754545 C23.5094528,5.57153535 24.262925,4.61335354 25.146425,3.76850505 C26.0273417,2.92022222 27.0770361,2.21532323 28.2050917,1.71991919 C28.7622306,1.47264646 29.3641472,1.2760303 29.9057861,1.13007071 C30.4732583,0.972949495 31.0321194,0.835575758 31.5995917,0.73769697 C33.8625917,0.326434343 36.1298972,0.529060606 37.9485639,1.12577778 C39.778425,1.71305051 41.1493139,2.60340404 42.0353972,3.31087879 C42.4814528,3.66633333 42.8121194,3.978 43.0394528,4.21067677 C43.1539806,4.33431313 43.242675,4.42875758 43.3020917,4.49229293 C43.3709806,4.573 43.4062861,4.61507071 43.4062861,4.61507071 L40.6645083,6.69370707 Z" id="Fill-1" fill="#0DA5E4"></path>
                        <path d="M21.855775,10.9883535 C21.855775,10.9883535 21.8127194,10.9720404 21.7300528,10.9402727 C21.6370528,10.9067879 21.4880806,10.8544141 21.2857194,10.792596 C20.8818583,10.6672424 20.2661639,10.4989596 19.4661917,10.3572929 C17.8826083,10.0859798 15.4818306,9.88678788 12.9191639,10.7874444 C11.6507472,11.2442121 10.3728583,11.9997677 9.23963611,13.0970404 C8.95374722,13.3923939 8.69799722,13.6396667 8.41813611,13.9839596 C8.18563611,14.2664343 7.93333056,14.613303 7.71633056,14.9558788 C7.27371944,15.6521919 6.90171944,16.4274949 6.60635833,17.2560303 C6.03544167,18.9354242 5.67291389,20.8311818 5.61091389,22.7200707 C5.55235833,24.6106768 5.84858056,26.5347677 6.66060833,28.2339091 C7.47091389,29.9304747 8.81769167,31.3522929 10.455525,32.3353737 C12.1045528,33.352798 13.9266639,33.9520909 15.7703028,34.2963838 C17.6053306,34.6269394 19.4360528,34.6501212 21.1281361,34.3642121 C22.8228028,34.0894646 24.3659139,33.5013333 25.6911639,32.7801212 C27.0181361,32.0546162 28.1151917,31.1762828 29.009025,30.3228485 C29.4748861,29.913303 29.8425806,29.4616869 30.2197472,29.0787576 C30.559025,28.663202 30.884525,28.2897172 31.155775,27.9359798 C31.690525,27.2199192 32.0952472,26.6446667 32.3432472,26.2342626 C32.6033028,25.8315859 32.7428028,25.6160808 32.7428028,25.6160808 C32.7428028,25.6160808 32.6153583,25.8384545 32.3759694,26.2540101 C32.1486361,26.6781515 31.7749139,27.2748687 31.2746083,28.0218384 C31.0205806,28.3918889 30.7131639,28.7842626 30.3919694,29.2221414 C30.032025,29.6282525 29.6824139,30.1047677 29.2320528,30.5452222 C28.3692194,31.4587576 27.2954139,32.4169394 25.9615528,33.2394646 C24.6311361,34.0568384 23.0501361,34.7574444 21.2788306,35.1412323 C19.5109694,35.5353232 17.5708861,35.6134545 15.6058306,35.3627475 C14.6224417,35.2339596 13.6321639,35.0330505 12.6504972,34.7359798 C12.1570806,34.588303 11.6731361,34.4217374 11.176275,34.213101 C10.7198861,34.0113333 10.2213028,33.7915354 9.76060833,33.5365354 C7.882525,32.5422929 6.19819167,30.9685051 5.139025,29.0126465 C4.07555278,27.0593636 3.62691389,24.8433535 3.581275,22.7183535 C3.54424722,20.5821919 3.82238611,18.523303 4.38210833,16.5391111 C4.67833056,15.5440101 5.07530278,14.5841111 5.57733056,13.6937576 C5.83221944,13.2421414 6.09399722,12.832596 6.41433056,12.4007273 C6.68385833,12.0289596 7.04035833,11.6254242 7.35035833,11.2742626 C8.67216389,9.843 10.2634972,8.77148485 11.8548306,8.10350505 C13.4513306,7.43981818 15.0159694,7.13072727 16.3903028,7.02769697 C17.7689417,6.91865657 18.9658861,6.99335354 19.941525,7.10754545 C20.9171639,7.22688889 21.6749417,7.3900202 22.196775,7.52138384 C22.4585528,7.58663636 22.6609139,7.64416162 22.8038583,7.68794949 C22.9554139,7.7360303 23.0346361,7.76092929 23.0346361,7.76092929 L21.855775,10.9883535 Z" id="Fill-3" fill="#0DA5E4"></path>
                        <path d="M24.97205,33.6899646 C24.9703278,33.6839545 24.9772167,33.7079949 24.9703278,33.6848131 C24.9660222,33.6745101 24.9599944,33.6573384 24.9522444,33.6358737 C24.9436333,33.6169848 24.9384667,33.6101162 24.9333,33.6066818 C24.92555,33.6015303 24.92555,33.6212778 24.9367444,33.6513283 C24.9574111,33.6908232 24.9505222,33.7011263 25.0374944,33.7912778 C25.1029389,33.848803 25.1089667,33.8565303 25.1141333,33.8685505 C25.1081056,33.8771364 25.1683833,33.9200657 25.2088556,33.9518333 C25.2992722,34.0213788 25.4138,34.0995101 25.5421056,34.1836515 C26.5849111,34.8550657 28.2838833,35.8596111 29.5169944,37.3217828 C30.1387167,38.0455707 30.6347167,38.8698131 30.9541889,39.6811768 C31.2753833,40.493399 31.4183278,41.2824394 31.4743,41.9469848 C31.5345778,42.6132475 31.4923833,43.1610253 31.46655,43.538803 C31.4226333,43.9148636 31.3968,44.1295101 31.3968,44.1295101 C31.3968,44.1295101 31.3658,43.9174394 31.3106889,43.5448131 C31.2374944,43.1773384 31.1376056,42.6527424 30.9188833,42.0646111 C30.70705,41.4773384 30.3918833,40.8248131 29.9441056,40.2263788 C29.4971889,39.6270859 28.9262722,39.0870354 28.2847444,38.6517323 C27.6423556,38.2164293 26.94055,37.8790051 26.2456333,37.6145606 C25.5507167,37.3449646 24.8730222,37.1543586 24.2254667,36.9422879 C24.0627167,36.888197 23.9008278,36.8323889 23.7311889,36.7662778 C23.6424944,36.7293586 23.5753278,36.7078939 23.4504667,36.6443586 C23.3591889,36.5979949 23.2696333,36.5524899 23.1835222,36.5095606 C22.8321889,36.313803 22.4989389,35.998702 22.2871056,35.7462778 C22.0649389,35.4826919 21.9228556,35.2422879 21.8289944,35.0559747 C21.7824944,34.9623889 21.74805,34.8842576 21.7222167,34.8164293 C21.6920778,34.7314293 21.6765778,34.6876414 21.6765778,34.6876414 L24.97205,33.6899646 Z" id="Fill-5" fill="#0DA5E4"></path>
                        <path d="M6.58629444,30.4459697 C6.58629444,30.4459697 -5.87570556,42.2480909 3.48457222,53.3822323 C3.68176667,53.6166263 3.90651667,53.8338485 4.1416,54.0296061 L5.21885,54.9242525 C5.52023889,55.1749596 5.86726667,55.3621313 6.23496111,55.4995051 C6.94796111,55.7656667 8.06482222,56.4027374 7.19854444,57.6167778 C6.23926667,58.9604646 5.53487778,60.4801616 5.27568333,62.108899 C4.99323889,63.8810202 5.01476667,66.0463737 6.0481,68.009101 C6.0481,68.009101 10.24085,82.8420303 22.0148222,72.964 C23.4640722,71.5241515 24.4560722,71.8006162 24.57835,72.0126869" id="Stroke-7" stroke="#0DA5E4" stroke-width="3.44"></path>
                        <path d="M6.0481,68.009101 C6.0481,68.009101 10.24085,82.8420303 22.0148222,72.964 C23.3064889,71.8366768 23.8980722,71.7834444 24.57835,72.0126869" id="Stroke-9" stroke="#0DA5E4" stroke-width="3.44"></path>
                        <path d="M41.2074389,55.2294798 C41.2074389,55.2294798 41.0998,55.2784192 40.8983,55.3694293 C40.7028278,55.4561465 40.4212444,55.5694798 40.0613,55.7068535 C39.3414111,55.9730152 38.3098,56.3207424 37.0396611,56.6057929 C35.7712444,56.8882677 34.2643,57.1243788 32.6333556,57.1312475 C31.0067167,57.1578636 29.2578,56.9234697 27.6079111,56.3894293 C26.7872722,56.1112475 25.9873,55.7746818 25.2527722,55.3531162 C24.8824944,55.1470556 24.52255,54.9332677 24.1884389,54.6877121 C23.8422722,54.4636212 23.5245222,54.2086212 23.22055,53.9510455 C22.9036611,53.7072071 22.6272444,53.4298838 22.3542722,53.1628636 C22.0718278,52.9052879 21.8289944,52.6228131 21.5921889,52.3489242 C21.1013556,51.8174596 20.7216056,51.2473586 20.3573556,50.7407929 C20.02755,50.2084697 19.7046333,49.7371061 19.4816056,49.281197 C19.2456611,48.8338737 19.0278,48.4526616 18.8908833,48.116096 C18.5955222,47.4575606 18.4267444,47.0806414 18.4267444,47.0806414 C18.4267444,47.0806414 18.6308278,47.4386717 18.98905,48.0645808 C19.1561056,48.3831162 19.4101333,48.7411465 19.6848278,49.1575606 C19.9474667,49.5834192 20.3108556,50.0161465 20.6819944,50.5012475 C21.0849944,50.9597323 21.5043556,51.4740253 22.0253278,51.9359444 C22.2767722,52.1763485 22.5342444,52.421904 22.8261611,52.6399848 C23.1103278,52.8666515 23.3944944,53.1027626 23.7139667,53.3019545 C24.0231056,53.5148838 24.3408556,53.7235202 24.6835778,53.8995303 C25.0133833,54.0970051 25.3647167,54.2609949 25.7229389,54.416399 C26.4324944,54.7366515 27.1902722,54.9701869 27.9549389,55.1487727 C29.4920222,55.4836212 31.0747444,55.5402879 32.5369111,55.3728636 C34.0016611,55.2243283 35.3424111,54.8774596 36.4601333,54.5108434 C37.5795778,54.1416515 38.4759944,53.7381162 39.0848,53.4427626 C39.38705,53.2916515 39.6221333,53.1688737 39.7728278,53.0838737 C39.9157722,53.0005909 39.9932722,52.9559444 39.9932722,52.9559444 L41.2074389,55.2294798 Z" id="Fill-11" fill="#0DA5E4"></path>
                        <path d="M24.9748056,55.0152626 C24.9653333,55.0238485 24.8292778,55.1869798 24.5485556,55.4222323 C24.3995833,55.5407172 24.2428611,55.6712222 23.9733333,55.8137475 C23.7761389,55.9090505 23.5539722,56.0163737 23.312,56.1331414 C22.3561667,56.6096566 21.1118611,57.3248586 20.0208333,58.2452626 C18.9229167,59.1545051 18.0239167,60.299 17.5916389,61.2906667 C17.3694722,61.7817778 17.2394444,62.2170808 17.1731389,62.5270303 C17.1059722,62.8369798 17.081,63.019 17.081,63.019 C17.081,63.019 17.0870278,62.8369798 17.1206111,62.5184444 C17.1541944,62.1999091 17.2385833,61.7465758 17.4125278,61.2202626 C17.7457778,60.1599091 18.5535,58.8668788 19.5980278,57.7979394 C20.6339444,56.7178384 21.8532778,55.8334949 22.7961944,55.2324848 C23.033,55.0856667 23.25,54.9508687 23.4428889,54.8315253 C23.5617222,54.7576869 23.7089722,54.6443535 23.8028333,54.5576364 C24.0051944,54.3747576 24.0990556,54.2528384 24.0904444,54.2631414 L24.9748056,55.0152626 Z" id="Fill-13" fill="#0DA5E4"></path>
                        <path d="M62.8407889,72.6115505 L62.8554278,72.991904 L62.8494,73.6032172 C62.8278722,73.9938737 62.7899833,74.3330152 62.7262611,74.6893283 C62.6014,75.3907929 62.3947333,76.0553384 62.1372611,76.6726616 C61.6180111,77.9090253 60.9101778,78.9590758 60.1351778,79.8829141 C59.3550111,80.8067525 58.5025111,81.6086717 57.5837056,82.3324596 C57.1230111,82.6956414 56.6485389,83.0347828 56.11465,83.3670556 L55.6858167,83.6186212 L55.3672056,83.7843283 L55.1906778,83.8581667 L54.8393444,84.0075606 L54.3450667,84.191298 C53.6596222,84.4394293 53.0620111,84.5630657 52.3972333,84.6652374 C51.7453722,84.7536717 51.0892056,84.7725606 50.4442333,84.7382172 C49.1542889,84.6549343 47.9297889,84.3346818 46.8198167,83.871904 C45.7089833,83.4065505 44.7014833,82.8106919 43.7818167,82.1349848 C43.3202611,81.7975606 42.8810944,81.4403889 42.45915,81.0626111 C42.0268722,80.6728131 41.6574556,80.3182172 41.2122611,79.8202374 L43.5932333,79.9352879 L42.6244833,80.7148838 L42.42815,80.8720051 L42.3515111,80.9106414 C41.7685389,81.2034192 41.2828722,81.4017525 40.7438167,81.6112475 C40.2168167,81.8147323 39.6837889,81.9941768 39.1447333,82.1564495 C38.0692056,82.4835707 36.9652611,82.7274091 35.84065,82.876803 C33.6043444,83.1790253 31.2199278,83.0562475 29.0430389,82.2028131 C28.5014,81.9898838 27.9812889,81.7271566 27.4818444,81.4343788 L26.7585111,80.9561465 L26.0825389,80.4203889 C25.6537056,80.0391768 25.2515667,79.6373586 24.8864556,79.2063485 C24.5368444,78.7693283 24.1794833,78.336601 23.8875667,77.8180152 C23.2951222,76.771399 23.0324833,75.5693788 23.1762889,74.391399 C23.3330111,73.2220051 23.8686222,72.0921061 24.8442611,71.3717525 L24.7848444,71.4301364 C24.9364,71.2704394 25.0698722,71.1571061 25.2205667,71.0351869 C25.3678167,70.9184192 25.5185111,70.806803 25.6752333,70.7046313 C25.9852333,70.4977121 26.3150389,70.3225606 26.6551778,70.1748838 C27.3363167,69.8829646 28.0665389,69.7103889 28.7976222,69.6897828 C30.2692611,69.6365505 31.6668444,70.1594293 32.8500111,70.9072576 C31.5970944,70.2744798 30.1857333,69.9138737 28.8312056,70.0993283 C28.1569556,70.1834697 27.5102611,70.4075606 26.9264278,70.7278131 C26.6345111,70.8900859 26.3563722,71.0746818 26.0997611,71.2841768 C25.9705944,71.3880657 25.8483167,71.4988232 25.7312056,71.6121566 C25.6175389,71.7229141 25.4961222,71.8534192 25.4160389,71.9573081 L25.3557611,72.0156919 C24.6780667,72.6201364 24.3258722,73.5808939 24.3034833,74.4824091 C24.2793722,75.396803 24.5867889,76.3232172 25.1034556,77.0521566 C25.36265,77.4282172 25.7148444,77.7776616 26.0541222,78.1288232 C26.4037333,78.4671061 26.7774556,78.771904 27.1632333,79.0543788 L27.7642889,79.441601 L28.3920389,79.7730152 C28.8225944,79.9696313 29.2609,80.1404899 29.7138444,80.2692778 C31.5282056,80.7801364 33.4872333,80.7037222 35.3730667,80.2589747 C36.3177056,80.0374596 37.2502889,79.7352374 38.1553167,79.3600354 C38.6074,79.1737222 39.0551778,78.9728131 39.4900389,78.7538737 C39.9137056,78.5426616 40.3778444,78.2902374 40.7145389,78.0747323 L40.4415667,78.2704899 L41.3302333,77.401601 L42.41265,76.3421061 L43.7112056,77.5166515 C43.9704,77.7510455 44.3622056,78.0730152 44.7144,78.3280152 C45.0795111,78.5941768 45.4566778,78.8431667 45.8415944,79.0706919 C46.6097056,79.526601 47.4105389,79.8915 48.2079278,80.1336212 C49.0061778,80.3757424 49.7966778,80.4856414 50.5432611,80.4564495 C50.9152611,80.4349848 51.2777889,80.386904 51.6291222,80.3010455 C51.9623722,80.2134697 52.3559,80.0838232 52.6133722,79.9498838 L52.8269278,79.8494293 L53.1627611,79.6674091 L53.3306778,79.576399 C53.4185111,79.5317525 53.5683444,79.4141263 53.5683444,79.4141263 C53.8895389,79.1951869 54.2331222,78.9281667 54.5586222,78.6474091 C55.2130667,78.0850354 55.82015,77.4574091 56.3221778,76.8040253 C56.8242056,76.1523586 57.2211778,75.4697828 57.4562611,74.8189747 C57.5742333,74.4944293 57.6517333,74.1784697 57.6896222,73.8779646 C57.7094278,73.7337222 57.7163167,73.5671566 57.7171778,73.4521061 C57.7120111,73.3988737 57.7180389,73.3894293 57.7145944,73.3018535 L57.6835944,72.9223586 L62.8407889,72.6115505 Z" id="Fill-15" fill="#0DA5E4"></path>
                        <path d="M60.7097111,72.0230758 C60.7097111,72.0230758 60.75535,72.0428232 60.8440444,72.0814596 C60.9473778,72.1218131 61.1006556,72.1810556 61.3012944,72.2600455 C61.7154889,72.410298 62.3432389,72.6249444 63.1612944,72.8267121 C63.9784889,73.0284798 64.9885722,73.2259545 66.1441833,73.3006515 C67.2989333,73.3813586 68.6026556,73.3289848 69.9434056,73.0061566 C71.2824333,72.6824697 72.6369611,72.0393889 73.8339056,71.0090859 C75.0334333,69.970197 76.0288778,68.5732778 76.6850444,66.8930253 C77.3265722,65.2385303 77.7226833,63.2612071 77.8501278,61.3362576 C77.9689611,59.3958535 77.7536833,57.4090859 77.0277667,55.6180758 C76.3027111,53.8287828 75.0222389,52.2936313 73.40335,51.2118131 C71.79135,50.1214091 69.9201556,49.4113586 68.0532667,49.0318636 C66.1872389,48.6497929 64.3126,48.5905505 62.5809056,48.8678737 C60.8423222,49.1185808 59.2647667,49.7281768 57.9111,50.465702 C56.55485,51.210096 55.4362667,52.1141869 54.5286556,52.9933788 C54.0550444,53.4166616 53.6804611,53.8794394 53.29985,54.2761061 C52.9536833,54.7019646 52.6281833,55.0900455 52.3509056,55.4532273 C51.81185,56.1907525 51.4028222,56.7831768 51.1522389,57.205601 C50.8896,57.620298 50.7501,57.8418131 50.7501,57.8418131 C50.7501,57.8418131 50.8784056,57.6134293 51.1186556,57.1849949 C51.34685,56.7488333 51.7248778,56.135803 52.2286278,55.3656515 C52.4886833,54.9870152 52.7952389,54.5791869 53.1224611,54.1310051 C53.4849889,53.7111566 53.8406278,53.2217626 54.2978778,52.7675707 C55.1744889,51.825702 56.2689611,50.840904 57.6329611,49.9960556 C58.9943778,49.1597929 60.6141278,48.4334293 62.4362389,48.0719646 C64.2506,47.6838838 66.2414889,47.6418131 68.2478778,47.9448939 C70.2525444,48.2479747 72.2951,48.8893384 74.1731833,50.0175202 C76.0521278,51.1302475 77.6718778,52.8568636 78.6285722,54.9140354 C79.5904333,56.9694899 79.9434889,59.2344394 79.9245444,61.4023687 C79.8849333,63.5883283 79.5964611,65.6575202 78.9334056,67.7052475 C78.27035,69.7246414 77.1156,71.5817626 75.6551556,72.9778232 C74.1912667,74.3850455 72.4277111,75.3355 70.7330444,75.8360556 C69.03235,76.3400455 67.42035,76.4782778 66.0236278,76.4533788 C64.6217389,76.4336313 63.4222111,76.2619141 62.4474333,76.0730253 C61.4709333,75.8849949 60.7174611,75.6712071 60.1990722,75.5115101 C59.9364333,75.4239343 59.7357944,75.3569646 59.5997389,75.3123182 C59.4516278,75.2573687 59.37585,75.2290354 59.37585,75.2290354 L60.7097111,72.0230758 Z" id="Fill-18" fill="#0DA5E4"></path>
                        <path d="M58.4999278,49.5805859 C58.50165,49.586596 58.4947611,49.5634141 58.50165,49.5848788 C58.5059556,49.5960404 58.5111222,49.6123535 58.5188722,49.6329596 C58.5274833,49.6518485 58.53265,49.6578586 58.5360944,49.6604343 C58.5438444,49.6630101 58.5429833,49.642404 58.5309278,49.6106364 C58.5094,49.5694242 58.5162889,49.5591212 58.4319,49.4681111 C58.3664556,49.4097273 58.3604278,49.4028586 58.3561222,49.3899798 C58.3638722,49.3822525 58.3010111,49.3384646 58.2614,49.3058384 C58.1709833,49.2354343 58.0555944,49.1547273 57.9272889,49.0688687 C56.8767333,48.3811414 55.1588167,47.3465455 53.9334556,45.8448788 C53.3134556,45.1039192 52.8269278,44.2607879 52.5126222,43.4382626 C52.2017611,42.6114444 52.0622611,41.8138182 52.0114556,41.1415455 C51.9546222,40.4675556 51.9976778,39.9137677 52.0252333,39.5308384 C52.0700111,39.1504848 52.0949833,38.9332626 52.0949833,38.9332626 C52.0949833,38.9332626 52.1268444,39.1479091 52.1828167,39.5248283 C52.2542889,39.8974545 52.3559,40.4289192 52.5729,41.0256364 C52.7830111,41.6232121 53.0981778,42.2860404 53.5407889,42.8999293 C53.9885667,43.512101 54.5551778,44.0710404 55.1984278,44.5192222 C55.8399556,44.9699798 56.5460667,45.3194242 57.2444278,45.5941717 C57.94365,45.8732121 58.6265111,46.0715455 59.2800944,46.2913434 C59.4437056,46.3471515 59.6081778,46.4055354 59.7795389,46.4742222 C59.8699556,46.5128586 59.9362611,46.5343232 60.0628444,46.6004343 C60.1549833,46.6485152 60.2454,46.6948788 60.3323722,46.7403838 C60.6888722,46.9430101 61.0221222,47.266697 61.2330944,47.5242727 C61.4535389,47.7921515 61.5939,48.0351313 61.6860389,48.222303 C61.7325389,48.3167475 61.7661222,48.3957374 61.7919556,48.4635657 C61.8212333,48.5477071 61.8367333,48.5914949 61.8367333,48.5914949 L58.4999278,49.5805859 Z" id="Fill-20" fill="#0DA5E4"></path>
                        <path d="M76.9060917,52.9088081 C76.9060917,52.9088081 89.7340639,44.533303 80.372925,33.1604747 C80.1757306,32.9217879 79.9518417,32.7002727 79.7158972,32.5002222 L78.8117306,31.7335051 C78.5103417,31.4776465 77.9902306,31.1393636 77.6225361,30.9985556 C76.9095361,30.7272424 75.5102306,29.8214343 76.6589528,28.8357778 C88.1763139,18.9620404 68.6842028,0.690474747 61.4775639,9.48325253 C60.0283139,10.9531515 59.0363139,10.6715354 58.9140361,10.4543131" id="Stroke-22" stroke="#0DA5E4" stroke-width="3.47612"></path>
                        <path d="M41.9938917,4.24441919 C42.4683639,3.84689394 42.8980583,3.53436869 43.3613361,3.21239899 C43.8194472,2.89729798 44.2878917,2.60022727 44.7649472,2.31775253 C45.7233639,1.75881313 46.7222528,1.25825758 47.7822806,0.864166667 C48.8405861,0.470934343 49.9514194,0.16270202 51.118225,0.0528030303 C51.699475,-0.000429292929 52.2893361,-0.0236111111 52.8826417,0.0330555556 C53.4750861,0.0725505051 54.0640861,0.19790404 54.6375861,0.356742424 C55.2059194,0.541338384 55.7587528,0.769722222 56.2685306,1.06679293 C56.7783083,1.36128788 57.2536417,1.70472222 57.6781694,2.08936869 C58.1095861,2.46886364 58.4867528,2.89214646 58.837225,3.32573232 L59.3444194,4.0134596 C59.4710028,4.20835859 59.6440861,4.48739899 59.7741139,4.75785354 C60.2899194,5.80618687 60.5086417,6.99962121 60.332975,8.15098485 C60.1564472,9.29290404 59.6225583,10.3944697 58.6658639,11.1182576 L58.728725,11.0555808 C58.5763083,11.2195707 58.4428361,11.3337626 58.2930028,11.457399 C58.1457528,11.5767424 57.9950583,11.6909343 57.8383361,11.7948232 C57.527475,12.0060354 57.1976694,12.1854798 56.8566694,12.3365909 C56.1729472,12.6353788 55.4375583,12.8139646 54.7021694,12.8337121 C53.2210583,12.8886616 51.8200306,12.3486111 50.6420306,11.5844697 C51.8940861,12.2266919 53.311475,12.5950253 54.6651417,12.4009848 C55.3393917,12.3134091 55.9835028,12.0824495 56.5638917,11.7544697 C56.853225,11.5887626 57.1287806,11.3998737 57.3819472,11.1860859 C57.5093917,11.0813384 57.6299472,10.9688636 57.7461972,10.8538131 C57.8572806,10.7413384 57.9778361,10.6091162 58.0553361,10.5052273 L58.0656694,10.4906313 L58.1181972,10.4425505 C58.7640306,9.84926768 59.1136417,8.91598485 59.1506694,8.02906566 C59.193725,7.13098485 58.9267806,6.23032828 58.4523083,5.47906566 C58.3386417,5.29532828 58.224975,5.14593434 58.0493083,4.92441919 L57.5782806,4.41785354 C57.2441694,4.08472222 56.8971417,3.7704798 56.5225583,3.50861111 C56.1531417,3.23901515 55.7596139,3.0175 55.3548917,2.83805556 C54.9510306,2.65689394 54.5290861,2.53840909 54.1045583,2.4465404 C53.6722806,2.38042929 53.2408639,2.3314899 52.8008361,2.35209596 C52.3633917,2.3555303 51.9207806,2.42335859 51.482475,2.51093434 C50.6041417,2.68866162 49.7378639,3.0295202 48.9034472,3.44593434 C48.0673083,3.86234848 47.2647528,4.3775 46.4975028,4.94330808 C46.1151694,5.22835859 45.7414472,5.52542929 45.3806417,5.83537879 C45.026725,6.14017677 44.6573083,6.48017677 44.3731417,6.77810606 L41.9938917,4.24441919 Z" id="Fill-24" fill="#0DA5E4"></path>
                        <path d="M61.4778222,9.48325253 C60.1861556,10.6346162 59.5937111,10.6887071 58.9142944,10.4543131" id="Stroke-26" stroke="#0DA5E4" stroke-width="3.47612"></path>
                        <path d="M44.0015722,30.6834545 C44.0015722,30.6834545 44.1092111,30.6336566 44.3115722,30.5400707 C44.5087667,30.4507778 44.7912111,30.3340101 45.1520167,30.193202 C45.87535,29.9201717 46.9112667,29.5621414 48.1882944,29.2693636 C49.4644611,28.978303 50.9826,28.7370404 52.6256,28.7310303 C53.4453778,28.7190101 54.2952944,28.7765354 55.1469333,28.9010303 C56.0011556,29.0160808 56.8527944,29.2367374 57.6820444,29.5046162 C58.5035444,29.7982525 59.3078222,30.1399697 60.0397667,30.5787071 C60.4134889,30.7847677 60.7674056,31.0131515 61.1006556,31.2621414 C61.4476833,31.4905253 61.7576833,31.7592626 62.0642389,32.017697 C62.6721833,32.5405758 63.2138222,33.0926465 63.6762389,33.6541616 C63.9199333,33.9237576 64.1360722,34.202798 64.3306833,34.4835556 C64.5252944,34.7634545 64.7362667,35.0150202 64.8947111,35.2880505 C65.2236556,35.8255253 65.5388222,36.3054747 65.7592667,36.7656768 C65.9926278,37.2172929 66.2061833,37.6036566 66.3413778,37.942798 C66.6324333,38.608202 66.7986278,38.9885556 66.7986278,38.9885556 C66.7986278,38.9885556 66.5962667,38.6270909 66.2414889,37.9943131 C66.0752944,37.673202 65.8255722,37.3100202 65.5517389,36.8884545 C65.2916833,36.458303 64.9343222,36.0169899 64.5640444,35.5267374 C64.3849333,35.2768889 64.1541556,35.0510808 63.9397389,34.8003737 C63.7270444,34.5479495 63.4919611,34.3006768 63.2327667,34.0645657 C62.7384889,33.5717374 62.1718778,33.0986566 61.5544611,32.6667879 C61.2436,32.453 60.9327389,32.2306263 60.5891556,32.0511818 C60.25935,31.8511313 59.9123222,31.673404 59.5515167,31.5188586 C58.8436833,31.1831515 58.0833222,30.9470404 57.3195167,30.7547172 C54.2203778,30.0240606 51.0075722,30.6190606 48.7850444,31.3840606 C47.6630167,31.7601212 46.7657389,32.173101 46.1560722,32.4744646 C45.8538222,32.6281515 45.6196,32.7535051 45.4689056,32.8402222 C45.3259611,32.9252222 45.2493222,32.9698687 45.2493222,32.9698687 L44.0015722,30.6834545 Z" id="Fill-28" fill="#0DA5E4"></path>
                        <path d="M60.2421278,30.8933788 C60.2516,30.8847929 60.3876556,30.7182273 60.6692389,30.4778232 C60.8182111,30.355904 60.9766556,30.2211061 61.2479056,30.0751465 C61.4459611,29.9772677 61.66985,29.8673687 61.9135444,29.7463081 C62.8762667,29.2560556 64.1266,28.5185303 65.2184889,27.5732273 C66.3172667,26.640803 67.2093778,25.4688333 67.6382111,24.4625707 C67.8586556,23.9637323 67.9869611,23.5215606 68.0532667,23.2081768 C68.1195722,22.8939343 68.1445444,22.710197 68.1445444,22.710197 C68.1445444,22.710197 68.1385167,22.8947929 68.1057944,23.2167626 C68.0730722,23.5387323 67.9912667,23.9972172 67.8199056,24.5312576 C67.4918222,25.6062071 66.6952944,26.9258535 65.6507667,28.0205505 C64.6165722,29.1264091 63.3920722,30.0339343 62.4431278,30.6512576 C62.2046,30.8023687 61.9858778,30.940601 61.7929889,31.0625202 C61.6724333,31.1389343 61.5260444,31.2548434 61.4313222,31.3432778 C61.2289611,31.5304495 61.1351,31.6549444 61.1437111,31.6437828 L60.2421278,30.8933788 Z" id="Fill-30" fill="#0DA5E4"></path>
                        <path d="M42.463038,6.10424582 L42.4770662,78.7962226" id="Stroke-32" stroke="#0DA5E4" stroke-width="5.16" stroke-linecap="round"></path>
                        <path d="M53.5884083,63.4658081 C53.5884083,52.6785354 62.3596861,43.9329798 73.1786861,43.9329798 C83.9976861,43.9329798 92.7689639,52.6785354 92.7689639,63.4658081 C92.7689639,74.2530808 83.9976861,82.9986364 73.1786861,82.9986364 C62.3596861,82.9986364 53.5884083,74.2530808 53.5884083,63.4658081" id="Fill-34" fill="#0DA5E4"></path>
                        <path d="M53.5884083,63.4658081 C53.5884083,52.6785354 62.3596861,43.9329798 73.1786861,43.9329798 C83.9976861,43.9329798 92.7689639,52.6785354 92.7689639,63.4658081 C92.7689639,74.2530808 83.9976861,82.9986364 73.1786861,82.9986364 C62.3596861,82.9986364 53.5884083,74.2530808 53.5884083,63.4658081 Z" id="Stroke-36" stroke="#0DA5E4" stroke-width="3.01"></path>
                        <path d="M85.4628667,65.9079697 C85.4628667,66.8103434 84.7231722,67.5487273 83.8172833,67.5487273 L77.2737,67.5487273 L77.2737,74.0739798 C77.2737,74.9754949 76.5331444,75.7147374 75.6289778,75.7147374 L70.7292556,75.7147374 C69.8242278,75.7147374 69.0836722,74.9754949 69.0836722,74.0739798 L69.0836722,67.5487273 L62.5400889,67.5487273 C61.6350611,67.5487273 60.8945056,66.8103434 60.8945056,65.9079697 L60.8945056,61.0234747 C60.8945056,60.121101 61.6350611,59.3827172 62.5400889,59.3827172 L69.0836722,59.3827172 L69.0836722,52.8574646 C69.0836722,51.9550909 69.8242278,51.2167071 70.7292556,51.2167071 L75.6289778,51.2167071 C76.5331444,51.2167071 77.2737,51.9550909 77.2737,52.8574646 L77.2737,59.3827172 L83.8172833,59.3827172 C84.7231722,59.3827172 85.4628667,60.121101 85.4628667,61.0234747 L85.4628667,65.9079697 Z" id="Fill-38" fill="#FFFFFF"></path>
                    </g>
                </g>
            </g>
        </g>
    </g>
</svg>