<?xml version="1.0" encoding="UTF-8" standalone="no"?>
<svg width="116px" height="73px" viewBox="0 0 116 73" version="1.1" xmlns="http://www.w3.org/2000/svg" xmlns:xlink="http://www.w3.org/1999/xlink">
    <!-- Generator: sketchtool 41.2 (35397) - http://www.bohemiancoding.com/sketch -->
    <title>8963C6A4-E1BE-4836-95BE-FF7662972549</title>
    <desc>Created with sketchtool.</desc>
    <defs></defs>
    <g id="REVIEW" stroke="none" stroke-width="1" fill="none" fill-rule="evenodd">
        <g id="Rescue-Homepage-Concept---FINAL" transform="translate(-300.000000, -702.000000)">
            <g id="Features-Module" transform="translate(1.000000, 500.000000)">
                <g id="Feature-Icons" transform="translate(299.000000, 182.000000)">
                    <g id="rabbit_connect_icon" transform="translate(0.000000, 22.000000)">
                        <path d="M112.481425,26.8435029 C112.481425,26.8435029 109.682318,23.2074735 108.834104,18.5567382 C108.834104,18.5567382 107.287639,14.8855324 101.998175,13.8376794 C101.044104,13.6489441 100.101568,13.4209735 99.1848179,13.0969441 C94.3818893,11.3996794 79.7084607,6.05894412 69.137675,0.545708824 C69.137675,0.545708824 59.3832107,-2.49840882 65.3207107,5.78835588 C65.3207107,5.78835588 77.2805321,15.7662971 89.1555321,16.8655618 C89.1555321,16.8655618 87.1198179,20.2479147 87.543925,23.2074735 C87.543925,23.2074735 72.2760679,17.7957088 55.8207107,18.0493853 C55.8207107,18.0493853 37.4992821,19.7405618 43.3519607,33.2699735 L57.3474964,56.1854147 L86.1867821,68.3618853 C86.1867821,68.3618853 92.1032464,62.14715 82.8359964,58.3629735 L79.7403536,57.0310029 L97.1287464,39.6118853 C97.1287464,39.6118853 98.606675,37.6474147 98.2287107,35.1241794 C98.1717107,34.7412971 98.459425,34.3942676 98.8475679,34.4057676 C101.290425,34.4788265 108.803568,34.3854735 112.396604,30.7332088 C112.396604,30.7332088 114.517139,29.21115 112.481425,26.8435029 Z" id="Stroke-1" stroke="#00CCC8" stroke-width="4"></path>
                        <path d="M73.3363357,54.4731324 L78.7649071,45.1080735 L74.4810857,44.8543971 C74.4810857,44.8543971 71.2578714,38.3433676 67.61055,40.6264559 L64.6418,42.48675 L69.5621214,52.9720441 L79.8886214,57.0734853" id="Stroke-3" stroke="#00CCC8" stroke-width="4"></path>
                        <path d="M50.5617821,11.2787265 L20.2520321,11.2787265 C19.8774607,11.2787265 19.5734607,10.9756676 19.5734607,10.6022559 L19.5734607,8.45987353 C19.5734607,8.08646176 19.8774607,7.78340294 20.2520321,7.78340294 L50.5617821,7.78340294 C50.9363536,7.78340294 51.2403536,8.08646176 51.2403536,8.45987353 L51.2403536,10.6022559 C51.2403536,10.9756676 50.9363536,11.2787265 50.5617821,11.2787265" id="Fill-5" fill="#00CCC8"></path>
                        <path d="M41.9665893,52.4870147 L22.5139821,52.4870147 C22.1387321,52.4870147 21.8354107,52.1839559 21.8354107,51.8105441 L21.8354107,49.6681618 C21.8354107,49.29475 22.1387321,48.9916912 22.5139821,48.9916912 L41.9665893,48.9916912 C42.3411607,48.9916912 42.6451607,49.29475 42.6451607,49.6681618 L42.6451607,51.8105441 C42.6451607,52.1839559 42.3411607,52.4870147 41.9665893,52.4870147" id="Fill-7" fill="#00CCC8"></path>
                        <path d="M35.5201607,32.0722824 L16.0675536,32.0722824 C15.6923036,32.0722824 15.3889821,31.7692235 15.3889821,31.3958118 L15.3889821,29.2534294 C15.3889821,28.8800176 15.6923036,28.5769588 16.0675536,28.5769588 L35.5201607,28.5769588 C35.8947321,28.5769588 36.1987321,28.8800176 36.1987321,29.2534294 L36.1987321,31.3958118 C36.1987321,31.7692235 35.8947321,32.0722824 35.5201607,32.0722824" id="Fill-9" fill="#00CCC8"></path>
                        <path d="M11.6081857,31.4784765 C11.6081857,31.9046529 11.2587214,32.2537118 10.8305429,32.2537118 L7.73897143,32.2537118 L7.73897143,35.3363882 C7.73897143,35.7618882 7.38882857,36.1109471 6.96132857,36.1109471 L4.64672143,36.1109471 C4.21922143,36.1109471 3.86907857,35.7618882 3.86907857,35.3363882 L3.86907857,32.2537118 L0.777507143,32.2537118 C0.350007143,32.2537118 -0.000135714286,31.9046529 -0.000135714286,31.4784765 L-0.000135714286,29.1710353 C-0.000135714286,28.7448588 0.350007143,28.3958 0.777507143,28.3958 L3.86907857,28.3958 L3.86907857,25.3131235 C3.86907857,24.8869471 4.21922143,24.5385647 4.64672143,24.5385647 L6.96132857,24.5385647 C7.38882857,24.5385647 7.73897143,24.8869471 7.73897143,25.3131235 L7.73897143,28.3958 L10.8305429,28.3958 C11.2587214,28.3958 11.6081857,28.7448588 11.6081857,29.1710353 L11.6081857,31.4784765 Z" id="Fill-11" fill="#00CCC8"></path>
                        <path d="M18.4666429,51.8932088 C18.4666429,52.3193853 18.1171786,52.6684441 17.689,52.6684441 L14.5974286,52.6684441 L14.5974286,55.7511206 C14.5974286,56.1766206 14.2472857,56.5256794 13.8204643,56.5256794 L11.5051786,56.5256794 C11.0776786,56.5256794 10.7275357,56.1766206 10.7275357,55.7511206 L10.7275357,52.6684441 L7.63596429,52.6684441 C7.20846429,52.6684441 6.85832143,52.3193853 6.85832143,51.8932088 L6.85832143,49.5857676 C6.85832143,49.1595912 7.20846429,48.8105324 7.63596429,48.8105324 L10.7275357,48.8105324 L10.7275357,45.7278559 C10.7275357,45.3016794 11.0776786,44.9532971 11.5051786,44.9532971 L13.8204643,44.9532971 C14.2472857,44.9532971 14.5974286,45.3016794 14.5974286,45.7278559 L14.5974286,48.8105324 L17.689,48.8105324 C18.1171786,48.8105324 18.4666429,49.1595912 18.4666429,49.5857676 L18.4666429,51.8932088 Z" id="Fill-14" fill="#00CCC8"></path>
                        <path d="M16.0916429,10.6848529 C16.0916429,11.1110294 15.7421786,11.4600882 15.314,11.4600882 L12.2224286,11.4600882 L12.2224286,14.5427647 C12.2224286,14.9682647 11.8722857,15.3173235 11.4454643,15.3173235 L9.13017857,15.3173235 C8.70267857,15.3173235 8.35253571,14.9682647 8.35253571,14.5427647 L8.35253571,11.4600882 L5.26096429,11.4600882 C4.83346429,11.4600882 4.48332143,11.1110294 4.48332143,10.6848529 L4.48332143,8.37741176 C4.48332143,7.95123529 4.83346429,7.60217647 5.26096429,7.60217647 L8.35253571,7.60217647 L8.35253571,4.5195 C8.35253571,4.09332353 8.70267857,3.74494118 9.13017857,3.74494118 L11.4454643,3.74494118 C11.8722857,3.74494118 12.2224286,4.09332353 12.2224286,4.5195 L12.2224286,7.60217647 L15.314,7.60217647 C15.7421786,7.60217647 16.0916429,7.95123529 16.0916429,8.37741176 L16.0916429,10.6848529 Z" id="Fill-16" fill="#00CCC8"></path>
                    </g>
                </g>
            </g>
        </g>
    </g>
</svg>