<?xml version="1.0" encoding="iso-8859-1"?>
<!-- Generator: Adobe Illustrator 19.0.0, SVG Export Plug-In . SVG Version: 6.00 Build 0)  -->
<svg xmlns="http://www.w3.org/2000/svg" xmlns:xlink="http://www.w3.org/1999/xlink" version="1.1" id="Capa_1" x="0px" y="0px" viewBox="0 0 232.971 232.971" style="enable-background:new 0 0 232.971 232.971;" xml:space="preserve" width="512px" height="512px">
<path d="M232.971,116.485l-36.937-64h-56.939l-28.278-49H36.935L0,67.485l28.278,49L0,165.485l36.935,64h73.883l28.278-49h56.939  L232.971,116.485z M54.259,33.485h39.234l19.622,34l-19.622,34H54.259l-19.622-34L54.259,33.485z M93.493,199.485H54.259l-19.622-34  l19.622-34h39.234l19.622,34L93.493,199.485z M139.477,150.485l-19.622-34l19.622-34h39.233l19.622,34l-19.622,34H139.477z" fill="#062447"/>
<g>
</g>
<g>
</g>
<g>
</g>
<g>
</g>
<g>
</g>
<g>
</g>
<g>
</g>
<g>
</g>
<g>
</g>
<g>
</g>
<g>
</g>
<g>
</g>
<g>
</g>
<g>
</g>
<g>
</g>
</svg>
