<?xml version="1.0" encoding="iso-8859-1"?>
<!-- Generator: Adobe Illustrator 19.0.0, SVG Export Plug-In . SVG Version: 6.00 Build 0)  -->
<svg version="1.1" id="Capa_1" xmlns="http://www.w3.org/2000/svg" xmlns:xlink="http://www.w3.org/1999/xlink" x="0px" y="0px"
	 viewBox="0 0 512 512" style="enable-background:new 0 0 512 512;" xml:space="preserve">
<path style="fill:#C1EE92;" d="M217.087,127.409v31.682c0,32.936,26.7,59.636,59.636,59.636h82.932L396.928,256v-37.273h45.659
	c32.936,0,59.636-26.7,59.636-59.636V69.636c0-32.936-26.7-59.636-59.636-59.636H328.905h-52.182
	c-32.936,0-59.636,26.7-59.636,59.636L217.087,127.409L217.087,127.409z"/>
<path style="fill:#FFDCA0;" d="M160.909,339.027v10.727c0,23.698-19.211,42.909-42.909,42.909l0,0l0,0
	c-23.698,0-42.909-19.211-42.909-42.909v-10.727c0-23.698,19.211-42.909,42.909-42.909l0,0
	C141.698,296.118,160.909,315.329,160.909,339.027z"/>
<path style="fill:#96EDE7;" d="M179.043,392.663H56.957C31.023,392.663,10,413.686,10,439.62V502h216v-62.38
	C226,413.686,204.977,392.663,179.043,392.663z"/>
<path style="fill:#FFDCA0;" d="M436.909,339.027v10.727c0,23.698-19.211,42.909-42.909,42.909l0,0l0,0
	c-23.698,0-42.909-19.211-42.909-42.909v-10.727c0-23.698,19.211-42.909,42.909-42.909l0,0
	C417.698,296.118,436.909,315.329,436.909,339.027z"/>
<path style="fill:#FF5D5D;" d="M455.043,392.663H332.957c-25.933,0-46.957,21.023-46.957,46.957V502h216v-62.38
	C502,413.686,480.977,392.663,455.043,392.663z"/>
<path style="fill:#FEC96B;" d="M295.136,164.682v31.682c0,32.936-26.7,59.636-59.636,59.636h-82.932l-37.273,37.273V256H69.636
	C36.7,256,10,229.3,10,196.364v-89.455c0-32.936,26.7-59.636,59.636-59.636h113.682H235.5c32.936,0,59.636,26.7,59.636,59.636
	V164.682z"/>
<path d="M179.043,382.663h-19.66c7.205-9.041,11.526-20.477,11.526-32.909v-10.728c0-23.567-15.492-43.577-36.825-50.401L156.71,266
	h78.79c38.397,0,69.636-31.239,69.636-69.637v-89.454c0-38.397-31.239-69.637-69.636-69.637H69.636
	C31.239,37.272,0,68.512,0,106.909v89.454C0,234.761,31.239,266,69.636,266h35.659v21.67c-23.057,5.706-40.205,26.561-40.205,51.356
	v10.728c0,12.432,4.321,23.868,11.526,32.909h-19.66C25.551,382.663,0,408.214,0,439.62V502c0,5.522,4.477,10,10,10h216
	c5.523,0,10-4.478,10-10v-62.38C236,408.214,210.449,382.663,179.043,382.663z M69.636,246C42.267,246,20,223.733,20,196.363
	v-89.454c0-27.37,22.267-49.637,49.636-49.637H235.5c27.37,0,49.636,22.267,49.636,49.637v89.454
	c0,27.37-22.267,49.637-49.636,49.637h-82.932c-2.652,0-5.196,1.054-7.071,2.929l-20.202,20.202V256c0-5.522-4.477-10-10-10H69.636z
	 M85.091,349.754v-10.728c0-18.146,14.763-32.908,32.909-32.908s32.909,14.763,32.909,32.908v10.728
	c0,18.146-14.763,32.909-32.909,32.909S85.091,367.9,85.091,349.754z M216,492H20v-52.38c0-20.378,16.579-36.957,36.957-36.957H108
	v20.264c0,5.522,4.477,10,10,10s10-4.478,10-10v-20.264h51.043c20.378,0,36.957,16.579,36.957,36.957V492z"/>
<path d="M455.043,382.663h-19.66c7.205-9.041,11.526-20.477,11.526-32.909v-10.728c0-29.174-23.735-52.908-52.909-52.908
	s-52.909,23.734-52.909,52.908v10.728c0,12.432,4.321,23.868,11.526,32.909h-19.66c-31.406,0-56.957,25.551-56.957,56.957V502
	c0,5.522,4.477,10,10,10h216c5.523,0,10-4.478,10-10v-62.38C512,408.214,486.449,382.663,455.043,382.663z M361.091,349.754v-10.728
	c0-18.146,14.763-32.908,32.909-32.908s32.909,14.763,32.909,32.908v10.728c0,18.146-14.763,32.909-32.909,32.909
	S361.091,367.9,361.091,349.754z M492,492H296v-52.38c0-20.378,16.579-36.957,36.957-36.957H384v25.381c0,5.522,4.477,10,10,10
	s10-4.478,10-10v-25.381h51.043c20.378,0,36.957,16.579,36.957,36.957V492z"/>
<path d="M118,449.67c-2.63,0-5.21,1.06-7.07,2.93c-1.86,1.86-2.93,4.431-2.93,7.07c0,2.63,1.07,5.21,2.93,7.07
	c1.86,1.859,4.44,2.93,7.07,2.93s5.21-1.07,7.07-2.93s2.93-4.44,2.93-7.07c0-2.64-1.07-5.21-2.93-7.07
	C123.21,450.729,120.63,449.67,118,449.67z"/>
<path d="M442.364,0H276.5c-5.523,0-10,4.478-10,10s4.477,10,10,10h165.864C469.733,20,492,42.267,492,69.637v89.454
	c0,27.37-22.267,49.637-49.636,49.637h-45.659c-5.523,0-10,4.478-10,10v13.131l-20.202-20.202c-1.875-1.875-4.418-2.929-7.071-2.929
	h-21.765c-5.523,0-10,4.478-10,10s4.477,10,10,10h17.623l34.344,34.344c1.913,1.913,4.47,2.929,7.073,2.929
	c1.288,0,2.587-0.249,3.824-0.761c3.737-1.548,6.173-5.194,6.173-9.239v-27.272h35.659c38.397,0,69.636-31.239,69.636-69.637V69.637
	C512,31.239,480.761,0,442.364,0z"/>
<path d="M154.348,168.493c3.905,3.904,10.237,3.904,14.142,0l43.654-43.653c0.762,4.766,4.881,8.412,9.862,8.412
	c5.523,0,10-4.478,10-10v-22.406c0-5.522-4.477-10-10-10h-22.407c-5.523,0-10,4.478-10,10c0,4.975,3.637,9.09,8.396,9.86
	l-36.575,36.575l-22.199-22.199c-3.905-3.904-10.237-3.904-14.142,0l-57.026,57.025c-3.905,3.905-3.906,10.237,0,14.143
	c1.953,1.952,4.512,2.929,7.071,2.929s5.119-0.977,7.071-2.929l49.955-49.955L154.348,168.493z"/>
<path d="M335.311,170H384c5.523,0,10-4.478,10-10s-4.477-10-10-10h-48.689c-5.523,0-10,4.478-10,10S329.788,170,335.311,170z"/>
<path d="M418.93,152.93c-1.86,1.86-2.93,4.44-2.93,7.07s1.07,5.21,2.93,7.069c1.86,1.86,4.44,2.931,7.07,2.931s5.21-1.07,7.07-2.931
	c1.86-1.859,2.93-4.439,2.93-7.069s-1.07-5.21-2.93-7.07S428.63,150,426,150S420.79,151.069,418.93,152.93z"/>
<path d="M335.311,74H448c5.523,0,10-4.478,10-10s-4.477-10-10-10H335.311c-5.523,0-10,4.478-10,10S329.788,74,335.311,74z"/>
<path d="M335.311,122H448c5.523,0,10-4.478,10-10s-4.477-10-10-10H335.311c-5.523,0-10,4.478-10,10S329.788,122,335.311,122z"/>
<g>
</g>
<g>
</g>
<g>
</g>
<g>
</g>
<g>
</g>
<g>
</g>
<g>
</g>
<g>
</g>
<g>
</g>
<g>
</g>
<g>
</g>
<g>
</g>
<g>
</g>
<g>
</g>
<g>
</g>
</svg>
