<?xml version="1.0" encoding="iso-8859-1"?>
<!-- Generator: Adobe Illustrator 19.0.0, SVG Export Plug-In . SVG Version: 6.00 Build 0)  -->
<svg xmlns="http://www.w3.org/2000/svg" xmlns:xlink="http://www.w3.org/1999/xlink" version="1.1" id="Capa_1" x="0px" y="0px" viewBox="0 0 480 480" style="enable-background:new 0 0 480 480;" xml:space="preserve" width="512px" height="512px">
<g>
	<g>
		<path d="M173.225,98.094l-9.457-8.141v-3.906l9.457-8.141c2.205-1.903,3.203-4.852,2.609-7.703    c-1.367-6.404-3.459-12.631-6.234-18.563c-1.2-2.589-3.689-4.343-6.531-4.602l-12.324-1.125c-0.836-1.203-1.702-2.375-2.598-3.516    l2.66-11.617c0.65-2.838-0.291-5.805-2.457-7.75c-4.924-4.416-10.319-8.278-16.086-11.516c-2.467-1.379-5.477-1.355-7.922,0.063    l-10.605,6.156c-1.43-0.492-2.898-0.953-4.422-1.375l-4.898-11.5C103.157,1.912,100.262,0,97.057,0H78.947    c-3.205,0-6.101,1.912-7.359,4.859l-4.898,11.5c-1.523,0.422-2.992,0.883-4.422,1.375l-10.602-6.156    c-2.447-1.41-5.453-1.434-7.922-0.063c-5.766,3.24-11.16,7.102-16.086,11.516c-2.17,1.943-3.112,4.911-2.461,7.75l2.66,11.609    c-0.895,1.141-1.762,2.32-2.598,3.523l-12.324,1.125c-2.842,0.259-5.331,2.012-6.531,4.602c-2.776,5.933-4.868,12.164-6.234,18.57    c-0.593,2.849,0.406,5.795,2.609,7.695l9.457,8.141v3.906l-9.457,8.141c-2.205,1.903-3.203,4.852-2.609,7.703    c1.367,6.404,3.459,12.631,6.234,18.563c1.2,2.589,3.689,4.343,6.531,4.602l12.324,1.125c0.836,1.203,1.702,2.375,2.598,3.516    l-2.66,11.617c-0.651,2.839,0.291,5.807,2.461,7.75c4.922,4.418,10.318,8.277,16.09,11.508c2.462,1.379,5.47,1.355,7.91-0.063    l10.609-6.148c1.43,0.492,2.898,0.953,4.422,1.375l4.898,11.5c1.259,2.947,4.154,4.859,7.359,4.859h18.109    c3.205,0,6.101-1.912,7.359-4.859l4.898-11.5c1.523-0.422,2.992-0.883,4.422-1.375l10.602,6.156    c2.722,1.573,6.112,1.411,8.672-0.414l14.656-10.492c2.625-1.879,3.863-5.151,3.141-8.297l-2.66-11.609    c0.894-1.141,1.762-2.32,2.598-3.523l12.324-1.125c2.842-0.259,5.331-2.012,6.531-4.602c2.775-5.931,4.867-12.159,6.234-18.563    C176.428,102.946,175.429,99.997,173.225,98.094z M150.545,99.68l8.516,7.328c-0.613,2.148-1.344,4.299-2.191,6.453l-11.422,1.039    c-2.505,0.232-4.755,1.626-6.078,3.766c-1.737,2.821-3.71,5.489-5.898,7.977c-1.708,1.933-2.379,4.572-1.801,7.086l2.352,10.273    l-6.121,4.383l-9.426-5.469c-2.161-1.245-4.776-1.418-7.082-0.469c-3.129,1.277-6.36,2.286-9.66,3.016    c-2.501,0.57-4.577,2.304-5.582,4.664L91.772,160h-7.539l-4.379-10.273c-1.001-2.363-3.079-4.1-5.582-4.664    c-3.299-0.731-6.531-1.74-9.66-3.016c-2.303-0.958-4.921-0.784-7.078,0.469l-9.82,5.688c-1.996-1.281-3.94-2.669-5.832-4.164    l2.453-10.711c0.575-2.51-0.092-5.144-1.793-7.078c-2.19-2.49-4.166-5.161-5.906-7.984c-1.323-2.139-3.573-3.534-6.078-3.766    l-11.422-1.039c-0.848-2.156-1.578-4.307-2.191-6.453l8.516-7.328c1.762-1.522,2.776-3.734,2.777-6.062V82.383    c-0.001-2.328-1.015-4.541-2.777-6.063l-8.516-7.336c0.613-2.141,1.344-4.289,2.191-6.445L30.557,61.5    c2.505-0.232,4.755-1.626,6.078-3.766c1.737-2.821,3.71-5.489,5.898-7.977c1.708-1.933,2.379-4.572,1.801-7.086l-2.453-10.711    c1.887-1.492,3.832-2.883,5.836-4.172l9.812,5.695c2.162,1.241,4.776,1.414,7.082,0.469c3.129-1.277,6.36-2.286,9.66-3.016    c2.501-0.57,4.577-2.304,5.582-4.664L84.233,16h7.539l4.379,10.273c1,2.363,3.079,4.1,5.582,4.664    c3.299,0.731,6.531,1.739,9.66,3.016c2.305,0.953,4.923,0.78,7.082-0.469l9.813-5.695c2,1.289,3.945,2.68,5.836,4.172    l-2.453,10.711c-0.575,2.51,0.092,5.144,1.793,7.078c2.19,2.49,4.166,5.161,5.906,7.984c1.323,2.139,3.573,3.534,6.078,3.766    l11.422,1.039c0.848,2.156,1.578,4.307,2.191,6.453l-8.516,7.328c-1.762,1.522-2.776,3.734-2.777,6.062v11.234    C147.769,95.945,148.783,98.158,150.545,99.68z" fill="#006DF0"/>
	</g>
</g>
<g>
	<g>
		<path d="M88.002,48c-22.091,0-40,17.909-40,40s17.909,40,40,40s40-17.909,40-40C127.976,65.919,110.083,48.026,88.002,48z     M88.002,112c-13.255,0-24-10.745-24-24s10.745-24,24-24s24,10.745,24,24C111.988,101.249,101.251,111.986,88.002,112z" fill="#006DF0"/>
	</g>
</g>
<g>
	<g>
		<path d="M88.006,400c-0.001,0-0.003,0-0.004,0h-64c-4.417-0.001-7.999,3.579-8,7.996c0,0.001,0,0.003,0,0.004v64    c-0.001,4.417,3.579,7.999,7.996,8c0.001,0,0.003,0,0.004,0h64c4.417,0.001,7.999-3.579,8-7.996c0-0.001,0-0.003,0-0.004v-64    C96.003,403.583,92.423,400.001,88.006,400z M80.002,464h-48v-48h48V464z" fill="#006DF0"/>
	</g>
</g>
<g>
	<g>
		<path d="M208.006,376c-0.001,0-0.003,0-0.004,0h-64c-4.417-0.001-7.999,3.579-8,7.996c0,0.001,0,0.003,0,0.004v88    c-0.001,4.417,3.579,7.999,7.996,8c0.001,0,0.003,0,0.004,0h64c4.417,0.001,7.999-3.579,8-7.996c0-0.001,0-0.003,0-0.004v-88    C216.003,379.583,212.423,376.001,208.006,376z M200.002,464h-48v-72h48V464z" fill="#006DF0"/>
	</g>
</g>
<g>
	<g>
		<path d="M328.006,344c-0.001,0-0.003,0-0.004,0h-64c-4.417-0.001-7.999,3.579-8,7.996c0,0.001,0,0.003,0,0.004v120    c-0.001,4.417,3.579,7.999,7.996,8c0.001,0,0.003,0,0.004,0h64c4.417,0.001,7.999-3.579,8-7.996c0-0.001,0-0.003,0-0.004V352    C336.003,347.583,332.423,344.001,328.006,344z M320.002,464h-48V360h48V464z" fill="#006DF0"/>
	</g>
</g>
<g>
	<g>
		<path d="M448.006,272c-0.001,0-0.003,0-0.004,0h-64c-4.417-0.001-7.999,3.579-8,7.996c0,0.001,0,0.003,0,0.004v192    c-0.001,4.417,3.579,7.999,7.996,8c0.001,0,0.003,0,0.004,0h64c4.417,0.001,7.999-3.579,8-7.996c0-0.001,0-0.003,0-0.004V280    C456.003,275.583,452.423,272.001,448.006,272z M440.002,464h-48V288h48V464z" fill="#006DF0"/>
	</g>
</g>
<g>
	<g>
		<path d="M274.345,176.348c-0.048-0.015-0.095-0.029-0.143-0.043l-56-16l-4.398,15.391l39.204,11.201L11.611,345.312l8.781,13.375    l237.434-155.816l-13.161,42.777l15.289,4.704l19.691-64C280.945,182.125,278.571,177.646,274.345,176.348z" fill="#006DF0"/>
	</g>
</g>
<g>
	<g>
		<path d="M437.589,77.057c-1.196-1.167-2.728-1.93-4.38-2.182l-34.473-5.273l-15.492-33c-1.877-4-6.641-5.721-10.641-3.844    c-1.69,0.793-3.05,2.153-3.843,3.844l-15.492,33l-34.473,5.273c-2.964,0.452-5.426,2.524-6.379,5.367    c-0.952,2.843-0.235,5.979,1.859,8.125l25.18,25.805l-5.957,36.539c-0.713,4.359,2.243,8.471,6.602,9.184    c1.773,0.29,3.592-0.025,5.163-0.895l30.738-16.992L406.74,159c3.865,2.139,8.732,0.739,10.87-3.126    c0.87-1.572,1.185-3.391,0.895-5.163l-5.957-36.539l25.18-25.805C440.813,85.205,440.751,80.142,437.589,77.057z M398.276,105.891    c-1.774,1.817-2.579,4.369-2.168,6.875l3.957,24.266l-20.191-11.164c-2.409-1.333-5.334-1.333-7.742,0l-20.191,11.164    l3.957-24.266c0.411-2.506-0.394-5.058-2.168-6.875L336.6,88.336l23.304-3.563c2.639-0.4,4.903-2.091,6.035-4.508l10.063-21.437    l10.063,21.437c1.132,2.417,3.397,4.108,6.035,4.508l23.305,3.563L398.276,105.891z" fill="#006DF0"/>
	</g>
</g>
<g>
	<g>
		<path d="M391.361,190.672c-5.031,0.885-10.13,1.329-15.238,1.328h-0.121c-5.093,0.002-10.178-0.437-15.195-1.313l-2.75,15.766    c5.99,0.858,12.025,1.375,18.074,1.547c6.038,0,12.065-0.529,18.012-1.578L391.361,190.672z" fill="#006DF0"/>
	</g>
</g>
<g>
	<g>
		<path d="M393.737,1.508l-2.711,15.766c10.11,1.735,19.834,5.239,28.727,10.352l7.961-13.875    C417.197,7.7,405.695,3.556,393.737,1.508z" fill="#006DF0"/>
	</g>
</g>
<g>
	<g>
		<path d="M357.651,1.602c-11.943,2.129-23.418,6.344-33.898,12.453l8.055,13.828c8.862-5.166,18.565-8.731,28.664-10.531    L357.651,1.602z" fill="#006DF0"/>
	</g>
</g>
<g>
	<g>
		<path d="M443.44,160.531c-6.597,7.865-14.515,14.519-23.398,19.664l8.023,13.844c10.489-6.071,19.837-13.925,27.625-23.211    L443.44,160.531z" fill="#006DF0"/>
	</g>
</g>
<g>
	<g>
		<path d="M476.467,103.703L464.002,104c0.015,10.265-1.772,20.453-5.277,30.102l15.039,5.469    c4.163-11.477,6.273-23.596,6.234-35.805L476.467,103.703z" fill="#006DF0"/>
	</g>
</g>
<g>
	<g>
		<path d="M455.436,36.875l-12.211,10.328c6.631,7.826,11.836,16.756,15.379,26.383l15.016-5.531    C469.432,56.676,463.277,46.122,455.436,36.875z" fill="#006DF0"/>
	</g>
</g>
<g>
	<g>
		<path d="M296.174,37.328c-7.785,9.301-13.878,19.897-18,31.305l15.047,5.438c3.489-9.65,8.645-18.611,15.234-26.477    L296.174,37.328z" fill="#006DF0"/>
	</g>
</g>
<g>
	<g>
		<path d="M308.666,160.656l-12.234,10.313c7.804,9.275,17.167,17.116,27.668,23.172l8-13.859    C323.205,175.154,315.275,168.512,308.666,160.656z" fill="#006DF0"/>
	</g>
</g>
<g>
	<g>
		<path d="M288.006,104.18l-16,0.031c0.006,12.127,2.141,24.159,6.309,35.547l15.023-5.5    C289.814,124.621,288.009,114.441,288.006,104.18z" fill="#006DF0"/>
	</g>
</g>
<g>
</g>
<g>
</g>
<g>
</g>
<g>
</g>
<g>
</g>
<g>
</g>
<g>
</g>
<g>
</g>
<g>
</g>
<g>
</g>
<g>
</g>
<g>
</g>
<g>
</g>
<g>
</g>
<g>
</g>
</svg>
