<?xml version="1.0" encoding="iso-8859-1"?>
<!-- Generator: Adobe Illustrator 19.0.0, SVG Export Plug-In . SVG Version: 6.00 Build 0)  -->
<svg version="1.1" id="Capa_1" xmlns="http://www.w3.org/2000/svg" xmlns:xlink="http://www.w3.org/1999/xlink" x="0px" y="0px"
	 viewBox="0 0 479.997 479.997" style="enable-background:new 0 0 479.997 479.997;" xml:space="preserve">
<path style="fill:#57B3FF;" d="M177.321,88.948L192,76.297c-1.488-6.968-3.767-13.745-6.791-20.197l-19.401-1.775
	c-2.372-3.848-5.065-7.489-8.05-10.884l4.251-18.564c-5.38-4.831-11.277-9.051-17.585-12.585l-16.677,9.667
	c-4.258-1.733-8.653-3.106-13.14-4.105l-7.743-17.545H85.134l-7.742,17.544c-4.487,1-8.882,2.373-13.139,4.105l-16.677-9.668
	c-6.308,3.534-12.205,7.755-17.585,12.585l4.251,18.564c-2.986,3.394-5.679,7.035-8.05,10.884L6.792,56.099
	C3.767,62.551,1.489,69.327,0,76.296l14.679,12.651v13.479L0,115.077c1.489,6.968,3.767,13.744,6.791,20.197l19.4,1.775
	c2.372,3.848,5.065,7.489,8.05,10.884l-4.251,18.564c5.38,4.83,11.277,9.051,17.585,12.585l16.677-9.667
	c4.258,1.733,8.653,3.106,13.14,4.105l7.743,17.545h21.732l7.742-17.544c4.487-0.999,8.882-2.373,13.139-4.105l16.677,9.667
	c6.308-3.534,12.205-7.755,17.585-12.585l-4.251-18.564c2.985-3.395,5.679-7.035,8.05-10.884l19.401-1.775
	c3.024-6.452,5.302-13.229,6.791-20.197l-14.679-12.651V88.948z M96,143.687c-26.51,0-48-21.49-48-48c0-26.51,21.49-48,48-48
	c26.51,0,48,21.49,48,48S122.51,143.687,96,143.687z"/>
<path style="fill:#FCD821;" d="M376.129,207.687c-6.049-0.172-12.084-0.688-18.074-1.547l2.75-15.766
	c5.018,0.875,10.102,1.315,15.195,1.312h0.121c5.108,0.001,10.207-0.443,15.238-1.328l2.781,15.75
	C388.194,207.159,382.167,207.687,376.129,207.687L376.129,207.687z M324.098,193.828c-10.501-6.055-19.864-13.897-27.668-23.172
	l12.234-10.313c6.609,7.856,14.539,14.498,23.434,19.625L324.098,193.828z M428.063,193.726l-8.023-13.844
	c8.883-5.145,16.801-11.799,23.398-19.664l12.25,10.297C447.9,179.801,438.551,187.656,428.063,193.726L428.063,193.726z
	 M278.313,139.445c-4.168-11.388-6.303-23.42-6.309-35.547l16-0.031c0.003,10.261,1.808,20.441,5.332,30.078L278.313,139.445z
	 M473.762,139.258l-15.039-5.469c3.506-9.648,5.292-19.836,5.277-30.102l12.465-0.297l3.531,0.062
	C480.035,115.661,477.924,127.781,473.762,139.258z M293.219,73.758l-15.047-5.438c4.122-11.408,10.215-22.003,18-31.305
	l12.281,10.266C301.864,55.146,296.707,64.108,293.219,73.758z M458.602,73.273c-3.543-9.627-8.748-18.556-15.379-26.383
	l12.211-10.328c7.842,9.247,13.997,19.801,18.184,31.18L458.602,73.273z M331.805,27.57l-8.055-13.828
	c10.481-6.109,21.955-10.325,33.898-12.453l2.82,15.75C350.37,18.839,340.667,22.404,331.805,27.57z M419.75,27.312
	c-8.893-5.112-18.617-8.617-28.727-10.352l2.711-15.766c11.958,2.048,23.46,6.193,33.977,12.242L419.75,27.312z"/>
<g>
	<path style="fill:#EC322C;" d="M278.629,179.211c-1.487-2.203-3.971-3.523-6.629-3.523h-52.512v16h25.74L11.609,345l8.781,13.375
		l234.678-154.008l-10.182,25.336l14.844,5.969l19.691-49C280.415,184.208,280.118,181.411,278.629,179.211L278.629,179.211z"/>
	<path style="fill:#EC322C;" d="M376,132.559l34.608,19.128L404,111.167l28-28.696l-38.696-5.912L376,39.687l-17.304,36.872
		L320,82.471l28,28.696l-6.608,40.52L376,132.559z"/>
</g>
<g>
	<path style="fill:#1F43B5;" d="M32,399.687h64v80H32V399.687z"/>
	<path style="fill:#1F43B5;" d="M152,375.687h64v104h-64V375.687z"/>
	<path style="fill:#1F43B5;" d="M272,335.687h64v144h-64V335.687z"/>
	<path style="fill:#1F43B5;" d="M392,263.687h64v216h-64V263.687z"/>
</g>
<path style="fill:#A6DBFF;" d="M96,31.687c-35.346,0-64,28.654-64,64s28.654,64,64,64s64-28.654,64-64S131.346,31.687,96,31.687z
	 M96,143.687c-26.51,0-48-21.49-48-48s21.49-48,48-48s48,21.49,48,48S122.51,143.687,96,143.687z"/>
<g>
</g>
<g>
</g>
<g>
</g>
<g>
</g>
<g>
</g>
<g>
</g>
<g>
</g>
<g>
</g>
<g>
</g>
<g>
</g>
<g>
</g>
<g>
</g>
<g>
</g>
<g>
</g>
<g>
</g>
</svg>
