<svg xmlns="http://www.w3.org/2000/svg" viewBox="0 0 77 77" width="77px" height="77px"><title>benefits-114v</title><g id="Layer_2" data-name="Layer 2"><g id="Layer_1-2" data-name="Layer 1"><circle cx="38.5" cy="38.5" r="38.5" fill="#875faf"/><path id="_Compound_Path_" data-name="&lt;Compound Path&gt;" d="M21,18V57H42V18Z" fill="#fff"/><rect x="23" y="21" width="17" height="3" fill="#875faf"/><rect x="23" y="26" width="17" height="3" fill="#875faf"/><rect x="23" y="31" width="17" height="3" fill="#875faf"/><rect x="23" y="36" width="17" height="3" fill="#875faf"/><rect x="23" y="41" width="17" height="3" fill="#875faf"/><rect x="23" y="46" width="17" height="3" fill="#875faf"/><rect x="23" y="51" width="17" height="3" fill="#875faf"/><g id="_Group_" data-name="&lt;Group&gt;"><path d="M54,33V55H42V33H54m2-2H40V57H56V31Z" fill="#fff"/></g><rect x="44" y="35" width="3" height="3" fill="#fff"/><rect x="44" y="40" width="3" height="3" fill="#fff"/><rect x="44" y="45" width="3" height="3" fill="#fff"/><rect x="44" y="50" width="3" height="3" fill="#fff"/><rect x="49" y="35" width="3" height="3" fill="#fff"/><rect x="49" y="40" width="3" height="3" fill="#fff"/><rect x="49" y="45" width="3" height="3" fill="#fff"/><rect x="49" y="50" width="3" height="3" fill="#fff"/></g></g></svg>