<?xml version="1.0" encoding="UTF-8" standalone="no"?>
<svg width="26px" height="26px" viewBox="0 0 26 26" version="1.1" xmlns="http://www.w3.org/2000/svg" xmlns:xlink="http://www.w3.org/1999/xlink">
    <!-- Generator: Sketch 39.1 (31720) - http://www.bohemiancoding.com/sketch -->
    <title>natural-language copy</title>
    <desc>Created with Sketch.</desc>
    <defs></defs>
    <g id="Page-1" stroke="none" stroke-width="1" fill="none" fill-rule="evenodd">
        <g id="art-copy-4" transform="translate(2.000000, 1.000000)" fill="#FFFFFF">
            <polygon id="Shape" points="20.3671971 0 18.4088127 0 18.4088127 3.1468144 20.3671971 3.1468144 20.3671971 20.4542936 18.4088127 20.4542936 18.4088127 23.601108 20.3671971 23.601108 23.500612 23.601108 23.500612 20.4542936 23.500612 3.1468144 23.500612 0"></polygon>
            <polygon id="Shape" points="0 0 0 3.1468144 0 20.4542936 0 23.601108 3.13341493 23.601108 5.09179927 23.601108 5.09179927 20.4542936 3.13341493 20.4542936 3.13341493 3.1468144 5.09179927 3.1468144 5.09179927 0 3.13341493 0"></polygon>
            <rect id="Rectangle-path" x="5.875153" y="16.1274238" width="11.750306" height="3.1468144"></rect>
            <rect id="Rectangle-path" x="5.875153" y="10.2271468" width="11.750306" height="3.1468144"></rect>
            <rect id="Rectangle-path" x="5.875153" y="4.32686981" width="11.750306" height="3.1468144"></rect>
        </g>
    </g>
</svg>