<svg xmlns="http://www.w3.org/2000/svg" viewBox="0 0 470.67 265"><defs><style>.cls-1{fill:#233d47;}.cls-2,.cls-8{fill:#ff287e;}.cls-2{opacity:0.3;}.cls-3{fill:#ede3fc;}.cls-4{opacity:0.1;}.cls-5{fill:#f9e5ee;}.cls-6{fill:#fff;}.cls-7{fill:#dad3e2;}.cls-9{fill:#274b5b;}.cls-10{fill:#e7d9fc;}.cls-11{fill:#59cc45;}.cls-12{fill:#f8c13c;}.cls-13{fill:#f2675e;}.cls-14{opacity:0.4;}</style></defs><title>skyrocket</title><g id="Layer_2" data-name="Layer 2"><g id="Layer_1-2" data-name="Layer 1"><path class="cls-1" d="M182.26,19.25H159a1.5,1.5,0,0,1,0-3h23.25a1.5,1.5,0,0,1,0,3Z"/><path class="cls-1" d="M153.51,19.25H149a1.5,1.5,0,0,1,0-3h4.5a1.5,1.5,0,0,1,0,3Z"/><circle class="cls-2" cx="213.51" cy="7" r="2"/><path class="cls-2" d="M197.64,3.75h-1.87V1.88c0-1-.21-1.87-1.25-1.87s-1.25.84-1.25,1.88V3.75h-1.87c-1,0-1.87.21-1.87,1.25s.84,1.25,1.88,1.25h1.88V8.13c0,1,.21,1.88,1.25,1.88s1.25-.84,1.25-1.87V6.25h1.88c1,0,1.88-.21,1.88-1.25S198.68,3.75,197.64,3.75Z"/><rect class="cls-3" x="-5.83" y="105.47" width="287" height="113.2" rx="56.6" ry="56.6" transform="translate(-49.09 60.37) rotate(-21.08)"/><path class="cls-4" d="M396.51,59.67V233.28A26.72,26.72,0,0,1,369.79,260H75.24a26.72,26.72,0,0,1-26.72-26.72V54.72A26.69,26.69,0,0,1,60.3,32.56V60Z"/><rect class="cls-5" x="189.51" y="86.47" width="287" height="113.2" rx="56.6" ry="56.6" transform="translate(-29.17 129.36) rotate(-21.08)"/><path class="cls-6" d="M406.84,60.5V223.66a26.09,26.09,0,0,1-26.09,26.09H84.93a26,26,0,0,1-11.29-2.56l-.66-.34a26.08,26.08,0,0,1-13.65-22.94V60.5Z"/><rect class="cls-7" x="60.33" y="60.46" width="347.51" height="5.5"/><path class="cls-7" d="M406.84,212.66v11a26.09,26.09,0,0,1-26.09,26.09H84.93a26,26,0,0,1-11.29-2.56l-.66-.34a26.08,26.08,0,0,1-13.65-22.94v-11A26.08,26.08,0,0,0,73,235.85l.66.34a26,26,0,0,0,11.29,2.56H380.75A26.09,26.09,0,0,0,406.84,212.66Z"/><path class="cls-1" d="M406.09,62h-347a1.5,1.5,0,0,1,0-3h347a1.5,1.5,0,0,1,0,3Z"/><path class="cls-1" d="M407.09,126.67a1.5,1.5,0,0,1-1.5-1.5v-8a1.5,1.5,0,0,1,3,0v8A1.5,1.5,0,0,1,407.09,126.67Z"/><path class="cls-1" d="M407.09,110.33a1.5,1.5,0,0,1-1.5-1.5v-65A24.62,24.62,0,0,0,381,19.25H190a1.5,1.5,0,0,1,0-3H381a27.62,27.62,0,0,1,27.59,27.59v65A1.5,1.5,0,0,1,407.09,110.33Z"/><path class="cls-1" d="M59.09,107.83a1.5,1.5,0,0,1-1.5-1.5V43.84A27.62,27.62,0,0,1,85.18,16.25h54.59a1.5,1.5,0,0,1,0,3H85.18A24.62,24.62,0,0,0,60.59,43.84v62.49A1.5,1.5,0,0,1,59.09,107.83Z"/><path class="cls-1" d="M59.09,146.83a1.5,1.5,0,0,1-1.5-1.5V118.88a1.5,1.5,0,0,1,3,0v26.45A1.5,1.5,0,0,1,59.09,146.83Z"/><path class="cls-1" d="M184.52,251.25H85.18a27.62,27.62,0,0,1-27.59-27.59V161.92a1.5,1.5,0,0,1,3,0v61.74a24.62,24.62,0,0,0,24.59,24.59h99.34a1.5,1.5,0,0,1,0,3Z"/><path class="cls-1" d="M229.15,251.25h-31a1.5,1.5,0,0,1,0-3h31a1.5,1.5,0,0,1,0,3Z"/><path class="cls-1" d="M381,251.25H237.51a1.5,1.5,0,0,1,0-3H381a24.62,24.62,0,0,0,24.59-24.59V133.75a1.5,1.5,0,0,1,3,0v89.91A27.62,27.62,0,0,1,381,251.25Z"/><path class="cls-7" d="M386.34,41h-273a2.5,2.5,0,0,1,0-5h273a2.5,2.5,0,0,1,0,5Z"/><path class="cls-7" d="M206,98.93c-8.92-.37-18,2.17-25.1,8.86-14.19,13.38-14.7,34.89-2,49.38l51.39,59.15,56.08-54.71c13.81-13.4,15.07-34.87,2-49.38a35.45,35.45,0,0,0-49.38-2l-4.55,4.47-4.17-4.83C223.77,102.57,214.93,99.3,206,98.93Z"/><path class="cls-8" d="M215.91,91.77c-8.92-.37-18,2.17-25.1,8.86-14.19,13.38-14.7,34.89-2,49.38l51.39,59.15,56.08-54.71c13.81-13.4,15.07-34.87,2-49.38a35.45,35.45,0,0,0-49.38-2l-4.55,4.47-4.17-4.83C233.67,95.41,224.83,92.13,215.91,91.77Z"/><path class="cls-9" d="M240.22,211.24l-52.43-60.35a37,37,0,0,1,2.14-51.45c8.69-8.19,19-9.55,26.19-9.27h0c7.15.3,17.35,2.51,25.33,11.39l3.14,3.64,3.41-3.35a36.44,36.44,0,1,1,49.44,53.56ZM214.37,93.14A32,32,0,0,0,192,101.62a34,34,0,0,0-1.94,47.3l50.35,57.95,54.94-53.6A33.45,33.45,0,1,0,250.05,104l-5.64,5.55-5.21-6c-7.27-8.08-16.63-10.1-23.21-10.37h0C215.47,93.15,214.93,93.14,214.37,93.14Z"/><path class="cls-6" d="M288.76,108.25a16,16,0,0,1,2.72,2.77,18.35,18.35,0,0,1,1.81,3,24.2,24.2,0,0,1,1.82,5.54c.65,3.22.6,5.25.28,5.3s-1-1.85-2-4.81a33.83,33.83,0,0,0-2.18-5,19.26,19.26,0,0,0-1.7-2.59,15.51,15.51,0,0,0-2.31-2.28,17.28,17.28,0,0,0-2.8-1.72,21.92,21.92,0,0,0-2.88-1.19,19.42,19.42,0,0,0-5.22-.81c-3.08-.07-5.06.29-5.15-.09s1.74-1.31,5.07-1.72a16.84,16.84,0,0,1,5.93.35,20.06,20.06,0,0,1,3.32,1.19A17.32,17.32,0,0,1,288.76,108.25Z"/><path class="cls-6" d="M262.93,108.88c1.54-1.09,3.16-1.22,3.46-.59s-.66,1.74-2,2.68-2.64,1.48-3.16,1S261.38,110,262.93,108.88Z"/><path class="cls-7" d="M348.8,103.17a22,22,0,0,0-12.24,12.24A23,23,0,0,0,349.22,145L396,165.24l17.55-47.84a22.73,22.73,0,0,0-42.2-16.88l-1.42,3.9-3.8-1.66A22,22,0,0,0,348.8,103.17Z"/><path class="cls-8" d="M354.93,96.87a22,22,0,0,0-12.24,12.24,23,23,0,0,0,12.66,29.54l46.75,20.28,17.55-47.84a22.73,22.73,0,1,0-42.2-16.88L376,98.11l-3.8-1.66A22,22,0,0,0,354.93,96.87Z"/><path class="cls-9" d="M404.48,160.88,356.27,140a24.59,24.59,0,0,1-13.46-31.46A24.8,24.8,0,0,1,374.32,95l2.36,1,.87-2.39a24.23,24.23,0,1,1,45,17.91ZM365.82,96.3A22.46,22.46,0,0,0,357,98.18a20.55,20.55,0,0,0-11.43,11.4,21.6,21.6,0,0,0,11.85,27.62l45.29,19.65,17-46.35a21.23,21.23,0,1,0-39.41-15.79l-1.94,5.34-5.26-2.3A19,19,0,0,0,365.82,96.3Z"/><path class="cls-6" d="M403.85,85.69a10.53,10.53,0,0,1,2.47.91,11.85,11.85,0,0,1,2,1.34,14.74,14.74,0,0,1,2.61,2.86c1.24,1.78,1.69,3,1.42,3.24s-1.27-.68-2.77-2-3.57-3.23-6.25-3.81a11.31,11.31,0,0,0-2-.22,15.06,15.06,0,0,0-2,.08,13.32,13.32,0,0,0-3.21.86c-1.83.73-3,1.4-3.2,1.12s.5-1.44,2.35-2.71a10.67,10.67,0,0,1,3.65-1.59,13,13,0,0,1,2.35-.26A11.34,11.34,0,0,1,403.85,85.69Z"/><path class="cls-6" d="M388.39,93.53c.62-1.11,1.71-1.54,2.25-1.1s.47,1.46,0,2.35-1.29,1.46-2,1.26S387.76,94.64,388.39,93.53Z"/><circle class="cls-2" cx="48.51" cy="117" r="2"/><circle class="cls-2" cx="433.51" cy="177" r="2"/><circle class="cls-10" cx="236.51" cy="263" r="2"/><path class="cls-10" d="M39.64,123.75H37.76v-1.87c0-1-.21-1.87-1.25-1.87s-1.25.84-1.25,1.88v1.88H33.39c-1,0-1.87.21-1.87,1.25s.84,1.25,1.87,1.25h1.88v1.88c0,1,.21,1.88,1.25,1.88s1.25-.84,1.25-1.87v-1.87h1.88c1,0,1.88-.21,1.88-1.25S40.68,123.75,39.64,123.75Z"/><path class="cls-10" d="M426.64,185.75h-1.87v-1.87c0-1-.21-1.87-1.25-1.87s-1.25.84-1.25,1.88v1.88h-1.87c-1,0-1.87.21-1.87,1.25s.84,1.25,1.88,1.25h1.88v1.88c0,1,.21,1.88,1.25,1.88s1.25-.84,1.25-1.87v-1.87h1.88c1,0,1.88-.21,1.88-1.25S427.68,185.75,426.64,185.75Z"/><circle class="cls-11" cx="96" cy="38.75" r="2.58"/><circle class="cls-12" cx="87.05" cy="38.75" r="2.58"/><circle class="cls-13" cx="78.09" cy="38.75" r="2.58"/><g class="cls-14"><path class="cls-7" d="M69,190a1.5,1.5,0,0,1-1.5-1.5V111.83a1.5,1.5,0,1,1,3,0V188.5A1.5,1.5,0,0,1,69,190Z"/><path class="cls-7" d="M69,102.67a1.5,1.5,0,0,1-1.5-1.5V85.5a1.5,1.5,0,0,1,3,0v15.67A1.5,1.5,0,0,1,69,102.67Z"/></g></g></g></svg>