<svg xmlns="http://www.w3.org/2000/svg" width="64" height="64">
  <g fill="none" fill-rule="evenodd">
    <path stroke="#0085CA" stroke-linecap="round" stroke-linejoin="round" stroke-width="4" d="M40 56.75A25.98 25.98 0 0 1 32 58a26 26 0 1 1 25.7-30"/>
    <g fill="#0085CA" transform="translate(10 10)">
      <circle cx="32" cy="4" r="2"/>
      <circle cx="22" cy="2" r="2"/>
      <circle cx="12" cy="4" r="2"/>
      <circle cx="4" cy="12" r="2"/>
      <circle cx="2" cy="22" r="2"/>
      <circle cx="4" cy="32" r="2"/>
      <circle cx="12" cy="40" r="2"/>
      <circle cx="22" cy="42" r="2"/>
      <circle cx="40" cy="12" r="2"/>
    </g>
    <path stroke="#FF6901" stroke-linecap="round" stroke-linejoin="round" stroke-width="4" d="M52 57v-2m0-18v-2m6 7c0-6-12-6-12 0s12 2 12 8-12 6-12 0"/>
    <path stroke="#0085CA" stroke-linecap="round" stroke-linejoin="round" stroke-width="4" d="M32 20v12l6 6"/>
  </g>
</svg>
