<?xml version="1.0" encoding="UTF-8"?>
<svg width="64px" height="64px" viewBox="0 0 64 64" version="1.1" xmlns="http://www.w3.org/2000/svg" xmlns:xlink="http://www.w3.org/1999/xlink">
    <!-- Generator: Sketch 51.1 (57501) - http://www.bohemiancoding.com/sketch -->
    <title>SVG/64x64/flexibility</title>
    <desc>Created with Sketch.</desc>
    <defs></defs>
    <g stroke="none" stroke-width="1" fill="none" fill-rule="evenodd">
        <g></g>
        <g transform="translate(10.000000, 10.000000)" stroke-width="4">
            <g transform="translate(7.000000, 7.000000) rotate(-90.000000) translate(-7.000000, -7.000000) " stroke="#0085CA" stroke-linecap="round" stroke-linejoin="round">
                <path d="M0,14 L13,1"></path>
                <polyline points="2 0 14 0 14 12"></polyline>
            </g>
            <g transform="translate(7.000000, 37.000000) rotate(-180.000000) translate(-7.000000, -37.000000) translate(0.000000, 30.000000)" stroke="#0085CA" stroke-linecap="round" stroke-linejoin="round">
                <path d="M0,14 L13,1"></path>
                <polyline points="2 0 14 0 14 12"></polyline>
            </g>
            <g transform="translate(37.000000, 37.000000) rotate(-270.000000) translate(-37.000000, -37.000000) translate(30.000000, 30.000000)" stroke="#0085CA" stroke-linecap="round" stroke-linejoin="round">
                <path d="M0,14 L13,1"></path>
                <polyline points="2 0 14 0 14 12"></polyline>
            </g>
            <g transform="translate(30.000000, 0.000000)" stroke="#0085CA" stroke-linecap="round" stroke-linejoin="round">
                <path d="M0,14 L13,1"></path>
                <polyline points="2 0 14 0 14 12"></polyline>
            </g>
            <circle stroke="#FF6901" cx="22" cy="22" r="4"></circle>
        </g>
    </g>
</svg>