<svg height="489pt" viewBox="-5 0 489 489.16262" width="489pt" xmlns="http://www.w3.org/2000/svg"><path d="m114.960938 433.683594c-8.703126-1.53125-14.515626-9.832032-12.980469-18.535156l22.070312-125.167969-16.289062-20.28125c-.933594 3.480469-33.597657 100-45.429688 133.269531l7.351563 41.691406c3.128906 17.382813 19.71875 28.96875 37.117187 25.917969l108.546875-19.199219zm0 0" fill="#5eac24"/><path d="m107.761719 269.617188v.082031l16.289062 20.28125 44.550781-252.675781-134.039062 23.59375c-17.433594 3.066406-29.074219 19.6875-26 37.121093l53.769531 304.960938c11.839844-33.28125 44.496094-129.792969 45.429688-133.273438zm-21.359375-125.421876c-3.058594-17.410156 8.578125-34 25.988281-37.054687 17.40625-3.054687 33.996094 8.582031 37.046875 25.992187 3.054688 17.410157-8.585938 33.996094-25.996094 37.046876-17.402344 3.046874-33.980468-8.582032-37.039062-25.984376zm0 0" fill="#bdfdff"/><path d="m240.074219 349.667969 38.082031 112.796875 104.671875 18.457031c8.703125 1.535156 17.003906-4.277344 18.535156-12.984375l17.414063-98.742188-63.335938-193.679687zm0 0" fill="#5eac24"/><path d="m117.171875 329.019531-15.203125 86.128907c-1.53125 8.703124 4.28125 17.003906 12.984375 18.535156l100.394531 17.695312 44 7.769532 18.789063 3.308593-38.078125-112.796875-11.367188 17.167969 11.367188-17.167969-40.921875-121.203125c1.890625-2.167969-49.726563 61.363281-81.964844 100.5625zm0 0" fill="#4e901e"/><path d="m457.84375 55.476562-267.863281-47.203124c-8.695313-1.535157-16.992188 4.261718-18.539063 12.953124l-2.839844 16.078126-44.550781 252.675781v.039062-.039062l-6.878906 39.039062c32.238281-39.199219 83.855469-102.730469 81.984375-100.554687l40.917969 121.203125 115.367187-174.152344 63.335938 193.671875 52.050781-295.199219c1.519531-8.699219-4.292969-16.980469-12.984375-18.511719zm-172.847656 58.878907c-3.070313 17.402343-19.667969 29.023437-37.070313 25.957031-17.40625-3.070312-29.027343-19.667969-25.960937-37.070312 3.070312-17.40625 19.664062-29.027344 37.070312-25.960938 17.40625 3.070312 29.027344 19.667969 25.960938 37.074219zm0 0" fill="#46f8ff"/><path d="m259.035156 77.28125c-17.40625-3.066406-34 8.554688-37.070312 25.960938-3.066406 17.402343 8.554687 34 25.960937 37.070312 17.402344 3.066406 34-8.554688 37.070313-25.957031 3.066406-17.40625-8.554688-34.003907-25.960938-37.074219zm0 0" fill="#ff3051"/><path d="m123.441406 170.179688c17.410156-3.050782 29.050782-19.636719 25.996094-37.046876-3.050781-17.410156-19.640625-29.046874-37.046875-25.992187-17.410156 3.054687-29.046875 19.644531-25.988281 37.054687 3.058594 17.402344 19.636718 29.03125 37.039062 25.984376zm0 0" fill="#ff6243"/><path d="m459.203125 47.59375-267.839844-47.230469c-13.050781-2.296875-25.492187 6.421875-27.792969 19.472657l-1.863281 10.558593-128.519531 22.625c-21.777344 3.855469-36.320312 24.613281-32.503906 46.398438l61.128906 346.65625c3.917969 21.722656 24.65625 36.195312 46.398438 32.382812l107.152343-18.949219 166.078125 29.285157c1.390625.246093 2.796875.371093 4.210938.371093 11.628906-.027343 21.566406-8.386718 23.582031-19.839843l69.472656-393.921875c2.269531-13.058594-6.453125-25.496094-19.503906-27.808594zm-423.257813 21.183594 122.800782-21.597656-11.382813 64.519531c-1.960937-2.171875-4.152343-4.125-6.535156-5.824219-14.121094-9.855469-32.964844-9.570312-46.777344.710938-13.816406 10.285156-19.5 28.253906-14.109375 44.605468 5.390625 16.355469 20.640625 27.425782 37.859375 27.484375 2.359375 0 4.710938-.207031 7.035157-.617187 4.042968-.769532 7.941406-2.15625 11.558593-4.121094l-17.191406 97.28125-5.242187-6.527344c-.054688-.074218-.148438-.105468-.214844-.175781-.511719-.574219-1.101563-1.070313-1.757813-1.472656-.234375-.144531-.433593-.328125-.671875-.449219-.632812-.292969-1.300781-.5-1.984375-.613281-.335937-.089844-.675781-.160157-1.015625-.210938-.210937 0-.378906-.109375-.585937-.109375-.625.027344-1.242188.132813-1.839844.320313-.144531 0-.296875 0-.441406.070312-1.933594.585938-3.574219 1.886719-4.582031 3.640625-.152344.292969-.28125.59375-.390626.902344-.199218.371094-.371093.753906-.507812 1.152344-1.597656 5.601562-23.199219 73.390625-34.398438 107.585937l-49.128906-278.6875c-2.292968-13.078125 6.433594-25.546875 19.503906-27.867187zm101.601563 83.625c-6.238281 8.882812-17.664063 12.472656-27.863281 8.753906-10.199219-3.71875-16.628906-13.820312-15.6875-24.632812.945312-10.816407 9.03125-19.648438 19.71875-21.542969 1.386718-.253907 2.796875-.378907 4.207031-.378907 11.632813.023438 21.578125 8.382813 23.59375 19.839844 1.128906 6.277344-.300781 12.746094-3.96875 17.960938zm128.71875 299.832031-149.917969-26.398437c-4.351562-.769532-7.253906-4.914063-6.488281-9.265626l13.75-77.984374c3.664063-4.320313 66.511719-84.96875 72.800781-93.28125zm-160.800781 10.464844c-13.046875 2.265625-25.480469-6.40625-27.863282-19.433594l-6.863281-38.6875c.800781-.582031 29.710938-84.96875 40.167969-118.199219l4.632812 5.769532-21.441406 121.597656c-2.273437 13.0625 6.449219 25.503906 19.503906 27.816406l55.769532 9.832031zm288.058594 3.847656c-.769532 4.34375-4.910157 7.246094-9.257813 6.488281l-100-17.601562-35.335937-104.558594 104.050781-157.136719 57.597656 176zm22.960937-130.222656-53.441406-163.289063c-.953125-2.914062-3.492188-5.027344-6.53125-5.4375-3.039063-.410156-6.046875.953125-7.742188 3.507813l-106.304687 160.617187-35.367188-104.742187-.054687-.265625c-.640625-2.96875-2.90625-5.316406-5.847657-6.0625-2.972656-.710938-6.09375.289062-8.097656 2.597656-.269531.3125-.511718.648438-.726562 1-4.082032 5.527344-40 52.097656-62.960938 81.382812l49.914063-283.023437c.765625-4.34375 4.90625-7.246094 9.253906-6.488281l267.878906 47.203125c4.351563.765625 7.253907 4.914062 6.488281 9.261719zm0 0"/><path d="m260.425781 69.378906c-14.113281-2.570312-28.519531 2.613282-37.761719 13.585938-9.238281 10.96875-11.898437 26.050781-6.964843 39.519531 4.929687 13.46875 16.699219 23.269531 30.839843 25.679687 2.320313.40625 4.675782.613282 7.03125.613282 20.742188-.023438 38.023438-15.894532 39.804688-36.558594 1.785156-20.660156-12.519531-39.261719-32.949219-42.839844zm16.695313 43.550782c-2.203125 12.511718-13.78125 21.136718-26.398438 19.671874-12.621094-1.464843-21.914062-12.507812-21.195312-25.195312.714844-12.683594 11.195312-22.613281 23.898437-22.644531 1.414063 0 2.824219.125 4.21875.367187 13.054688 2.296875 21.777344 14.746094 19.476563 27.800782zm0 0"/></svg>