<?xml version="1.0"?>
<svg xmlns="http://www.w3.org/2000/svg" height="512px" viewBox="-5 0 489 489.16262" width="512px"><path d="m459.203125 47.59375-267.839844-47.230469c-13.050781-2.296875-25.492187 6.421875-27.792969 19.472657l-1.863281 10.558593-128.519531 22.625c-21.777344 3.855469-36.320312 24.613281-32.503906 46.398438l61.128906 346.65625c3.917969 21.722656 24.65625 36.195312 46.398438 32.382812l107.152343-18.949219 166.078125 29.285157c1.390625.246093 2.796875.371093 4.210938.371093 11.628906-.027343 21.566406-8.386718 23.582031-19.839843l69.472656-393.921875c2.269531-13.058594-6.453125-25.496094-19.503906-27.808594zm-423.257813 21.183594 122.800782-21.597656-11.382813 64.519531c-1.960937-2.171875-4.152343-4.125-6.535156-5.824219-14.121094-9.855469-32.964844-9.570312-46.777344.710938-13.816406 10.285156-19.5 28.253906-14.109375 44.605468 5.390625 16.355469 20.640625 27.425782 37.859375 27.484375 2.359375 0 4.710938-.207031 7.035157-.617187 4.042968-.769532 7.941406-2.15625 11.558593-4.121094l-17.191406 97.28125-5.242187-6.527344c-.054688-.074218-.148438-.105468-.214844-.175781-.511719-.574219-1.101563-1.070313-1.757813-1.472656-.234375-.144531-.433593-.328125-.671875-.449219-.632812-.292969-1.300781-.5-1.984375-.613281-.335937-.089844-.675781-.160157-1.015625-.210938-.210937 0-.378906-.109375-.585937-.109375-.625.027344-1.242188.132813-1.839844.320313-.144531 0-.296875 0-.441406.070312-1.933594.585938-3.574219 1.886719-4.582031 3.640625-.152344.292969-.28125.59375-.390626.902344-.199218.371094-.371093.753906-.507812 1.152344-1.597656 5.601562-23.199219 73.390625-34.398438 107.585937l-49.128906-278.6875c-2.292968-13.078125 6.433594-25.546875 19.503906-27.867187zm101.601563 83.625c-6.238281 8.882812-17.664063 12.472656-27.863281 8.753906-10.199219-3.71875-16.628906-13.820312-15.6875-24.632812.945312-10.816407 9.03125-19.648438 19.71875-21.542969 1.386718-.253907 2.796875-.378907 4.207031-.378907 11.632813.023438 21.578125 8.382813 23.59375 19.839844 1.128906 6.277344-.300781 12.746094-3.96875 17.960938zm128.71875 299.832031-149.917969-26.398437c-4.351562-.769532-7.253906-4.914063-6.488281-9.265626l13.75-77.984374c3.664063-4.320313 66.511719-84.96875 72.800781-93.28125zm-160.800781 10.464844c-13.046875 2.265625-25.480469-6.40625-27.863282-19.433594l-6.863281-38.6875c.800781-.582031 29.710938-84.96875 40.167969-118.199219l4.632812 5.769532-21.441406 121.597656c-2.273437 13.0625 6.449219 25.503906 19.503906 27.816406l55.769532 9.832031zm288.058594 3.847656c-.769532 4.34375-4.910157 7.246094-9.257813 6.488281l-100-17.601562-35.335937-104.558594 104.050781-157.136719 57.597656 176zm22.960937-130.222656-53.441406-163.289063c-.953125-2.914062-3.492188-5.027344-6.53125-5.4375-3.039063-.410156-6.046875.953125-7.742188 3.507813l-106.304687 160.617187-35.367188-104.742187-.054687-.265625c-.640625-2.96875-2.90625-5.316406-5.847657-6.0625-2.972656-.710938-6.09375.289062-8.097656 2.597656-.269531.3125-.511718.648438-.726562 1-4.082032 5.527344-40 52.097656-62.960938 81.382812l49.914063-283.023437c.765625-4.34375 4.90625-7.246094 9.253906-6.488281l267.878906 47.203125c4.351563.765625 7.253907 4.914062 6.488281 9.261719zm0 0" fill="#006DF0"/><path d="m260.425781 69.378906c-14.113281-2.570312-28.519531 2.613282-37.761719 13.585938-9.238281 10.96875-11.898437 26.050781-6.964843 39.519531 4.929687 13.46875 16.699219 23.269531 30.839843 25.679687 2.320313.40625 4.675782.613282 7.03125.613282 20.742188-.023438 38.023438-15.894532 39.804688-36.558594 1.785156-20.660156-12.519531-39.261719-32.949219-42.839844zm16.695313 43.550782c-2.203125 12.511718-13.78125 21.136718-26.398438 19.671874-12.621094-1.464843-21.914062-12.507812-21.195312-25.195312.714844-12.683594 11.195312-22.613281 23.898437-22.644531 1.414063 0 2.824219.125 4.21875.367187 13.054688 2.296875 21.777344 14.746094 19.476563 27.800782zm0 0" fill="#006DF0"/></svg>
