<?xml version="1.0" encoding="UTF-8" standalone="no"?>
<!-- Created with Inkscape (http://www.inkscape.org/) -->

<svg
   xmlns:dc="http://purl.org/dc/elements/1.1/"
   xmlns:cc="http://creativecommons.org/ns#"
   xmlns:rdf="http://www.w3.org/1999/02/22-rdf-syntax-ns#"
   xmlns:svg="http://www.w3.org/2000/svg"
   xmlns="http://www.w3.org/2000/svg"
   xmlns:sodipodi="http://sodipodi.sourceforge.net/DTD/sodipodi-0.dtd"
   xmlns:inkscape="http://www.inkscape.org/namespaces/inkscape"
   width="31.261656mm"
   height="31.139183mm"
   viewBox="0 0 31.261656 31.139183"
   version="1.1"
   id="svg8"
   inkscape:version="0.92.4 (unknown)"
   sodipodi:docname="iqnET.svg">
  <defs
     id="defs2" />
  <sodipodi:namedview
     id="base"
     pagecolor="#ffffff"
     bordercolor="#666666"
     borderopacity="1.0"
     inkscape:pageopacity="0.0"
     inkscape:pageshadow="2"
     inkscape:zoom="2.8"
     inkscape:cx="157.11847"
     inkscape:cy="38.598867"
     inkscape:document-units="mm"
     inkscape:current-layer="layer1"
     showgrid="false"
     inkscape:pagecheckerboard="true"
     fit-margin-top="0"
     fit-margin-left="0"
     fit-margin-right="0"
     fit-margin-bottom="0"
     inkscape:window-width="1920"
     inkscape:window-height="1012"
     inkscape:window-x="1920"
     inkscape:window-y="0"
     inkscape:window-maximized="1" />
  <metadata
     id="metadata5">
    <rdf:RDF>
      <cc:Work
         rdf:about="">
        <dc:format>image/svg+xml</dc:format>
        <dc:type
           rdf:resource="http://purl.org/dc/dcmitype/StillImage" />
        <dc:title></dc:title>
      </cc:Work>
    </rdf:RDF>
  </metadata>
  <g
     inkscape:label="Layer 1"
     inkscape:groupmode="layer"
     id="layer1"
     transform="translate(380.75583,-115.87684)">
    <g
       transform="matrix(0.26458333,0,0,0.26458333,-576.85865,52.381262)"
       id="g1310">
      <g
         id="g950">
        <rect
           y="313.50488"
           x="759.88672"
           height="1.8634537"
           width="80.733025"
           id="rect926"
           style="opacity:1;fill:#ffffff;fill-opacity:1;stroke:none;stroke-width:2.50747228;stroke-linecap:square;stroke-linejoin:miter;stroke-miterlimit:4;stroke-dasharray:none;stroke-dashoffset:0;stroke-opacity:1" />
        <path
           style="opacity:1;fill:#004896;fill-opacity:1;stroke:none;stroke-width:1.08483446;stroke-linecap:round;stroke-linejoin:miter;stroke-miterlimit:4;stroke-dasharray:none;stroke-dashoffset:0;stroke-opacity:1"
           d="m 800.2522,239.98328 a 58.845196,58.845196 0 0 0 -58.72658,55.49609 h 17.91408 a 40.980789,40.980789 0 0 1 40.8125,-37.63086 40.980789,40.980789 0 0 1 40.82421,37.63086 h 17.85352 A 58.845196,58.845196 0 0 0 800.2522,239.98328 Z m -58.67774,62.19531 a 58.845196,58.845196 0 0 0 58.67774,55.49609 58.845196,58.845196 0 0 0 58.72851,-55.49609 H 841.0647 a 40.980789,40.980789 0 0 1 -40.8125,37.63086 40.980789,40.980789 0 0 1 -40.82227,-37.63086 z"
           id="circle1138"
           inkscape:connector-curvature="0" />
        <path
           inkscape:connector-curvature="0"
           style="opacity:1;fill:#ffffff;fill-opacity:1;stroke:none;stroke-width:1.62113154;stroke-linecap:square;stroke-linejoin:miter;stroke-miterlimit:4;stroke-dasharray:none;stroke-dashoffset:0;stroke-opacity:1"
           d="m 741.17602,297.84363 v 1.9707 h 17.87695 a 41.377121,41.377121 0 0 1 0.1582,-1.9707 z m 100.17187,0 a 41.377121,41.377121 0 0 1 0.22461,1.9707 h 17.75781 v -1.9707 z"
           id="rect874" />
        <rect
           style="opacity:1;fill:#004896;fill-opacity:1;stroke:none;stroke-width:3.33071375;stroke-linecap:square;stroke-linejoin:miter;stroke-miterlimit:4;stroke-dasharray:none;stroke-dashoffset:0;stroke-opacity:1"
           id="rect924"
           width="79.246902"
           height="3.3495765"
           x="760.62976"
           y="288.42654" />
      </g>
      <text
         transform="scale(0.97445914,1.0262103)"
         id="text954"
         y="302.56586"
         x="785.26727"
         style="font-style:normal;font-variant:normal;font-weight:normal;font-stretch:normal;font-size:12.99278831px;line-height:1.25;font-family:sans-serif;-inkscape-font-specification:'sans-serif, Normal';font-variant-ligatures:normal;font-variant-caps:normal;font-variant-numeric:normal;text-align:start;letter-spacing:0px;word-spacing:0px;writing-mode:lr-tb;text-anchor:start;fill:#ffffff;fill-opacity:1;stroke:none;stroke-width:0.97445917"
         xml:space="preserve"><tspan
           style="font-style:normal;font-variant:normal;font-weight:bold;font-stretch:normal;font-size:23.38702011px;font-family:sans-serif;-inkscape-font-specification:'sans-serif Bold';fill:#ffffff;stroke-width:0.97445917"
           y="302.56586"
           x="785.26727"
           id="tspan952"
           sodipodi:role="line">I  Net</tspan></text>
      <g
         id="g1147">
        <path
           inkscape:transform-center-y="-0.12087554"
           inkscape:transform-center-x="-0.060722237"
           d="m 776.18363,299.24487 -0.77572,-0.51316 -0.86546,0.34066 0.24833,-0.89633 -0.59143,-0.71783 0.9292,-0.0408 0.49993,-0.78431 0.32595,0.87111 0.9004,0.23311 -0.72775,0.57918 z"
           inkscape:randomized="0"
           inkscape:rounded="0"
           inkscape:flatsided="false"
           sodipodi:arg2="1.6755161"
           sodipodi:arg1="1.0471976"
           sodipodi:r2="0.7064057"
           sodipodi:r1="1.40376"
           sodipodi:cy="298.02917"
           sodipodi:cx="775.48175"
           sodipodi:sides="5"
           id="path958"
           style="opacity:1;fill:#004896;fill-opacity:1;stroke:none;stroke-width:3.40554237;stroke-linecap:square;stroke-linejoin:miter;stroke-miterlimit:4;stroke-dasharray:none;stroke-dashoffset:0;stroke-opacity:1"
           sodipodi:type="star" />
        <path
           inkscape:transform-center-y="-0.12087554"
           inkscape:transform-center-x="-0.060722237"
           d="m 779.0153,296.14584 -0.77572,-0.51316 -0.86546,0.34066 0.24833,-0.89632 -0.59143,-0.71784 0.92919,-0.0408 0.49994,-0.7843 0.32594,0.8711 0.90041,0.23311 -0.72775,0.57918 z"
           inkscape:randomized="0"
           inkscape:rounded="0"
           inkscape:flatsided="false"
           sodipodi:arg2="1.6755161"
           sodipodi:arg1="1.0471976"
           sodipodi:r2="0.7064057"
           sodipodi:r1="1.40376"
           sodipodi:cy="294.93015"
           sodipodi:cx="778.31342"
           sodipodi:sides="5"
           id="path960"
           style="opacity:1;fill:#004896;fill-opacity:1;stroke:none;stroke-width:3.40554237;stroke-linecap:square;stroke-linejoin:miter;stroke-miterlimit:4;stroke-dasharray:none;stroke-dashoffset:0;stroke-opacity:1"
           sodipodi:type="star" />
        <path
           inkscape:transform-center-y="-0.12084503"
           inkscape:transform-center-x="-0.060722237"
           d="m 782.85398,295.44851 -0.77572,-0.51316 -0.86546,0.34067 0.24833,-0.89633 -0.59143,-0.71783 0.9292,-0.0408 0.49993,-0.7843 0.32595,0.87111 0.9004,0.2331 -0.72775,0.57918 z"
           inkscape:randomized="0"
           inkscape:rounded="0"
           inkscape:flatsided="false"
           sodipodi:arg2="1.6755161"
           sodipodi:arg1="1.0471976"
           sodipodi:r2="0.7064057"
           sodipodi:r1="1.40376"
           sodipodi:cy="294.23282"
           sodipodi:cx="782.1521"
           sodipodi:sides="5"
           id="path962"
           style="opacity:1;fill:#004896;fill-opacity:1;stroke:none;stroke-width:3.40554237;stroke-linecap:square;stroke-linejoin:miter;stroke-miterlimit:4;stroke-dasharray:none;stroke-dashoffset:0;stroke-opacity:1"
           sodipodi:type="star" />
        <path
           inkscape:transform-center-y="-0.12084503"
           inkscape:transform-center-x="-0.060789375"
           d="m 786.77305,296.09017 -0.77572,-0.51315 -0.86546,0.34066 0.24833,-0.89633 -0.59143,-0.71783 0.92919,-0.0408 0.49994,-0.78431 0.32594,0.87111 0.90041,0.2331 -0.72775,0.57918 z"
           inkscape:randomized="0"
           inkscape:rounded="0"
           inkscape:flatsided="false"
           sodipodi:arg2="1.6755161"
           sodipodi:arg1="1.0471976"
           sodipodi:r2="0.7064057"
           sodipodi:r1="1.40376"
           sodipodi:cy="294.87448"
           sodipodi:cx="786.07117"
           sodipodi:sides="5"
           id="path964"
           style="opacity:1;fill:#004896;fill-opacity:1;stroke:none;stroke-width:3.40554237;stroke-linecap:square;stroke-linejoin:miter;stroke-miterlimit:4;stroke-dasharray:none;stroke-dashoffset:0;stroke-opacity:1"
           sodipodi:type="star" />
        <path
           inkscape:transform-center-y="-0.12084503"
           inkscape:transform-center-x="-0.060722237"
           d="m 789.54001,299.20702 -0.77571,-0.51315 -0.86546,0.34066 0.24833,-0.89633 -0.59143,-0.71783 0.92919,-0.0408 0.49994,-0.78431 0.32594,0.87111 0.90041,0.2331 -0.72775,0.57918 z"
           inkscape:randomized="0"
           inkscape:rounded="0"
           inkscape:flatsided="false"
           sodipodi:arg2="1.6755161"
           sodipodi:arg1="1.0471976"
           sodipodi:r2="0.7064057"
           sodipodi:r1="1.40376"
           sodipodi:cy="297.99133"
           sodipodi:cx="788.83813"
           sodipodi:sides="5"
           id="path967"
           style="opacity:1;fill:#004896;fill-opacity:1;stroke:none;stroke-width:3.40554237;stroke-linecap:square;stroke-linejoin:miter;stroke-miterlimit:4;stroke-dasharray:none;stroke-dashoffset:0;stroke-opacity:1"
           sodipodi:type="star" />
        <path
           inkscape:transform-center-y="-0.12084503"
           inkscape:transform-center-x="-0.060722237"
           d="m 790.29313,303.00118 -0.77572,-0.51315 -0.86546,0.34066 0.24833,-0.89633 -0.59143,-0.71783 0.92919,-0.0408 0.49994,-0.78431 0.32595,0.87111 0.9004,0.2331 -0.72775,0.57918 z"
           inkscape:randomized="0"
           inkscape:rounded="0"
           inkscape:flatsided="false"
           sodipodi:arg2="1.6755161"
           sodipodi:arg1="1.0471976"
           sodipodi:r2="0.7064057"
           sodipodi:r1="1.40376"
           sodipodi:cy="301.78549"
           sodipodi:cx="789.59125"
           sodipodi:sides="5"
           id="path969"
           style="opacity:1;fill:#004896;fill-opacity:1;stroke:none;stroke-width:3.40554237;stroke-linecap:square;stroke-linejoin:miter;stroke-miterlimit:4;stroke-dasharray:none;stroke-dashoffset:0;stroke-opacity:1"
           sodipodi:type="star" />
        <path
           inkscape:transform-center-y="-0.12919104"
           inkscape:transform-center-x="-0.064907061"
           d="m 789.14605,307.18072 -0.8291,-0.54847 -0.925,0.3641 0.26541,-0.958 -0.63212,-0.76722 0.99313,-0.0436 0.53433,-0.83827 0.34837,0.93105 0.96236,0.24914 -0.77782,0.61903 z"
           inkscape:randomized="0"
           inkscape:rounded="0"
           inkscape:flatsided="false"
           sodipodi:arg2="1.6755161"
           sodipodi:arg1="1.0471976"
           sodipodi:r2="0.75501043"
           sodipodi:r1="1.5003465"
           sodipodi:cy="305.88138"
           sodipodi:cx="788.39587"
           sodipodi:sides="5"
           id="path971"
           style="opacity:1;fill:#004896;fill-opacity:1;stroke:none;stroke-width:3.63986301;stroke-linecap:square;stroke-linejoin:miter;stroke-miterlimit:4;stroke-dasharray:none;stroke-dashoffset:0;stroke-opacity:1"
           sodipodi:type="star" />
        <path
           inkscape:transform-center-y="-0.12084503"
           inkscape:transform-center-x="-0.060722237"
           d="m 775.15867,303.1148 -0.77572,-0.51316 -0.86546,0.34067 0.24833,-0.89633 -0.59143,-0.71783 0.92919,-0.0408 0.49994,-0.7843 0.32594,0.87111 0.90041,0.2331 -0.72775,0.57918 z"
           inkscape:randomized="0"
           inkscape:rounded="0"
           inkscape:flatsided="false"
           sodipodi:arg2="1.6755161"
           sodipodi:arg1="1.0471976"
           sodipodi:r2="0.7064057"
           sodipodi:r1="1.40376"
           sodipodi:cy="301.89911"
           sodipodi:cx="774.45679"
           sodipodi:sides="5"
           id="path973"
           style="opacity:1;fill:#004896;fill-opacity:1;stroke:none;stroke-width:3.40554237;stroke-linecap:square;stroke-linejoin:miter;stroke-miterlimit:4;stroke-dasharray:none;stroke-dashoffset:0;stroke-opacity:1"
           sodipodi:type="star" />
        <path
           inkscape:transform-center-y="-0.12084503"
           inkscape:transform-center-x="-0.060722237"
           d="m 776.08781,306.97802 -0.77572,-0.51315 -0.86546,0.34066 0.24833,-0.89633 -0.59143,-0.71783 0.92919,-0.0408 0.49994,-0.7843 0.32594,0.87111 0.90041,0.2331 -0.72775,0.57918 z"
           inkscape:randomized="0"
           inkscape:rounded="0"
           inkscape:flatsided="false"
           sodipodi:arg2="1.6755161"
           sodipodi:arg1="1.0471976"
           sodipodi:r2="0.7064057"
           sodipodi:r1="1.40376"
           sodipodi:cy="305.76233"
           sodipodi:cx="775.38593"
           sodipodi:sides="5"
           id="path975"
           style="opacity:1;fill:#004896;fill-opacity:1;stroke:none;stroke-width:3.40554237;stroke-linecap:square;stroke-linejoin:miter;stroke-miterlimit:4;stroke-dasharray:none;stroke-dashoffset:0;stroke-opacity:1"
           sodipodi:type="star" />
        <path
           inkscape:transform-center-y="-0.12087554"
           inkscape:transform-center-x="-0.060722237"
           d="m 778.9885,309.71612 -0.77572,-0.51316 -0.86546,0.34066 0.24833,-0.89632 -0.59143,-0.71783 0.9292,-0.0408 0.49993,-0.7843 0.32595,0.87111 0.90041,0.2331 -0.72776,0.57918 z"
           inkscape:randomized="0"
           inkscape:rounded="0"
           inkscape:flatsided="false"
           sodipodi:arg2="1.6755161"
           sodipodi:arg1="1.0471976"
           sodipodi:r2="0.7064057"
           sodipodi:r1="1.40376"
           sodipodi:cy="308.50043"
           sodipodi:cx="778.28662"
           sodipodi:sides="5"
           id="path977"
           style="opacity:1;fill:#004896;fill-opacity:1;stroke:none;stroke-width:3.40554237;stroke-linecap:square;stroke-linejoin:miter;stroke-miterlimit:4;stroke-dasharray:none;stroke-dashoffset:0;stroke-opacity:1"
           sodipodi:type="star" />
        <path
           inkscape:transform-center-y="-0.12087554"
           inkscape:transform-center-x="-0.060789375"
           d="m 782.89854,310.87466 -0.77572,-0.51316 -0.86546,0.34066 0.24833,-0.89632 -0.59143,-0.71783 0.92919,-0.0408 0.49994,-0.7843 0.32594,0.8711 0.90041,0.23311 -0.72775,0.57918 z"
           inkscape:randomized="0"
           inkscape:rounded="0"
           inkscape:flatsided="false"
           sodipodi:arg2="1.6755161"
           sodipodi:arg1="1.0471976"
           sodipodi:r2="0.7064057"
           sodipodi:r1="1.40376"
           sodipodi:cy="309.65897"
           sodipodi:cx="782.19666"
           sodipodi:sides="5"
           id="path979"
           style="opacity:1;fill:#004896;fill-opacity:1;stroke:none;stroke-width:3.40554237;stroke-linecap:square;stroke-linejoin:miter;stroke-miterlimit:4;stroke-dasharray:none;stroke-dashoffset:0;stroke-opacity:1"
           sodipodi:type="star" />
        <path
           inkscape:transform-center-y="-0.12087554"
           inkscape:transform-center-x="-0.060722237"
           d="m 786.83304,309.62704 -0.77571,-0.51316 -0.86546,0.34066 0.24833,-0.89632 -0.59143,-0.71783 0.92919,-0.0408 0.49994,-0.7843 0.32594,0.8711 0.90041,0.23311 -0.72775,0.57918 z"
           inkscape:randomized="0"
           inkscape:rounded="0"
           inkscape:flatsided="false"
           sodipodi:arg2="1.6755161"
           sodipodi:arg1="1.0471976"
           sodipodi:r2="0.7064057"
           sodipodi:r1="1.40376"
           sodipodi:cy="308.41135"
           sodipodi:cx="786.13116"
           sodipodi:sides="5"
           id="path981"
           style="opacity:1;fill:#004896;fill-opacity:1;stroke:none;stroke-width:3.40554237;stroke-linecap:square;stroke-linejoin:miter;stroke-miterlimit:4;stroke-dasharray:none;stroke-dashoffset:0;stroke-opacity:1"
           sodipodi:type="star" />
        <path
           inkscape:transform-center-y="-0.12084503"
           inkscape:transform-center-x="-0.060789375"
           d="m 784.25986,306.21386 -0.77572,-0.51316 -0.86546,0.34067 0.24833,-0.89633 -0.59143,-0.71783 0.9292,-0.0408 0.49994,-0.7843 0.32594,0.87111 0.90041,0.2331 -0.72775,0.57918 z"
           inkscape:randomized="0"
           inkscape:rounded="0"
           inkscape:flatsided="false"
           sodipodi:arg2="1.6755161"
           sodipodi:arg1="1.0471976"
           sodipodi:r2="0.7064057"
           sodipodi:r1="1.40376"
           sodipodi:cy="304.99817"
           sodipodi:cx="783.55798"
           sodipodi:sides="5"
           id="path983"
           style="opacity:1;fill:#004896;fill-opacity:1;stroke:none;stroke-width:3.40554237;stroke-linecap:square;stroke-linejoin:miter;stroke-miterlimit:4;stroke-dasharray:none;stroke-dashoffset:0;stroke-opacity:1"
           sodipodi:type="star" />
        <path
           sodipodi:type="star"
           style="opacity:1;fill:#004896;fill-opacity:1;stroke:none;stroke-width:3.40554237;stroke-linecap:square;stroke-linejoin:miter;stroke-miterlimit:4;stroke-dasharray:none;stroke-dashoffset:0;stroke-opacity:1"
           id="path956"
           sodipodi:sides="5"
           sodipodi:cx="788.22992"
           sodipodi:cy="311.37"
           sodipodi:r1="1.40376"
           sodipodi:r2="0.7064057"
           sodipodi:arg1="1.0471976"
           sodipodi:arg2="1.6755161"
           inkscape:flatsided="false"
           inkscape:rounded="0"
           inkscape:randomized="0"
           d="m 788.9318,312.58569 -0.77572,-0.51316 -0.86546,0.34066 0.24833,-0.89632 -0.59143,-0.71784 0.9292,-0.0408 0.49993,-0.7843 0.32595,0.8711 0.9004,0.23311 -0.72775,0.57918 z"
           inkscape:transform-center-x="-0.060722237"
           inkscape:transform-center-y="-0.12087554" />
      </g>
      <g
         transform="translate(272.70353,-10.031329)"
         id="text1181"
         style="font-style:normal;font-variant:normal;font-weight:normal;font-stretch:normal;font-size:13.33333302px;line-height:1.25;font-family:sans-serif;-inkscape-font-specification:'sans-serif, Normal';font-variant-ligatures:normal;font-variant-caps:normal;font-variant-numeric:normal;text-align:start;letter-spacing:0px;word-spacing:0px;writing-mode:lr-tb;text-anchor:start;fill:#ffffff;fill-opacity:1;stroke:none"
         inkscape:transform-center-y="-10.508475"
         inkscape:transform-center-x="-33.62712"
         aria-label="CERTIFIED">
        <path
           inkscape:connector-curvature="0"
           id="path1194"
           style="font-size:10.66666698px;letter-spacing:3px;fill:#ffffff"
           d="m 492.62277,269.03047 0.77825,0.79058 q -0.7257,0.0201 -1.32798,0.26947 -0.59857,0.24574 -1.08109,0.72073 -0.95019,0.93537 -0.88133,2.01502 0.0652,1.07594 1.14673,2.1746 1.07787,1.09494 2.1563,1.18076 1.07478,0.0821 2.02497,-0.85327 0.48252,-0.47499 0.73763,-1.06963 0.25883,-0.59828 0.29031,-1.32358 l 0.77095,0.78316 q -0.13037,0.65455 -0.44052,1.22297 -0.30644,0.56476 -0.79638,1.04707 -1.25826,1.23863 -2.73837,1.1828 -1.48377,-0.0595 -2.79548,-1.39203 -1.31537,-1.3362 -1.34792,-2.81701 -0.0362,-1.48451 1.22204,-2.72315 0.49737,-0.48961 1.06688,-0.78714 0.56957,-0.30489 1.21501,-0.42135 z" />
        <path
           inkscape:connector-curvature="0"
           id="path1196"
           style="font-size:10.66666698px;letter-spacing:3px;fill:#ffffff"
           d="m 497.28219,264.72817 4.18309,-2.58368 0.46528,0.75331 -3.28798,2.03082 1.20974,1.95861 3.1506,-1.94598 0.46529,0.75331 -3.15061,1.94598 1.48069,2.39729 3.36774,-2.08008 0.46528,0.75331 -4.26285,2.63295 z" />
        <path
           inkscape:connector-curvature="0"
           id="path1198"
           style="font-size:10.66666698px;letter-spacing:3px;fill:#ffffff"
           d="m 512.20884,262.04416 q 0.35739,-0.004 0.78136,0.24461 0.42889,0.24688 0.95093,0.75915 l 1.71123,1.65146 -1.06642,0.37431 -1.59931,-1.55274 q -0.62241,-0.60952 -1.05094,-0.72957 -0.42361,-0.12179 -1.01334,0.0852 l -1.08117,0.37949 1.08845,3.10098 -0.99271,0.34844 -2.57536,-7.33719 2.24097,-0.78658 q 1.25808,-0.44159 2.06187,-0.13309 0.80378,0.30849 1.17637,1.37 0.24322,0.69293 0.0793,1.26382 -0.15902,0.56916 -0.71122,0.9617 z m -3.56823,-2.2085 0.91423,2.60463 1.24826,-0.43814 q 0.7175,-0.25184 0.96559,-0.70876 0.25128,-0.46355 0.0253,-1.10733 -0.22596,-0.64379 -0.70839,-0.83877 -0.47924,-0.20161 -1.19674,0.0502 z" />
        <path
           inkscape:connector-curvature="0"
           id="path1200"
           style="font-size:10.66666698px;letter-spacing:3px;fill:#ffffff"
           d="m 517.15119,256.45501 6.52592,-0.82715 0.11133,0.87839 -2.73851,0.3471 0.86645,6.83594 -1.0489,0.13294 -0.86645,-6.83593 -2.7385,0.3471 z" />
        <path
           inkscape:connector-curvature="0"
           id="path1202"
           style="font-size:10.66666698px;letter-spacing:3px;fill:#ffffff"
           d="m 529.04635,255.65122 1.05096,0.0487 -0.35985,7.76771 -1.05096,-0.0487 z" />
        <path
           inkscape:connector-curvature="0"
           id="path1204"
           style="font-size:10.66666698px;letter-spacing:3px;fill:#ffffff"
           d="m 536.46571,256.40908 4.36557,0.95473 -0.18917,0.86498 -3.33778,-0.72996 -0.48961,2.23875 3.01215,0.65875 -0.18917,0.86497 -3.01214,-0.65874 -0.79339,3.6278 -1.02779,-0.22478 z" />
        <path
           inkscape:connector-curvature="0"
           id="path1206"
           style="font-size:10.66666698px;letter-spacing:3px;fill:#ffffff"
           d="m 546.5146,259.29383 0.9749,0.39554 -2.92343,7.20558 -0.9749,-0.39554 z" />
        <path
           inkscape:connector-curvature="0"
           id="path1208"
           style="font-size:10.66666698px;letter-spacing:3px;fill:#ffffff"
           d="m 553.31719,262.50041 4.15957,2.62137 -0.47207,0.74907 -3.26949,-2.06044 -1.22738,1.9476 3.1329,1.97436 -0.47207,0.74907 -3.1329,-1.97435 -1.50229,2.38382 3.34881,2.11042 -0.47207,0.74908 -4.23888,-2.67135 z" />
        <path
           inkscape:connector-curvature="0"
           id="path1210"
           style="font-size:10.66666698px;letter-spacing:3px;fill:#ffffff"
           d="m 562.80013,270.59354 -4.30467,4.2467 0.8925,0.90468 q 1.13026,1.14569 2.17241,1.16381 1.0458,0.0218 2.16554,-1.08284 1.11232,-1.09734 1.10097,-2.13968 -0.004,-1.0423 -1.13424,-2.18799 z m -0.12339,-1.35616 1.51799,1.53871 q 1.58748,1.60915 1.65891,3.02388 0.0752,1.41108 -1.34862,2.81567 -1.43119,1.41191 -2.84848,1.31759 -1.41729,-0.0943 -2.99745,-1.69605 l -1.51799,-1.53871 z" />
      </g>
      <g
         transform="translate(273.74577,-9.983051)"
         id="text1221"
         style="font-style:normal;font-variant:normal;font-weight:normal;font-stretch:normal;font-size:13.33333302px;line-height:1.25;font-family:sans-serif;-inkscape-font-specification:'sans-serif, Normal';font-variant-ligatures:normal;font-variant-caps:normal;font-variant-numeric:normal;text-align:start;letter-spacing:0px;word-spacing:0px;writing-mode:lr-tb;text-anchor:start;fill:#ffffff;fill-opacity:1;stroke:none"
         aria-label="MANAGEMENT SYSTEM">
        <path
           inkscape:connector-curvature="0"
           id="path1228"
           style="font-size:8px;letter-spacing:2px;fill:#ffffff"
           d="m 483.67783,328.5924 0.56613,1.03052 -2.76183,3.21532 4.19877,-0.59966 0.56613,1.03052 -5.1115,2.80806 -0.37052,-0.67446 4.4884,-2.46575 -4.22993,0.60785 -0.3818,-0.695 2.78169,-3.24406 -4.48839,2.46576 -0.36864,-0.67104 z" />
        <path
           inkscape:connector-curvature="0"
           id="path1230"
           style="font-size:8px;letter-spacing:2px;fill:#ffffff"
           d="m 488.33092,337.51799 -2.95504,0.91483 1.30385,1.70264 z m 0.34642,-0.82617 0.54387,0.71021 -3.27895,5.31049 -0.49875,-0.65129 0.86482,-1.33139 -1.59835,-2.0872 -1.51081,0.48783 -0.50587,-0.66059 z" />
        <path
           inkscape:connector-curvature="0"
           id="path1232"
           style="font-size:8px;letter-spacing:2px;fill:#ffffff"
           d="m 491.93477,340.65281 0.76022,0.74227 -1.5582,5.29743 3.40845,-3.49087 0.5478,0.53487 -4.0743,4.17284 -0.76023,-0.74227 1.5582,-5.29744 -3.40844,3.49088 -0.54781,-0.53487 z" />
        <path
           inkscape:connector-curvature="0"
           id="path1234"
           style="font-size:8px;letter-spacing:2px;fill:#ffffff"
           d="m 498.31911,347.26995 -2.57693,1.71132 1.73123,1.26565 z m 0.0993,-0.89034 0.72213,0.52792 -1.64761,6.01982 -0.66222,-0.48413 0.45409,-1.52129 -2.12226,-1.55151 -1.31182,0.89423 -0.67167,-0.49104 z" />
        <path
           inkscape:connector-curvature="0"
           id="path1236"
           style="font-size:8px;letter-spacing:2px;fill:#ffffff"
           d="m 503.71157,355.47054 0.73431,-1.38362 -1.13864,-0.6043 0.30398,-0.57277 1.82873,0.97054 -1.17381,2.21172 q -0.55569,0.0721 -1.12094,-0.0377 -0.56342,-0.11328 -1.11549,-0.40627 -1.20765,-0.64092 -1.51727,-1.70739 -0.30433,-1.06809 0.36406,-2.32749 0.67022,-1.26286 1.72352,-1.606 1.05859,-0.34476 2.26624,0.29616 0.50376,0.26736 0.88984,0.63146 0.38953,0.36594 0.64435,0.81073 l -0.39371,0.74185 q -0.21249,-0.53289 -0.55934,-0.92924 -0.34686,-0.39636 -0.82647,-0.65089 -0.94542,-0.50176 -1.70175,-0.22655 -0.75288,0.27704 -1.30774,1.32252 -0.55303,1.04203 -0.36049,1.82082 0.19598,0.78063 1.1414,1.28238 0.3692,0.19594 0.69199,0.28765 0.32463,0.0883 0.62723,0.0764 z" />
        <path
           inkscape:connector-curvature="0"
           id="path1238"
           style="font-size:8px;letter-spacing:2px;fill:#ffffff"
           d="m 509.17101,352.44323 3.46693,1.2562 -0.22622,0.62434 -2.72507,-0.9874 -0.58818,1.62329 2.61122,0.94615 -0.22623,0.62434 -2.61121,-0.94615 -0.71993,1.98688 2.79118,1.01135 -0.22623,0.62434 -3.53303,-1.28016 z" />
        <path
           inkscape:connector-curvature="0"
           id="path1240"
           style="font-size:8px;letter-spacing:2px;fill:#ffffff"
           d="m 515.05416,354.43491 1.15214,0.23459 0.66654,4.18589 2.25783,-3.59047 1.15215,0.23459 -1.16357,5.71477 -0.75406,-0.15353 1.02172,-5.01813 -2.27172,3.61953 -0.77703,-0.15821 -0.67561,-4.21963 -1.02173,5.01813 -0.75023,-0.15275 z" />
        <path
           inkscape:connector-curvature="0"
           id="path1242"
           style="font-size:8px;letter-spacing:2px;fill:#ffffff"
           d="m 522.98553,355.77735 3.68223,0.19698 -0.0355,0.66312 -2.8943,-0.15483 -0.0922,1.72409 2.77338,0.14836 -0.0355,0.66312 -2.77337,-0.14836 -0.11289,2.11026 2.96451,0.15859 -0.0355,0.66311 -3.75245,-0.20074 z" />
        <path
           inkscape:connector-curvature="0"
           id="path1244"
           style="font-size:8px;letter-spacing:2px;fill:#ffffff"
           d="m 529.23244,355.95128 1.05855,-0.0916 2.99683,4.63787 -0.42052,-4.86075 0.76278,-0.066 0.50267,5.81032 -1.05854,0.0916 -2.99684,-4.63786 0.42052,4.86075 -0.76277,0.066 z" />
        <path
           inkscape:connector-curvature="0"
           id="path1246"
           style="font-size:8px;letter-spacing:2px;fill:#ffffff"
           d="m 535.56956,355.28491 4.80952,-1.09946 0.14799,0.64736 -2.01825,0.46137 1.1517,5.03801 -0.77303,0.17672 -1.1517,-5.03801 -2.01825,0.46138 z" />
        <path
           inkscape:connector-curvature="0"
           id="path1248"
           style="font-size:8px;letter-spacing:2px;fill:#ffffff"
           d="m 549.35137,350.82836 0.32561,0.69725 q -0.49793,-0.005 -0.90357,0.0684 -0.40564,0.073 -0.74188,0.23004 -0.58399,0.27272 -0.79675,0.64799 -0.20922,0.37362 -0.0142,0.79127 0.16363,0.35039 0.45674,0.43338 0.295,0.0778 0.93377,-0.0869 l 0.47312,-0.11317 q 0.87097,-0.22135 1.42983,-0.0124 0.56076,0.20374 0.86158,0.8479 0.35866,0.76804 0.027,1.40576 -0.32808,0.63606 -1.32264,1.10051 -0.37517,0.1752 -0.83955,0.2886 -0.46085,0.11174 -0.99157,0.15696 l -0.34379,-0.73619 q 0.54938,0.0409 1.02487,-0.0302 0.47549,-0.0712 0.87898,-0.25958 0.6123,-0.28594 0.83261,-0.68198 0.2203,-0.39605 0.0121,-0.842 -0.18181,-0.38933 -0.52497,-0.49638 -0.33961,-0.10869 -0.9359,0.0361 l -0.47501,0.11836 q -0.87427,0.21427 -1.39041,0.0414 -0.51615,-0.17284 -0.79878,-0.77807 -0.32727,-0.70079 -0.0237,-1.33402 0.30708,-0.63488 1.17422,-1.03982 0.37163,-0.17355 0.78882,-0.28646 0.41719,-0.11291 0.88349,-0.16684 z" />
        <path
           inkscape:connector-curvature="0"
           id="path1250"
           style="font-size:8px;letter-spacing:2px;fill:#ffffff"
           d="m 551.0832,349.71697 0.71606,-0.45363 2.64965,1.16066 0.0727,-2.88526 0.71607,-0.45362 -0.1076,3.68421 1.4863,2.34618 -0.66987,0.42436 -1.4863,-2.34618 z" />
        <path
           inkscape:connector-curvature="0"
           id="path1252"
           style="font-size:8px;letter-spacing:2px;fill:#ffffff"
           d="m 559.65538,343.76861 0.49236,0.59141 q -0.4827,0.1223 -0.85639,0.29618 -0.37369,0.17387 -0.65888,0.41131 -0.49534,0.41238 -0.60557,0.82945 -0.10723,0.41457 0.18769,0.76881 0.24743,0.2972 0.55202,0.30285 0.30508,1.4e-4 0.8809,-0.32168 l 0.42873,-0.22986 q 0.78594,-0.43576 1.37958,-0.37596 0.59415,0.0543 1.04902,0.60067 0.54235,0.65144 0.38397,1.35257 -0.15538,0.69863 -0.99895,1.40093 -0.31822,0.26493 -0.73845,0.4928 -0.41722,0.22536 -0.91895,0.40418 l -0.51986,-0.62443 q 0.54171,-0.10027 0.98342,-0.29012 0.44172,-0.18984 0.78395,-0.47476 0.51936,-0.43238 0.6316,-0.87145 0.11224,-0.43908 -0.20267,-0.81734 -0.27493,-0.33022 -0.63402,-0.3464 -0.3561,-0.0187 -0.89589,0.27316 l -0.42924,0.23536 q -0.79093,0.42975 -1.33407,0.39399 -0.54314,-0.0358 -0.97052,-0.54912 -0.49486,-0.59441 -0.36249,-1.28404 0.13536,-0.69214 0.87086,-1.30447 0.31522,-0.26242 0.68993,-0.47781 0.37471,-0.21538 0.81192,-0.38623 z" />
        <path
           inkscape:connector-curvature="0"
           id="path1254"
           style="font-size:8px;letter-spacing:2px;fill:#ffffff"
           d="m 561.03026,342.26539 3.35029,-3.62159 0.48747,0.45095 -1.40591,1.51975 3.79364,3.50945 -0.53849,0.5821 -3.79363,-3.50946 -1.40591,1.51975 z" />
        <path
           inkscape:connector-curvature="0"
           id="path1256"
           style="font-size:8px;letter-spacing:2px;fill:#ffffff"
           d="m 565.61397,337.04953 2.1337,-3.00749 0.5416,0.38425 -1.67712,2.36393 1.40816,0.99904 1.60706,-2.26517 0.5416,0.38425 -1.60705,2.26517 1.72357,1.22281 1.71781,-2.42128 0.5416,0.38425 -2.17439,3.06483 z" />
        <path
           inkscape:connector-curvature="0"
           id="path1258"
           style="font-size:8px;letter-spacing:2px;fill:#ffffff"
           d="m 569.09683,331.91055 0.53225,-1.04842 4.21254,0.46947 -2.86161,-3.13057 0.53224,-1.04842 5.2003,2.63999 -0.34835,0.68617 -4.56636,-2.31817 2.88594,3.15168 -0.35896,0.70708 -4.24748,-0.46968 4.56636,2.31816 -0.34657,0.68269 z" />
      </g>
    </g>
  </g>
</svg>
