<?xml version="1.0" encoding="UTF-8" standalone="no"?>
<!-- Created with Inkscape (http://www.inkscape.org/) -->

<svg
   xmlns:dc="http://purl.org/dc/elements/1.1/"
   xmlns:cc="http://creativecommons.org/ns#"
   xmlns:rdf="http://www.w3.org/1999/02/22-rdf-syntax-ns#"
   xmlns:svg="http://www.w3.org/2000/svg"
   xmlns="http://www.w3.org/2000/svg"
   xmlns:sodipodi="http://sodipodi.sourceforge.net/DTD/sodipodi-0.dtd"
   xmlns:inkscape="http://www.inkscape.org/namespaces/inkscape"
   width="24.999949mm"
   height="24.998714mm"
   viewBox="0 0 24.999949 24.998714"
   version="1.1"
   id="svg8"
   inkscape:version="0.92.4 (unknown)"
   sodipodi:docname="IQNet.svg">
  <defs
     id="defs2">
    <clipPath
       clipPathUnits="userSpaceOnUse"
       id="clipPath118">
      <path
         d="M 0,0 H 595.276 V 841.89 H 0 Z"
         id="path116"
         inkscape:connector-curvature="0" />
    </clipPath>
    <clipPath
       clipPathUnits="userSpaceOnUse"
       id="clipPath190">
      <path
         d="M 0,0 H 595.276 V 841.89 H 0 Z"
         id="path188"
         inkscape:connector-curvature="0" />
    </clipPath>
    <clipPath
       clipPathUnits="userSpaceOnUse"
       id="clipPath218">
      <path
         d="M 0,0 H 595.276 V 841.89 H 0 Z"
         id="path216"
         inkscape:connector-curvature="0" />
    </clipPath>
    <clipPath
       clipPathUnits="userSpaceOnUse"
       id="clipPath234">
      <path
         d="M 0,0 H 595.276 V 841.89 H 0 Z"
         id="path232"
         inkscape:connector-curvature="0" />
    </clipPath>
    <clipPath
       clipPathUnits="userSpaceOnUse"
       id="clipPath266">
      <path
         d="M 0,0 H 595.276 V 841.89 H 0 Z"
         id="path264"
         inkscape:connector-curvature="0" />
    </clipPath>
    <clipPath
       clipPathUnits="userSpaceOnUse"
       id="clipPath294">
      <path
         d="M 0,0 H 595.276 V 841.89 H 0 Z"
         id="path292"
         inkscape:connector-curvature="0" />
    </clipPath>
    <clipPath
       clipPathUnits="userSpaceOnUse"
       id="clipPath326">
      <path
         d="M 0,0 H 595.276 V 841.89 H 0 Z"
         id="path324"
         inkscape:connector-curvature="0" />
    </clipPath>
    <clipPath
       clipPathUnits="userSpaceOnUse"
       id="clipPath342">
      <path
         d="M 0,0 H 595.276 V 841.89 H 0 Z"
         id="path340"
         inkscape:connector-curvature="0" />
    </clipPath>
  </defs>
  <sodipodi:namedview
     id="base"
     pagecolor="#ffffff"
     bordercolor="#666666"
     borderopacity="1.0"
     inkscape:pageopacity="0.0"
     inkscape:pageshadow="2"
     inkscape:zoom="3.959798"
     inkscape:cx="101.40902"
     inkscape:cy="59.022769"
     inkscape:document-units="mm"
     inkscape:current-layer="layer1"
     showgrid="false"
     fit-margin-top="0"
     fit-margin-left="0"
     fit-margin-right="0"
     fit-margin-bottom="0"
     inkscape:window-width="1920"
     inkscape:window-height="1012"
     inkscape:window-x="1920"
     inkscape:window-y="0"
     inkscape:window-maximized="1" />
  <metadata
     id="metadata5">
    <rdf:RDF>
      <cc:Work
         rdf:about="">
        <dc:format>image/svg+xml</dc:format>
        <dc:type
           rdf:resource="http://purl.org/dc/dcmitype/StillImage" />
        <dc:title></dc:title>
      </cc:Work>
    </rdf:RDF>
  </metadata>
  <g
     inkscape:label="Layer 1"
     inkscape:groupmode="layer"
     id="layer1"
     transform="translate(164.4464,-143.8935)">
    <g
       id="g1777"
       transform="matrix(0.35277777,0,0,-0.35277777,-218.15022,96.813246)"
       inkscape:export-xdpi="96"
       inkscape:export-ydpi="96">
      <path
         inkscape:connector-curvature="0"
         id="path96"
         style="fill:#004896;fill-opacity:1;fill-rule:nonzero;stroke:none"
         d="m 164.71559,-159.73274 h 46.129 v -2.22 h -46.129 z" />
      <path
         inkscape:connector-curvature="0"
         id="path98"
         style="fill:#d1d6da;fill-opacity:1;fill-rule:nonzero;stroke:none"
         d="m 164.71559,-176.86374 h 46.129 v -1.178 h -46.129 z" />
      <path
         inkscape:connector-curvature="0"
         id="path100"
         style="fill:#d1d6da;fill-opacity:1;fill-rule:nonzero;stroke:none"
         d="m 152.34059,-166.00374 h 10.40701 v -1.463 h -10.40701 z" />
      <path
         inkscape:connector-curvature="0"
         id="path102"
         style="fill:#d1d6da;fill-opacity:1;fill-rule:nonzero;stroke:none"
         d="m 212.72859,-166.00374 h 10.233 v -1.463 h -10.233 z" />
      <g
         transform="translate(166.70289,-174.11574)"
         id="g104">
        <path
           inkscape:connector-curvature="0"
           id="path106"
           style="fill:#d1d6da;fill-opacity:1;fill-rule:nonzero;stroke:none"
           d="M 0,0 -0.026,10.558 H 2.729 V 0 Z" />
      </g>
      <g
         transform="translate(182.93549,-174.11574)"
         id="g108">
        <path
           inkscape:connector-curvature="0"
           id="path110"
           style="fill:#d1d6da;fill-opacity:1;fill-rule:nonzero;stroke:none"
           d="m 0,0 v 10.558 h 2.365 l 4.337,-6.24 v 6.24 H 8.896 V 0 H 7.342 L 2.36,6.417 2.398,0 Z" />
      </g>
      <g
         transform="translate(23.963595,-233.32974)"
         id="g112">
        <g
           clip-path="url(#clipPath118)"
           id="g114">
          <g
             transform="translate(177.3743,62.048)"
             id="g120">
            <path
               inkscape:connector-curvature="0"
               id="path122"
               style="fill:#d1d6da;fill-opacity:1;fill-rule:nonzero;stroke:none"
               d="m 0,0 0.003,-1.794 c -0.528,-0.56 -1.875,-1.04 -3.454,-1.04 -1.607,0 -3.222,0.447 -3.994,1.342 -0.609,0.716 -0.914,1.62 -0.914,2.712 0,1.305 1.069,4.127 4.237,4.147 C -0.686,5.389 0.074,2.38 0.039,0.785 H -5.736 C -5.719,0.168 -5.788,-1.448 -3.177,-1.463 -1.794,-1.471 -0.133,-0.394 0,0 M -2.262,2.217 C -2.28,2.821 -2.834,3.816 -3.968,3.802 -4.959,3.79 -5.605,2.809 -5.599,2.24 Z" />
          </g>
          <g
             transform="translate(184.0932,67.2896)"
             id="g124">
            <path
               inkscape:connector-curvature="0"
               id="path126"
               style="fill:#d1d6da;fill-opacity:1;fill-rule:nonzero;stroke:none"
               d="m 0,0 0.007,-1.734 h -2.959 c 0,0 -0.022,-3.37 0.012,-4.01 0.009,-0.159 -0.164,-0.58 1.592,-0.514 0.913,0.035 0.925,0.119 1.325,0.382 l -0.006,-1.925 c -0.718,-0.202 -1.656,-0.395 -2.565,-0.389 -1.959,0.013 -2.879,2.183 -2.879,2.24 -0.001,0.001 0,4.182 0,4.182 h -1.109 l -0.011,0.617 c 0,0 0.916,1.066 1.851,2.091 0.59,0.647 1.478,1.616 1.497,1.611 0.067,0.073 0.279,0.122 0.278,-0.068 0.029,-0.008 -0.003,-2.48 -0.003,-2.48 z" />
          </g>
        </g>
      </g>
      <g
         transform="translate(172.90239,-172.23324)"
         id="g128">
        <path
           inkscape:connector-curvature="0"
           id="path130"
           style="fill:#004896;fill-opacity:1;fill-rule:nonzero;stroke:none"
           d="M 0,0 -0.72,0.523 -1.44,0 l 0.275,0.846 -0.72,0.523 h 0.89 L -0.72,2.216 -0.445,1.37 0.445,1.369 -0.275,0.846 Z" />
      </g>
      <g
         transform="translate(172.33109,-169.87944)"
         id="g132">
        <path
           inkscape:connector-curvature="0"
           id="path134"
           style="fill:#004896;fill-opacity:1;fill-rule:nonzero;stroke:none"
           d="M 0,0 -0.72,0.523 -1.44,0 -1.165,0.846 -1.885,1.37 h 0.89 L -0.72,2.216 -0.445,1.37 h 0.89 l -0.72,-0.524 z" />
      </g>
      <g
         transform="translate(172.94809,-167.45694)"
         id="g136">
        <path
           inkscape:connector-curvature="0"
           id="path138"
           style="fill:#004896;fill-opacity:1;fill-rule:nonzero;stroke:none"
           d="M 0,0 -0.72,0.523 -1.44,0 l 0.275,0.846 -0.72,0.523 h 0.89 l 0.275,0.847 0.275,-0.847 h 0.89 l -0.72,-0.523 z" />
      </g>
      <g
         transform="translate(174.67759,-165.56004)"
         id="g140">
        <path
           inkscape:connector-curvature="0"
           id="path142"
           style="fill:#004896;fill-opacity:1;fill-rule:nonzero;stroke:none"
           d="M 0,0 -0.72,0.523 -1.44,0 l 0.275,0.846 -0.72,0.523 h 0.89 l 0.275,0.847 0.275,-0.847 h 0.89 l -0.72,-0.523 z" />
      </g>
      <g
         transform="translate(177.15609,-165.04614)"
         id="g144">
        <path
           inkscape:connector-curvature="0"
           id="path146"
           style="fill:#004896;fill-opacity:1;fill-rule:nonzero;stroke:none"
           d="M 0,0 -0.72,0.523 -1.44,0 l 0.275,0.846 -0.72,0.523 h 0.89 L -0.72,2.216 -0.445,1.37 0.445,1.369 -0.275,0.846 Z" />
      </g>
      <g
         transform="translate(174.69529,-173.99634)"
         id="g148">
        <path
           inkscape:connector-curvature="0"
           id="path150"
           style="fill:#004896;fill-opacity:1;fill-rule:nonzero;stroke:none"
           d="M 0,0 -0.72,0.523 -1.44,0 l 0.275,0.846 -0.72,0.523 h 0.89 l 0.275,0.847 0.275,-0.847 h 0.89 l -0.72,-0.523 z" />
      </g>
      <g
         transform="translate(177.14139,-174.91054)"
         id="g152">
        <path
           inkscape:connector-curvature="0"
           id="path154"
           style="fill:#004896;fill-opacity:1;fill-rule:nonzero;stroke:none"
           d="M 0,0 -0.72,0.523 -1.44,0 l 0.275,0.846 -0.72,0.523 h 0.89 l 0.275,0.847 0.275,-0.847 h 0.89 l -0.72,-0.523 z" />
      </g>
      <g
         transform="translate(179.92829,-172.23324)"
         id="g156">
        <path
           inkscape:connector-curvature="0"
           id="path158"
           style="fill:#004896;fill-opacity:1;fill-rule:nonzero;stroke:none"
           d="M 0,0 0.72,0.523 1.44,0 1.165,0.846 1.885,1.369 H 0.995 L 0.72,2.216 0.445,1.37 -0.445,1.369 0.275,0.846 Z" />
      </g>
      <g
         transform="translate(180.49969,-169.87944)"
         id="g160">
        <path
           inkscape:connector-curvature="0"
           id="path162"
           style="fill:#004896;fill-opacity:1;fill-rule:nonzero;stroke:none"
           d="M 0,0 0.72,0.523 1.44,0 1.165,0.846 1.885,1.37 H 0.995 L 0.72,2.216 0.445,1.37 h -0.89 l 0.72,-0.524 z" />
      </g>
      <g
         transform="translate(179.88259,-167.45694)"
         id="g164">
        <path
           inkscape:connector-curvature="0"
           id="path166"
           style="fill:#004896;fill-opacity:1;fill-rule:nonzero;stroke:none"
           d="M 0,0 0.72,0.523 1.44,0 1.165,0.846 1.885,1.369 H 0.995 L 0.72,2.216 0.445,1.369 h -0.89 l 0.72,-0.523 z" />
      </g>
      <g
         transform="translate(178.15309,-165.56004)"
         id="g168">
        <path
           inkscape:connector-curvature="0"
           id="path170"
           style="fill:#004896;fill-opacity:1;fill-rule:nonzero;stroke:none"
           d="M 0,0 0.72,0.523 1.44,0 1.165,0.846 1.885,1.369 H 0.995 L 0.72,2.216 0.445,1.369 h -0.89 l 0.72,-0.523 z" />
      </g>
      <g
         transform="translate(178.13549,-173.99634)"
         id="g172">
        <path
           inkscape:connector-curvature="0"
           id="path174"
           style="fill:#004896;fill-opacity:1;fill-rule:nonzero;stroke:none"
           d="M 0,0 0.72,0.523 1.44,0 1.165,0.846 1.885,1.369 H 0.995 L 0.72,2.216 0.445,1.369 h -0.89 l 0.72,-0.523 z" />
      </g>
      <g
         transform="translate(176.67289,-171.96244)"
         id="g176">
        <path
           inkscape:connector-curvature="0"
           id="path178"
           style="fill:#004896;fill-opacity:1;fill-rule:nonzero;stroke:none"
           d="M 0,0 0.72,0.523 1.44,0 1.165,0.846 1.885,1.369 H 0.995 L 0.72,2.216 0.445,1.369 h -0.89 l 0.72,-0.523 z" />
      </g>
      <g
         transform="translate(179.59799,-176.03064)"
         id="g180">
        <path
           inkscape:connector-curvature="0"
           id="path182"
           style="fill:#004896;fill-opacity:1;fill-rule:nonzero;stroke:none"
           d="M 0,0 0.72,0.523 1.44,0 1.165,0.846 1.885,1.37 H 0.995 L 0.72,2.216 0.445,1.37 h -0.89 l 0.72,-0.524 z" />
      </g>
      <g
         transform="translate(23.963595,-233.32974)"
         id="g184">
        <g
           clip-path="url(#clipPath190)"
           id="g186">
          <g
             transform="translate(138.867,68.7594)"
             id="g192">
            <path
               inkscape:connector-curvature="0"
               id="path194"
               style="fill:#004896;fill-opacity:1;fill-rule:nonzero;stroke:none"
               d="m 0,0 c 2.045,11.868 12.378,20.897 24.832,20.897 12.455,0 22.8,-9.03 24.844,-20.899 L 59.965,-0.003 C 57.84,17.51 42.921,31.077 24.832,31.077 6.742,31.077 -8.165,17.51 -10.29,-0.003 Z" />
          </g>
          <g
             transform="translate(138.867,68.7594)"
             id="g196">
            <path
               inkscape:connector-curvature="0"
               id="path198"
               style="fill:none;stroke:#004896;stroke-width:0.075;stroke-linecap:butt;stroke-linejoin:miter;stroke-miterlimit:3.86400008;stroke-dasharray:none;stroke-opacity:1"
               d="m 0,0 c 2.045,11.868 12.378,20.897 24.832,20.897 12.455,0 22.8,-9.03 24.844,-20.899 L 59.965,-0.003 C 57.84,17.51 42.921,31.077 24.832,31.077 6.742,31.077 -8.165,17.51 -10.29,-0.003 Z" />
          </g>
          <g
             transform="translate(188.9142,64.4369)"
             id="g200">
            <path
               inkscape:connector-curvature="0"
               id="path202"
               style="fill:#004896;fill-opacity:1;fill-rule:nonzero;stroke:none"
               d="m 0,0 c 0,-13.921 -11.292,-25.207 -25.215,-25.207 -13.924,0 -25.211,11.286 -25.211,25.207 h -10.183 c 0,-19.544 15.846,-35.388 35.394,-35.388 19.547,0 35.397,15.844 35.397,35.388 z" />
          </g>
          <g
             transform="translate(188.9142,64.4369)"
             id="g204">
            <path
               inkscape:connector-curvature="0"
               id="path206"
               style="fill:none;stroke:#004896;stroke-width:0.075;stroke-linecap:butt;stroke-linejoin:miter;stroke-miterlimit:3.86400008;stroke-dasharray:none;stroke-opacity:1"
               d="m 0,0 c 0,-13.921 -11.292,-25.207 -25.215,-25.207 -13.924,0 -25.211,11.286 -25.211,25.207 h -10.183 c 0,-19.544 15.846,-35.388 35.394,-35.388 19.547,0 35.397,15.844 35.397,35.388 z" />
          </g>
        </g>
      </g>
      <g
         transform="translate(180.52489,-198.84264)"
         id="g208">
        <path
           inkscape:connector-curvature="0"
           id="path210"
           style="fill:#ffffff;fill-opacity:1;fill-rule:nonzero;stroke:none"
           d="M 0,0 -0.124,1.727 Z" />
      </g>
      <g
         transform="translate(23.963595,-233.32974)"
         id="g212">
        <g
           clip-path="url(#clipPath218)"
           id="g214">
          <g
             transform="translate(143.5284,87.0361)"
             id="g220">
            <path
               inkscape:connector-curvature="0"
               id="path222"
               style="fill:#ffffff;fill-opacity:1;fill-rule:nonzero;stroke:none"
               d="m 0,0 c -0.34,0.268 -0.863,0.219 -1.203,-0.106 -0.615,-0.589 -0.345,-1.334 0.178,-1.879 0.497,-0.519 1.229,-0.822 1.844,-0.233 0.419,0.401 0.379,0.915 0.038,1.375 L 1.52,-0.208 C 2.194,-1.051 2.134,-2.062 1.371,-2.793 0.407,-3.717 -0.85,-3.54 -1.71,-2.641 c -0.886,0.924 -1.008,2.187 -0.044,3.11 0.685,0.656 1.645,0.806 2.417,0.166 z" />
          </g>
        </g>
      </g>
      <g
         transform="translate(169.91009,-142.55254)"
         id="g224">
        <path
           inkscape:connector-curvature="0"
           id="path226"
           style="fill:#ffffff;fill-opacity:1;fill-rule:nonzero;stroke:none"
           d="M 0,0 2.756,1.675 3.17,0.993 1.224,-0.189 l 0.48,-0.79 1.786,1.086 0.383,-0.63 -1.786,-1.085 0.549,-0.904 1.987,1.208 0.414,-0.681 -2.798,-1.7 z" />
      </g>
      <g
         transform="translate(23.963595,-233.32974)"
         id="g228">
        <g
           clip-path="url(#clipPath234)"
           id="g230">
          <g
             transform="translate(151.8167,93.9182)"
             id="g236">
            <path
               inkscape:connector-curvature="0"
               id="path238"
               style="fill:#ffffff;fill-opacity:1;fill-rule:nonzero;stroke:none"
               d="M 0,0 2.201,0.75 C 2.932,1 3.569,0.649 3.779,0.032 3.943,-0.449 3.872,-0.875 3.482,-1.212 l 0.004,-0.011 c 0.479,0.036 0.751,-0.35 0.92,-0.752 0.105,-0.252 0.263,-0.734 0.501,-0.908 L 4.01,-3.189 C 3.813,-2.969 3.691,-2.57 3.534,-2.26 3.325,-1.853 3.094,-1.721 2.643,-1.875 L 1.745,-2.181 2.289,-3.776 1.392,-4.081 Z m 1.527,-1.54 0.983,0.335 c 0.4,0.136 0.559,0.382 0.419,0.794 -0.135,0.394 -0.41,0.491 -0.811,0.355 L 1.135,-0.391 Z" />
          </g>
        </g>
      </g>
      <g
         transform="translate(183.53089,-138.22154)"
         id="g240">
        <path
           inkscape:connector-curvature="0"
           id="path242"
           style="fill:#ffffff;fill-opacity:1;fill-rule:nonzero;stroke:none"
           d="M 0,0 -1.283,-0.153 -1.378,0.638 2.13,1.058 2.225,0.266 0.941,0.113 1.359,-3.378 0.417,-3.49 Z" />
      </g>
      <g
         transform="translate(188.67659,-137.15824)"
         id="g244">
        <path
           inkscape:connector-curvature="0"
           id="path246"
           style="fill:#ffffff;fill-opacity:1;fill-rule:nonzero;stroke:none"
           d="M 0,0 0.947,-0.042 0.755,-4.35 -0.192,-4.308 Z" />
      </g>
      <g
         transform="translate(192.95429,-137.54754)"
         id="g248">
        <path
           inkscape:connector-curvature="0"
           id="path250"
           style="fill:#ffffff;fill-opacity:1;fill-rule:nonzero;stroke:none"
           d="M 0,0 2.967,-0.625 2.803,-1.405 0.764,-0.976 0.558,-1.951 2.325,-2.323 2.173,-3.044 0.406,-2.672 0.039,-4.415 -0.889,-4.22 Z" />
      </g>
      <g
         transform="translate(198.83999,-139.14624)"
         id="g252">
        <path
           inkscape:connector-curvature="0"
           id="path254"
           style="fill:#ffffff;fill-opacity:1;fill-rule:nonzero;stroke:none"
           d="m 0,0 0.883,-0.345 -1.569,-4.017 -0.883,0.346 z" />
      </g>
      <g
         transform="translate(202.79129,-140.90174)"
         id="g256">
        <path
           inkscape:connector-curvature="0"
           id="path258"
           style="fill:#ffffff;fill-opacity:1;fill-rule:nonzero;stroke:none"
           d="M 0,0 2.762,-1.665 2.35,-2.348 0.4,-1.172 -0.077,-1.964 1.712,-3.043 1.332,-3.674 -0.458,-2.595 -1.003,-3.5 0.988,-4.701 0.577,-5.383 l -2.804,1.69 z" />
      </g>
      <g
         transform="translate(23.963595,-233.32974)"
         id="g260">
        <g
           clip-path="url(#clipPath266)"
           id="g262">
          <g
             transform="translate(184.34,88.6831)"
             id="g268">
            <path
               inkscape:connector-curvature="0"
               id="path270"
               style="fill:#ffffff;fill-opacity:1;fill-rule:nonzero;stroke:none"
               d="M 0,0 1.348,-1.282 C 2.157,-2.052 2.283,-3.139 1.296,-4.176 0.434,-5.081 -0.67,-5.314 -1.624,-4.407 l -1.348,1.282 z m -1.736,-3.2 0.613,-0.583 c 0.398,-0.379 1.012,-0.496 1.67,0.195 0.599,0.63 0.763,1.241 0.081,1.891 l -0.49,0.466 z" />
          </g>
        </g>
      </g>
      <g
         transform="translate(161.11609,-175.08374)"
         id="g272">
        <path
           inkscape:connector-curvature="0"
           id="path274"
           style="fill:#ffffff;fill-opacity:1;fill-rule:nonzero;stroke:none"
           d="m 0,0 0.41,-1.271 -2.513,-1.87 0.004,-0.011 3.115,0.002 0.41,-1.27 -4.104,-1.324 -0.273,0.845 2.909,0.938 -0.004,0.011 -3.233,0.068 -0.224,0.696 2.555,1.935 -0.004,0.011 -2.88,-0.929 -0.272,0.845 z" />
      </g>
      <g
         transform="translate(163.61979,-181.56554)"
         id="g276">
        <path
           inkscape:connector-curvature="0"
           id="path278"
           style="fill:#ffffff;fill-opacity:1;fill-rule:nonzero;stroke:none"
           d="m 0,0 0.467,-0.853 -3.008,-3.486 -0.472,0.864 0.685,0.747 -0.775,1.415 -1.004,-0.165 -0.461,0.842 z m -2.364,-1.191 0.537,-0.98 1.127,1.237 -0.006,0.01 z" />
      </g>
      <g
         transform="translate(165.26829,-184.40084)"
         id="g280">
        <path
           inkscape:connector-curvature="0"
           id="path282"
           style="fill:#ffffff;fill-opacity:1;fill-rule:nonzero;stroke:none"
           d="m 0,0 0.586,-0.738 -1.148,-3.208 0.008,-0.01 2.266,1.799 0.552,-0.696 -3.378,-2.68 -0.59,0.743 1.147,3.199 -0.008,0.01 -2.261,-1.795 -0.552,0.696 z" />
      </g>
      <g
         transform="translate(169.21009,-188.87054)"
         id="g284">
        <path
           inkscape:connector-curvature="0"
           id="path286"
           style="fill:#ffffff;fill-opacity:1;fill-rule:nonzero;stroke:none"
           d="m 0,0 0.724,-0.649 -1.679,-4.287 -0.733,0.657 0.398,0.933 -1.2,1.077 -0.893,-0.489 -0.715,0.641 z m -1.834,-1.909 0.832,-0.746 0.652,1.541 -0.009,0.008 z" />
      </g>
      <g
         transform="translate(23.963595,-233.32974)"
         id="g288">
        <g
           clip-path="url(#clipPath294)"
           id="g290">
          <g
             transform="translate(148.3487,37.4355)"
             id="g296">
            <path
               inkscape:connector-curvature="0"
               id="path298"
               style="fill:#ffffff;fill-opacity:1;fill-rule:nonzero;stroke:none"
               d="m 0,0 c -0.509,-0.187 -0.964,-0.094 -1.317,0.127 -1.131,0.709 -1.267,1.971 -0.606,3.025 0.68,1.085 1.874,1.512 3.005,0.803 C 1.829,3.487 2.247,2.583 1.814,1.7 L 1.047,2.181 C 1.208,2.643 1.037,3.042 0.659,3.279 -0.063,3.732 -0.719,3.288 -1.12,2.648 -1.502,2.039 -1.615,1.255 -0.894,0.803 -0.372,0.475 0.106,0.568 0.47,1.045 L -0.339,1.552 0.037,2.151 1.572,1.188 0.334,-0.787 -0.178,-0.466 Z" />
          </g>
        </g>
      </g>
      <g
         transform="translate(175.92099,-193.49694)"
         id="g300">
        <path
           inkscape:connector-curvature="0"
           id="path302"
           style="fill:#ffffff;fill-opacity:1;fill-rule:nonzero;stroke:none"
           d="M 0,0 2.981,-1.23 2.677,-1.967 0.572,-1.099 0.22,-1.953 2.151,-2.75 1.87,-3.431 -0.062,-2.634 -0.465,-3.611 1.684,-4.498 1.38,-5.235 -1.646,-3.986 Z" />
      </g>
      <g
         transform="translate(179.84679,-195.08004)"
         id="g304">
        <path
           inkscape:connector-curvature="0"
           id="path306"
           style="fill:#ffffff;fill-opacity:1;fill-rule:nonzero;stroke:none"
           d="m 0,0 1.306,-0.273 0.381,-3.11 0.012,-0.002 1.541,2.707 1.306,-0.273 -0.883,-4.221 -0.869,0.182 0.626,2.991 -0.012,0.003 -1.66,-2.775 -0.715,0.149 -0.416,3.178 -0.011,0.003 -0.62,-2.962 -0.869,0.182 z" />
      </g>
      <g
         transform="translate(185.54929,-196.08964)"
         id="g308">
        <path
           inkscape:connector-curvature="0"
           id="path310"
           style="fill:#ffffff;fill-opacity:1;fill-rule:nonzero;stroke:none"
           d="M 0,0 3.224,-0.073 3.206,-0.87 0.93,-0.819 0.909,-1.742 2.998,-1.79 2.982,-2.526 0.893,-2.479 0.869,-3.536 3.193,-3.588 3.175,-4.385 -0.097,-4.311 Z" />
      </g>
      <g
         transform="translate(189.77859,-196.11564)"
         id="g312">
        <path
           inkscape:connector-curvature="0"
           id="path314"
           style="fill:#ffffff;fill-opacity:1;fill-rule:nonzero;stroke:none"
           d="M 0,0 0.933,0.133 3.122,-2.478 3.134,-2.476 2.726,0.388 3.605,0.513 4.213,-3.756 3.274,-3.89 1.092,-1.284 1.08,-1.286 1.487,-4.144 0.608,-4.269 Z" />
      </g>
      <g
         transform="translate(195.65709,-195.78954)"
         id="g316">
        <path
           inkscape:connector-curvature="0"
           id="path318"
           style="fill:#ffffff;fill-opacity:1;fill-rule:nonzero;stroke:none"
           d="M 0,0 -1.233,-0.387 -1.472,0.373 1.899,1.432 2.138,0.671 0.905,0.284 1.958,-3.07 1.053,-3.354 Z" />
      </g>
      <g
         transform="translate(23.963595,-233.32974)"
         id="g320">
        <g
           clip-path="url(#clipPath326)"
           id="g322">
          <g
             transform="translate(178.1941,37.9914)"
             id="g328">
            <path
               inkscape:connector-curvature="0"
               id="path330"
               style="fill:#ffffff;fill-opacity:1;fill-rule:nonzero;stroke:none"
               d="M 0,0 C 0.291,-0.495 0.789,-0.461 1.227,-0.204 1.513,-0.036 1.902,0.305 1.678,0.685 1.443,1.086 0.846,0.826 0.213,0.651 -0.424,0.472 -1.107,0.358 -1.517,1.056 -1.964,1.816 -1.459,2.603 -0.788,2.998 -0.012,3.454 0.9,3.534 1.405,2.675 L 0.614,2.21 C 0.325,2.643 -0.06,2.571 -0.451,2.341 -0.711,2.188 -0.949,1.901 -0.765,1.589 -0.597,1.302 -0.399,1.37 0.674,1.678 0.985,1.77 1.919,2.087 2.415,1.244 2.815,0.562 2.579,-0.264 1.569,-0.857 0.746,-1.341 -0.263,-1.388 -0.791,-0.465 Z" />
          </g>
        </g>
      </g>
      <g
         transform="translate(206.29109,-192.27974)"
         id="g332">
        <path
           inkscape:connector-curvature="0"
           id="path334"
           style="fill:#ffffff;fill-opacity:1;fill-rule:nonzero;stroke:none"
           d="M 0,0 -2.9,1.023 -2.075,1.703 -0.214,1.029 -0.522,2.981 0.294,3.653 0.747,0.584 1.799,-0.693 1.067,-1.296 Z" />
      </g>
      <g
         transform="translate(23.963595,-233.32974)"
         id="g336">
        <g
           clip-path="url(#clipPath342)"
           id="g338">
          <g
             transform="translate(185.6688,43.7792)"
             id="g344">
            <path
               inkscape:connector-curvature="0"
               id="path346"
               style="fill:#ffffff;fill-opacity:1;fill-rule:nonzero;stroke:none"
               d="M 0,0 C 0.429,-0.38 0.893,-0.194 1.229,0.185 1.45,0.434 1.714,0.878 1.384,1.17 1.036,1.479 0.549,1.047 0.002,0.685 -0.55,0.318 -1.164,-0.001 -1.769,0.535 c -0.66,0.585 -0.424,1.489 0.093,2.072 0.597,0.674 1.44,1.033 2.185,0.372 L -0.1,2.292 C -0.508,2.614 -0.852,2.426 -1.152,2.087 -1.353,1.861 -1.49,1.515 -1.219,1.274 -0.97,1.054 -0.803,1.18 0.122,1.804 0.389,1.987 1.18,2.578 1.912,1.929 2.504,1.404 2.534,0.546 1.757,-0.331 1.124,-1.045 0.179,-1.401 -0.609,-0.687 Z" />
          </g>
        </g>
      </g>
      <g
         transform="translate(210.97419,-184.52124)"
         id="g348">
        <path
           inkscape:connector-curvature="0"
           id="path350"
           style="fill:#ffffff;fill-opacity:1;fill-rule:nonzero;stroke:none"
           d="m 0,0 -0.702,-1.085 -0.67,0.433 1.92,2.967 L 1.217,1.882 0.515,0.796 3.466,-1.113 2.951,-1.909 Z" />
      </g>
      <g
         transform="translate(211.89949,-181.47774)"
         id="g352">
        <path
           inkscape:connector-curvature="0"
           id="path354"
           style="fill:#ffffff;fill-opacity:1;fill-rule:nonzero;stroke:none"
           d="M 0,0 1.322,2.942 2.049,2.615 1.116,0.538 1.959,0.159 2.815,2.066 3.487,1.764 2.631,-0.143 3.595,-0.576 4.548,1.545 5.275,1.218 3.934,-1.767 Z" />
      </g>
      <g
         transform="translate(213.60449,-177.59904)"
         id="g356">
        <path
           inkscape:connector-curvature="0"
           id="path358"
           style="fill:#ffffff;fill-opacity:1;fill-rule:nonzero;stroke:none"
           d="M 0,0 0.313,1.298 3.432,1.582 3.435,1.594 0.777,3.217 1.09,4.515 5.282,3.503 5.073,2.64 2.102,3.357 2.1,3.345 4.822,1.601 4.651,0.891 1.462,0.573 1.459,0.561 4.4,-0.149 4.192,-1.012 Z" />
      </g>
    </g>
  </g>
</svg>
