<?xml version="1.0" encoding="utf-8"?>
<!-- Generator: Adobe Illustrator 21.0.0, SVG Export Plug-In . SVG Version: 6.00 Build 0)  -->
<svg version="1.1" id="Layer_1" xmlns="http://www.w3.org/2000/svg" xmlns:xlink="http://www.w3.org/1999/xlink" x="0px" y="0px"
	 viewBox="0 0 521 403" style="enable-background:new 0 0 521 403;" xml:space="preserve">
<style type="text/css">
	.st0{opacity:0.5;}
	.st1{opacity:0.3;fill:#C1A9FF;enable-background:new    ;}
	.st2{fill:#EE92C2;}
	.st3{fill:#353535;}
	.st4{fill:#C1A9FF;}
	.st5{opacity:0.5;fill:#DE2585;enable-background:new    ;}
	.st6{enable-background:new    ;}
	.st7{fill:none;}
</style>
<title>conversion</title>
<desc>Created with Sketch.</desc>
<g>
	<g id="Group_24" transform="translate(68.431000, 113.494000)" class="st0">
		<circle id="Ellipse_52" class="st1" cx="140.8" cy="139.8" r="92.4"/>
		<circle id="Ellipse_53" class="st1" cx="140.8" cy="139.8" r="119.1"/>
		<circle id="Ellipse_54" class="st1" cx="140.8" cy="139.8" r="142.8"/>
	</g>
	<path id="Path_95" class="st2" d="M376.2,6.3c-44.5,0.1-82.8,31.6-91.4,75.3s14.8,87.4,56,104.4s88.6,2.6,113.3-34.5
		c24.7-37,19.9-86.4-11.6-117.9C424.8,16.1,401,6.3,376.2,6.3z M441.3,124v12.4c0,4.3-1.7,8.3-4.7,11.3c-3,3-7.1,4.7-11.3,4.7h-95.7
		c-1.9,4.4-5.9,7.4-10.6,8c-4.7,0.6-9.4-1.3-12.3-5c-2-2.7-2.9-6.1-2.4-9.4c0.5-3.3,2.3-6.3,5-8.4c0.5-0.4,1-0.7,1.6-1
		c0-0.1,0-0.2,0-0.3V73.2c-2.2-0.5-4.2-1.6-5.9-3.1c-2.6-2.4-4-5.8-4-9.3c-0.4-5.2,2.5-10.1,7.2-12.4c4.7-2.3,10.3-1.4,14.2,2.2
		c1.6,1.5,2.9,3.5,3.5,5.6h107.8c4.7,0,8.5,9.4,8.5,20.9v16.1h-0.7v5.2c2.4,0.6,4.6,1.8,6.2,3.6l0.2,0.2c3.5,3.3,4.8,8.2,3.4,12.8
		C449.8,119.7,446,123.2,441.3,124L441.3,124z"/>
	<path id="Rectangle_30" class="st1" d="M324,56.2h106.6c6.6,0,12,5.4,12,12v72.2c0,6.6-5.4,12-12,12H324c-6.6,0-12-5.4-12-12V68.2
		C312,61.6,317.4,56.2,324,56.2z"/>
	<path id="Path_96" class="st1" d="M443.4,77.2v16.1H312.7V77.2c0-11.5,3.8-20.9,8.5-20.9h113.6C439.5,56.2,443.4,65.6,443.4,77.2z"
		/>
	<path id="Path_98" class="st3" d="M426.6,154.5h-98.5c-10,0-18-8.1-18-18V72.3c0-10,8.1-18,18-18h98.5c10,0,18,8.1,18,18v64.2
		C444.6,146.4,436.5,154.4,426.6,154.5z M328.1,58.2c-3.7,0-7.3,1.5-9.9,4.1c-2.6,2.6-4.1,6.2-4.1,10v64.2c0,7.7,6.3,14,14,14h98.5
		c7.7,0,14-6.3,14-14V72.3c0-7.7-6.3-14-14-14L328.1,58.2z"/>
	<circle id="Ellipse_55" class="st4" cx="439.7" cy="110.9" r="12.7"/>
	<path id="Path_99" class="st3" d="M440.4,126.2c-8.1,0-14.7-6.6-14.7-14.7s6.6-14.7,14.7-14.7s14.7,6.6,14.7,14.7
		S448.5,126.2,440.4,126.2z M440.4,100.8c-5.9,0-10.7,4.8-10.7,10.7c0,5.9,4.8,10.7,10.7,10.7s10.7-4.8,10.7-10.7
		C451,105.6,446.3,100.8,440.4,100.8L440.4,100.8z"/>
	<circle id="Ellipse_56" class="st4" cx="505.2" cy="111.2" r="12.7"/>
	<path id="Path_100" class="st3" d="M505.8,126.6c-8.1,0-14.7-6.6-14.7-14.7s6.6-14.7,14.7-14.7s14.7,6.6,14.7,14.7
		S514,126.6,505.8,126.6z M505.8,101.2c-5.9,0-10.7,4.8-10.7,10.7c0,5.9,4.8,10.7,10.7,10.7s10.7-4.8,10.7-10.7
		C516.5,106,511.7,101.2,505.8,101.2L505.8,101.2z"/>
	<rect id="Rectangle_31" x="458.7" y="109.2" class="st3" width="28.4" height="4"/>
	
		<ellipse id="Ellipse_57" transform="matrix(0.6822 -0.7312 0.7312 0.6822 73.9788 200.0916)" class="st4" cx="267.2" cy="14.9" rx="12.7" ry="12.7"/>
	<path id="Path_101" class="st3" d="M267.2,30.6c-7,0-13-4.9-14.4-11.7s2.1-13.7,8.5-16.5s13.8-0.7,17.9,5c4,5.7,3.5,13.4-1.2,18.5
		c-2.6,2.9-6.3,4.5-10.2,4.7L267.2,30.6z M267.2,5.2c-5.9,0-10.6,4.8-10.6,10.6c0,5.9,4.8,10.6,10.6,10.6s10.6-4.8,10.6-10.6
		S273.1,5.2,267.2,5.2L267.2,5.2z"/>
	
		<ellipse id="Ellipse_58" transform="matrix(0.6822 -0.7312 0.7312 0.6822 56.2582 249.2215)" class="st4" cx="314.8" cy="59.9" rx="12.7" ry="12.7"/>
	<path id="Path_102" class="st3" d="M314.8,75.5c-7,0-13-4.9-14.4-11.7s2.1-13.7,8.5-16.5s13.8-0.7,17.9,5c4,5.7,3.5,13.4-1.2,18.5
		c-2.7,2.9-6.3,4.5-10.2,4.7L314.8,75.5z M314.8,50.1c-4.9,0-9.2,3.3-10.4,8c-1.2,4.7,0.9,9.7,5.2,12c4.3,2.3,9.6,1.5,13-2.1
		c2.9-3.1,3.7-7.6,2-11.5C322.9,52.6,319.1,50.1,314.8,50.1z"/>
	
		<rect id="Rectangle_32" x="288.6" y="24" transform="matrix(0.6817 -0.7317 0.7317 0.6817 64.587 224.7699)" class="st3" width="4" height="28.3"/>
	
		<ellipse id="Ellipse_59" transform="matrix(0.7977 -0.6031 0.6031 0.7977 -59.0658 198.0311)" class="st4" cx="265.6" cy="187.1" rx="12.7" ry="12.7"/>
	<path id="Path_103" class="st3" d="M266.6,201.9c-0.7,0-1.4-0.1-2.1-0.1c-7.8-1.1-13.4-8.2-12.5-16.1c0.8-7.9,7.8-13.7,15.7-13.1
		c7.9,0.6,13.9,7.3,13.6,15.2C281,195.6,274.5,201.9,266.6,201.9z M266.6,176.5c-5,0-9.3,3.4-10.4,8.3s1.2,9.8,5.7,12
		s9.8,1.1,13-2.7c3.2-3.8,3.3-9.3,0.3-13.3c-1.7-2.3-4.2-3.8-7.1-4.1C267.6,176.5,267.1,176.5,266.6,176.5L266.6,176.5z"/>
	
		<ellipse id="Ellipse_60" transform="matrix(0.7977 -0.6031 0.6031 0.7977 -24.8121 221.7401)" class="st4" cx="318.1" cy="147.9" rx="12.7" ry="12.7"/>
	<path id="Path_104" class="st3" d="M319.1,162.7c-0.7,0-1.4-0.1-2.1-0.1c-7.8-1.1-13.4-8.2-12.5-16.1c0.8-7.9,7.8-13.7,15.7-13.1
		c7.9,0.6,13.9,7.3,13.6,15.2S327,162.7,319.1,162.7z M319.1,137.3c-5,0-9.3,3.4-10.4,8.3c-1.1,4.8,1.2,9.8,5.7,12
		c4.4,2.2,9.8,1.1,13-2.7s3.3-9.3,0.3-13.3c-1.7-2.3-4.2-3.8-7.1-4.1C320,137.3,319.5,137.3,319.1,137.3L319.1,137.3z"/>
	
		<rect id="Rectangle_33" x="278.1" y="165.3" transform="matrix(0.7977 -0.6031 0.6031 0.7977 -41.7246 210.1369)" class="st3" width="28.4" height="4"/>
	<path id="Path_105" class="st5" d="M346.4,216.2c-44.5,0.1-82.8,31.6-91.4,75.3c-8.6,43.7,14.8,87.4,56,104.4
		c41.2,17,88.6,2.6,113.3-34.5c24.7-37,19.9-86.4-11.6-117.9C395.1,226,371.2,216.1,346.4,216.2z M412.9,346.3c0,8.9-7.2,16-16,16
		h-98.5c-8.9,0-16-7.2-16-16v-64.2c0-3.3,1-6.6,3-9.3c1.6-4.2,3.8-6.8,6.3-6.8h113.6c4.7,0,8.5,9.4,8.5,20.9v16.2h-0.7L412.9,346.3z
		"/>
	<path id="Rectangle_34" class="st1" d="M295.6,264.7h106.6c6.6,0,12,5.4,12,12V349c0,6.6-5.4,12-12,12H295.6c-6.6,0-12-5.4-12-12
		v-72.2C283.6,270.1,289,264.7,295.6,264.7z"/>
	<path id="Path_106" class="st1" d="M414.9,285.7v16.1H284.3v-16.1c0-11.5,3.8-20.9,8.5-20.9h113.6
		C411.1,264.7,414.9,274.1,414.9,285.7z"/>
	<path id="Path_108" class="st3" d="M397.4,362.9h-98.5c-10,0-18-8.1-18-18v-64.1c0-10,8.1-18,18-18h98.5c10,0,18,8.1,18,18v64.2
		C415.4,354.9,407.4,362.9,397.4,362.9z M298.9,266.7c-7.7,0-14,6.3-14,14v64.2c0,7.7,6.3,14,14,14h98.5c7.7,0,14-6.2,14-14v-64.2
		c0-7.7-6.3-14-14-14L298.9,266.7z"/>
	<path id="Path_109" class="st3" d="M291.6,290c-1.1,0-2-0.9-2-2v-8.3c0-5.4,4.4-9.7,9.8-9.8h6.9c1.1,0,2,0.9,2,2s-0.9,2-2,2h-6.9
		c-3.2,0-5.7,2.6-5.7,5.7v8.3c0,0.5-0.2,1-0.6,1.4C292.7,289.8,292.1,290,291.6,290z"/>
	<path id="Path_110" class="st3" d="M404.6,290c-1.1,0-2-0.9-2-2v-8.3c0-3.2-2.6-5.7-5.7-5.7h-7c-1.1,0-2-0.9-2-2s0.9-2,2-2h7
		c5.4,0,9.7,4.4,9.8,9.8v8.3c0,0.5-0.2,1-0.6,1.4C405.6,289.8,405.1,290,404.6,290z"/>
	<path id="Path_111" class="st3" d="M396.8,354.2h-7c-1.1,0-2-0.9-2-2s0.9-2,2-2h7c3.2,0,5.7-2.6,5.7-5.7v-8.3c0-1.1,0.9-2,2-2
		s2,0.9,2,2v8.3C406.6,349.8,402.2,354.2,396.8,354.2z"/>
	<path id="Path_112" class="st3" d="M306.3,354.2h-6.9c-5.4,0-9.7-4.4-9.8-9.8v-8.3c0-1.1,0.9-2,2-2s2,0.9,2,2v8.3
		c0,3.2,2.6,5.7,5.7,5.7h6.9c1.1,0,2,0.9,2,2S307.4,354.2,306.3,354.2z"/>
	<g class="st6">
		<path class="st3" d="M326.8,313.6c0-6.9,1.8-12.5,5.4-16.8c3.6-4.3,9-6.5,16.3-6.5c6.7,0,11.9,1.9,15.5,5.7
			c3.6,3.8,5.5,9.2,5.5,16.1c0,4.1-0.7,7.4-2.1,10.1c-1.4,2.7-3.6,4-6.6,4c-1.7,0-3.1-0.4-4.3-1.3s-1.9-1.9-2.2-3.2
			c-1.2,1.3-2.5,2.3-3.7,3s-2.7,1-4.5,1c-2.5,0-4.5-0.6-6.1-1.8s-2.4-3.1-2.4-5.6c0-2.9,1.1-4.9,3.4-6.1c2.3-1.1,5.6-1.7,9.9-1.7
			h2.7v-1.2c0-3.6-2.1-5.4-6.4-5.4c-1.7,0-3.1,0.2-4.4,0.7c-1.3,0.5-1.9,0.7-2,0.7c-0.5,0-0.8-0.2-1.2-0.7c-0.3-0.5-0.5-0.9-0.5-1.4
			c0-1,0.9-1.9,2.8-2.6c1.9-0.7,3.9-1.1,6-1.1c3,0,5.4,0.8,7.2,2.3c1.8,1.5,2.7,3.7,2.7,6.5v11.2c0.1,1,0.5,1.8,1.1,2.4
			c0.6,0.6,1.4,0.8,2.2,0.8c2.9,0,4.4-3.3,4.4-10c0-6-1.4-10.7-4.2-13.9c-2.8-3.2-7.1-4.8-12.8-4.8c-3.2,0-6,0.5-8.4,1.6
			c-2.3,1-4.2,2.5-5.5,4.4s-2.2,3.9-2.9,6.1c-0.6,2.2-0.9,4.7-0.9,7.4c0,2.5,0.3,4.8,0.8,6.9c0.5,2.1,1.4,4,2.5,5.8
			c1.1,1.8,2.8,3.2,4.8,4.2c2.1,1,4.5,1.5,7.4,1.5c2.2,0,4.3-0.4,6.2-1.1c1.9-0.7,2.9-1.1,3-1.1c0.4,0,0.8,0.2,1.1,0.6
			c0.3,0.4,0.4,0.8,0.4,1.1c0,1-1.2,1.9-3.7,2.7c-2.5,0.8-5,1.2-7.6,1.2c-2.5,0-4.9-0.4-7.1-1.3c-2.2-0.9-4.2-2.2-6-3.9
			c-1.8-1.7-3.2-4-4.2-6.8C327.3,320.4,326.8,317.2,326.8,313.6z M342.4,318.2c0,2.7,1.5,4,4.5,4c2,0,3.6-0.6,4.9-1.7
			c1.3-1.2,2-2.4,2-3.8v-3.3h-2.4c-2.9,0-5.2,0.3-6.7,1S342.4,316.4,342.4,318.2z"/>
	</g>
	<g class="st6">
		<path class="st3" d="M353.5,122.4v-41c0-1,0.7-1.4,2-1.4s2,0.5,2,1.4v18h17.4v-18c0-1,0.7-1.4,2-1.4s2,0.5,2,1.4v41
			c0,0.5-0.2,0.9-0.6,1.1c-0.4,0.3-0.9,0.4-1.4,0.4c-0.6,0-1-0.1-1.4-0.4c-0.4-0.3-0.6-0.7-0.6-1.1v-19.6h-17.4v19.6
			c0,0.5-0.2,0.9-0.6,1.1c-0.4,0.3-0.9,0.4-1.4,0.4c-0.6,0-1-0.1-1.4-0.4C353.7,123.2,353.5,122.9,353.5,122.4z"/>
		<path class="st3" d="M387.2,86.3c-0.5-0.5-0.8-1.1-0.8-1.8c0-0.7,0.3-1.3,0.8-1.7c0.5-0.5,1.2-0.7,1.9-0.7c0.7,0,1.3,0.2,1.8,0.7
			c0.5,0.5,0.8,1.1,0.8,1.7c0,0.7-0.3,1.3-0.8,1.8c-0.5,0.5-1.1,0.8-1.8,0.8C388.4,87,387.7,86.8,387.2,86.3z M387.2,122.4V96.9
			c0-0.4,0.2-0.7,0.5-1c0.4-0.3,0.8-0.4,1.4-0.4c0.6,0,1,0.1,1.4,0.4c0.4,0.3,0.6,0.6,0.6,1v25.5c0,0.4-0.2,0.8-0.6,1.1
			c-0.4,0.3-0.9,0.5-1.4,0.5c-0.5,0-1-0.2-1.4-0.5C387.4,123.1,387.2,122.8,387.2,122.4z"/>
		<path class="st3" d="M398.4,121.3c0-0.9,0.3-1.6,0.8-2.2c0.5-0.6,1.2-0.9,2-0.9c0.7,0,1.3,0.3,1.8,0.9c0.5,0.6,0.7,1.3,0.7,2.2
			c0,0.8-0.2,1.5-0.7,2.1c-0.5,0.6-1.1,0.9-1.7,0.9c-0.8,0-1.5-0.3-2-0.9C398.6,122.8,398.4,122.1,398.4,121.3z M398.8,81.5
			c0-0.7,0.2-1.3,0.7-1.7c0.5-0.4,1-0.6,1.6-0.6s1.1,0.2,1.6,0.6c0.4,0.4,0.7,1,0.7,1.7c0,3.3-0.1,8.5-0.3,15.6
			c-0.2,7.1-0.3,12.3-0.3,15.6c0,0.4-0.2,0.8-0.5,1c-0.3,0.2-0.7,0.4-1.1,0.4c-1,0-1.5-0.5-1.5-1.4c0-3.3-0.1-8.5-0.4-15.6
			C398.9,90,398.8,84.8,398.8,81.5z"/>
	</g>
	
		<ellipse id="Ellipse_61" transform="matrix(9.999471e-03 -0.9999 0.9999 9.999471e-03 11.8598 492.0669)" class="st4" cx="254.4" cy="240" rx="12.7" ry="12.7"/>
	<path id="Path_113" class="st3" d="M253.8,255.4h-0.2c-5.3,0-10.1-2.9-12.7-7.4s-2.6-10.2,0.1-14.7c2.6-4.5,7.5-7.3,12.8-7.3h0.2
		c5.3,0,10.1,2.9,12.7,7.4s2.6,10.2-0.1,14.7S259,255.5,253.8,255.4L253.8,255.4z M253.7,251.4h0.1c5.9,0,10.6-4.8,10.6-10.7
		s-4.8-10.6-10.6-10.6c-5.9,0-10.6,4.7-10.6,10.6C243,246.6,247.8,251.4,253.7,251.4L253.7,251.4z"/>
	
		<ellipse id="Ellipse_62" transform="matrix(9.999471e-03 -0.9999 0.9999 9.999471e-03 -54.6814 555.8531)" class="st4" cx="253.4" cy="305.5" rx="12.7" ry="12.7"/>
	<path id="Path_114" class="st3" d="M252.7,320.9h-0.2c-5.3,0-10.1-2.9-12.7-7.4s-2.6-10.2,0.1-14.7c2.6-4.5,7.5-7.3,12.8-7.3h0.2
		c5.3,0,10.1,2.9,12.7,7.4s2.6,10.2-0.1,14.7C262.8,318.2,258,321,252.7,320.9L252.7,320.9z M252.7,295.5c-5.9,0-10.7,4.7-10.7,10.6
		c0,5.9,4.7,10.7,10.6,10.7c2.8,0,5.6-1.1,7.6-3c3.1-3,4.1-7.6,2.4-11.6s-5.5-6.7-9.8-6.7L252.7,295.5z"/>
	
		<rect id="Rectangle_35" x="239.5" y="271.3" transform="matrix(9.999471e-03 -0.9999 0.9999 9.999471e-03 -22.0782 524.2971)" class="st3" width="28.4" height="4"/>
	
		<ellipse id="Ellipse_63" transform="matrix(9.999471e-03 -0.9999 0.9999 9.999471e-03 124.9412 750.6468)" class="st4" cx="441.6" cy="312.2" rx="12.7" ry="12.7"/>
	<path id="Path_115" class="st3" d="M440.9,327.6h-0.2c-8.1,0-14.7-6.7-14.6-14.8s6.7-14.7,14.8-14.6h0.2c8.1,0,14.7,6.7,14.6,14.8
		S449,327.7,440.9,327.6L440.9,327.6z M440.8,323.6h0.1c5.9,0,10.7-4.7,10.7-10.6c0-5.9-4.7-10.7-10.6-10.7h-0.1
		c-5.9,0-10.7,4.7-10.7,10.6C430.1,318.8,434.9,323.6,440.8,323.6L440.8,323.6z"/>
	
		<ellipse id="Ellipse_64" transform="matrix(9.999471e-03 -0.9999 0.9999 9.999471e-03 58.4139 814.4469)" class="st4" cx="440.5" cy="377.7" rx="12.7" ry="12.7"/>
	<path id="Path_116" class="st3" d="M439.8,393.1h-0.2c-8.1,0-14.7-6.7-14.6-14.8s6.7-14.7,14.8-14.6h0.2c8.1,0,14.7,6.7,14.6,14.8
		S447.9,393.1,439.8,393.1L439.8,393.1z M439.8,367.7c-5.9,0-10.7,4.7-10.7,10.6c0,5.9,4.7,10.7,10.6,10.7h0.1
		c5.9,0,10.7-4.7,10.7-10.6s-4.7-10.7-10.6-10.7H439.8z"/>
	
		<rect id="Rectangle_36" x="426.7" y="343.5" transform="matrix(9.999471e-03 -0.9999 0.9999 9.999471e-03 91.0181 782.8899)" class="st3" width="28.4" height="4"/>
	<path id="Path_117" class="st1" d="M127.4,57.8l-5.6,10.8c-0.3,0.5-0.9,0.8-1.4,0.8c-3.4-0.7-7-1-10.5-0.9c-0.6,0-1.1-0.3-1.3-0.9
		l-3.7-11.5c-0.2-0.7-1-1.1-1.7-0.9L88,60c-0.7,0.2-1.1,0.9-0.9,1.6l3.7,11.5c0.2,0.6,0,1.2-0.5,1.5c-3,1.9-5.6,4.2-8,6.8
		c-0.4,0.4-1.1,0.5-1.6,0.2l-10.8-5.5c-0.3-0.2-0.7-0.2-1-0.1c-0.3,0.1-0.6,0.4-0.8,0.7l-3.7,7.1l26.1,13.5
		c6.3-11.5,20.5-15.9,32.1-9.9s16.3,20.1,10.6,31.9l26.2,13.5l3.7-7.2c0.2-0.3,0.2-0.7,0.1-1c-0.1-0.3-0.4-0.6-0.7-0.7l-10.7-5.5
		c-0.5-0.3-0.9-1-0.8-1.6c0.7-3.4,1-7,0.9-10.5c0-0.6,0.3-1.1,0.9-1.3l11.5-3.7c0.7-0.2,1.1-1,0.9-1.7l-4.9-15.3
		c-0.2-0.7-1-1.1-1.7-0.9L147.1,87c-0.6,0.2-1.2,0-1.5-0.5c-1.9-2.9-4.1-5.6-6.7-8c-0.4-0.4-0.5-1.1-0.2-1.6l5.6-10.8
		c0.2-0.3,0.2-0.7,0.1-1c-0.1-0.3-0.4-0.6-0.7-0.7l-14.3-7.2c-0.3-0.2-0.7-0.2-1-0.1C127.9,57.2,127.6,57.4,127.4,57.8L127.4,57.8z"
		/>
	<path id="Path_118" class="st4" d="M100.9,129.8c11.8,6,26.3,1.4,32.4-10.4l26.1,13.4l-3.6,7c-0.1,0.4-0.4,0.6-0.8,0.8
		c-0.4,0.1-0.7,0.1-1.1-0.1l-10.7-5.5c-0.5-0.4-1.2-0.4-1.7,0c-2.4,2.6-5.1,4.9-8,6.8c-0.5,0.4-0.7,1-0.5,1.6l3.7,11.5
		c0.2,0.7-0.2,1.4-0.9,1.7l-15.3,4.9c-0.7,0.2-1.4-0.2-1.7-0.9l-3.7-11.5c-0.2-0.5-0.8-0.9-1.3-0.9c-3.5,0.1-7.1-0.2-10.5-0.9
		c-0.6-0.1-1.2,0.2-1.4,0.8L96.4,159c-0.1,0.3-0.4,0.6-0.8,0.7c-0.3,0.1-0.7,0.1-1-0.1l-14.3-7.3c-0.3-0.1-0.6-0.4-0.7-0.8
		c-0.1-0.3-0.1-0.7,0.1-1l5.6-10.8c0.3-0.5,0.2-1.2-0.2-1.6c-2.6-2.4-4.9-5.1-6.8-8c-0.4-0.5-1-0.7-1.6-0.5l-11.5,3.7
		c-0.7,0.2-1.4-0.2-1.7-0.9l-4.8-15.2c-0.2-0.7,0.2-1.4,0.9-1.7l11.5-3.7c0.5-0.2,0.9-0.8,0.9-1.3c-0.1-3.5,0.2-7.1,0.9-10.5
		c0.1-0.6-0.2-1.2-0.8-1.4l-10.8-5.6c-0.4-0.1-0.6-0.4-0.7-0.8c-0.1-0.4-0.1-0.8,0.2-1.1l3.7-7.1l26.1,13.5
		C84.5,109.2,89.1,123.7,100.9,129.8L100.9,129.8z"/>
	<path id="Line_12" class="st7" d="M133.3,119.4l-42.8-22"/>
	<path id="Path_119" class="st5" d="M122.3,85.2c11.8,6.1,16.4,20.6,10.4,32.4c-2.8,5.6-7.7,9.8-13.6,11.7
		c-5.9,1.9-12.4,1.3-17.9-1.6c-11.8-6.1-16.4-20.6-10.4-32.4c2.8-5.6,7.7-9.8,13.6-11.7C110.4,81.7,116.8,82.3,122.3,85.2
		L122.3,85.2z"/>
	<path id="Path_120" class="st5" d="M33.5,68c-15.8,30.8-11.6,68,10.8,94.4s58.4,36.7,91.4,26.2s56.3-39.9,59.1-74.4
		s-15.3-67.3-46.1-83.1C106.7,9.5,55.1,26,33.5,68z M142.1,63c0.7,0.4,1.1,1.1,0.6,1.7l-5.6,10.8c-0.3,0.5-0.2,1.2,0.2,1.6
		c2.6,2.4,4.8,5.1,6.7,8c0.4,0.5,1,0.7,1.6,0.5l10.6-3.4l0.9-0.3c0.7-0.2,1.4,0.2,1.7,0.9l4.9,15.3c0.2,0.7-0.2,1.4-0.9,1.7
		l-0.9,0.3l-10.6,3.4c-0.5,0.2-0.9,0.8-0.9,1.3c0.1,3.5-0.2,7.1-0.9,10.5c0,0.6,0.3,1.3,0.8,1.6l10.7,5.5c0.3,0.1,0.6,0.4,0.7,0.7
		c0.1,0.3,0.1,0.7-0.1,1l-7.3,14.3c-0.2,0.5-0.8,0.8-1.3,0.8c-0.4,0.3-0.9,0.3-1.3,0.1l-10.7-5.5c-0.2-0.1-0.5-0.2-0.8-0.3
		c-2.4,2.6-5.1,4.9-8,6.8c-0.5,0.4-0.7,1-0.5,1.5l3.7,11.5c0.2,0.7-0.2,1.4-0.9,1.7l-16.2,5.2c-0.7,0.2-1.4-0.2-1.7-0.9l-3.7-11.5
		c-0.2-0.5-0.8-0.9-1.3-0.9c-3.5,0.1-7.1-0.2-10.5-0.9H101c-0.2,0.1-0.3,0.3-0.4,0.5L95,157.4c-0.7,0.7-1.7,1-2.7,0.9L77.9,151
		c-0.3-0.1-0.6-0.4-0.7-0.8c-0.1-0.3-0.1-0.7,0.1-1l5.6-10.8c0.3-0.5,0.2-1.2-0.2-1.6c-2.6-2.4-4.9-5.1-6.8-8
		c-0.4-0.5-1-0.7-1.5-0.5L62.8,132c-0.7,0.2-1.4-0.2-1.6-0.8l-4.8-15.2c-0.2-0.7,0.2-1.4,0.9-1.7l0.9-0.3l10.6-3.4
		c0.5-0.2,0.9-0.8,0.9-1.3c-0.1-3.5,0.2-7.1,0.9-10.5c0.1-0.6-0.2-1.2-0.8-1.4l-10.8-5.6c-0.3-0.1-0.6-0.4-0.7-0.8s-0.1-0.7,0.1-1
		l7.3-14.3c0.2-0.5,0.7-0.8,1.3-0.7c0.4-0.3,1-0.4,1.4-0.1l10.8,5.6c0.2,0.1,0.4,0.2,0.6,0.2l0.1-0.1c2.4-2.6,5.1-4.9,8-6.8
		c0.5-0.4,0.7-1,0.5-1.6l-3.7-11.6c-0.2-0.7,0.2-1.4,0.9-1.7l0.9-0.3l14.3-4.5l0.9-0.3c0.7-0.2,1.4,0.2,1.7,0.9l3.7,11.5
		c0.2,0.5,0.8,0.9,1.3,0.9c3.5-0.1,7.1,0.2,10.5,0.9h0.2c0.2-0.1,0.3-0.3,0.4-0.5l5.6-10.8c0.7-0.7,1.7-1,2.7-0.9L142.1,63z"/>
	<path id="Path_121" class="st3" d="M119.9,162.7c-0.5,0-1-0.1-1.5-0.4c-0.8-0.4-1.4-1.1-1.6-2l-3.5-11c-3.4,0.1-6.7-0.2-10-0.8
		L97.9,159c-0.4,0.8-1.1,1.4-1.9,1.7c-0.9,0.3-1.8,0.2-2.6-0.2l-14.3-7.3c-0.8-0.4-1.4-1.1-1.7-1.9c-0.3-0.9-0.2-1.8,0.2-2.6
		l5.3-10.4c-2.4-2.3-4.6-4.8-6.4-7.6l-11.1,3.6c-0.8,0.3-1.8,0.2-2.5-0.2c-0.8-0.4-1.4-1.1-1.6-2l-4.8-15.3
		c-0.3-0.8-0.2-1.8,0.2-2.5c0.4-0.8,1.1-1.4,2-1.6l11-3.5c-0.1-3.4,0.2-6.7,0.8-10l-10.4-5.3c-0.8-0.4-1.4-1.1-1.7-1.9
		c-0.3-0.8-0.2-1.8,0.2-2.6L66,75c0.4-0.8,1.1-1.4,1.9-1.7c0.9-0.3,1.8-0.2,2.6,0.2l10.4,5.3c2.3-2.4,4.8-4.6,7.6-6.4l-3.6-11.1
		c-0.3-0.8-0.2-1.8,0.2-2.5c0.4-0.8,1.1-1.4,2-1.6l15.2-4.8c0.8-0.3,1.8-0.2,2.5,0.2c0.8,0.4,1.4,1.1,1.6,2l3.5,10.9
		c3.4-0.1,6.7,0.2,10,0.8l5.3-10.4c0.4-0.8,1.1-1.4,1.9-1.7c0.9-0.3,1.8-0.2,2.6,0.2l14.3,7.3c0.9,0.5,1.6,1.3,1.8,2.3
		c0.2,0.8,0,1.5-0.4,2.2l-5.3,10.3c2.4,2.2,4.5,4.8,6.3,7.5l11.1-3.6c0.8-0.3,1.8-0.2,2.5,0.2c0.8,0.4,1.4,1.1,1.6,2l4.9,15.3
		c0.3,0.8,0.2,1.8-0.2,2.5c-0.4,0.8-1.1,1.4-2,1.6l-10.9,3.5c0.1,3.4-0.2,6.8-0.9,10.1l10.4,5.3c0.8,0.4,1.4,1,1.7,1.9
		c0.3,0.8,0.2,1.8-0.2,2.5l-7.3,14.3c-0.4,0.8-1.1,1.4-2,1.7s-1.8,0.2-2.6-0.2l-10.5-5.3c-2.2,2.4-4.8,4.5-7.5,6.3l3.6,11.1
		c0.3,0.8,0.2,1.8-0.2,2.5s-1.1,1.4-2,1.6l-15.3,4.9C120.6,162.7,120.3,162.8,119.9,162.7z M113.5,145.4c1.5-0.1,2.8,0.8,3.4,2.2
		l3.5,10.9l14-4.5l-3.5-10.9c-0.4-1.4,0-2.9,1.2-3.8c2.8-1.9,5.5-4.1,7.7-6.6c1.1-1,2.7-1.2,4-0.5l10.1,5.2l6.8-13.1l-10.1-5.2
		c-1.2-0.7-2-2-1.9-3.4v-0.4c0.7-3.3,1-6.7,0.9-10c-0.1-1.5,0.8-2.8,2.2-3.4l10.9-3.5l-4.5-14l-10.8,3.5c-1.4,0.4-2.9-0.1-3.8-1.2
		c-1.8-2.8-4-5.4-6.5-7.7c-1.1-1-1.4-2.7-0.7-4l5.2-10.1l-13.1-6.7l-5.3,10.2c-0.6,1.2-1.9,1.9-3.2,1.8h-0.4c-3.3-0.7-6.7-1-10-0.9
		c-1.5,0.1-2.8-0.8-3.4-2.2l-3.5-10.9l-13.9,4.3l3.5,10.9c0.4,1.4,0,2.9-1.2,3.8c-2.8,1.9-5.4,4.1-7.7,6.6c-1,1.1-2.7,1.4-4,0.7
		l-10.3-5.3l-6.7,13.1l10.2,5.3c1.2,0.6,1.9,1.9,1.8,3.2v0.4c-0.7,3.3-1,6.7-0.9,10c0.1,1.5-0.8,2.8-2.2,3.4l-11,3.5l4.4,13.9
		l10.9-3.5c1.4-0.4,2.9,0,3.8,1.2c1.9,2.8,4.1,5.5,6.6,7.7c1.1,1,1.4,2.7,0.7,4l-5.3,10.2l13.1,6.7l5.3-10.2
		c0.6-1.2,1.9-1.9,3.2-1.8h0.4C106.8,145.2,110.1,145.6,113.5,145.4L113.5,145.4z M111.6,133.5c-11.7,0-21.9-7.8-25-19.1
		c-3.1-11.2,1.6-23.2,11.6-29.3c10-6.1,22.8-4.8,31.3,3.2s10.7,20.6,5.4,31c-3.2,6.2-8.6,10.8-15.2,12.9
		C117,133.1,114.3,133.5,111.6,133.5L111.6,133.5z M111.7,85.4c-10.9,0-20.1,7.8-21.8,18.5s4.6,21.1,14.9,24.5s21.6-1.3,26.5-10.9
		c3.5-6.8,3.2-15-0.8-21.5C126.4,89.4,119.3,85.4,111.7,85.4L111.7,85.4z"/>
	
		<ellipse id="Ellipse_65" transform="matrix(0.9411 -0.3381 0.3381 0.9411 -3.5237 52.2373)" class="st4" cx="148.2" cy="36.2" rx="12.7" ry="12.7"/>
	<path id="Path_122" class="st3" d="M149,51.3c-7.6,0-14-5.8-14.6-13.4c-0.7-7.6,4.6-14.4,12.1-15.7s14.8,3.3,16.7,10.7
		c2,7.4-2.1,15-9.2,17.6C152.4,51.1,150.7,51.3,149,51.3z M149,25.9c-4.7,0-8.8,3-10.2,7.5s0.2,9.3,4,12c3.8,2.7,8.9,2.6,12.6-0.2
		c3.7-2.8,5.2-7.7,3.6-12.1C157.6,28.8,153.6,26,149,25.9L149,25.9z"/>
	
		<ellipse id="Ellipse_66" transform="matrix(0.9411 -0.3381 0.3381 0.9411 7.4811 71.8398)" class="st4" cx="210" cy="14.4" rx="12.7" ry="12.7"/>
	<path id="Path_123" class="st3" d="M210.8,29.5c-7.5,0-13.8-5.6-14.6-13c-0.9-7.4,4-14.3,11.2-16s14.7,2.3,17.2,9.3
		c1.6,4.5,0.9,9.5-1.8,13.4S215.6,29.5,210.8,29.5z M210.8,4.1c-4.7,0-8.8,3-10.2,7.5s0.2,9.3,4.1,12c3.8,2.7,8.9,2.6,12.6-0.2
		c3.7-2.8,5.2-7.7,3.6-12.1C219.4,7,215.3,4.1,210.8,4.1L210.8,4.1z"/>
	
		<rect id="Rectangle_37" x="165.4" y="23.3" transform="matrix(0.9412 -0.3378 0.3378 0.9412 2.0029 62.151)" class="st3" width="28.4" height="4"/>
	
		<ellipse id="Ellipse_67" transform="matrix(0.9411 -0.3381 0.3381 0.9411 -64.8468 16.2557)" class="st4" cx="14.2" cy="194.3" rx="12.7" ry="12.7"/>
	<path id="Path_124" class="st3" d="M15.1,209.4c-7.5,0-13.8-5.6-14.6-13s4-14.3,11.2-16s14.7,2.3,17.2,9.3
		c1.6,4.5,0.9,9.5-1.8,13.4S19.9,209.4,15.1,209.4z M15.1,184c-4.7,0-8.8,3-10.2,7.5s0.2,9.3,4,12s8.9,2.6,12.6-0.2
		c3.7-2.8,5.2-7.7,3.6-12.1C23.6,186.8,19.6,184,15.1,184L15.1,184z"/>
	
		<ellipse id="Ellipse_68" transform="matrix(0.9411 -0.3381 0.3381 0.9411 -53.8405 35.8517)" class="st4" cx="76" cy="172.5" rx="12.7" ry="12.7"/>
	<path id="Path_125" class="st3" d="M76.9,187.6c-7.5,0-13.8-5.6-14.6-13c-0.9-7.4,4-14.3,11.2-16s14.7,2.3,17.2,9.3
		c1.6,4.5,0.9,9.5-1.8,13.4C86.2,185.3,81.7,187.6,76.9,187.6z M76.9,162.2c-4.7,0-8.8,3-10.2,7.5s0.2,9.3,4,12
		c3.8,2.7,8.9,2.6,12.6-0.2c3.7-2.8,5.2-7.7,3.6-12.1C85.4,165,81.4,162.2,76.9,162.2L76.9,162.2z"/>
	
		<rect id="Rectangle_38" x="31.4" y="181.4" transform="matrix(0.9412 -0.3378 0.3378 0.9412 -59.2492 26.1879)" class="st3" width="28.4" height="4"/>
</g>
</svg>
