<?xml version="1.0"?>
<svg xmlns="http://www.w3.org/2000/svg" height="512px" viewBox="0 0 512 512" width="512px"><path d="m356 300c-5.519531 0-10 4.480469-10 10s4.480469 10 10 10 10-4.480469 10-10-4.480469-10-10-10zm0 0" fill="#006DF0"/><path d="m402 80h-36v-20h50c5.523438 0 10-4.476562 10-10v-40c0-5.523438-4.476562-10-10-10h-60c-5.523438 0-10 4.476562-10 10v70s-154.261719 0-156 0c-49.332031 0-92.578125 33.1875-105.832031 80h-54.167969c-7.425781 0-14.511719 2.726562-19.996094 7.65625-.09375.078125-.183594.164062-.273437.246094-.035157.03125-.074219.0625-.109375.09375-.09375.085937-.179688.175781-.269532.265625-.0625.058593-.128906.113281-.191406.175781-.007812.011719-.015625.019531-.023437.03125-5.808594 5.621094-9.136719 13.421875-9.136719 21.53125v140c0 16.800781 13.730469 30 30 30h210v132h-210c-5.523438 0-10 4.476562-10 10s4.476562 10 10 10h472c5.523438 0 10-4.476562 10-10s-4.476562-10-10-10h-156v-132h156c5.523438 0 10-4.476562 10-10v-160c0-60.652344-49.347656-110-110-110zm4-40h-40v-20h40zm-216 60c50.109375 0 90 40.898438 90 90v150h-21.71875c1.125-3.179688 1.71875-6.550781 1.71875-10v-140c0-16.511719-13.410156-30-30-30h-124.867188c12.523438-35.398438 46.441407-60 84.867188-60zm-170 93.171875 58.476562 59.03125-58.476562 70.175781zm204.898438-13.171875c-15.613282 15.761719-65.304688 65.921875-87.792969 88.621094-1.894531 1.910156-4.417969 2.964844-7.105469 2.964844s-5.214844-1.054688-7.105469-2.964844c-14.011719-14.140625-65.992187-66.613282-87.792969-88.621094zm-43.375 72.203125 58.476562-59.03125v129.203125zm-88.90625 14.273437 16.070312 16.222657c5.679688 5.730469 13.25 8.886719 21.3125 8.886719 8.066406 0 15.632812-3.15625 21.316406-8.890626l16.066406-16.21875 61.269532 73.523438h-197.304688zm167.382812 93.523438h66v132h-66zm232-60h-96c-5.523438 0-10 4.476562-10 10s4.476562 10 10 10h96v20c-7.679688 0-188.730469 0-192 0v-150c0-36.953125-18.460938-69.996094-46.824219-90h92.824219v41.71875c-11.640625 4.128906-20 15.246094-20 28.28125 0 16.542969 13.457031 30 30 30s30-13.457031 30-30c0-13.035156-8.359375-24.152344-20-28.28125v-41.71875h36c49.625 0 90 40.375 90 90zm-136-140c5.515625 0 10 4.484375 10 10s-4.484375 10-10 10-10-4.484375-10-10 4.484375-10 10-10zm0 0" fill="#006DF0"/></svg>
