<svg xmlns="http://www.w3.org/2000/svg" width="77" height="77" viewBox="0 0 77 77"><defs><style>.cls-1{fill:#5073b4;}.cls-2{fill:#fff;}.cls-3{fill:none;stroke:#fff;stroke-miterlimit:10;stroke-width:2px;}</style></defs><title>Benefits-111b-77x77</title><g id="Benefits"><g id="_111"><circle id="_111-2" class="cls-1" cx="38.5" cy="38.5" r="38.5"/><path class="cls-2" d="M49 27v22h-21v-22h21m2-2h-25v26h25v-26zM49 20v37h-21v-37h21m0-2h-21a2 2 0 0 0-2 2v37a2 2 0 0 0 2 2h21a2 2 0 0 0 2-2v-37a2 2 0 0 0-2-2zM41 53h-5v2h5v-2zM40 32a2 2 0 1 1-2 2 2 2 0 0 1 2-2m0-2a4 4 0 1 0 4 4 4 4 0 0 0-4-4z"/><path class="cls-3" d="M46 50l-10-10-9 9"/></g><path class="cls-3" d="M50 46l-5-5-4 4"/></g></svg>