<?xml version="1.0" encoding="UTF-8"?>
<svg width="603px" height="487px" viewBox="0 0 603 487" version="1.1" xmlns="http://www.w3.org/2000/svg" xmlns:xlink="http://www.w3.org/1999/xlink">
    <!-- Generator: Sketch 52.1 (67048) - http://www.bohemiancoding.com/sketch -->
    <title>Image 2</title>
    <desc>Created with Sketch.</desc>
    <g id="Welcome" stroke="none" stroke-width="1" fill="none" fill-rule="evenodd">
        <g id="Landbot" transform="translate(-419.000000, -3453.000000)">
            <g id="Embed-Code" transform="translate(419.000000, 3321.000000)">
                <g id="Image-2" transform="translate(0.000000, 132.000000)">
                    <path d="M566.71,267.73 C566.706979,226.669098 542.449415,189.486457 504.87,172.94 C529.62136,145.43055 537.816443,106.806076 526.36824,71.6160439 C514.920037,36.4260121 485.567803,10.0166253 449.36824,2.33604391 C413.168677,-5.34453748 375.62136,6.87054958 350.87,34.38 C327.36,26.18 300.34,21.5 271.58,21.5 C203.83,21.5 145.68,47.4 120.58,84.36 C75.27981,112.914892 59.2301882,171.302383 83.57,219 C70.19,234 62.52,251.29 62.52,269.73 C62.52,313.45 105.52,350.82 166.21,366.02 C194.49,397.22 247.71,418.25 308.76,418.25 C351.54,418.25 390.49,407.91 419.76,391 C468.041086,404.460689 519.033095,381.419949 540.84,336.29 C557.563867,317.373199 566.768489,292.97935 566.71,267.73 Z" id="Path" fill="#E10074" opacity="0.2"></path>
                    <path d="M522.71,275.73 C522.706979,234.669098 498.449415,197.486457 460.87,180.94 C499.132287,138.414074 495.675926,72.9222875 453.15,34.66 C410.624074,-3.60228747 345.132287,-0.145925737 306.87,42.38 C283.36,34.18 256.34,29.5 227.58,29.5 C159.83,29.5 101.68,55.4 76.58,92.36 C31.27981,120.914892 15.2301882,179.302383 39.57,227 C26.19,242 18.52,259.29 18.52,277.73 C18.52,321.45 61.52,358.82 122.21,374.02 C150.49,405.22 203.71,426.25 264.76,426.25 C307.54,426.25 346.49,415.91 375.76,399 C424.041086,412.460689 475.033095,389.419949 496.84,344.29 C513.563867,325.373199 522.768489,300.97935 522.71,275.73 Z" id="Path" fill="#E10074" opacity="0.2"></path>
                    <path d="M602.71,288.73 C602.706979,247.669098 578.449415,210.486457 540.87,193.94 C579.132287,151.414074 575.675926,85.9222875 533.15,47.66 C490.624074,9.39771253 425.132287,12.8540743 386.87,55.38 C363.36,47.18 336.34,42.5 307.58,42.5 C239.83,42.5 181.68,68.4 156.58,105.36 C111.27981,133.914892 95.2301882,192.302383 119.57,240 C106.19,255 98.52,272.29 98.52,290.73 C98.52,334.45 141.52,371.82 202.21,387.02 C230.49,418.22 283.71,439.25 344.76,439.25 C387.54,439.25 426.49,428.91 455.76,412 C504.041086,425.460689 555.033095,402.419949 576.84,357.29 C593.563867,338.373199 602.768489,313.97935 602.71,288.73 Z" id="Path" fill="#E10074" opacity="0.2"></path>
                    <rect id="Rectangle" fill="#E5EDF5" x="87.65" y="141.52" width="432.75" height="269.39" rx="20.1"></rect>
                    <path d="M520.41,162.38 L520.41,390 C520.377044,401.506982 511.056982,410.827044 499.55,410.86 L108.55,410.86 C97.0274006,410.849032 87.6830424,401.522557 87.65,390 L87.65,384.79 L345.65,384.79 C428.714576,384.790003 496.057913,317.464574 496.08,234.4 L496.08,141.52 L499.56,141.52 C511.063076,141.558443 520.377072,150.876907 520.41,162.38 Z" id="Path" fill="#A0A6B0" opacity="0.5"></path>
                    <rect id="Rectangle" fill="#353535" x="85.53" y="227" width="3" height="45.77"></rect>
                    <path d="M499.55,412.14 L108.55,412.14 C96.2054833,412.128973 86.2010268,402.124517 86.19,389.78 L86.19,286.67 L89.19,286.67 L89.19,389.79 C89.2010239,400.477663 97.8623368,409.138976 108.55,409.15 L499.55,409.15 C510.237663,409.138976 518.898976,400.477663 518.91,389.79 L518.91,162.11 C518.898976,151.422337 510.237663,142.761024 499.55,142.75 L269,142.75 L269,139.75 L499.55,139.75 C511.894517,139.761027 521.898973,149.765483 521.91,162.11 L521.91,389.79 C521.893463,402.130611 511.890617,412.128983 499.55,412.14 Z" id="Path" fill="#353535"></path>
                    <rect id="Rectangle" fill="#353535" x="238.04" y="139.76" width="23.67" height="3"></rect>
                    <rect id="Rectangle" fill="#353535" x="203.71" y="139.76" width="27" height="3"></rect>
                    <path d="M89.15,212.51 L86.15,212.51 L86.15,162.11 C86.1610268,149.765483 96.1654833,139.761027 108.51,139.75 L189.71,139.75 L189.71,142.75 L108.51,142.75 C97.8223368,142.761024 89.1610239,151.422337 89.15,162.11 L89.15,212.51 Z" id="Path" fill="#353535"></path>
                    <rect id="Rectangle" fill="#FFFFFF" opacity="0.9" x="102.82" y="159.59" width="112.97" height="17.05" rx="8.525"></rect>
                    <rect id="Rectangle" fill="#FFFFFF" opacity="0.9" x="227.95" y="159.59" width="33.02" height="17.05" rx="8.525"></rect>
                    <rect id="Rectangle" fill="#353535" x="492.03" y="379.64" width="4" height="14" rx="2"></rect>
                    <rect id="Rectangle" fill="#353535" x="485.03" y="379.64" width="4" height="14" rx="2"></rect>
                    <rect id="Rectangle" fill="#353535" x="478.03" y="379.64" width="4" height="14" rx="2"></rect>
                    <rect id="Rectangle" fill="#353535" x="126.03" y="379.64" width="4" height="14" rx="2"></rect>
                    <rect id="Rectangle" fill="#353535" x="119.03" y="379.64" width="4" height="14" rx="2"></rect>
                    <rect id="Rectangle" fill="#353535" x="112.03" y="379.64" width="4" height="14" rx="2"></rect>
                    <path d="M582,486.64 L321.71,486.64 C320.881573,486.64 320.21,485.968427 320.21,485.14 C320.21,484.311573 320.881573,483.64 321.71,483.64 L582,483.64 C582.828427,483.64 583.5,484.311573 583.5,485.14 C583.5,485.968427 582.828427,486.64 582,486.64 Z" id="Path" fill="#353535"></path>
                    <path d="M270.38,486.64 L28,486.64 C27.1715729,486.64 26.5,485.968427 26.5,485.14 C26.5,484.311573 27.1715729,483.64 28,483.64 L270.38,483.64 C271.208427,483.64 271.88,484.311573 271.88,485.14 C271.88,485.968427 271.208427,486.64 270.38,486.64 Z" id="Path" fill="#353535"></path>
                    <path d="M307.21,486.64 L285.21,486.64 C284.381573,486.64 283.71,485.968427 283.71,485.14 C283.71,484.311573 284.381573,483.64 285.21,483.64 L307.21,483.64 C308.038427,483.64 308.71,484.311573 308.71,485.14 C308.71,485.968427 308.038427,486.64 307.21,486.64 Z" id="Path" fill="#353535"></path>
                    <polygon id="Path" fill="#FFFFFF" points="261.08 95.91 261.08 91.25 299.91 72 299.91 77.55 266.71 93.67 299.91 109.61 299.91 115.16"></polygon>
                    <polygon id="Path" fill="#FFFFFF" points="302.46 124.8 323.33 62.54 328.53 62.54 307.66 124.8"></polygon>
                    <polygon id="Path" fill="#FFFFFF" points="331.08 115.11 331.08 109.56 364.28 93.62 331.08 77.5 331.08 72 369.91 91.29 369.91 95.96"></polygon>
                    <path d="M7.19,417.64 L77.81,417.64 C80.9525002,417.64 83.5,420.1875 83.5,423.33 L83.5,436.64 C83.5,459.283675 65.1436747,477.64 42.5,477.64 C19.8563253,477.64 1.5,459.283675 1.5,436.64 L1.5,423.33 C1.5,420.1875 4.04749977,417.64 7.19,417.64 Z" id="Path" fill="#FFFFFF"></path>
                    <path d="M77.44,461.65 C67.3364455,476.558256 48.6871773,483.127897 31.4704156,477.843863 C14.2536539,472.559829 2.50072949,456.659384 2.5,438.65 L2.5,425.33 C2.5,422.1875 5.04749977,419.64 8.19,419.64 L8.5,419.64 L8.5,431.64 C8.50236348,447.956297 18.1791487,462.718235 33.1402656,469.22873 C48.1013826,475.739224 65.4988823,472.75896 77.44,461.64 L77.44,461.65 Z" id="Path" fill="#EFE0F1"></path>
                    <rect id="Rectangle" fill="#353535" x="37" y="417.14" width="11.75" height="3"></rect>
                    <path d="M42.5,480.14 C19.0393201,480.112448 0.0275522069,461.10068 -7.10542736e-15,437.64 L-7.10542736e-15,424.33 C0.00550818775,420.361356 3.22135645,417.145508 7.19,417.14 L28.75,417.14 L28.75,420.14 L7.19,420.14 C4.87820797,420.145498 3.00549775,422.018208 3,424.33 L3,437.64 C3,459.455248 20.6847524,477.14 42.5,477.14 C64.3152476,477.14 82,459.455248 82,437.64 L82,424.33 C81.9945023,422.018208 80.121792,420.145498 77.81,420.14 L55.5,420.14 L55.5,417.14 L77.81,417.14 C81.7786435,417.145508 84.9944918,420.361356 85,424.33 L85,437.64 C84.9724478,461.10068 65.9606799,480.112448 42.5,480.14 Z" id="Path" fill="#353535"></path>
                    <path d="M79.69,460.58 C78.5229709,460.579629 77.3594501,460.452211 76.22,460.2 L76.87,457.27 C79.4471154,457.842222 82.1376348,457.611905 84.58,456.61 L85.72,459.39 C83.8065284,460.175081 81.7582664,460.579299 79.69,460.58 Z" id="Path" fill="#353535"></path>
                    <path d="M91.65,455.19 L89.41,453.19 C92.4680181,449.741 93.4709963,444.930547 92.0460919,440.546859 C90.6211875,436.163171 86.9814884,432.861806 82.48,431.87 L83.13,428.94 C88.6704255,430.160474 93.1502665,434.223607 94.9041639,439.618949 C96.6580613,445.014291 95.4237199,450.934969 91.66,455.18 L91.65,455.19 Z" id="Path" fill="#353535"></path>
                    <rect id="Rectangle" fill="#E02378" x="464.5" y="448.64" width="132" height="30" rx="12"></rect>
                    <path d="M594.5,459.64 L594.5,465.64 C594.5,472.267417 589.127417,477.64 582.5,477.64 L474.5,477.64 C467.872583,477.64 462.5,472.267417 462.5,465.64 L462.5,459.64 C462.497791,459.138263 462.531208,458.637003 462.6,458.14 C463.355648,464.137778 468.454809,468.637037 474.5,468.64 L582.5,468.64 C588.545191,468.637037 593.644352,464.137778 594.4,458.14 C594.468792,458.637003 594.502209,459.138263 594.5,459.64 Z" id="Path" fill="#C10C67"></path>
                    <path d="M584,479.64 L476,479.64 C468.546441,479.634485 462.505515,473.593559 462.5,466.14 L462.5,460.14 C462.505515,452.686441 468.546441,446.645515 476,446.64 L584,446.64 C591.453559,446.645515 597.494485,452.686441 597.5,460.14 L597.5,466.14 C597.494485,473.593559 591.453559,479.634485 584,479.64 Z M476,449.64 C470.203295,449.645513 465.505513,454.343295 465.5,460.14 L465.5,466.14 C465.505513,471.936705 470.203295,476.634487 476,476.64 L584,476.64 C589.796705,476.634487 594.494487,471.936705 594.5,466.14 L594.5,460.14 C594.494487,454.343295 589.796705,449.645513 584,449.64 L476,449.64 Z" id="Shape" fill="#353535" fill-rule="nonzero"></path>
                    <path d="M275.65,379.73 C275.65,379.73 279.78,435.37 267.35,473.65 L340.73,474.34 C328.02,436.05 332.2,379.73 332.2,379.73" id="Path" fill="#E5EDF5"></path>
                    <path d="M337.52,462.64 L268.58,462.64 C268.63,457.81 270.51,458.42 270.44,454.64 L336.63,454.64 C336.55,458.41 337.46,457.81 337.52,462.64 Z" id="Path" fill="#A0A6B0" opacity="0.5"></path>
                    <path d="M330.89,429.18 C329.213111,410.754417 328.925632,392.228742 330.03,373.76 L332.36,374.04 C331.273201,392.29241 331.560679,410.60071 333.22,428.81 L330.89,429.18 Z" id="Path" fill="#353535"></path>
                    <path d="M341.5,470 L264.59,469.27 L265.26,467.21 C277.44,429.72 273.52,374.56 273.48,374.01 L275.81,373.73 C275.81,374.28 279.69,428.21 268.07,466.3 L338,467 C335.31584,458.069545 333.359443,448.93635 332.15,439.69 L334.45,439.16 C335.704835,448.921872 337.836789,458.55081 340.82,467.93 L341.5,470 Z" id="Path" fill="#353535"></path>
                    <rect id="Rectangle" fill="#E5EDF5" x="234.53" y="461.89" width="139" height="17" rx="8.5"></rect>
                    <path d="M373.5,470.14 C373.478106,474.825321 369.685321,478.618106 365,478.64 L243,478.64 C240.304642,478.633336 237.771401,477.351653 236.169355,475.184063 C234.567309,473.016473 234.085425,470.218651 234.87,467.64 C235.979199,471.200635 239.270612,473.629721 243,473.64 L365,473.64 C367.25289,473.637784 369.412072,472.738124 371,471.14 C371.982541,470.16271 372.713428,468.961723 373.13,467.64 C373.375915,468.450534 373.500598,469.292982 373.5,470.14 Z" id="Path" fill="#A0A6B0" opacity="0.5"></path>
                    <path d="M365,480.39 L318.21,480.39 L318.21,477.39 L365,477.39 C368.865993,477.39 372,474.255993 372,470.39 C372,466.524007 368.865993,463.39 365,463.39 L243,463.39 C239.134007,463.39 236,466.524007 236,470.39 C236,474.255993 239.134007,477.39 243,477.39 L272.34,477.39 L272.34,480.39 L243,480.39 C237.477153,480.39 233,475.912847 233,470.39 C233,464.867153 237.477153,460.39 243,460.39 L365,460.39 C370.522847,460.39 375,464.867153 375,470.39 C375,475.912847 370.522847,480.39 365,480.39 Z" id="Path" fill="#353535"></path>
                    <circle id="Oval" fill="#FFFFFF" cx="304.03" cy="437.64" r="11.5"></circle>
                    <path d="M304,450.64 C296.820298,450.64 291,444.819702 291,437.64 C291,430.460298 296.820298,424.64 304,424.64 C311.179702,424.64 317,430.460298 317,437.64 C317,444.819702 311.179702,450.64 304,450.64 Z M304,427.64 C298.477153,427.64 294,432.117153 294,437.64 C294,443.162847 298.477153,447.64 304,447.64 C309.522847,447.64 314,443.162847 314,437.64 C314,432.117153 309.522847,427.64 304,427.64 Z" id="Shape" fill="#353535" fill-rule="nonzero"></path>
                    <path d="M309.45,425.91 L311.69,427.64 C311.48,427.74 290.37,437.64 286.55,462.5 L283.55,462.04 C287.66,435.55 308.52,426.34 309.45,425.91 Z" id="Path" fill="#353535"></path>
                    <rect id="Rectangle" fill="#353535" x="277.71" y="477.39" width="35.75" height="3"></rect>
                    <rect id="Rectangle" fill="#EA81BB" x="488.5" y="468.64" width="18" height="8"></rect>
                    <rect id="Rectangle" fill="#FFFFFF" x="487.5" y="449.64" width="18" height="19"></rect>
                    <rect id="Rectangle" fill="#353535" x="504.5" y="448.64" width="3" height="29"></rect>
                    <rect id="Rectangle" fill="#353535" x="486.5" y="448.64" width="3" height="29"></rect>
                </g>
            </g>
        </g>
    </g>
</svg>