<?xml version="1.0" encoding="UTF-8" standalone="no"?>
<svg width="173px" height="152px" viewBox="0 0 173 152" version="1.1" xmlns="http://www.w3.org/2000/svg" xmlns:xlink="http://www.w3.org/1999/xlink">
    <!-- Generator: sketchtool 41.2 (35397) - http://www.bohemiancoding.com/sketch -->
    <title>054B367E-8B56-4D46-B528-B57BB485C633</title>
    <desc>Created with sketchtool.</desc>
    <defs>
        <polygon id="path-1" points="0 0.0506508842 0 36.1067499 37.9428624 36.1067499 37.9428624 0.0506508842 2.07241864e-21 0.0506508842"></polygon>
        <polygon id="path-3" points="0 49.7657258 41.8201748 49.7657258 41.8201748 0 0 0"></polygon>
    </defs>
    <g id="REVIEW" stroke="none" stroke-width="1" fill="none" fill-rule="evenodd">
        <g id="Rescue-Homepage-Concept---FINAL" transform="translate(-397.000000, -1941.000000)">
            <g id="Platform-Module" transform="translate(0.000000, 1597.000000)">
                <g id="platform_graphic" transform="translate(397.000000, 344.000000)">
                    <g id="iOS-Logo" transform="translate(116.000000, 116.000000)" stroke="#FFFFFF" stroke-width="2.2" fill="#FFFFFF">
                        <path d="M0.309409129,34 L0.969737225,34 L0.969737225,9.76200832 L0.309409129,9.76200832 L0.309409129,34 Z M1.27906977,2.31390667 C1.27906977,2.91982189 1.03384006,3.36809314 0.613227449,3.36809314 C0.262844587,3.36809314 0,2.91982189 0,2.31390667 C0,1.73368926 0.280229704,1.25925926 0.648227442,1.25925926 C1.03384006,1.25925926 1.27906977,1.73368926 1.27906977,2.31390667 L1.27906977,2.31390667 Z" id="Fill-1"></path>
                        <path d="M7.40945619,16.9998323 C7.40945619,25.9893983 11.9324887,32.9729596 20.270176,32.9729596 C28.6657824,32.9729596 33.4810803,25.7745091 33.4810803,16.8975308 C33.4810803,8.66555519 29.6227831,1.15304455 20.8184927,1.15304455 C12.0142023,1.15304455 7.40945619,8.22638531 7.40945619,16.9998323 M34.5348837,16.7548676 C34.5348837,28.6108891 27.7021657,34 20.2228193,34 C12.5825992,34 6.39534884,28.1703776 6.39534884,17.2452442 C6.39534884,6.02651093 12.7980259,0 20.7609218,0 C28.5623636,-0.000335414879 34.5348837,5.92767534 34.5348837,16.7548676" id="Fill-3"></path>
                        <path d="M37.5583571,31.002513 C39.2766589,32.0834158 42.2425829,33.1273167 44.793306,33.1273167 C49.6345835,33.1273167 53.9401984,29.9306924 53.9401984,25.2255135 C53.9401984,20.8591819 51.0720456,18.5808764 46.2024941,16.6238144 C41.8443702,14.8722809 37.9259197,12.9711702 37.9259197,8.30344163 C37.9259197,3.43971533 41.9858593,0 47.5039319,0 C50.4711627,0 52.7095645,0.786121334 53.7507147,1.47401955 L53.3364643,2.32214703 C52.4515341,1.73303257 50.0601198,0.982231192 47.4577193,0.982231192 C41.6260185,0.982231192 39.0857497,5.14135238 39.0857497,8.20308811 C39.0857497,12.4319522 42.5589434,13.8459839 47.0358657,15.8604548 C52.2414983,18.2680425 55,20.3901553 55,25.0091087 C55,29.9716187 51.2523818,34 44.5892101,34 C41.829758,34 38.6547487,33.1156555 37.0930233,31.9856412 L37.5583571,31.002513 Z" id="Fill-4"></path>
                    </g>
                    <g id="Apple-Logo" transform="translate(3.000000, 104.000000)">
                        <path d="M20.9351328,4.13107676 C23.9931771,0.0201277802 28.244666,7.79844231e-06 28.244666,7.79844231e-06 C28.244666,7.79844231e-06 28.8769034,3.86507188 25.8390443,7.58836028 C22.5952052,11.5640063 18.9080584,10.9134602 18.9080584,10.9134602 C18.9080584,10.9134602 18.2158008,7.78675266 20.9351328,4.13107676" id="Fill-1" fill="#FEFEFE"></path>
                        <g id="Group-5" transform="translate(0.000000, 11.364592)">
                            <mask id="mask-2" fill="white">
                                <use xlink:href="#path-1"></use>
                            </mask>
                            <g id="Clip-4"></g>
                            <path d="M19.2970193,2.25636237 C20.8703111,2.25636237 23.7900414,0.0506508842 27.5905767,0.0506508842 C34.1325404,0.0506508842 36.7060656,4.79857665 36.7060656,4.79857665 C36.7060656,4.79857665 31.6725565,7.42337643 31.6725565,13.7925204 C31.6725565,20.9774595 37.9428624,23.4536209 37.9428624,23.4536209 C37.9428624,23.4536209 33.559635,36.0370318 27.6392044,36.0370318 C24.9198724,36.0370318 22.8059408,34.1679011 19.9407256,34.1679011 C17.0209952,34.1679011 14.1234378,36.1067499 12.2363594,36.1067499 C6.83003742,36.1067499 -2.29376255e-05,24.1702198 -2.29376255e-05,14.5753281 C-2.29376255e-05,5.13507944 5.78125272,0.182912469 11.2037839,0.182912469 C14.7288382,0.182912469 17.4643795,2.25636237 19.2970193,2.25636237" id="Fill-3" fill="#FEFEFE" mask="url(#mask-2)"></path>
                        </g>
                    </g>
                    <g id="Windows-Logo" transform="translate(0.000000, 4.000000)">
                        <path d="M18.6771345,3.22924865 L18.6771345,19.9190189 L40.8833439,19.9190189 L40.8833439,0.158958108 L18.6771345,3.22924865 Z M0.138485811,5.79257973 L0.138485811,19.9190189 L17.0842291,19.9190189 L17.0842291,3.44976216 L0.138485811,5.79257973 Z M18.6771345,21.5119243 L18.6771345,38.052377 L40.8833439,40.9038162 L40.8833439,21.5119243 L18.6771345,21.5119243 Z M0.138485811,21.5119243 L0.138485811,35.6721608 L17.0842291,37.8479311 L17.0842291,21.5119243 L0.138485811,21.5119243 Z" id="Fill-1" fill="#FEFEFE"></path>
                        <path d="M17.0842291,21.5120351 L0.138485811,21.5120351 L0.138485811,35.6722716 L17.0842291,37.8480419 L17.0842291,21.5120351 Z M18.6771345,21.5120351 L18.6771345,38.0524878 L40.8833439,40.903927 L40.8833439,21.5120351 L18.6771345,21.5120351 Z M17.0842291,19.9191297 L17.0842291,3.44959595 L0.138485811,5.79269054 L0.138485811,19.9191297 L17.0842291,19.9191297 Z M18.6771345,3.22935946 L40.8833439,0.158791892 L40.8833439,19.9191297 L18.6771345,19.9191297 L18.6771345,3.22935946 Z" id="Stroke-2"></path>
                    </g>
                    <g id="Android-Logo" transform="translate(120.000000, 0.000000)">
                        <path d="M34.5323592,38.1107661 C34.5323592,39.0014919 33.8020485,39.7236694 32.9012913,39.7236694 L8.9188835,39.7236694 C8.01812621,39.7236694 7.287,39.0014919 7.287,38.1107661 L7.287,16.95875 C7.287,16.0680242 8.01812621,15.3458468 8.9188835,15.3458468 L32.9012913,15.3458468 C33.8020485,15.3458468 34.5323592,16.0680242 34.5323592,16.95875 L34.5323592,38.1107661 Z" id="Fill-1" fill="#FFFFFF"></path>
                        <mask id="mask-4" fill="white">
                            <use xlink:href="#path-3"></use>
                        </mask>
                        <g id="Clip-4"></g>
                        <polygon id="Fill-3" fill="#FFFFFF" mask="url(#mask-4)" points="7.26151456 26.4564516 34.5586602 26.4564516 34.5586602 15.3455645 7.26151456 15.3455645"></polygon>
                        <path d="M41.8200117,30.1986694 C41.8200117,31.7841532 40.5200505,33.0692339 38.9167107,33.0692339 C37.3133709,33.0692339 36.0138175,31.7841532 36.0138175,30.1986694 L36.0138175,17.2982661 C36.0138175,15.7127823 37.3133709,14.4272984 38.9167107,14.4272984 C40.5200505,14.4272984 41.8200117,15.7127823 41.8200117,17.2982661 L41.8200117,30.1986694 Z" id="Fill-5" fill="#FFFFFF" mask="url(#mask-4)"></path>
                        <path d="M5.8063165,30.1986694 C5.8063165,31.7841532 4.50635534,33.0692339 2.90301553,33.0692339 C1.29967573,33.0692339 0.000122330098,31.7841532 0.000122330098,30.1986694 L0.000122330098,17.2982661 C0.000122330098,15.7127823 1.29967573,14.4272984 2.90301553,14.4272984 C4.50635534,14.4272984 5.8063165,15.7127823 5.8063165,17.2982661 L5.8063165,30.1986694 Z" id="Fill-6" fill="#FFFFFF" mask="url(#mask-4)"></path>
                        <path d="M26.8508854,9.53629032 C25.9509437,9.53629032 25.2214485,8.81491935 25.2214485,7.925 C25.2214485,7.03508065 25.9509437,6.31370968 26.8508854,6.31370968 C27.7500117,6.31370968 28.4803223,7.03508065 28.4803223,7.925 C28.4803223,8.81491935 27.7500117,9.53629032 26.8508854,9.53629032 M14.9689631,9.53629032 C14.0690214,9.53629032 13.3395262,8.81491935 13.3395262,7.925 C13.3395262,7.03508065 14.0690214,6.31370968 14.9689631,6.31370968 C15.8684971,6.31370968 16.5984,7.03508065 16.5984,7.925 C16.5984,8.81491935 15.8684971,9.53629032 14.9689631,9.53629032 M20.9101282,2.37258065 C7.67605049,2.33225806 7.37430291,13.7564516 7.37430291,13.7564516 L34.4455456,13.7564516 C34.4455456,13.7564516 34.0194291,2.4125 20.9101282,2.37258065" id="Fill-7" fill="#FFFFFF" mask="url(#mask-4)"></path>
                        <path d="M14.5207456,3.90862903 C14.5684544,3.97556452 14.716066,3.95419355 14.8514447,3.85943548 C14.9843767,3.76629032 15.0545126,3.63524194 15.0063961,3.56830645 L12.477833,0.0392741935 C12.4293087,-0.0284677419 12.2812893,-0.00588709677 12.1483573,0.0872580645 C12.0137942,0.181612903 11.944066,0.312258065 11.9921825,0.379596774 L14.5207456,3.90862903 Z" id="Fill-8" fill="#FFFFFF" mask="url(#mask-4)"></path>
                        <path d="M27.2984913,3.90862903 C27.2507825,3.97556452 27.1031709,3.95419355 26.9677922,3.85943548 C26.8348602,3.76629032 26.7647243,3.63524194 26.8128408,3.56830645 L29.3414039,0.0392741935 C29.3899282,-0.0284677419 29.5379476,-0.00588709677 29.6712874,0.0872580645 C29.8058505,0.181612903 29.8755786,0.312258065 29.8270544,0.379596774 L27.2984913,3.90862903 Z" id="Fill-9" fill="#FFFFFF" mask="url(#mask-4)"></path>
                        <path d="M29.4153728,46.895121 C29.4153728,48.4806048 28.1154117,49.7656855 26.5120718,49.7656855 C24.908732,49.7656855 23.6091786,48.4806048 23.6091786,46.895121 L23.6091786,33.9943145 C23.6091786,32.4088306 24.908732,31.12375 26.5120718,31.12375 C28.1154117,31.12375 29.4153728,32.4088306 29.4153728,33.9943145 L29.4153728,46.895121 Z" id="Fill-10" fill="#FFFFFF" mask="url(#mask-4)"></path>
                        <path d="M18.2105476,46.895121 C18.2105476,48.4806048 16.9105864,49.7656855 15.3076544,49.7656855 C13.7043146,49.7656855 12.4047612,48.4806048 12.4047612,46.895121 L12.4047612,33.9943145 C12.4047612,32.4088306 13.7043146,31.12375 15.3076544,31.12375 C16.9105864,31.12375 18.2105476,32.4088306 18.2105476,33.9943145 L18.2105476,46.895121 Z" id="Fill-11" fill="#FFFFFF" mask="url(#mask-4)"></path>
                    </g>
                    <g id="Plus-(Platform-Over)" transform="translate(66.000000, 69.000000)" fill="#FFFFFF">
                        <path d="M28.5683611,17.6912626 C28.5683611,18.5936364 27.8286667,19.3320202 26.9227778,19.3320202 L20.3791944,19.3320202 L20.3791944,25.8572727 C20.3791944,26.7587879 19.6386389,27.4980303 18.7344722,27.4980303 L13.83475,27.4980303 C12.9297222,27.4980303 12.1891667,26.7587879 12.1891667,25.8572727 L12.1891667,19.3320202 L5.64558333,19.3320202 C4.74055556,19.3320202 4,18.5936364 4,17.6912626 L4,12.8067677 C4,11.9043939 4.74055556,11.1660101 5.64558333,11.1660101 L12.1891667,11.1660101 L12.1891667,4.64075758 C12.1891667,3.73838384 12.9297222,3 13.83475,3 L18.7344722,3 C19.6386389,3 20.3791944,3.73838384 20.3791944,4.64075758 L20.3791944,11.1660101 L26.9227778,11.1660101 C27.8286667,11.1660101 28.5683611,11.9043939 28.5683611,12.8067677 L28.5683611,17.6912626 Z" id="Fill-38"></path>
                    </g>
                </g>
            </g>
        </g>
    </g>
</svg>