<svg width="110" height="119" viewBox="0 0 110 119" version="1.1" xmlns="http://www.w3.org/2000/svg" xmlns:xlink="http://www.w3.org/1999/xlink">
<g fill="none">
<rect width="23.4265" height="23.3184" transform="translate(0 95.0124)" fill="#03B4EE"/>
<rect width="23.4265" height="23.3184" transform="translate(28.6323 95.0124)" fill="#03B4EE"/>
<rect width="23.4265" height="23.3184" transform="translate(57.2646 95.0124)" fill="#03B4EE"/>
<rect width="23.4265" height="23.3184" transform="translate(85.897 95.0124)" fill="#03B4EE"/>
<rect width="23.4265" height="23.3184" transform="translate(0 66.512)" fill="#03B4EE"/>
<rect width="23.4265" height="23.3184" transform="translate(28.6323 66.512)" fill="#03B4EE"/>
<rect width="23.4265" height="23.3184" transform="translate(57.2646 66.512)" fill="#03B4EE"/>
<rect width="23.4265" height="23.3184" transform="translate(85.897 66.512)" fill="#03B4EE"/>
<rect width="23.4265" height="23.3184" transform="translate(0 38.0118)" fill="#03B4EE"/>
<rect width="23.4265" height="23.3184" transform="translate(28.6323 38.0118)" fill="#03B4EE"/>
<rect width="23.4265" height="23.3184" transform="translate(57.2646 38.0118)" fill="#03B4EE"/>
<rect width="23.4265" height="23.3184" transform="translate(85.897 38.0118)" fill="#03B4EE"/>
<rect width="23.4265" height="23.3184" transform="translate(85.897 9.51155)" fill="#03B4EE"/>
<rect width="23.4265" height="23.3184" transform="translate(55.9814 7.75659)" fill="#03B4EE"/>
<rect width="23.4265" height="23.3184" transform="translate(24.5078 3.41296)" fill="#03B4EE"/>
<rect width="23.4265" height="23.3184" transform="translate(0 95.0124)" fill="white" fill-opacity="0.85"/>
<rect x="0.75" y="0.75" width="21.9265" height="21.8184" stroke-width="1.5" transform="translate(0 95.0124)" stroke="#03B4EE"/>
<rect width="23.4265" height="23.3184" transform="translate(28.6323 95.0124)" fill="white" fill-opacity="0.85"/>
<rect x="0.75" y="0.75" width="21.9265" height="21.8184" stroke-width="1.5" transform="translate(28.6323 95.0124)" stroke="#03B4EE"/>
<rect width="23.4265" height="23.3184" transform="translate(57.2646 95.0124)" fill="white" fill-opacity="0.85"/>
<rect x="0.75" y="0.75" width="21.9265" height="21.8184" stroke-width="1.5" transform="translate(57.2646 95.0124)" stroke="#03B4EE"/>
<rect width="23.4265" height="23.3184" transform="translate(85.897 95.0124)" fill="white" fill-opacity="0.85"/>
<rect x="0.75" y="0.75" width="21.9265" height="21.8184" stroke-width="1.5" transform="translate(85.897 95.0124)" stroke="#03B4EE"/>
<rect width="23.4265" height="23.3184" transform="translate(0 66.512)" fill="white" fill-opacity="0.85"/>
<rect x="0.75" y="0.75" width="21.9265" height="21.8184" stroke-width="1.5" transform="translate(0 66.512)" stroke="#03B4EE"/>
<rect width="23.4265" height="23.3184" transform="translate(28.6323 66.512)" fill="white" fill-opacity="0.85"/>
<rect x="0.75" y="0.75" width="21.9265" height="21.8184" stroke-width="1.5" transform="translate(28.6323 66.512)" stroke="#03B4EE"/>
<rect width="23.4265" height="23.3184" transform="translate(57.2646 66.512)" fill="white" fill-opacity="0.85"/>
<rect x="0.75" y="0.75" width="21.9265" height="21.8184" stroke-width="1.5" transform="translate(57.2646 66.512)" stroke="#03B4EE"/>
<rect width="23.4265" height="23.3184" transform="translate(85.897 66.512)" fill="white" fill-opacity="0.85"/>
<rect x="0.75" y="0.75" width="21.9265" height="21.8184" stroke-width="1.5" transform="translate(85.897 66.512)" stroke="#03B4EE"/>
<rect width="23.4265" height="23.3184" transform="translate(0 38.0118)" fill="white" fill-opacity="0.85"/>
<rect x="0.75" y="0.75" width="21.9265" height="21.8184" stroke-width="1.5" transform="translate(0 38.0118)" stroke="#03B4EE"/>
<rect width="23.4265" height="23.3184" transform="translate(28.6323 38.0118)" fill="white" fill-opacity="0.85"/>
<rect x="0.75" y="0.75" width="21.9265" height="21.8184" stroke-width="1.5" transform="translate(28.6323 38.0118)" stroke="#03B4EE"/>
<rect width="23.4265" height="23.3184" transform="translate(57.2646 38.0118)" fill="white" fill-opacity="0.85"/>
<rect x="0.75" y="0.75" width="21.9265" height="21.8184" stroke-width="1.5" transform="translate(57.2646 38.0118)" stroke="#03B4EE"/>
<rect width="23.4265" height="23.3184" transform="translate(85.897 38.0118)" fill="white" fill-opacity="0.85"/>
<rect x="0.75" y="0.75" width="21.9265" height="21.8184" stroke-width="1.5" transform="translate(85.897 38.0118)" stroke="#03B4EE"/>
<rect width="23.4265" height="23.3184" transform="translate(52.4561 4.34373)" fill="white" fill-opacity="0.85"/>
<rect x="0.75" y="0.75" width="21.9265" height="21.8184" stroke-width="1.5" transform="translate(52.4561 4.34373)" stroke="#03B4EE"/>
<rect width="23.4265" height="23.3184" transform="translate(20.9824 0)" fill="white" fill-opacity="0.85"/>
<rect x="0.75" y="0.75" width="21.9265" height="21.8184" stroke-width="1.5" transform="translate(20.9824 0)" stroke="#03B4EE"/>
<rect width="23.4265" height="23.3184" transform="translate(85.897 9.51155)" fill="white" fill-opacity="0.85"/>
<rect x="0.75" y="0.75" width="21.9265" height="21.8184" stroke-width="1.5" transform="translate(85.897 9.51155)" stroke="#03B4EE"/>
</g>
</svg>