<svg xmlns="http://www.w3.org/2000/svg" width="32" height="32">
  <g fill="none" fill-rule="evenodd">
    <g stroke-linecap="round" stroke-width="2">
      <path stroke="#0085CA" stroke-linejoin="round" d="M20 26.83c-.8.59-1.7 1.17-2.69 1.78-.4.25-.84.38-1.29.39h-.06c-.43 0-.87-.14-1.27-.4C8.29 24.75 6 21.46 6 15.83V10.2a2.95 2.95 0 0 1 1.35-2.44l7.33-4.35a2.38 2.38 0 0 1 2.6-.02l7.37 4.37.11.07A3 3 0 0 1 26 10.27v5.55c0 3.44-.86 6-2.99 8.37"/>
      <path stroke="#FF6901" d="M12 16l3 3 6-6"/>
    </g>
  </g>
</svg>
