<svg height="512pt" viewBox="0 0 512 512" width="512pt" xmlns="http://www.w3.org/2000/svg"><g fill="#4dbbeb"><path d="m10 462h40v40h-40zm0 0"/><path d="m10 10h40v40h-40zm0 0"/><path d="m462 462h40v40h-40zm0 0"/><path d="m462 10h40v40h-40zm0 0"/></g><path d="m319 236h123l-61.5-105.957031zm0 0" fill="#feb756"/><path d="m148 93h88v143h-88zm0 0" fill="#4dbbeb"/><path d="m188 283.613281c-26.308594 10.066407-45 35.539063-45 65.386719s18.691406 55.320312 45 65.386719c26.308594-10.066407 45-35.539063 45-65.386719s-18.691406-55.320312-45-65.386719zm0 0" fill="#fd3c65"/><path d="m339 40h20c5.523438 0 10-4.476562 10-10s-4.476562-10-10-10h-20c-5.523438 0-10 4.476562-10 10s4.476562 10 10 10zm0 0"/><path d="m399 40h20c5.523438 0 10-4.476562 10-10s-4.476562-10-10-10h-20c-5.523438 0-10 4.476562-10 10s4.476562 10 10 10zm0 0"/><path d="m50 0h-40c-5.523438 0-10 4.476562-10 10v40c0 5.523438 4.476562 10 10 10h40c5.523438 0 10-4.476562 10-10v-40c0-5.523438-4.476562-10-10-10zm-10 40h-20v-20h20zm0 0"/><path d="m56 452h-40c-5.523438 0-10 4.476562-10 10v40c0 5.523438 4.476562 10 10 10h40c5.523438 0 10-4.476562 10-10v-40c0-5.523438-4.476562-10-10-10zm-10 40h-20v-20h20zm0 0"/><path d="m502 0h-40c-5.523438 0-10 4.476562-10 10v40c0 5.523438 4.476562 10 10 10h40c5.523438 0 10-4.476562 10-10v-40c0-5.523438-4.476562-10-10-10zm-10 40h-20v-20h20zm0 0"/><path d="m502 452h-40c-5.523438 0-10 4.476562-10 10v40c0 5.523438 4.476562 10 10 10h40c5.523438 0 10-4.476562 10-10v-40c0-5.523438-4.476562-10-10-10zm-10 40h-20v-20h20zm0 0"/><path d="m236 83h-143c-5.523438 0-10 4.476562-10 10v143c0 5.523438 4.476562 10 10 10h143c5.523438 0 10-4.476562 10-10v-143c0-5.523438-4.476562-10-10-10zm-10 143h-123v-123h123zm0 0"/><path d="m450.648438 230.980469-83-143c-1.789063-3.082031-5.085938-4.980469-8.648438-4.980469s-6.859375 1.898438-8.648438 4.980469l-83 143c-1.796874 3.09375-1.800781 6.910156-.015624 10.007812 1.78125 3.101563 5.085937 5.011719 8.664062 5.011719h166c3.578125 0 6.882812-1.910156 8.664062-5.011719 1.785157-3.097656 1.78125-6.914062-.015624-10.007812zm-157.28125-4.980469 65.632812-113.078125 65.632812 113.078125zm0 0"/><path d="m163 429c44.113281 0 80-35.886719 80-80s-35.886719-80-80-80-80 35.886719-80 80 35.886719 80 80 80zm0-140c33.085938 0 60 26.914062 60 60s-26.914062 60-60 60-60-26.914062-60-60 26.914062-60 60-60zm0 0"/><path d="m303.070312 426.070312 123-123c3.90625-3.90625 3.90625-10.234374 0-14.140624s-10.234374-3.90625-14.140624 0l-123 123c-3.90625 3.902343-3.90625 10.234374 0 14.140624 1.953124 1.953126 4.511718 2.929688 7.070312 2.929688s5.117188-.976562 7.070312-2.929688zm0 0"/><path d="m30 123c5.523438 0 10-4.476562 10-10v-20c0-5.523438-4.476562-10-10-10s-10 4.476562-10 10v20c0 5.523438 4.476562 10 10 10zm0 0"/><path d="m20 176c0 5.523438 4.476562 10 10 10s10-4.476562 10-10v-20c0-5.523438-4.476562-10-10-10s-10 4.476562-10 10zm0 0"/><path d="m20 236c0 5.523438 4.476562 10 10 10s10-4.476562 10-10v-20c0-5.523438-4.476562-10-10-10s-10 4.476562-10 10zm0 0"/><path d="m20 296c0 5.523438 4.476562 10 10 10s10-4.476562 10-10v-20c0-5.523438-4.476562-10-10-10s-10 4.476562-10 10zm0 0"/><path d="m20 359c0 5.523438 4.476562 10 10 10s10-4.476562 10-10v-23c0-5.523438-4.476562-10-10-10s-10 4.476562-10 10zm0 0"/><path d="m20 419c0 5.523438 4.476562 10 10 10s10-4.476562 10-10v-20c0-5.523438-4.476562-10-10-10s-10 4.476562-10 10zm0 0"/><path d="m482 123c5.523438 0 10-4.476562 10-10v-20c0-5.523438-4.476562-10-10-10s-10 4.476562-10 10v20c0 5.523438 4.476562 10 10 10zm0 0"/><path d="m472 176c0 5.523438 4.476562 10 10 10s10-4.476562 10-10v-20c0-5.523438-4.476562-10-10-10s-10 4.476562-10 10zm0 0"/><path d="m472 236c0 5.523438 4.476562 10 10 10s10-4.476562 10-10v-20c0-5.523438-4.476562-10-10-10s-10 4.476562-10 10zm0 0"/><path d="m472 296c0 5.523438 4.476562 10 10 10s10-4.476562 10-10v-20c0-5.523438-4.476562-10-10-10s-10 4.476562-10 10zm0 0"/><path d="m472 359c0 5.523438 4.476562 10 10 10s10-4.476562 10-10v-23c0-5.523438-4.476562-10-10-10s-10 4.476562-10 10zm0 0"/><path d="m472 419c0 5.523438 4.476562 10 10 10s10-4.476562 10-10v-20c0-5.523438-4.476562-10-10-10s-10 4.476562-10 10zm0 0"/><path d="m116 472h-23c-5.523438 0-10 4.476562-10 10s4.476562 10 10 10h23c5.523438 0 10-4.476562 10-10s-4.476562-10-10-10zm0 0"/><path d="m176 472h-20c-5.523438 0-10 4.476562-10 10s4.476562 10 10 10h20c5.523438 0 10-4.476562 10-10s-4.476562-10-10-10zm0 0"/><path d="m236 472h-20c-5.523438 0-10 4.476562-10 10s4.476562 10 10 10h20c5.523438 0 10-4.476562 10-10s-4.476562-10-10-10zm0 0"/><path d="m296 472h-20c-5.523438 0-10 4.476562-10 10s4.476562 10 10 10h20c5.523438 0 10-4.476562 10-10s-4.476562-10-10-10zm0 0"/><path d="m359 472h-20c-5.523438 0-10 4.476562-10 10s4.476562 10 10 10h20c5.523438 0 10-4.476562 10-10s-4.476562-10-10-10zm0 0"/><path d="m419 472h-20c-5.523438 0-10 4.476562-10 10s4.476562 10 10 10h20c5.523438 0 10-4.476562 10-10s-4.476562-10-10-10zm0 0"/><path d="m93 40h23c5.523438 0 10-4.476562 10-10s-4.476562-10-10-10h-23c-5.523438 0-10 4.476562-10 10s4.476562 10 10 10zm0 0"/><path d="m156 40h20c5.523438 0 10-4.476562 10-10s-4.476562-10-10-10h-20c-5.523438 0-10 4.476562-10 10s4.476562 10 10 10zm0 0"/><path d="m236 20h-20c-5.523438 0-10 4.476562-10 10s4.476562 10 10 10h20c5.523438 0 10-4.476562 10-10s-4.476562-10-10-10zm0 0"/><path d="m276 40h20c5.523438 0 10-4.476562 10-10s-4.476562-10-10-10h-20c-5.523438 0-10 4.476562-10 10s4.476562 10 10 10zm0 0"/></svg>