<?xml version="1.0" encoding="iso-8859-1"?>
<!-- Generator: Adobe Illustrator 19.0.0, SVG Export Plug-In . SVG Version: 6.00 Build 0)  -->
<svg xmlns="http://www.w3.org/2000/svg" xmlns:xlink="http://www.w3.org/1999/xlink" version="1.1" id="Capa_1" x="0px" y="0px" viewBox="0 0 512 512" style="enable-background:new 0 0 512 512;" xml:space="preserve" width="512px" height="512px">
<g>
	<g>
		<path d="M50,0H10C4.477,0,0,4.477,0,10v40c0,5.523,4.477,10,10,10h40c5.523,0,10-4.477,10-10V10C60,4.477,55.523,0,50,0z M40,40    H20V20h20V40z" fill="#006DF0"/>
	</g>
</g>
<g>
	<g>
		<path d="M50,452H10c-5.523,0-10,4.477-10,10v40c0,5.523,4.477,10,10,10h40c5.523,0,10-4.477,10-10v-40    C60,456.477,55.523,452,50,452z M40,492H20v-20h20V492z" fill="#006DF0"/>
	</g>
</g>
<g>
	<g>
		<path d="M502,0h-40c-5.523,0-10,4.477-10,10v40c0,5.523,4.477,10,10,10h40c5.523,0,10-4.477,10-10V10C512,4.477,507.523,0,502,0z     M492,40h-20V20h20V40z" fill="#006DF0"/>
	</g>
</g>
<g>
	<g>
		<path d="M502,452h-40c-5.523,0-10,4.477-10,10v40c0,5.523,4.477,10,10,10h40c5.523,0,10-4.477,10-10v-40    C512,456.477,507.523,452,502,452z M492,492h-20v-20h20V492z" fill="#006DF0"/>
	</g>
</g>
<g>
	<g>
		<path d="M236,83H93c-5.523,0-10,4.477-10,10v143c0,5.523,4.477,10,10,10h143c5.523,0,10-4.477,10-10V93    C246,87.477,241.523,83,236,83z M226,226H103V103h123V226z" fill="#006DF0"/>
	</g>
</g>
<g>
	<g>
		<path d="M450.649,230.98l-83-143C365.859,84.897,362.564,83,359,83c-3.564,0-6.859,1.897-8.649,4.98l-83,143    c-1.795,3.094-1.802,6.911-0.017,10.01c1.785,3.099,5.089,5.01,8.666,5.01h166c3.577,0,6.881-1.91,8.666-5.01    C452.451,237.89,452.444,234.074,450.649,230.98z M293.367,226L359,112.921L424.633,226H293.367z" fill="#006DF0"/>
	</g>
</g>
<g>
	<g>
		<path d="M163,269c-44.112,0-80,35.888-80,80s35.888,80,80,80s80-35.888,80-80S207.112,269,163,269z M163,409    c-33.084,0-60-26.916-60-60s26.916-60,60-60s60,26.916,60,60S196.084,409,163,409z" fill="#006DF0"/>
	</g>
</g>
<g>
	<g>
		<path d="M426.071,288.928c-3.905-3.905-10.237-3.905-14.143,0l-123,123c-3.905,3.905-3.905,10.237,0,14.143    c1.953,1.953,4.512,2.929,7.071,2.929s5.12-0.976,7.072-2.929l123-123C429.976,299.166,429.976,292.834,426.071,288.928z" fill="#006DF0"/>
	</g>
</g>
<g>
	<g>
		<path d="M30,83c-5.523,0-10,4.477-10,10v20c0,5.523,4.477,10,10,10s10-4.477,10-10V93C40,87.477,35.523,83,30,83z" fill="#006DF0"/>
	</g>
</g>
<g>
	<g>
		<path d="M30,146c-5.523,0-10,4.477-10,10v20c0,5.523,4.477,10,10,10s10-4.477,10-10v-20C40,150.477,35.523,146,30,146z" fill="#006DF0"/>
	</g>
</g>
<g>
	<g>
		<path d="M30,206c-5.523,0-10,4.477-10,10v20c0,5.523,4.477,10,10,10s10-4.477,10-10v-20C40,210.477,35.523,206,30,206z" fill="#006DF0"/>
	</g>
</g>
<g>
	<g>
		<path d="M30,266c-5.523,0-10,4.477-10,10v20c0,5.523,4.477,10,10,10s10-4.477,10-10v-20C40,270.477,35.523,266,30,266z" fill="#006DF0"/>
	</g>
</g>
<g>
	<g>
		<path d="M30,326c-5.523,0-10,4.477-10,10v23c0,5.523,4.477,10,10,10s10-4.477,10-10v-23C40,330.477,35.523,326,30,326z" fill="#006DF0"/>
	</g>
</g>
<g>
	<g>
		<path d="M30,389c-5.523,0-10,4.477-10,10v20c0,5.523,4.477,10,10,10s10-4.477,10-10v-20C40,393.477,35.523,389,30,389z" fill="#006DF0"/>
	</g>
</g>
<g>
	<g>
		<path d="M482,83c-5.523,0-10,4.477-10,10v20c0,5.523,4.477,10,10,10s10-4.477,10-10V93C492,87.477,487.523,83,482,83z" fill="#006DF0"/>
	</g>
</g>
<g>
	<g>
		<path d="M482,146c-5.523,0-10,4.477-10,10v20c0,5.523,4.477,10,10,10s10-4.477,10-10v-20C492,150.477,487.523,146,482,146z" fill="#006DF0"/>
	</g>
</g>
<g>
	<g>
		<path d="M482,206c-5.523,0-10,4.477-10,10v20c0,5.523,4.477,10,10,10s10-4.477,10-10v-20C492,210.477,487.523,206,482,206z" fill="#006DF0"/>
	</g>
</g>
<g>
	<g>
		<path d="M482,266c-5.523,0-10,4.477-10,10v20c0,5.523,4.477,10,10,10s10-4.477,10-10v-20C492,270.477,487.523,266,482,266z" fill="#006DF0"/>
	</g>
</g>
<g>
	<g>
		<path d="M482,326c-5.523,0-10,4.477-10,10v23c0,5.523,4.477,10,10,10s10-4.477,10-10v-23C492,330.477,487.523,326,482,326z" fill="#006DF0"/>
	</g>
</g>
<g>
	<g>
		<path d="M482,389c-5.523,0-10,4.477-10,10v20c0,5.523,4.477,10,10,10s10-4.477,10-10v-20C492,393.477,487.523,389,482,389z" fill="#006DF0"/>
	</g>
</g>
<g>
	<g>
		<path d="M116,472H93c-5.523,0-10,4.477-10,10s4.477,10,10,10h23c5.523,0,10-4.477,10-10S121.523,472,116,472z" fill="#006DF0"/>
	</g>
</g>
<g>
	<g>
		<path d="M176,472h-20c-5.523,0-10,4.477-10,10s4.477,10,10,10h20c5.523,0,10-4.477,10-10S181.523,472,176,472z" fill="#006DF0"/>
	</g>
</g>
<g>
	<g>
		<path d="M236,472h-20c-5.523,0-10,4.477-10,10s4.477,10,10,10h20c5.523,0,10-4.477,10-10S241.523,472,236,472z" fill="#006DF0"/>
	</g>
</g>
<g>
	<g>
		<path d="M296,472h-20c-5.523,0-10,4.477-10,10s4.477,10,10,10h20c5.523,0,10-4.477,10-10S301.523,472,296,472z" fill="#006DF0"/>
	</g>
</g>
<g>
	<g>
		<path d="M359,472h-20c-5.523,0-10,4.477-10,10s4.477,10,10,10h20c5.523,0,10-4.477,10-10S364.523,472,359,472z" fill="#006DF0"/>
	</g>
</g>
<g>
	<g>
		<path d="M419,472h-20c-5.523,0-10,4.477-10,10s4.477,10,10,10h20c5.523,0,10-4.477,10-10S424.523,472,419,472z" fill="#006DF0"/>
	</g>
</g>
<g>
	<g>
		<path d="M116,20H93c-5.523,0-10,4.477-10,10s4.477,10,10,10h23c5.523,0,10-4.477,10-10S121.523,20,116,20z" fill="#006DF0"/>
	</g>
</g>
<g>
	<g>
		<path d="M176,20h-20c-5.523,0-10,4.477-10,10s4.477,10,10,10h20c5.523,0,10-4.477,10-10S181.523,20,176,20z" fill="#006DF0"/>
	</g>
</g>
<g>
	<g>
		<path d="M236,20h-20c-5.523,0-10,4.477-10,10s4.477,10,10,10h20c5.523,0,10-4.477,10-10S241.523,20,236,20z" fill="#006DF0"/>
	</g>
</g>
<g>
	<g>
		<path d="M296,20h-20c-5.523,0-10,4.477-10,10s4.477,10,10,10h20c5.523,0,10-4.477,10-10S301.523,20,296,20z" fill="#006DF0"/>
	</g>
</g>
<g>
	<g>
		<path d="M359,20h-20c-5.523,0-10,4.477-10,10s4.477,10,10,10h20c5.523,0,10-4.477,10-10S364.523,20,359,20z" fill="#006DF0"/>
	</g>
</g>
<g>
	<g>
		<path d="M419,20h-20c-5.523,0-10,4.477-10,10s4.477,10,10,10h20c5.523,0,10-4.477,10-10S424.523,20,419,20z" fill="#006DF0"/>
	</g>
</g>
<g>
</g>
<g>
</g>
<g>
</g>
<g>
</g>
<g>
</g>
<g>
</g>
<g>
</g>
<g>
</g>
<g>
</g>
<g>
</g>
<g>
</g>
<g>
</g>
<g>
</g>
<g>
</g>
<g>
</g>
</svg>
