<?xml version="1.0" encoding="UTF-8" standalone="no"?>
<!-- Created with Inkscape (http://www.inkscape.org/) -->

<svg
   xmlns:dc="http://purl.org/dc/elements/1.1/"
   xmlns:cc="http://creativecommons.org/ns#"
   xmlns:rdf="http://www.w3.org/1999/02/22-rdf-syntax-ns#"
   xmlns:svg="http://www.w3.org/2000/svg"
   xmlns="http://www.w3.org/2000/svg"
   xmlns:sodipodi="http://sodipodi.sourceforge.net/DTD/sodipodi-0.dtd"
   xmlns:inkscape="http://www.inkscape.org/namespaces/inkscape"
   width="24.999949mm"
   height="24.999949mm"
   viewBox="0 0 24.999949 24.999949"
   version="1.1"
   id="svg8"
   inkscape:version="0.92.4 (unknown)"
   sodipodi:docname="SQS.svg">
  <defs
     id="defs2">
    <clipPath
       clipPathUnits="userSpaceOnUse"
       id="clipPath366">
      <path
         d="M 0,0 H 595.276 V 841.89 H 0 Z"
         id="path364"
         inkscape:connector-curvature="0" />
    </clipPath>
    <clipPath
       clipPathUnits="userSpaceOnUse"
       id="clipPath366-3">
      <path
         d="M 0,0 H 595.276 V 841.89 H 0 Z"
         id="path364-6"
         inkscape:connector-curvature="0" />
    </clipPath>
    <clipPath
       clipPathUnits="userSpaceOnUse"
       id="clipPath398">
      <path
         d="M 0,0 H 595.276 V 841.89 H 0 Z"
         id="path396"
         inkscape:connector-curvature="0" />
    </clipPath>
    <clipPath
       clipPathUnits="userSpaceOnUse"
       id="clipPath422">
      <path
         d="M 0,0 H 595.276 V 841.89 H 0 Z"
         id="path420"
         inkscape:connector-curvature="0" />
    </clipPath>
    <clipPath
       clipPathUnits="userSpaceOnUse"
       id="clipPath446">
      <path
         d="M 0,0 H 595.276 V 841.89 H 0 Z"
         id="path444"
         inkscape:connector-curvature="0" />
    </clipPath>
    <clipPath
       clipPathUnits="userSpaceOnUse"
       id="clipPath478">
      <path
         d="M 0,0 H 595.276 V 841.89 H 0 Z"
         id="path476"
         inkscape:connector-curvature="0" />
    </clipPath>
    <clipPath
       clipPathUnits="userSpaceOnUse"
       id="clipPath550">
      <path
         d="M 0,0 H 595.276 V 841.89 H 0 Z"
         id="path548"
         inkscape:connector-curvature="0" />
    </clipPath>
    <clipPath
       clipPathUnits="userSpaceOnUse"
       id="clipPath590">
      <path
         d="M 0,0 H 595.276 V 841.89 H 0 Z"
         id="path588"
         inkscape:connector-curvature="0" />
    </clipPath>
    <clipPath
       clipPathUnits="userSpaceOnUse"
       id="clipPath614">
      <path
         d="M 0,0 H 595.276 V 841.89 H 0 Z"
         id="path612"
         inkscape:connector-curvature="0" />
    </clipPath>
  </defs>
  <sodipodi:namedview
     id="base"
     pagecolor="#ffffff"
     bordercolor="#666666"
     borderopacity="1.0"
     inkscape:pageopacity="0.0"
     inkscape:pageshadow="2"
     inkscape:zoom="3.959798"
     inkscape:cx="118.67287"
     inkscape:cy="65.17175"
     inkscape:document-units="mm"
     inkscape:current-layer="layer1"
     showgrid="false"
     inkscape:pagecheckerboard="true"
     fit-margin-top="0"
     fit-margin-left="0"
     fit-margin-right="0"
     fit-margin-bottom="0"
     inkscape:window-width="1920"
     inkscape:window-height="1012"
     inkscape:window-x="1920"
     inkscape:window-y="0"
     inkscape:window-maximized="1" />
  <metadata
     id="metadata5">
    <rdf:RDF>
      <cc:Work
         rdf:about="">
        <dc:format>image/svg+xml</dc:format>
        <dc:type
           rdf:resource="http://purl.org/dc/dcmitype/StillImage" />
        <dc:title></dc:title>
      </cc:Work>
    </rdf:RDF>
  </metadata>
  <g
     inkscape:label="Layer 1"
     inkscape:groupmode="layer"
     id="layer1"
     transform="translate(147.57921,-49.587822)">
    <g
       transform="matrix(0.35277777,0,0,-0.35277777,-170.03295,2.5077452)"
       id="g2060">
      <g
         inkscape:export-ydpi="96"
         inkscape:export-xdpi="96"
         transform="translate(23.963595,-233.32974)"
         id="g360">
        <g
           clip-path="url(#clipPath366-3)"
           id="g362">
          <g
             transform="translate(75.1178,29.0084)"
             id="g368">
            <path
               inkscape:connector-curvature="0"
               id="path370"
               style="fill:#d1d6da;fill-opacity:1;fill-rule:nonzero;stroke:none"
               d="m 0,0 c -19.538,0 -35.433,15.895 -35.433,35.433 0,19.537 15.895,35.433 35.433,35.433 19.538,0 35.433,-15.896 35.433,-35.433 C 35.433,15.895 19.538,0 0,0 m 0,70.308 c -19.23,0 -34.875,-15.645 -34.875,-34.875 0,-19.231 15.645,-34.876 34.875,-34.876 19.231,0 34.876,15.645 34.876,34.876 0,19.23 -15.645,34.875 -34.876,34.875" />
          </g>
          <g
             transform="translate(78.7094,68.2621)"
             id="g372">
            <path
               inkscape:connector-curvature="0"
               id="path374"
               style="fill:#d1d6da;fill-opacity:1;fill-rule:nonzero;stroke:none"
               d="m 0,0 h -7.686 c -1.899,0 -1.899,-8.124 0,-8.124 H 0 c 0.054,0 0.106,0.006 0.157,0.019 0.144,0.036 0.276,0.122 0.395,0.249 -1.957,1.168 -3.966,2.37 -3.966,2.37 l 0.004,0.006 c -0.007,0.004 -0.012,0.007 -0.012,0.007 l 1.14,1.906 c 0,0 1.828,-1.095 3.594,-2.153 0.022,0.152 0.041,0.309 0.056,0.467 C 1.593,-2.915 1.137,0 0,0 m 0.906,-4.98 c -1.69,1.014 -3.326,1.997 -3.326,1.997 v 0 L -4,-5.623 -4.002,-5.625 c 0,0 1.657,-0.989 3.461,-2.066 h -7.037 c -1.394,0 -1.394,7.258 0,7.258 h 7.47 c 0.815,0 1.153,-2.482 1.015,-4.543 C 0.906,-4.977 0.906,-4.978 0.906,-4.98" />
          </g>
          <g
             transform="translate(95.3963,65.6777)"
             id="g376">
            <path
               inkscape:connector-curvature="0"
               id="path378"
               style="fill:#d1d6da;fill-opacity:1;fill-rule:nonzero;stroke:none"
               d="m 0,0 c -0.021,0.002 -0.044,0.003 -0.067,0.004 -0.004,0 -0.009,0 -0.015,0 h -0.005 c -0.005,0 -0.008,0.001 -0.014,0.001 L -10.343,0.001 c -0.305,0.006 -0.552,0.251 -0.552,0.551 v 1.065 c 0,0.303 0.252,0.55 0.561,0.55 H -2.26 C -1.954,2.162 -1.707,1.918 -1.707,1.618 V 0.951 h 0.019 v 0 L 1.74,0.958 c 0,0 0.093,4.281 -1.822,4.281 h -0.005 c -0.005,0 -0.009,0.001 -0.014,0.001 h -12.412 c -0.392,0 -0.699,-0.175 -0.941,-0.452 -0.264,0.278 -0.564,0.435 -0.9,0.435 h -12.352 c -0.347,0 -0.655,-0.167 -0.924,-0.461 -0.243,0.29 -0.552,0.474 -0.947,0.474 h -12.412 c -2.522,0 -2.522,-8.165 0,-8.165 h 10.255 c 0.31,0 0.561,-0.246 0.561,-0.55 v -1.064 c 0,-0.305 -0.251,-0.551 -0.561,-0.551 h -8.084 c -0.31,0 -0.562,0.246 -0.562,0.551 v 0.665 l -3.43,-0.005 c 0,0 -0.093,-4.281 1.821,-4.281 h 12.412 c 0.377,0 0.701,0.159 0.973,0.432 0.263,-0.276 0.562,-0.432 0.898,-0.432 h 12.352 c 0.426,0 0.794,0.252 1.104,0.684 0.293,-0.175 0.483,-0.289 0.529,-0.318 0.329,-0.2 0.727,-0.362 1.079,-0.362 h 1.115 v 0 H -0.082 C 2.596,-8.16 2.623,-0.162 0,0 m -27.609,-7.082 c -0.077,-0.124 -0.161,-0.233 -0.252,-0.326 -0.204,-0.205 -0.442,-0.323 -0.716,-0.323 h -12.412 c -1.167,0 -1.353,2.544 -1.383,3.421 h 2.56 v -0.233 c 0,-0.543 0.446,-0.984 0.994,-0.984 h 8.084 c 0.548,0 0.994,0.441 0.994,0.984 v 1.064 c 0,0.542 -0.446,0.983 -0.994,0.983 l -10.255,-10e-4 c -1.997,0 -1.997,7.3 0,7.3 h 12.412 c 0.28,0 0.505,-0.148 0.687,-0.383 0.083,-0.109 0.157,-0.237 0.223,-0.377 0.384,-0.824 0.48,-2.095 0.5,-2.663 h -2.584 v 0.234 c 0,0.542 -0.446,0.983 -0.994,0.983 h -8.084 c -0.549,0 -0.995,-0.441 -0.995,-0.983 V 0.549 c 0,-0.542 0.446,-0.984 0.995,-0.984 l 10.24,0.003 h 0.012 c 1.758,0 2.08,-4.864 0.968,-6.65 m -1.294,8.032 c -0.038,-0.309 -0.068,-0.627 -0.09,-0.949 l -9.836,-0.003 c -0.31,0 -0.562,0.247 -0.562,0.551 v 1.065 c 0,0.303 0.252,0.55 0.562,0.55 h 8.084 c 0.309,0 0.561,-0.247 0.561,-0.55 V 0.947 Z m 15.545,-7.87 c -0.072,-0.135 -0.148,-0.255 -0.229,-0.359 -0.225,-0.288 -0.481,-0.452 -0.772,-0.452 h -12.342 c -0.239,0 -0.455,0.11 -0.649,0.308 1.381,2.008 0.976,7.404 -1.216,7.423 0.022,0.324 0.051,0.642 0.087,0.951 l 1.723,0.004 c 0,0 0.048,2.229 -0.644,3.47 0.207,0.233 0.439,0.365 0.699,0.365 h 12.342 c 0.248,0 0.472,-0.12 0.67,-0.334 0.095,-0.099 0.182,-0.219 0.264,-0.358 0.752,-1.262 1.069,-4.042 0.955,-6.591 -0.007,-0.145 -0.014,-0.29 -0.024,-0.432 -0.03,-0.467 -0.076,-0.922 -0.135,-1.354 -0.022,-0.155 -0.046,-0.309 -0.072,-0.458 -0.151,-0.885 -0.369,-1.649 -0.657,-2.183 m 13.276,-0.807 h -10.419 -1.037 c -0.283,0 -0.633,0.117 -0.961,0.301 -0.063,0.035 -0.251,0.145 -0.526,0.308 0.3,0.558 0.533,1.306 0.7,2.157 0.096,-0.058 0.162,-0.098 0.19,-0.114 0.354,-0.211 1.023,-0.448 1.608,-0.448 h 0.072 v -0.001 h 8.217 c 0.548,0 0.993,0.441 0.993,0.984 v 1.064 c 0,0.542 -0.445,0.983 -0.993,0.983 h -9.802 c 0.129,2.682 -0.254,5.588 -1.148,6.94 0.196,0.227 0.427,0.359 0.695,0.359 h 12.411 c 1.168,0 1.381,-2.547 1.41,-3.422 h -2.583 v 0.233 c 0,0.542 -0.446,0.983 -0.994,0.983 h -8.085 c -0.548,0 -0.994,-0.441 -0.994,-0.983 V 0.552 c 0,-0.542 0.446,-0.983 0.994,-0.983 l 10.252,0.002 c 2.154,0 2.154,-7.298 0,-7.298 m -12.163,3.217 c 0.082,0.505 0.141,1.038 0.179,1.585 h 9.818 c 0.305,-0.006 0.552,-0.25 0.552,-0.55 V -4.54 c 0,-0.304 -0.252,-0.551 -0.562,-0.551 h -8.091 c -0.589,0 -1.241,0.198 -1.786,0.517 -0.017,0.009 -0.055,0.032 -0.11,0.064" />
          </g>
          <g
             transform="translate(96.5279,71.9663)"
             id="g380">
            <path
               inkscape:connector-curvature="0"
               id="path382"
               style="fill:#d1d6da;fill-opacity:1;fill-rule:nonzero;stroke:none"
               d="M 0,0 C -3.191,9.141 -11.841,15.283 -21.524,15.283 -31.207,15.283 -39.857,9.141 -43.048,0 l -0.527,0.184 c 3.27,9.365 12.131,15.657 22.051,15.657 9.919,0 18.781,-6.292 22.05,-15.657 z" />
          </g>
          <g
             transform="translate(75.0034,41.0969)"
             id="g384">
            <path
               inkscape:connector-curvature="0"
               id="path386"
               style="fill:#d1d6da;fill-opacity:1;fill-rule:nonzero;stroke:none"
               d="m 0,0 c -9.776,0 -18.595,6.167 -21.945,15.347 l 0.524,0.191 C -18.151,6.578 -9.542,0.557 0,0.557 c 9.542,0 18.151,6.021 21.422,14.981 l 0.523,-0.191 C 18.595,6.167 9.776,0 0,0" />
          </g>
        </g>
      </g>
      <g
         transform="translate(71.669795,-170.47834)"
         id="g388">
        <path
           inkscape:connector-curvature="0"
           id="path390"
           style="fill:#d1d6da;fill-opacity:1;fill-rule:nonzero;stroke:none"
           d="m 0,0 -0.624,-0.002 -2.659,1.687 0.005,-1.623 -0.691,-0.001 -0.008,2.536 0.613,0.002 2.67,-1.692 -0.005,1.7 0.691,0.002 z" />
      </g>
      <g
         transform="translate(23.963595,-233.32974)"
         id="g392">
        <g
           clip-path="url(#clipPath398)"
           id="g394">
          <g
             transform="translate(46.5876,66.9065)"
             id="g400">
            <path
               inkscape:connector-curvature="0"
               id="path402"
               style="fill:#d1d6da;fill-opacity:1;fill-rule:nonzero;stroke:none"
               d="M 0,0 C 0.371,-0.041 0.668,0.157 0.712,0.561 0.747,0.877 0.675,1.042 0.512,1.245 L 0.987,1.636 C 1.248,1.31 1.378,1.01 1.321,0.489 1.246,-0.193 0.864,-0.812 -0.305,-0.684 c -0.942,0.103 -1.418,0.671 -1.336,1.419 0.088,0.803 0.725,1.193 1.518,1.106 L 0.198,1.806 Z M -0.691,1.118 C -0.871,1.06 -1.016,0.913 -1.042,0.669 -1.069,0.425 -0.959,0.251 -0.796,0.154 c 0.1,-0.055 0.176,-0.08 0.303,-0.1 l 0.12,1.097 c -0.128,0.008 -0.207,0 -0.318,-0.033" />
          </g>
          <g
             transform="translate(46.4286,71.3421)"
             id="g404">
            <path
               inkscape:connector-curvature="0"
               id="path406"
               style="fill:#d1d6da;fill-opacity:1;fill-rule:nonzero;stroke:none"
               d="m 0,0 c -0.133,-0.085 -0.213,-0.164 -0.251,-0.339 -0.048,-0.217 0.063,-0.493 0.422,-0.572 l 1.709,-0.375 -0.155,-0.708 -2.837,0.623 0.152,0.692 0.273,-0.06 c -0.134,0.172 -0.216,0.475 -0.148,0.78 0.06,0.278 0.174,0.458 0.413,0.611 z" />
          </g>
          <g
             transform="translate(49.0516,72.8178)"
             id="g408">
            <path
               inkscape:connector-curvature="0"
               id="path410"
               style="fill:#d1d6da;fill-opacity:1;fill-rule:nonzero;stroke:none"
               d="m 0,0 c -0.177,-0.564 -0.651,-0.678 -1.044,-0.555 l -1.373,0.43 -0.091,-0.292 -0.527,0.165 0.092,0.292 -0.819,0.257 0.216,0.692 0.819,-0.257 0.154,0.489 L -2.047,1.056 -2.2,0.567 -0.87,0.15 c 0.16,-0.05 0.273,-0.004 0.325,0.161 l 0.078,0.25 0.586,-0.183 z" />
          </g>
        </g>
      </g>
      <g
         transform="translate(70.248895,-158.13584)"
         id="g412">
        <path
           inkscape:connector-curvature="0"
           id="path414"
           style="fill:#d1d6da;fill-opacity:1;fill-rule:nonzero;stroke:none"
           d="m 0,0 -0.55,0.216 0.271,0.69 0.55,-0.216 z m 3.169,-1.232 -2.703,1.061 0.265,0.675 2.703,-1.061 z" />
      </g>
      <g
         transform="translate(23.963595,-233.32974)"
         id="g416">
        <g
           clip-path="url(#clipPath422)"
           id="g418">
          <g
             transform="translate(48.3952,77.2304)"
             id="g424">
            <path
               inkscape:connector-curvature="0"
               id="path426"
               style="fill:#d1d6da;fill-opacity:1;fill-rule:nonzero;stroke:none"
               d="m 0,0 2.05,-0.972 -0.311,-0.654 -2.049,0.971 -0.129,-0.272 -0.499,0.237 0.129,0.272 -0.327,0.155 c -0.373,0.177 -0.641,0.587 -0.388,1.121 L -1.347,1.231 -0.793,0.968 -0.915,0.711 C -0.989,0.555 -0.937,0.444 -0.786,0.372 L -0.498,0.236 -0.269,0.72 0.229,0.483 Z" />
          </g>
        </g>
      </g>
      <g
         transform="translate(72.009295,-154.30644)"
         id="g428">
        <path
           inkscape:connector-curvature="0"
           id="path430"
           style="fill:#d1d6da;fill-opacity:1;fill-rule:nonzero;stroke:none"
           d="M 0,0 -0.515,0.289 -0.152,0.935 0.363,0.646 Z M 2.97,-1.654 0.438,-0.233 0.792,0.399 3.325,-1.022 Z" />
      </g>
      <g
         transform="translate(75.700795,-154.67534)"
         id="g432">
        <path
           inkscape:connector-curvature="0"
           id="path434"
           style="fill:#d1d6da;fill-opacity:1;fill-rule:nonzero;stroke:none"
           d="M 0,0 -0.457,0.309 -1.147,2.328 -1.827,1.32 -2.367,1.685 -1.17,3.46 -0.712,3.151 -0.032,1.118 0.698,2.2 1.238,1.835 Z" />
      </g>
      <g
         transform="translate(74.773695,-150.10144)"
         id="g436">
        <path
           inkscape:connector-curvature="0"
           id="path438"
           style="fill:#d1d6da;fill-opacity:1;fill-rule:nonzero;stroke:none"
           d="M 0,0 -0.461,0.369 0.002,0.948 0.463,0.579 Z M 2.66,-2.115 0.394,-0.301 0.847,0.264 3.113,-1.55 Z" />
      </g>
      <g
         transform="translate(23.963595,-233.32974)"
         id="g440">
        <g
           clip-path="url(#clipPath446)"
           id="g442">
          <g
             transform="translate(54.0313,83.674)"
             id="g448">
            <path
               inkscape:connector-curvature="0"
               id="path450"
               style="fill:#d1d6da;fill-opacity:1;fill-rule:nonzero;stroke:none"
               d="M 0,0 C 0.27,-0.258 0.625,-0.282 0.907,0.012 1.127,0.241 1.17,0.416 1.164,0.676 L 1.779,0.697 C 1.788,0.279 1.708,-0.038 1.346,-0.417 0.871,-0.912 0.191,-1.171 -0.659,-0.357 -1.343,0.298 -1.375,1.039 -0.854,1.582 -0.295,2.166 0.448,2.088 1.024,1.536 L 1.257,1.313 Z M 0.134,1.308 C -0.045,1.371 -0.25,1.343 -0.419,1.166 -0.589,0.989 -0.608,0.783 -0.538,0.607 -0.492,0.502 -0.447,0.436 -0.358,0.343 L 0.405,1.14 C 0.309,1.225 0.241,1.267 0.134,1.308" />
          </g>
          <g
             transform="translate(56.6068,87.2961)"
             id="g452">
            <path
               inkscape:connector-curvature="0"
               id="path454"
               style="fill:#d1d6da;fill-opacity:1;fill-rule:nonzero;stroke:none"
               d="m 0,0 c -0.157,0.013 -0.269,-0.001 -0.405,-0.116 -0.171,-0.144 -0.25,-0.43 -0.013,-0.711 l 1.129,-1.337 -0.554,-0.468 -1.873,2.219 0.541,0.457 0.18,-0.213 c -0.002,0.218 0.118,0.508 0.356,0.709 0.218,0.184 0.418,0.258 0.7,0.234 z" />
          </g>
          <g
             transform="translate(59.5897,86.8784)"
             id="g456">
            <path
               inkscape:connector-curvature="0"
               id="path458"
               style="fill:#d1d6da;fill-opacity:1;fill-rule:nonzero;stroke:none"
               d="M 0,0 C -0.483,-0.341 -0.929,-0.144 -1.167,0.193 L -1.996,1.368 -2.247,1.191 -2.565,1.642 -2.315,1.819 -2.81,2.52 -2.218,2.938 -1.723,2.237 -1.304,2.532 -0.985,2.082 -1.404,1.786 -0.6,0.647 C -0.504,0.511 -0.386,0.478 -0.244,0.578 L -0.03,0.729 0.323,0.228 Z" />
          </g>
          <g
             transform="translate(60.4394,88.8822)"
             id="g460">
            <path
               inkscape:connector-curvature="0"
               id="path462"
               style="fill:#d1d6da;fill-opacity:1;fill-rule:nonzero;stroke:none"
               d="M 0,0 C 0.185,-0.325 0.519,-0.449 0.872,-0.247 1.149,-0.09 1.24,0.065 1.309,0.316 L 1.904,0.162 C 1.794,-0.242 1.627,-0.523 1.171,-0.782 0.576,-1.122 -0.15,-1.177 -0.733,-0.155 -1.203,0.668 -1.022,1.387 -0.368,1.76 0.334,2.161 1.024,1.874 1.419,1.181 L 1.579,0.9 Z M 0.5,1.216 C 0.347,1.327 0.143,1.359 -0.07,1.237 -0.283,1.116 -0.36,0.924 -0.342,0.735 -0.329,0.621 -0.305,0.545 -0.246,0.431 L 0.713,0.978 C 0.645,1.086 0.592,1.146 0.5,1.216" />
          </g>
          <g
             transform="translate(64.2238,89.4032)"
             id="g464">
            <path
               inkscape:connector-curvature="0"
               id="path466"
               style="fill:#d1d6da;fill-opacity:1;fill-rule:nonzero;stroke:none"
               d="m 0,0 c -0.42,-0.181 -0.819,-0.299 -1.303,-0.107 l 0.248,0.623 c 0.315,-0.125 0.615,-0.031 0.82,0.057 0.23,0.1 0.437,0.28 0.351,0.48 -0.057,0.133 -0.169,0.194 -0.387,0.124 L -0.709,1.037 C -1.21,0.875 -1.598,0.957 -1.81,1.448 c -0.239,0.553 0.119,1.06 0.662,1.295 0.415,0.179 0.794,0.258 1.154,0.127 L -0.225,2.279 C -0.438,2.351 -0.691,2.29 -0.922,2.19 -1.188,2.075 -1.248,1.904 -1.19,1.771 -1.148,1.673 -1.059,1.578 -0.814,1.66 L -0.377,1.8 C 0.173,1.977 0.561,1.81 0.756,1.359 1.01,0.77 0.63,0.272 0,0" />
          </g>
        </g>
      </g>
      <g
         transform="translate(94.152095,-142.06774)"
         id="g468">
        <path
           inkscape:connector-curvature="0"
           id="path470"
           style="fill:#d1d6da;fill-opacity:1;fill-rule:nonzero;stroke:none"
           d="M 0,0 -0.497,2.259 -0.914,0.627 -1.426,0.514 -2.494,1.82 l 0.496,-2.259 -0.757,-0.167 -0.852,3.877 0.746,0.164 1.473,-1.874 0.547,2.318 0.746,0.163 0.852,-3.876 z" />
      </g>
      <g
         transform="translate(23.963595,-233.32974)"
         id="g472">
        <g
           clip-path="url(#clipPath478)"
           id="g474">
          <g
             transform="translate(73.3927,91.6284)"
             id="g480">
            <path
               inkscape:connector-curvature="0"
               id="path482"
               style="fill:#d1d6da;fill-opacity:1;fill-rule:nonzero;stroke:none"
               d="m 0,0 -0.019,0.25 c -0.18,-0.209 -0.357,-0.306 -0.69,-0.332 -0.328,-0.024 -0.573,0.041 -0.759,0.2 -0.168,0.15 -0.269,0.377 -0.288,0.633 -0.035,0.461 0.254,0.863 0.926,0.913 l 0.684,0.052 -0.011,0.145 C -0.181,2.177 -0.347,2.304 -0.731,2.276 -1.009,2.255 -1.132,2.178 -1.268,1.995 L -1.764,2.41 c 0.26,0.333 0.531,0.443 1.015,0.479 0.811,0.061 1.26,-0.251 1.311,-0.93 L 0.706,0.053 Z M -0.109,1.221 -0.682,1.178 C -0.943,1.159 -1.078,1.025 -1.063,0.82 c 0.016,-0.2 0.159,-0.324 0.443,-0.302 0.199,0.015 0.326,0.041 0.445,0.173 0.072,0.078 0.091,0.197 0.078,0.375 z" />
          </g>
          <g
             transform="translate(76.6835,91.6355)"
             id="g484">
            <path
               inkscape:connector-curvature="0"
               id="path486"
               style="fill:#d1d6da;fill-opacity:1;fill-rule:nonzero;stroke:none"
               d="M 0,0 0.07,1.754 C 0.085,2.15 -0.16,2.293 -0.388,2.302 -0.617,2.311 -0.878,2.188 -0.894,1.792 L -0.964,0.038 -1.687,0.067 -1.572,2.968 -0.865,2.94 -0.876,2.673 C -0.678,2.866 -0.407,2.956 -0.14,2.945 0.15,2.933 0.38,2.829 0.535,2.662 0.76,2.418 0.81,2.143 0.797,1.826 L 0.724,-0.029 Z" />
          </g>
          <g
             transform="translate(79.7608,91.2829)"
             id="g488">
            <path
               inkscape:connector-curvature="0"
               id="path490"
               style="fill:#d1d6da;fill-opacity:1;fill-rule:nonzero;stroke:none"
               d="M 0,0 0.039,0.248 C -0.184,0.085 -0.379,0.031 -0.709,0.083 c -0.325,0.051 -0.549,0.17 -0.693,0.368 -0.129,0.184 -0.175,0.428 -0.136,0.681 0.072,0.457 0.444,0.782 1.111,0.678 L 0.25,1.704 0.273,1.847 C 0.322,2.161 0.189,2.323 -0.191,2.382 -0.466,2.426 -0.603,2.379 -0.779,2.232 l -0.387,0.517 c 0.329,0.265 0.618,0.31 1.097,0.235 C 0.735,2.858 1.1,2.451 0.995,1.779 L 0.699,-0.109 Z M 0.173,1.214 -0.394,1.303 C -0.653,1.343 -0.815,1.245 -0.847,1.041 -0.878,0.843 -0.766,0.69 -0.486,0.646 -0.287,0.615 -0.158,0.611 -0.012,0.713 0.076,0.772 0.122,0.884 0.149,1.06 Z" />
          </g>
          <g
             transform="translate(82.0114,89.6578)"
             id="g492">
            <path
               inkscape:connector-curvature="0"
               id="path494"
               style="fill:#d1d6da;fill-opacity:1;fill-rule:nonzero;stroke:none"
               d="m 0,0 c -0.43,0.119 -0.701,0.287 -0.914,0.647 l 0.558,0.32 C -0.242,0.773 -0.105,0.665 0.132,0.6 0.551,0.483 0.778,0.738 0.857,1.023 L 0.936,1.308 C 0.696,1.154 0.466,1.137 0.192,1.213 -0.082,1.289 -0.293,1.446 -0.405,1.645 -0.595,1.981 -0.516,2.347 -0.381,2.836 -0.245,3.325 -0.125,3.673 0.211,3.863 0.41,3.976 0.677,4 0.951,3.924 1.246,3.842 1.417,3.708 1.551,3.439 L 1.624,3.702 2.301,3.514 1.552,0.818 C 1.365,0.147 0.752,-0.209 0,0 M 0.975,3.24 C 0.561,3.355 0.42,3.013 0.317,2.642 0.214,2.272 0.158,1.9 0.571,1.785 0.985,1.67 1.133,2.016 1.236,2.387 1.339,2.758 1.389,3.125 0.975,3.24" />
          </g>
          <g
             transform="translate(85.3962,90.9941)"
             id="g496">
            <path
               inkscape:connector-curvature="0"
               id="path498"
               style="fill:#d1d6da;fill-opacity:1;fill-rule:nonzero;stroke:none"
               d="m 0,0 c -0.141,-0.346 -0.033,-0.685 0.344,-0.839 0.294,-0.12 0.472,-0.097 0.712,0.004 L 1.301,-1.399 C 0.916,-1.561 0.592,-1.603 0.106,-1.405 -0.528,-1.145 -1.019,-0.607 -0.574,0.482 -0.216,1.359 0.462,1.66 1.159,1.375 1.907,1.07 2.107,0.35 1.805,-0.388 l -0.123,-0.3 z M 1.266,0.356 C 1.259,0.545 1.158,0.725 0.931,0.818 0.704,0.911 0.506,0.853 0.368,0.723 0.286,0.642 0.241,0.576 0.188,0.459 L 1.21,0.042 c 0.043,0.12 0.057,0.199 0.056,0.314" />
          </g>
          <g
             transform="translate(90.2247,87.1528)"
             id="g500">
            <path
               inkscape:connector-curvature="0"
               id="path502"
               style="fill:#d1d6da;fill-opacity:1;fill-rule:nonzero;stroke:none"
               d="M 0,0 0.899,1.509 C 1.101,1.85 0.954,2.093 0.757,2.21 0.566,2.324 0.272,2.343 0.078,2.017 l -0.907,-1.524 -0.623,0.371 0.899,1.51 c 0.202,0.34 0.055,0.583 -0.142,0.7 C -0.891,3.191 -1.18,3.207 -1.382,2.867 L -2.281,1.358 -2.904,1.729 -1.418,4.225 -0.809,3.863 -0.946,3.633 C -0.683,3.704 -0.399,3.658 -0.169,3.521 0.109,3.355 0.274,3.121 0.304,2.811 0.646,2.906 0.928,2.868 1.24,2.682 1.489,2.534 1.666,2.318 1.722,2.097 1.803,1.776 1.735,1.498 1.573,1.225 l -0.95,-1.596 z" />
          </g>
          <g
             transform="translate(92.7287,86.8225)"
             id="g504">
            <path
               inkscape:connector-curvature="0"
               id="path506"
               style="fill:#d1d6da;fill-opacity:1;fill-rule:nonzero;stroke:none"
               d="m 0,0 c -0.236,-0.29 -0.231,-0.646 0.084,-0.903 0.247,-0.201 0.424,-0.23 0.683,-0.204 l 0.07,-0.611 C 0.421,-1.76 0.099,-1.706 -0.307,-1.375 -0.839,-0.941 -1.152,-0.284 -0.409,0.628 0.19,1.363 0.926,1.453 1.509,0.978 2.136,0.467 2.117,-0.279 1.613,-0.898 L 1.409,-1.148 Z M 1.315,-0.028 C 1.363,0.155 1.319,0.356 1.129,0.511 0.939,0.666 0.732,0.669 0.563,0.584 0.461,0.53 0.399,0.48 0.314,0.385 l 0.855,-0.698 c 0.077,0.103 0.113,0.174 0.146,0.285" />
          </g>
          <g
             transform="translate(95.1092,82.9779)"
             id="g508">
            <path
               inkscape:connector-curvature="0"
               id="path510"
               style="fill:#d1d6da;fill-opacity:1;fill-rule:nonzero;stroke:none"
               d="M 0,0 1.261,1.222 C 1.545,1.497 1.467,1.77 1.308,1.935 1.149,2.099 0.874,2.19 0.59,1.914 L -0.671,0.692 -1.176,1.213 0.91,3.234 1.403,2.725 1.211,2.539 C 1.487,2.543 1.745,2.42 1.931,2.228 2.133,2.02 2.228,1.786 2.224,1.557 2.219,1.226 2.065,0.992 1.837,0.771 L 0.504,-0.521 Z" />
          </g>
          <g
             transform="translate(96.7558,81.0356)"
             id="g512">
            <path
               inkscape:connector-curvature="0"
               id="path514"
               style="fill:#d1d6da;fill-opacity:1;fill-rule:nonzero;stroke:none"
               d="M 0,0 C -0.367,0.463 -0.196,0.919 0.127,1.176 L 1.254,2.07 1.063,2.31 1.496,2.653 1.686,2.413 2.359,2.946 2.809,2.379 2.137,1.845 2.456,1.443 2.023,1.1 1.704,1.502 0.613,0.636 C 0.482,0.532 0.456,0.412 0.564,0.276 L 0.726,0.071 0.246,-0.31 Z" />
          </g>
          <g
             transform="translate(97.9684,79.2735)"
             id="g516">
            <path
               inkscape:connector-curvature="0"
               id="path518"
               style="fill:#d1d6da;fill-opacity:1;fill-rule:nonzero;stroke:none"
               d="M 0,0 C -0.25,0.383 -0.434,0.755 -0.327,1.265 L 0.329,1.127 C 0.259,0.796 0.402,0.516 0.524,0.329 0.661,0.119 0.875,-0.054 1.057,0.065 1.178,0.144 1.219,0.264 1.113,0.468 L 0.9,0.875 C 0.655,1.341 0.67,1.737 1.118,2.03 1.622,2.359 2.182,2.093 2.506,1.598 2.753,1.22 2.895,0.86 2.828,0.483 L 2.206,0.61 C 2.241,0.832 2.138,1.071 2.001,1.281 1.842,1.524 1.663,1.553 1.541,1.474 1.452,1.416 1.374,1.311 1.496,1.084 L 1.709,0.677 C 1.977,0.166 1.878,-0.244 1.468,-0.513 0.931,-0.864 0.375,-0.574 0,0" />
          </g>
          <g
             transform="translate(99.103,76.4484)"
             id="g520">
            <path
               inkscape:connector-curvature="0"
               id="path522"
               style="fill:#d1d6da;fill-opacity:1;fill-rule:nonzero;stroke:none"
               d="m 0,0 c -0.172,-0.019 -0.312,-0.015 -0.432,0.023 -0.225,0.073 -0.373,0.241 -0.483,0.454 l -0.129,0.254 0.58,0.297 0.076,-0.149 C -0.294,0.695 -0.211,0.644 0.011,0.676 L 0.384,0.729 2.334,2.842 2.682,2.162 1.358,0.808 3.22,1.11 3.568,0.431 Z" />
          </g>
          <g
             transform="translate(100.6048,74.1428)"
             id="g524">
            <path
               inkscape:connector-curvature="0"
               id="path526"
               style="fill:#d1d6da;fill-opacity:1;fill-rule:nonzero;stroke:none"
               d="M 0,0 C -0.164,0.427 -0.266,0.83 -0.054,1.306 L 0.559,1.033 C 0.421,0.724 0.502,0.42 0.582,0.212 c 0.09,-0.234 0.262,-0.449 0.465,-0.371 0.135,0.052 0.201,0.161 0.14,0.382 L 1.065,0.666 C 0.923,1.174 1.02,1.558 1.52,1.75 2.082,1.966 2.574,1.588 2.787,1.036 2.949,0.614 3.012,0.232 2.868,-0.122 L 2.286,0.132 c 0.08,0.21 0.03,0.466 -0.06,0.7 C 2.121,1.103 1.953,1.169 1.817,1.117 1.718,1.079 1.62,0.993 1.691,0.746 L 1.814,0.303 C 1.967,-0.253 1.785,-0.634 1.327,-0.81 0.729,-1.04 0.246,-0.64 0,0" />
          </g>
          <g
             transform="translate(101.5176,71.4696)"
             id="g528">
            <path
               inkscape:connector-curvature="0"
               id="path530"
               style="fill:#d1d6da;fill-opacity:1;fill-rule:nonzero;stroke:none"
               d="M 0,0 C -0.162,0.569 0.172,0.925 0.569,1.037 L 1.953,1.431 1.869,1.726 2.4,1.877 2.484,1.582 3.31,1.817 3.509,1.119 2.682,0.885 2.823,0.391 2.292,0.24 2.152,0.733 0.81,0.352 C 0.649,0.306 0.579,0.205 0.627,0.039 l 0.071,-0.252 -0.59,-0.168 z" />
          </g>
          <g
             transform="translate(103.1269,70.0005)"
             id="g532">
            <path
               inkscape:connector-curvature="0"
               id="path534"
               style="fill:#d1d6da;fill-opacity:1;fill-rule:nonzero;stroke:none"
               d="m 0,0 c -0.367,-0.067 -0.595,-0.341 -0.522,-0.741 0.057,-0.313 0.172,-0.45 0.386,-0.598 l -0.343,-0.51 c -0.344,0.238 -0.554,0.488 -0.648,1.004 -0.122,0.674 0.067,1.377 1.224,1.588 C 1.029,0.912 1.648,0.504 1.782,-0.236 1.927,-1.032 1.428,-1.587 0.644,-1.73 L 0.326,-1.788 Z M 0.981,-0.875 C 1.137,-0.768 1.234,-0.586 1.19,-0.344 1.146,-0.103 0.991,0.033 0.807,0.079 0.695,0.104 0.615,0.106 0.488,0.089 l 0.198,-1.086 c 0.125,0.028 0.199,0.059 0.295,0.122" />
          </g>
          <g
             transform="translate(102.4932,63.8706)"
             id="g536">
            <path
               inkscape:connector-curvature="0"
               id="path538"
               style="fill:#d1d6da;fill-opacity:1;fill-rule:nonzero;stroke:none"
               d="M 0,0 1.754,0.059 C 2.15,0.072 2.275,0.327 2.267,0.556 2.26,0.779 2.117,1.036 1.739,1.023 L -0.032,0.963 -0.057,1.687 1.697,1.746 C 2.093,1.76 2.218,2.015 2.21,2.243 2.203,2.471 2.06,2.723 1.665,2.71 L -0.089,2.651 -0.113,3.375 2.788,3.472 2.812,2.765 2.545,2.756 C 2.746,2.573 2.861,2.31 2.869,2.042 2.88,1.719 2.772,1.454 2.528,1.261 2.792,1.025 2.912,0.767 2.925,0.405 2.934,0.115 2.848,-0.15 2.692,-0.316 2.466,-0.558 2.196,-0.651 1.879,-0.662 L 0.024,-0.724 Z" />
          </g>
        </g>
      </g>
      <g
         transform="translate(75.704595,-188.65654)"
         id="g540">
        <path
           inkscape:connector-curvature="0"
           id="path542"
           style="fill:#d1d6da;fill-opacity:1;fill-rule:nonzero;stroke:none"
           d="M 0,0 3.121,2.451 3.6,1.842 0.479,-0.609 Z" />
      </g>
      <g
         transform="translate(23.963595,-233.32974)"
         id="g544">
        <g
           clip-path="url(#clipPath550)"
           id="g546">
          <g
             transform="translate(53.6704,42.3519)"
             id="g552">
            <path
               inkscape:connector-curvature="0"
               id="path554"
               style="fill:#d1d6da;fill-opacity:1;fill-rule:nonzero;stroke:none"
               d="M 0,0 C -0.414,0.437 -0.635,0.858 -0.616,1.413 L 0.093,1.394 C 0.084,1.039 0.257,0.735 0.51,0.467 0.824,0.135 1.118,0.076 1.349,0.294 1.45,0.39 1.509,0.499 1.508,0.613 1.507,0.72 1.474,0.812 1.367,0.964 L 1.086,1.359 C 0.889,1.64 0.793,1.895 0.796,2.144 0.804,2.412 0.925,2.657 1.168,2.887 1.682,3.374 2.402,3.334 2.993,2.711 3.369,2.314 3.544,1.934 3.538,1.461 L 2.849,1.484 C 2.851,1.831 2.668,2.073 2.488,2.263 2.204,2.563 1.9,2.551 1.701,2.363 1.628,2.295 1.575,2.197 1.575,2.083 1.576,1.976 1.62,1.841 1.715,1.708 L 1.989,1.322 C 2.201,1.025 2.286,0.789 2.287,0.561 2.287,0.269 2.142,0.001 1.887,-0.241 1.328,-0.77 0.571,-0.603 0,0" />
          </g>
          <g
             transform="translate(57.397,39.5351)"
             id="g556">
            <path
               inkscape:connector-curvature="0"
               id="path558"
               style="fill:#d1d6da;fill-opacity:1;fill-rule:nonzero;stroke:none"
               d="M 0,0 C -0.392,-0.036 -0.754,0.061 -1.101,0.349 -1.448,0.638 -1.614,0.978 -1.65,1.371 -1.703,1.936 -1.377,2.31 -0.939,2.838 -0.501,3.365 -0.193,3.754 0.372,3.806 0.765,3.842 1.13,3.742 1.478,3.453 1.825,3.165 1.987,2.828 2.023,2.435 2.075,1.87 1.754,1.492 1.316,0.965 0.878,0.437 0.565,0.052 0,0 M 1.282,2.442 C 1.278,2.612 1.199,2.786 1.036,2.922 0.873,3.057 0.682,3.107 0.515,3.079 0.292,3.047 0.145,2.93 -0.343,2.343 -0.831,1.756 -0.919,1.589 -0.91,1.364 -0.906,1.194 -0.822,1.016 -0.659,0.881 -0.496,0.745 -0.31,0.699 -0.142,0.727 0.08,0.759 0.232,0.873 0.72,1.46 1.208,2.047 1.291,2.217 1.282,2.442" />
          </g>
          <g
             transform="translate(62.2938,37.9661)"
             id="g560">
            <path
               inkscape:connector-curvature="0"
               id="path562"
               style="fill:#d1d6da;fill-opacity:1;fill-rule:nonzero;stroke:none"
               d="m 0,0 -1.577,-1.082 -0.684,0.387 1.524,1.022 c -0.102,0.012 -0.2,0.054 -0.282,0.101 -0.466,0.263 -0.697,0.899 -0.335,1.539 0.384,0.68 1.074,0.815 1.686,0.47 C 0.943,2.092 1.193,1.445 0.807,0.761 0.629,0.445 0.333,0.228 0,0 M 0.011,1.869 C -0.246,2.014 -0.539,1.936 -0.72,1.616 -0.893,1.31 -0.826,1.01 -0.558,0.859 -0.301,0.714 -0.008,0.792 0.173,1.112 0.354,1.433 0.269,1.724 0.011,1.869" />
          </g>
          <g
             transform="translate(63.4922,35.4811)"
             id="g564">
            <path
               inkscape:connector-curvature="0"
               id="path566"
               style="fill:#d1d6da;fill-opacity:1;fill-rule:nonzero;stroke:none"
               d="M 0,0 C -0.595,0.254 -0.946,0.866 -0.647,1.563 L 0.011,3.101 C 0.31,3.798 0.994,3.966 1.589,3.711 2.184,3.457 2.53,2.848 2.231,2.15 L 1.573,0.613 C 1.274,-0.085 0.595,-0.255 0,0 M 1.56,2.426 C 1.692,2.733 1.594,3 1.332,3.111 1.071,3.224 0.805,3.113 0.673,2.805 L 0.022,1.283 C -0.11,0.975 -0.005,0.712 0.257,0.6 0.518,0.488 0.777,0.596 0.908,0.903 Z" />
          </g>
          <g
             transform="translate(66.4794,34.3923)"
             id="g568">
            <path
               inkscape:connector-curvature="0"
               id="path570"
               style="fill:#d1d6da;fill-opacity:1;fill-rule:nonzero;stroke:none"
               d="m 0,0 c -0.619,0.188 -1.035,0.757 -0.814,1.483 l 0.486,1.601 C -0.107,3.81 0.555,4.052 1.174,3.863 1.793,3.675 2.204,3.108 1.983,2.382 L 1.496,0.781 C 1.276,0.055 0.619,-0.188 0,0 M 1.286,2.582 C 1.383,2.902 1.257,3.156 0.984,3.239 0.712,3.322 0.46,3.183 0.363,2.863 L -0.119,1.278 C -0.216,0.958 -0.082,0.707 0.19,0.625 0.462,0.542 0.707,0.677 0.804,0.997 Z" />
          </g>
        </g>
      </g>
      <g
         transform="translate(93.422395,-199.63944)"
         id="g572">
        <path
           inkscape:connector-curvature="0"
           id="path574"
           style="fill:#d1d6da;fill-opacity:1;fill-rule:nonzero;stroke:none"
           d="M 0,0 0.587,3.133 -0.337,2.592 -0.193,3.359 0.731,3.9 1.443,3.767 0.712,-0.134 Z" />
      </g>
      <g
         transform="translate(97.104095,-200.52174)"
         id="g576">
        <path
           inkscape:connector-curvature="0"
           id="path578"
           style="fill:#d1d6da;fill-opacity:1;fill-rule:nonzero;stroke:none"
           d="M 0,0 -0.679,0.032 1.132,4.747 1.811,4.715 Z" />
      </g>
      <g
         transform="translate(100.73779,-200.11334)"
         id="g580">
        <path
           inkscape:connector-curvature="0"
           id="path582"
           style="fill:#d1d6da;fill-opacity:1;fill-rule:nonzero;stroke:none"
           d="M 0,0 -0.287,3.957 0.486,4.013 0.772,0.056 Z" />
      </g>
      <g
         transform="translate(23.963595,-233.32974)"
         id="g584">
        <g
           clip-path="url(#clipPath590)"
           id="g586">
          <g
             transform="translate(79.7815,33.5198)"
             id="g592">
            <path
               inkscape:connector-curvature="0"
               id="path594"
               style="fill:#d1d6da;fill-opacity:1;fill-rule:nonzero;stroke:none"
               d="m 0,0 c -0.594,-0.099 -1.066,-0.048 -1.517,0.278 l 0.413,0.578 C -0.816,0.65 -0.466,0.624 -0.103,0.684 0.348,0.759 0.561,0.97 0.509,1.284 0.486,1.421 0.429,1.531 0.333,1.594 0.244,1.652 0.15,1.676 -0.036,1.673 L -0.52,1.66 C -0.864,1.654 -1.129,1.717 -1.334,1.858 -1.552,2.014 -1.688,2.251 -1.743,2.581 -1.86,3.28 -1.424,3.856 -0.577,3.997 -0.038,4.087 0.375,4.021 0.764,3.752 L 0.36,3.193 C 0.073,3.388 -0.229,3.371 -0.488,3.328 -0.895,3.26 -1.055,3.001 -1.01,2.732 -0.994,2.633 -0.943,2.534 -0.848,2.471 -0.759,2.412 -0.622,2.372 -0.459,2.377 L 0.014,2.388 C 0.38,2.399 0.622,2.337 0.812,2.211 1.055,2.048 1.196,1.777 1.254,1.431 1.381,0.672 0.82,0.137 0,0" />
          </g>
          <g
             transform="translate(84.1953,35.0423)"
             id="g596">
            <path
               inkscape:connector-curvature="0"
               id="path598"
               style="fill:#d1d6da;fill-opacity:1;fill-rule:nonzero;stroke:none"
               d="m 0,0 c -0.189,-0.346 -0.471,-0.592 -0.904,-0.72 -0.433,-0.128 -0.809,-0.076 -1.155,0.113 -0.499,0.271 -0.628,0.75 -0.822,1.408 -0.194,0.658 -0.345,1.131 -0.073,1.629 0.188,0.346 0.475,0.594 0.909,0.722 0.433,0.128 0.803,0.074 1.149,-0.115 C -0.397,2.766 -0.262,2.288 -0.068,1.631 0.126,0.973 0.271,0.498 0,0 M -1.314,2.426 C -1.457,2.517 -1.647,2.549 -1.85,2.489 -2.053,2.429 -2.201,2.298 -2.271,2.144 -2.368,1.941 -2.354,1.753 -2.138,1.02 c 0.216,-0.732 0.306,-0.898 0.497,-1.016 0.144,-0.091 0.338,-0.121 0.542,-0.061 0.203,0.06 0.345,0.189 0.416,0.344 0.097,0.203 0.087,0.392 -0.129,1.124 -0.216,0.733 -0.31,0.897 -0.502,1.015" />
          </g>
        </g>
      </g>
      <g
         transform="translate(111.91049,-197.15254)"
         id="g600">
        <path
           inkscape:connector-curvature="0"
           id="path602"
           style="fill:#d1d6da;fill-opacity:1;fill-rule:nonzero;stroke:none"
           d="M 0,0 -1.424,2.851 -1.833,1.862 -2.182,2.56 -1.773,3.549 -1.124,3.873 0.648,0.324 Z" />
      </g>
      <g
         transform="translate(115.02309,-194.71214)"
         id="g604">
        <path
           inkscape:connector-curvature="0"
           id="path606"
           style="fill:#d1d6da;fill-opacity:1;fill-rule:nonzero;stroke:none"
           d="m 0,0 0.299,-0.477 -0.59,-0.37 -0.3,0.477 -1.374,-0.861 -0.364,0.581 -0.292,3.027 0.671,0.421 0.292,-3.028 0.703,0.441 -0.393,0.628 0.59,0.37 0.394,-0.628 0.307,0.193 0.364,-0.581 z" />
      </g>
      <g
         transform="translate(23.963595,-233.32974)"
         id="g608">
        <g
           clip-path="url(#clipPath614)"
           id="g610">
          <g
             transform="translate(93.243,39.505)"
             id="g616">
            <path
               inkscape:connector-curvature="0"
               id="path618"
               style="fill:#d1d6da;fill-opacity:1;fill-rule:nonzero;stroke:none"
               d="m 0,0 c -0.506,-0.403 -1.211,-0.423 -1.683,0.17 l -1.043,1.309 c -0.473,0.593 -0.297,1.275 0.209,1.678 0.506,0.404 1.206,0.42 1.679,-0.173 L 0.205,1.675 C 0.678,1.082 0.506,0.403 0,0 M -1.398,2.523 C -1.606,2.785 -1.888,2.824 -2.11,2.647 -2.333,2.47 -2.361,2.183 -2.152,1.922 L -1.12,0.626 c 0.209,-0.261 0.491,-0.293 0.713,-0.116 0.223,0.177 0.25,0.456 0.042,0.718 z" />
          </g>
          <g
             transform="translate(95.6213,41.6202)"
             id="g620">
            <path
               inkscape:connector-curvature="0"
               id="path622"
               style="fill:#d1d6da;fill-opacity:1;fill-rule:nonzero;stroke:none"
               d="m 0,0 c -0.459,-0.456 -1.157,-0.551 -1.691,-0.013 l -1.177,1.188 c -0.534,0.538 -0.432,1.235 0.027,1.691 0.459,0.455 1.153,0.546 1.687,0.008 L 0.023,1.687 C 0.557,1.148 0.459,0.455 0,0 M -1.661,2.356 C -1.896,2.594 -2.18,2.603 -2.382,2.403 -2.584,2.202 -2.581,1.914 -2.346,1.677 L -1.18,0.502 c 0.235,-0.238 0.519,-0.239 0.721,-0.039 0.202,0.2 0.199,0.48 -0.036,0.717 z" />
          </g>
        </g>
      </g>
      <g
         transform="translate(121.5357,-189.52464)"
         id="g624">
        <path
           inkscape:connector-curvature="0"
           id="path626"
           style="fill:#d1d6da;fill-opacity:1;fill-rule:nonzero;stroke:none"
           d="M 0,0 -2.468,2.021 -2.437,0.95 -3.041,1.445 -3.073,2.516 -2.614,3.077 0.46,0.561 Z" />
      </g>
    </g>
  </g>
</svg>
