<?xml version="1.0" encoding="UTF-8" standalone="no"?>
<svg width="99px" height="98px" viewBox="0 0 99 98" version="1.1" xmlns="http://www.w3.org/2000/svg" xmlns:xlink="http://www.w3.org/1999/xlink">
    <!-- Generator: sketchtool 41.2 (35397) - http://www.bohemiancoding.com/sketch -->
    <title>2080CDD8-4437-49A7-A493-E39EAD8D17B2</title>
    <desc>Created with sketchtool.</desc>
    <defs></defs>
    <g id="REVIEW" stroke="none" stroke-width="1" fill="none" fill-rule="evenodd">
        <g id="Rescue-Homepage-Concept---FINAL" transform="translate(-1084.000000, -680.000000)">
            <g id="Features-Module" transform="translate(1.000000, 500.000000)">
                <g id="Feature-Icons" transform="translate(299.000000, 182.000000)">
                    <g id="computer_simple_icon" transform="translate(786.000000, 0.000000)">
                        <path d="M84.8849918,84.0948083 L61.0586803,84.0948083 L54.9265082,87.1051388 L38.8652787,87.1051388 L33.317123,84.0948083 L10.0600328,84.0948083 L10.0600328,38.9491719 C10.0600328,36.0460479 12.419459,33.6921636 15.329418,33.6921636 L79.6156066,33.6921636 C82.5255656,33.6921636 84.8849918,36.0460479 84.8849918,38.9491719 L84.8849918,84.0948083 Z" id="Stroke-1" stroke="#00CC6F" stroke-width="3.11328"></path>
                        <polygon id="Stroke-3" stroke="#00CC6F" stroke-width="3.11328" points="91.2972582 93.4818347 3.24082377 93.4818347 0.515413934 84.0950413 33.220332 84.0950413 38.7684877 87.1053719 54.7316025 87.1053719 61.3504549 84.0950413 93.1793484 84.0950413"></polygon>
                        <path d="M94.4694795,27.3363653 C95.6577582,44.5305967 82.0291516,58.8465636 65.0490697,58.8465636 C60.2305451,58.8465636 52.5565697,55.7049438 50.038291,54.6142331 C49.4986598,54.3803983 48.8905041,54.3788446 48.3485369,54.6041339 L33.0255041,60.9829273 L40.5071434,47.5230595 C40.8474303,46.9116711 40.870791,46.1775388 40.5678811,45.5467289 C39.2223074,42.7453736 35.5562418,34.6357372 35.5562418,29.4230099 C35.5562418,12.4828116 49.9059139,-1.11378347 67.140627,0.0717041322 C81.6841926,1.07229917 93.4665287,12.8269603 94.4694795,27.3363653" id="Fill-5" fill="#FEFEFE"></path>
                        <path d="M94.4694795,27.3363653 C95.6577582,44.5305967 82.0291516,58.8465636 65.0490697,58.8465636 C60.2305451,58.8465636 52.5565697,55.7049438 50.038291,54.6142331 C49.4986598,54.3803983 48.8905041,54.3788446 48.3485369,54.6041339 L33.0255041,60.9829273 L40.5071434,47.5230595 C40.8474303,46.9116711 40.870791,46.1775388 40.5678811,45.5467289 C39.2223074,42.7453736 35.5562418,34.6357372 35.5562418,29.4230099 C35.5562418,12.4828116 49.9059139,-1.11378347 67.140627,0.0717041322 C81.6841926,1.07229917 93.4665287,12.8269603 94.4694795,27.3363653 Z" id="Stroke-7" stroke="#00CC6F" stroke-width="3.11328"></path>
                        <path d="M79.7651926,39.2825223 C80.634209,40.2877785 80.5758074,41.8694645 79.634373,42.8094645 L77.5303566,44.9085388 C76.5889221,45.847762 75.0019549,45.9013653 73.9935533,45.0281752 L70.3664221,41.8919934 L66.7011352,35.8021917 C66.6287172,35.6810017 66.5150287,35.5893322 66.3803156,35.5450512 L64.7723238,35.0105719 L66.191873,33.5935802 C66.191873,33.5935802 66.191873,33.5935802 66.1926516,33.5928033 L68.2927746,31.4983901 L68.2927746,31.4976132 L69.7131025,30.0806215 L70.2488402,31.6848364 C70.2932254,31.8192331 70.384332,31.9326545 70.5050287,32.0056793 L76.6971598,35.7353818 L79.7651926,39.2825223 Z M80.4745779,43.646919 C81.846627,42.2780926 81.9315041,39.9731504 80.6645779,38.5079934 L77.53425,34.8893818 C77.4937582,34.8419934 77.4454795,34.8015967 77.39175,34.7689686 L71.3062992,31.1037455 L70.5361762,28.7964727 C70.4707664,28.601481 70.3087992,28.4538777 70.1086762,28.4072661 C70.0635123,28.3963901 70.0175697,28.3909521 69.9724057,28.3909521 C69.816668,28.3909521 69.6648238,28.452324 69.5519139,28.5649686 L63.2523238,34.849762 C63.106709,34.9950347 63.04675,35.2047868 63.09425,35.4052165 C63.14175,35.6048694 63.2889221,35.7664562 63.484373,35.8309355 L65.7962992,36.6000264 L69.3961762,42.5826215 C69.4288811,42.6362248 69.469373,42.6843901 69.516873,42.7255636 L73.2148648,45.9238942 C74.6850287,47.1956132 76.9977336,47.1155967 78.3697828,45.7467702 L80.4745779,43.646919 Z" id="Fill-9" fill="#00CC6F"></path>
                        <path d="M79.7651926,39.2825223 C80.634209,40.2877785 80.5758074,41.8694645 79.634373,42.8094645 L77.5303566,44.9085388 C76.5889221,45.847762 75.0019549,45.9013653 73.9935533,45.0281752 L70.3664221,41.8919934 L66.7011352,35.8021917 C66.6287172,35.6810017 66.5150287,35.5893322 66.3803156,35.5450512 L64.7723238,35.0105719 L66.191873,33.5935802 C66.191873,33.5935802 66.191873,33.5935802 66.1926516,33.5928033 L68.2927746,31.4983901 L68.2927746,31.4976132 L69.7131025,30.0806215 L70.2488402,31.6848364 C70.2932254,31.8192331 70.384332,31.9326545 70.5050287,32.0056793 L76.6971598,35.7353818 L79.7651926,39.2825223 Z M80.4745779,43.646919 C81.846627,42.2780926 81.9315041,39.9731504 80.6645779,38.5079934 L77.53425,34.8893818 C77.4937582,34.8419934 77.4454795,34.8015967 77.39175,34.7689686 L71.3062992,31.1037455 L70.5361762,28.7964727 C70.4707664,28.601481 70.3087992,28.4538777 70.1086762,28.4072661 C70.0635123,28.3963901 70.0175697,28.3909521 69.9724057,28.3909521 C69.816668,28.3909521 69.6648238,28.452324 69.5519139,28.5649686 L63.2523238,34.849762 C63.106709,34.9950347 63.04675,35.2047868 63.09425,35.4052165 C63.14175,35.6048694 63.2889221,35.7664562 63.484373,35.8309355 L65.7962992,36.6000264 L69.3961762,42.5826215 C69.4288811,42.6362248 69.469373,42.6843901 69.516873,42.7255636 L73.2148648,45.9238942 C74.6850287,47.1956132 76.9977336,47.1155967 78.3697828,45.7467702 L80.4745779,43.646919 Z" id="Stroke-11" stroke="#00CC6F" stroke-width="0.5"></path>
                        <path d="M79.4148607,17.3669273 C79.759041,19.093886 79.2271967,20.9055223 77.9509262,22.1795719 C76.4472787,23.6796876 74.1968689,24.1481339 72.2166639,23.3743818 C71.9970738,23.2881504 71.7471148,23.3402 71.5804754,23.5064479 L58.4253115,36.6307124 C58.2586721,36.7969603 58.2065,37.0471091 58.2921557,37.2661835 C59.0685082,39.2409603 58.5981803,41.4868612 57.0953115,42.9862 C55.8182623,44.2602496 54.0023607,44.7908446 52.2705574,44.4466959 L55.7629754,40.9632579 C55.9950246,40.7317537 55.9950246,40.3565306 55.7629754,40.1250264 L52.4029344,36.7728777 C52.1708852,36.5413736 51.7947787,36.5413736 51.5627295,36.7728777 L48.0710902,40.2570926 C47.7269098,38.529357 48.2579754,36.7177207 49.5350246,35.4444479 C51.0378934,33.9443322 53.289082,33.4751091 55.2685082,34.249638 C55.3385902,34.2768281 55.4125656,34.2900347 55.4849836,34.2900347 C55.6399426,34.2900347 55.7917869,34.2294397 55.9054754,34.116795 L69.0606393,20.9925306 C69.2272787,20.8262826 69.2794508,20.5769107 69.1930164,20.3570595 C68.4174426,18.3822826 68.8877705,16.1371587 70.3906393,14.637043 C71.6676885,13.3637702 73.4835902,12.8331752 75.2146148,13.1765471 L71.7229754,16.660762 C71.611623,16.7718529 71.5485492,16.9217868 71.5485492,17.0794893 C71.5485492,17.2364149 71.611623,17.3871256 71.7229754,17.4982165 L75.0830164,20.8503653 C75.3150656,21.0818694 75.6911721,21.0818694 75.9224426,20.8503653 L79.4148607,17.3669273 Z M62.1513361,26.2091421 L60.891418,27.4668777 L54.9546967,21.5441008 C54.916541,21.5052579 54.8729344,21.4726298 54.8246557,21.4462165 L51.1733852,19.4092909 L49.7670738,16.6024975 L51.2621557,15.1117041 L54.0747787,16.5147124 L56.1165,20.1574066 C56.1429754,20.204795 56.176459,20.2482992 56.2146148,20.2871421 L62.1513361,26.2091421 Z M78.7903525,23.0178033 C80.6280574,21.1844149 81.2019508,18.4405471 80.2542869,16.0268446 C80.1810902,15.8403983 80.0183443,15.7036711 79.8228934,15.6632744 C79.6258852,15.6221008 79.4226475,15.6826959 79.2809262,15.8240843 L75.5027295,19.5934066 L72.9828934,17.0794893 L76.7610902,13.3101669 C76.9028115,13.1680017 76.9635492,12.9652413 76.9222787,12.7694727 C76.8817869,12.5737041 76.7447377,12.4121174 76.5578525,12.3390926 C75.7830574,12.0361174 74.9755574,11.8892909 74.1735082,11.8892909 C72.4712951,11.8892909 70.8002295,12.5527289 69.5512131,13.7995884 C67.8069508,15.5389769 67.2003525,18.0995058 67.954123,20.4199851 L62.991541,25.3716876 L57.1132213,19.5071752 L55.0232213,15.7774727 C54.9648197,15.6733736 54.8768279,15.5894727 54.7701475,15.5366463 L51.4101066,13.8601835 C51.3260082,13.8182331 51.2349016,13.7980347 51.1445738,13.7980347 C50.9903934,13.7980347 50.8385492,13.8578529 50.7248607,13.9712744 L48.6247377,16.0664645 C48.444082,16.2466959 48.398918,16.522481 48.5133852,16.7501008 L50.1930164,20.1022496 C50.2467459,20.2086793 50.3308443,20.2964645 50.4344098,20.3547289 L54.1736721,22.4405967 L60.0512131,28.3043322 L55.331582,33.0136545 C53.0056393,32.2616545 50.439082,32.8660512 48.6948197,34.6062165 C46.8578934,36.4388281 46.2832213,39.1834727 47.2316639,41.5971752 C47.3048607,41.7828446 47.4668279,41.9195719 47.6630574,41.9607455 C47.8592869,42.0011421 48.0625246,41.941324 48.2042459,41.7999355 L51.9832213,38.0298364 L54.5030574,40.5437537 L50.7248607,44.3138529 C50.5831393,44.4552413 50.5224016,44.6580017 50.5628934,44.8537702 C50.6041639,45.0495388 50.7412131,45.2111256 50.9280984,45.2841504 C53.3474836,46.2303653 56.0978115,45.657043 57.9347377,43.8244314 C59.679,42.0842661 60.2848197,39.5237372 59.5310492,37.2040347 L72.1543689,24.6103653 C74.4803115,25.3623653 77.0468689,24.7571917 78.7903525,23.0178033 L78.7903525,23.0178033 Z" id="Fill-13" fill="#00CC6F"></path>
                        <path d="M79.4148607,17.3669273 C79.759041,19.093886 79.2271967,20.9055223 77.9509262,22.1795719 C76.4472787,23.6796876 74.1968689,24.1481339 72.2166639,23.3743818 C71.9970738,23.2881504 71.7471148,23.3402 71.5804754,23.5064479 L58.4253115,36.6307124 C58.2586721,36.7969603 58.2065,37.0471091 58.2921557,37.2661835 C59.0685082,39.2409603 58.5981803,41.4868612 57.0953115,42.9862 C55.8182623,44.2602496 54.0023607,44.7908446 52.2705574,44.4466959 L55.7629754,40.9632579 C55.9950246,40.7317537 55.9950246,40.3565306 55.7629754,40.1250264 L52.4029344,36.7728777 C52.1708852,36.5413736 51.7947787,36.5413736 51.5627295,36.7728777 L48.0710902,40.2570926 C47.7269098,38.529357 48.2579754,36.7177207 49.5350246,35.4444479 C51.0378934,33.9443322 53.289082,33.4751091 55.2685082,34.249638 C55.3385902,34.2768281 55.4125656,34.2900347 55.4849836,34.2900347 C55.6399426,34.2900347 55.7917869,34.2294397 55.9054754,34.116795 L69.0606393,20.9925306 C69.2272787,20.8262826 69.2794508,20.5769107 69.1930164,20.3570595 C68.4174426,18.3822826 68.8877705,16.1371587 70.3906393,14.637043 C71.6676885,13.3637702 73.4835902,12.8331752 75.2146148,13.1765471 L71.7229754,16.660762 C71.611623,16.7718529 71.5485492,16.9217868 71.5485492,17.0794893 C71.5485492,17.2364149 71.611623,17.3871256 71.7229754,17.4982165 L75.0830164,20.8503653 C75.3150656,21.0818694 75.6911721,21.0818694 75.9224426,20.8503653 L79.4148607,17.3669273 Z M62.1513361,26.2091421 L60.891418,27.4668777 L54.9546967,21.5441008 C54.916541,21.5052579 54.8729344,21.4726298 54.8246557,21.4462165 L51.1733852,19.4092909 L49.7670738,16.6024975 L51.2621557,15.1117041 L54.0747787,16.5147124 L56.1165,20.1574066 C56.1429754,20.204795 56.176459,20.2482992 56.2146148,20.2871421 L62.1513361,26.2091421 Z M78.7903525,23.0178033 C80.6280574,21.1844149 81.2019508,18.4405471 80.2542869,16.0268446 C80.1810902,15.8403983 80.0183443,15.7036711 79.8228934,15.6632744 C79.6258852,15.6221008 79.4226475,15.6826959 79.2809262,15.8240843 L75.5027295,19.5934066 L72.9828934,17.0794893 L76.7610902,13.3101669 C76.9028115,13.1680017 76.9635492,12.9652413 76.9222787,12.7694727 C76.8817869,12.5737041 76.7447377,12.4121174 76.5578525,12.3390926 C75.7830574,12.0361174 74.9755574,11.8892909 74.1735082,11.8892909 C72.4712951,11.8892909 70.8002295,12.5527289 69.5512131,13.7995884 C67.8069508,15.5389769 67.2003525,18.0995058 67.954123,20.4199851 L62.991541,25.3716876 L57.1132213,19.5071752 L55.0232213,15.7774727 C54.9648197,15.6733736 54.8768279,15.5894727 54.7701475,15.5366463 L51.4101066,13.8601835 C51.3260082,13.8182331 51.2349016,13.7980347 51.1445738,13.7980347 C50.9903934,13.7980347 50.8385492,13.8578529 50.7248607,13.9712744 L48.6247377,16.0664645 C48.444082,16.2466959 48.398918,16.522481 48.5133852,16.7501008 L50.1930164,20.1022496 C50.2467459,20.2086793 50.3308443,20.2964645 50.4344098,20.3547289 L54.1736721,22.4405967 L60.0512131,28.3043322 L55.331582,33.0136545 C53.0056393,32.2616545 50.439082,32.8660512 48.6948197,34.6062165 C46.8578934,36.4388281 46.2832213,39.1834727 47.2316639,41.5971752 C47.3048607,41.7828446 47.4668279,41.9195719 47.6630574,41.9607455 C47.8592869,42.0011421 48.0625246,41.941324 48.2042459,41.7999355 L51.9832213,38.0298364 L54.5030574,40.5437537 L50.7248607,44.3138529 C50.5831393,44.4552413 50.5224016,44.6580017 50.5628934,44.8537702 C50.6041639,45.0495388 50.7412131,45.2111256 50.9280984,45.2841504 C53.3474836,46.2303653 56.0978115,45.657043 57.9347377,43.8244314 C59.679,42.0842661 60.2848197,39.5237372 59.5310492,37.2040347 L72.1543689,24.6103653 C74.4803115,25.3623653 77.0468689,24.7571917 78.7903525,23.0178033 Z" id="Stroke-15" stroke="#00CC6F" stroke-width="0.5"></path>
                        <path d="M31.5278525,70.1345653 C31.5278525,70.6239868 31.1268279,71.0248463 30.6354754,71.0248463 L27.0877705,71.0248463 L27.0877705,74.564995 C27.0877705,75.0536397 26.6859672,75.4544992 26.1961721,75.4544992 L23.5392869,75.4544992 C23.0487131,75.4544992 22.6469098,75.0536397 22.6469098,74.564995 L22.6469098,71.0248463 L19.0992049,71.0248463 C18.6086311,71.0248463 18.2068279,70.6239868 18.2068279,70.1345653 L18.2068279,67.4846975 C18.2068279,66.995276 18.6086311,66.5944165 19.0992049,66.5944165 L22.6469098,66.5944165 L22.6469098,63.0542678 C22.6469098,62.5648463 23.0487131,62.1647636 23.5392869,62.1647636 L26.1961721,62.1647636 C26.6859672,62.1647636 27.0877705,62.5648463 27.0877705,63.0542678 L27.0877705,66.5944165 L30.6354754,66.5944165 C31.1268279,66.5944165 31.5278525,66.995276 31.5278525,67.4846975 L31.5278525,70.1345653 Z" id="Fill-17" fill="#00CC6F"></path>
                    </g>
                </g>
            </g>
        </g>
    </g>
</svg>