<svg width="116" height="120" viewBox="0 0 116 120" version="1.1" xmlns="http://www.w3.org/2000/svg" xmlns:xlink="http://www.w3.org/1999/xlink">
<g fill="none">
<path d="M 29.4061 20.9344L 0 0L 29.4061 0L 0 20.9344L 29.4061 20.9344Z" stroke-width="1.5" transform="translate(79.7646 91.9026)" stroke="#03B4EE"/>
<path d="M 29.4061 20.9344L 29.4061 0L 0 0L 0 20.9344" stroke-width="1.5" transform="translate(7.58643 91.9026)" stroke="#03B4EE"/>
<path d="M 29.4061 0L 0 20.9344" stroke-width="1.5" transform="translate(7.58643 25.6103)" stroke="#03B4EE"/>
<path d="M 0 0L 29.4061 0L 29.4061 20.9344" stroke-width="1.5" transform="translate(7.58643 25.6103)" stroke="#03B4EE"/>
<rect width="13.3664" height="13.084" transform="translate(0.902832 19.0684)" fill="white"/>
<rect x="0.75" y="0.75" width="11.8664" height="11.584" stroke-width="1.5" transform="translate(0.902832 19.0684)" stroke="#03B4EE"/>
<rect width="13.3664" height="13.084" transform="translate(30.3086 19.0684)" fill="white"/>
<rect x="0.75" y="0.75" width="11.8664" height="11.584" stroke-width="1.5" transform="translate(30.3086 19.0684)" stroke="#03B4EE"/>
<rect width="13.3664" height="13.084" transform="translate(0.902832 40.0027)" fill="white"/>
<rect x="0.75" y="0.75" width="11.8664" height="11.584" stroke-width="1.5" transform="translate(0.902832 40.0027)" stroke="#03B4EE"/>
<rect width="13.3664" height="13.084" transform="translate(30.3086 40.0027)" fill="white"/>
<rect x="0.75" y="0.75" width="11.8664" height="11.584" stroke-width="1.5" transform="translate(30.3086 40.0027)" stroke="#03B4EE"/>
<rect width="13.3664" height="13.084" transform="translate(0.902832 85.3606)" fill="white"/>
<rect x="0.75" y="0.75" width="11.8664" height="11.584" stroke-width="1.5" transform="translate(0.902832 85.3606)" stroke="#03B4EE"/>
<rect width="13.3664" height="13.084" transform="translate(30.3086 85.3606)" fill="white"/>
<rect x="0.75" y="0.75" width="11.8664" height="11.584" stroke-width="1.5" transform="translate(30.3086 85.3606)" stroke="#03B4EE"/>
<rect width="13.3664" height="13.084" transform="translate(0.902832 106.295)" fill="white"/>
<rect x="0.75" y="0.75" width="11.8664" height="11.584" stroke-width="1.5" transform="translate(0.902832 106.295)" stroke="#03B4EE"/>
<rect width="13.3664" height="13.084" transform="translate(30.3086 106.295)" fill="white"/>
<rect x="0.75" y="0.75" width="11.8664" height="11.584" stroke-width="1.5" transform="translate(30.3086 106.295)" stroke="#03B4EE"/>
<path d="M 0 20.9344L 0 0L 29.4061 20.9344L 29.4061 0" stroke-width="1.5" transform="translate(79.7646 25.6104)" stroke="#03B4EE"/>
<rect width="13.3664" height="13.084" transform="translate(73.082 19.0684)" fill="white"/>
<rect x="0.75" y="0.75" width="11.8664" height="11.584" stroke-width="1.5" transform="translate(73.082 19.0684)" stroke="#03B4EE"/>
<rect width="13.3664" height="13.084" transform="translate(102.487 19.0684)" fill="white"/>
<rect x="0.75" y="0.75" width="11.8664" height="11.584" stroke-width="1.5" transform="translate(102.487 19.0684)" stroke="#03B4EE"/>
<rect width="13.3664" height="13.084" transform="translate(73.0815 40.0027)" fill="white"/>
<rect x="0.75" y="0.75" width="11.8664" height="11.584" stroke-width="1.5" transform="translate(73.0815 40.0027)" stroke="#03B4EE"/>
<rect width="13.3664" height="13.084" transform="translate(102.487 40.0027)" fill="white"/>
<rect x="0.75" y="0.75" width="11.8664" height="11.584" stroke-width="1.5" transform="translate(102.487 40.0027)" stroke="#03B4EE"/>
<rect width="13.3664" height="13.084" transform="translate(73.0815 85.3606)" fill="white"/>
<rect x="0.75" y="0.75" width="11.8664" height="11.584" stroke-width="1.5" transform="translate(73.0815 85.3606)" stroke="#03B4EE"/>
<rect width="13.3664" height="13.084" transform="translate(102.487 85.3606)" fill="white"/>
<rect x="0.75" y="0.75" width="11.8664" height="11.584" stroke-width="1.5" transform="translate(102.487 85.3606)" stroke="#03B4EE"/>
<rect width="13.3664" height="13.084" transform="translate(73.0815 106.295)" fill="white"/>
<rect x="0.75" y="0.75" width="11.8664" height="11.584" stroke-width="1.5" transform="translate(73.0815 106.295)" stroke="#03B4EE"/>
<rect width="13.3664" height="13.084" transform="translate(102.487 106.295)" fill="white"/>
<rect x="0.75" y="0.75" width="11.8664" height="11.584" stroke-width="1.5" transform="translate(102.487 106.295)" stroke="#03B4EE"/>
<rect width="43.1066" height="7.10274" transform="translate(0.90332 0.810516)" fill="#03B4EE"/>
<rect width="23.9481" height="7.10274" transform="translate(0.000976562 0.000244141)" fill="white" fill-opacity="0.9"/>
<rect x="0.75" y="0.75" width="22.4481" height="5.60274" stroke-width="1.5" transform="translate(0.000976562 0.000244141)" stroke="#03B4EE"/>
<rect width="43.1066" height="7.10274" transform="translate(0.902832 71.1552)" fill="#03B4EE"/>
<rect width="14.3689" height="7.10274" transform="translate(0 70.3448)" fill="white" fill-opacity="0.9"/>
<rect x="0.75" y="0.75" width="12.8689" height="5.60274" stroke-width="1.5" transform="translate(0 70.3448)" stroke="#03B4EE"/>
<rect width="43.1066" height="7.10274" transform="translate(72.7471 71.1552)" fill="#03B4EE"/>
<rect width="33.5274" height="7.10274" transform="translate(71.8442 70.3447)" fill="white" fill-opacity="0.9"/>
<rect x="0.75" y="0.75" width="32.0274" height="5.60274" stroke-width="1.5" transform="translate(71.8442 70.3447)" stroke="#03B4EE"/>
<rect width="43.1066" height="7.10274" transform="translate(72.7471 0.810516)" fill="#03B4EE"/>
<rect width="43.1066" height="7.10274" transform="translate(71.8442 0)" fill="white" fill-opacity="0.9"/>
<rect x="0.75" y="0.75" width="41.6066" height="5.60274" stroke-width="1.5" transform="translate(71.8442 0)" stroke="#03B4EE"/>
</g>
</svg>