<?xml version="1.0" encoding="UTF-8"?>
<svg width="64px" height="42px" viewBox="0 0 64 42" version="1.1" xmlns="http://www.w3.org/2000/svg" xmlns:xlink="http://www.w3.org/1999/xlink">
    <!-- Generator: Sketch 51.2 (57519) - http://www.bohemiancoding.com/sketch -->
    <title>flag/64x64/USA</title>
    <desc>Created with Sketch.</desc>
    <defs>
        <rect id="path-1" x="0" y="0" width="64" height="42" rx="4"></rect>
    </defs>
    <g id="flag/64x64/USA" stroke="none" stroke-width="1" fill="none" fill-rule="evenodd">
        <mask id="mask-2" fill="white">
            <use xlink:href="#path-1"></use>
        </mask>
        <g id="Mask"></g>
        <g id="226-united-states" mask="url(#mask-2)" fill-rule="nonzero">
            <path d="M62.7738947,41.965625 L1.10134893,41.965625 C0.493161793,41.965625 0,41.4715 0,40.862125 L0,1.138 C0,0.528625 0.493161793,0.0345 1.10134893,0.0345 L62.7740195,0.0345 C63.3822066,0.0345 63.8753684,0.528625 63.8753684,1.138 L63.8753684,40.862125 C63.8752437,41.471625 63.3820819,41.965625 62.7738947,41.965625 Z" id="Shape" fill="#F5F5F5"></path>
            <g id="Group" fill="#FF4B55">
                <path d="M63.8753684,3.260125 L0,3.260125 L0,1.138 C0,0.528625 0.493161793,0.0345 1.10134893,0.0345 L62.7740195,0.0345 C63.3822066,0.0345 63.8753684,0.528625 63.8753684,1.138 L63.8753684,3.260125 Z" id="Shape"></path>
                <rect id="Rectangle-path" x="0" y="12.936375" width="63.8752437" height="3.2255"></rect>
                <rect id="Rectangle-path" x="0" y="6.485125" width="63.8752437" height="3.2255"></rect>
                <path d="M63.8752437,22.612875 L1.10134893,22.612875 C0.493161793,22.612875 0,22.11875 0,21.509375 L0,19.38725 L63.8752437,19.38725 L63.8752437,22.612875 Z" id="Shape"></path>
                <rect id="Rectangle-path" x="0" y="32.290125" width="63.8752437" height="3.2255"></rect>
                <path d="M62.7738947,41.965625 L1.10134893,41.965625 C0.493161793,41.965625 0,41.4715 0,40.862125 L0,38.740125 L63.8752437,38.740125 L63.8752437,40.86225 C63.8752437,41.471625 63.3820819,41.965625 62.7738947,41.965625 Z" id="Shape"></path>
                <rect id="Rectangle-path" x="0" y="25.838875" width="63.8752437" height="3.2255"></rect>
            </g>
            <path d="M28.6336998,0.034625 L1.10134893,0.034625 C0.493161793,0.034625 0,0.528625 0,1.138 L0,21.50925 C0,22.118625 0.493161793,22.61275 1.10134893,22.61275 L28.6338246,22.61275 C29.2420117,22.61275 29.7351735,22.118625 29.7351735,21.50925 L29.7351735,1.138 C29.7350487,0.528625 29.2418869,0.034625 28.6336998,0.034625 Z" id="Shape" fill="#41479B"></path>
            <g id="Group" transform="translate(1.746589, 2.375000)" fill="#F5F5F5">
                <path d="M1.3459961,0.19225 L1.58976998,0.92475 L2.36038986,0.930625 C2.46019493,0.9315 2.50148928,1.059 2.42127096,1.118375 L1.80135673,1.577125 L2.03390253,2.31325 C2.06409357,2.4085 1.95568031,2.4875 1.87446394,2.42925 L1.24756335,1.980375 L0.620662768,2.429375 C0.539446394,2.4875 0.431282651,2.408625 0.461224172,2.313375 L0.693769981,1.57725 L0.0738557505,1.1185 C-0.0063625731,1.059 0.0349317739,0.931625 0.134736842,0.93075 L0.905356725,0.924875 L1.1491306,0.192375 C1.1805692,0.097375 1.31430799,0.097375 1.3459961,0.19225 Z" id="Shape"></path>
                <path d="M1.3459961,4.024 L1.58976998,4.7565 L2.36038986,4.762375 C2.46019493,4.76325 2.50148928,4.89075 2.42127096,4.950125 L1.80135673,5.408875 L2.03390253,6.145 C2.06409357,6.24025 1.95568031,6.31925 1.87446394,6.261 L1.24756335,5.812125 L0.620662768,6.261125 C0.539446394,6.31925 0.431282651,6.240375 0.461224172,6.145125 L0.693769981,5.409 L0.0738557505,4.95025 C-0.0063625731,4.89075 0.0349317739,4.763375 0.134736842,4.7625 L0.905356725,4.756625 L1.1491306,4.024125 C1.1805692,3.92925 1.31430799,3.92925 1.3459961,4.024 Z" id="Shape"></path>
                <path d="M1.3459961,7.85575 L1.58976998,8.58825 L2.36038986,8.594125 C2.46019493,8.595 2.50148928,8.7225 2.42127096,8.781875 L1.80135673,9.240625 L2.03390253,9.97675 C2.06409357,10.072 1.95568031,10.151 1.87446394,10.09275 L1.24756335,9.643875 L0.620662768,10.092875 C0.539446394,10.151 0.431282651,10.072125 0.461224172,9.976875 L0.693769981,9.24075 L0.0738557505,8.782 C-0.0063625731,8.7225 0.0349317739,8.595125 0.134736842,8.59425 L0.905356725,8.588375 L1.1491306,7.855875 C1.1805692,7.761 1.31430799,7.761 1.3459961,7.85575 Z" id="Shape"></path>
                <path d="M1.3459961,11.687625 L1.58976998,12.420125 L2.36038986,12.426 C2.46019493,12.426875 2.50148928,12.554375 2.42127096,12.61375 L1.80135673,13.0725 L2.03390253,13.808625 C2.06409357,13.903875 1.95568031,13.982875 1.87446394,13.924625 L1.24756335,13.47575 L0.620662768,13.92475 C0.539446394,13.982875 0.431282651,13.904 0.461224172,13.80875 L0.693769981,13.072625 L0.0738557505,12.613875 C-0.0063625731,12.554375 0.0349317739,12.427 0.134736842,12.426125 L0.905356725,12.42025 L1.1491306,11.68775 C1.1805692,11.59275 1.31430799,11.59275 1.3459961,11.687625 Z" id="Shape"></path>
                <path d="M1.3459961,15.519375 L1.58976998,16.251875 L2.36038986,16.25775 C2.46019493,16.258625 2.50148928,16.386125 2.42127096,16.4455 L1.80135673,16.90425 L2.03390253,17.640375 C2.06409357,17.735625 1.95568031,17.814625 1.87446394,17.756375 L1.24756335,17.3075 L0.620662768,17.7565 C0.539446394,17.814625 0.431282651,17.73575 0.461224172,17.6405 L0.693769981,16.904375 L0.0738557505,16.445625 C-0.0063625731,16.386125 0.0349317739,16.25875 0.134736842,16.257875 L0.905356725,16.252 L1.1491306,15.5195 C1.1805692,15.424375 1.31430799,15.424375 1.3459961,15.519375 Z" id="Shape"></path>
                <path d="M4.31432359,2.070875 L4.55809747,2.803375 L5.32871735,2.80925 C5.42852242,2.810125 5.46981676,2.937625 5.38959844,2.997 L4.76968421,3.45575 L5.00223002,4.191875 C5.03242105,4.287125 4.9240078,4.366125 4.84279142,4.307875 L4.21589084,3.858875 L3.58899025,4.307875 C3.50777388,4.366 3.39961014,4.287125 3.42955166,4.191875 L3.66209747,3.45575 L3.04218324,2.997 C2.96196491,2.9375 3.00325926,2.810125 3.10306433,2.80925 L3.87368421,2.803375 L4.11745809,2.070875 C4.14877193,1.976125 4.28276023,1.976125 4.31432359,2.070875 Z" id="Shape"></path>
                <path d="M4.31432359,5.90275 L4.55809747,6.63525 L5.32871735,6.641125 C5.42852242,6.642 5.46981676,6.7695 5.38959844,6.828875 L4.76968421,7.287625 L5.00223002,8.02375 C5.03242105,8.119 4.9240078,8.198 4.84279142,8.13975 L4.21589084,7.69075 L3.58899025,8.13975 C3.50777388,8.197875 3.39961014,8.119125 3.42955166,8.02375 L3.66209747,7.287625 L3.04218324,6.828875 C2.96196491,6.769375 3.00325926,6.642 3.10306433,6.641125 L3.87368421,6.63525 L4.11745809,5.90275 C4.14877193,5.807875 4.28276023,5.807875 4.31432359,5.90275 Z" id="Shape"></path>
                <path d="M4.31432359,9.7345 L4.55809747,10.467 L5.32871735,10.472875 C5.42852242,10.47375 5.46981676,10.60125 5.38959844,10.660625 L4.76968421,11.119375 L5.00223002,11.8555 C5.03242105,11.95075 4.9240078,12.02975 4.84279142,11.9715 L4.21589084,11.5225 L3.58899025,11.9715 C3.50777388,12.029625 3.39961014,11.95075 3.42955166,11.8555 L3.66209747,11.119375 L3.04218324,10.660625 C2.96196491,10.601125 3.00325926,10.47375 3.10306433,10.472875 L3.87368421,10.467 L4.11745809,9.7345 C4.14877193,9.639625 4.28276023,9.639625 4.31432359,9.7345 Z" id="Shape"></path>
                <path d="M4.31432359,13.56625 L4.55809747,14.29875 L5.32871735,14.304625 C5.42852242,14.3055 5.46981676,14.433 5.38959844,14.492375 L4.76968421,14.951125 L5.00223002,15.68725 C5.03242105,15.7825 4.9240078,15.8615 4.84279142,15.80325 L4.21589084,15.35425 L3.58899025,15.80325 C3.50777388,15.861375 3.39961014,15.7825 3.42955166,15.68725 L3.66209747,14.951125 L3.04218324,14.492375 C2.96196491,14.432875 3.00325926,14.3055 3.10306433,14.304625 L3.87368421,14.29875 L4.11745809,13.56625 C4.14877193,13.4715 4.28276023,13.4715 4.31432359,13.56625 Z" id="Shape"></path>
                <path d="M7.28265107,0.19225 L7.52642495,0.92475 L8.29704483,0.930625 C8.3968499,0.9315 8.43814425,1.059 8.35792593,1.118375 L7.7380117,1.577125 L7.9705575,2.31325 C8.00074854,2.4085 7.89233528,2.4875 7.81111891,2.42925 L7.18421832,1.98025 L6.55731774,2.42925 C6.47610136,2.487375 6.36793762,2.4085 6.39787914,2.31325 L6.63042495,1.577125 L6.01051072,1.118375 C5.9302924,1.058875 5.97158674,0.9315 6.07139181,0.930625 L6.8420117,0.92475 L7.08578558,0.19225 C7.11722417,0.097375 7.25108772,0.097375 7.28265107,0.19225 Z" id="Shape"></path>
                <path d="M7.28265107,4.024 L7.52642495,4.7565 L8.29704483,4.762375 C8.3968499,4.76325 8.43814425,4.89075 8.35792593,4.950125 L7.7380117,5.408875 L7.9705575,6.145 C8.00074854,6.24025 7.89233528,6.31925 7.81111891,6.261 L7.18421832,5.812 L6.55731774,6.261 C6.47610136,6.319125 6.36793762,6.24025 6.39787914,6.145 L6.63042495,5.408875 L6.01051072,4.950125 C5.9302924,4.890625 5.97158674,4.76325 6.07139181,4.762375 L6.8420117,4.7565 L7.08578558,4.024 C7.11722417,3.92925 7.25108772,3.92925 7.28265107,4.024 Z" id="Shape"></path>
                <path d="M7.28265107,7.85575 L7.52642495,8.58825 L8.29704483,8.594125 C8.3968499,8.595 8.43814425,8.7225 8.35792593,8.781875 L7.7380117,9.240625 L7.9705575,9.97675 C8.00074854,10.072 7.89233528,10.151 7.81111891,10.09275 L7.18421832,9.64375 L6.55731774,10.09275 C6.47610136,10.150875 6.36793762,10.072 6.39787914,9.97675 L6.63042495,9.240625 L6.01051072,8.781875 C5.9302924,8.722375 5.97158674,8.595 6.07139181,8.594125 L6.8420117,8.58825 L7.08578558,7.85575 C7.11722417,7.761 7.25108772,7.761 7.28265107,7.85575 Z" id="Shape"></path>
                <path d="M7.28265107,11.687625 L7.52642495,12.420125 L8.29704483,12.426 C8.3968499,12.426875 8.43814425,12.554375 8.35792593,12.61375 L7.7380117,13.0725 L7.9705575,13.808625 C8.00074854,13.903875 7.89233528,13.982875 7.81111891,13.924625 L7.18421832,13.475625 L6.55731774,13.924625 C6.47610136,13.98275 6.36793762,13.903875 6.39787914,13.808625 L6.63042495,13.0725 L6.01051072,12.61375 C5.9302924,12.55425 5.97158674,12.426875 6.07139181,12.426 L6.8420117,12.420125 L7.08578558,11.687625 C7.11722417,11.59275 7.25108772,11.59275 7.28265107,11.687625 Z" id="Shape"></path>
                <path d="M7.28265107,15.519375 L7.52642495,16.251875 L8.29704483,16.25775 C8.3968499,16.258625 8.43814425,16.386125 8.35792593,16.4455 L7.7380117,16.90425 L7.9705575,17.640375 C8.00074854,17.735625 7.89233528,17.814625 7.81111891,17.756375 L7.18421832,17.307375 L6.55731774,17.756375 C6.47610136,17.8145 6.36793762,17.735625 6.39787914,17.640375 L6.63042495,16.90425 L6.01051072,16.4455 C5.9302924,16.386 5.97158674,16.258625 6.07139181,16.25775 L6.8420117,16.251875 L7.08578558,15.519375 C7.11722417,15.424375 7.25108772,15.424375 7.28265107,15.519375 Z" id="Shape"></path>
                <path d="M10.2511033,2.070875 L10.4948772,2.803375 L11.2654971,2.80925 C11.3653021,2.810125 11.4065965,2.937625 11.3263782,2.997 L10.7064639,3.45575 L10.9390097,4.191875 C10.9692008,4.287125 10.8607875,4.366125 10.7795712,4.307875 L10.1526706,3.858875 L9.52576998,4.307875 C9.44455361,4.366 9.33638986,4.287125 9.36633138,4.191875 L9.59887719,3.45575 L8.97896296,2.997 C8.89874464,2.9375 8.94003899,2.810125 9.03984405,2.80925 L9.81046394,2.803375 L10.0542378,2.070875 C10.0855517,1.976125 10.21954,1.976125 10.2511033,2.070875 Z" id="Shape"></path>
                <path d="M10.2511033,5.90275 L10.4948772,6.63525 L11.2654971,6.641125 C11.3653021,6.642 11.4065965,6.7695 11.3263782,6.828875 L10.7064639,7.287625 L10.9390097,8.02375 C10.9692008,8.119 10.8607875,8.198 10.7795712,8.13975 L10.1526706,7.69075 L9.52576998,8.13975 C9.44455361,8.197875 9.33638986,8.119125 9.36633138,8.02375 L9.59887719,7.287625 L8.97896296,6.828875 C8.89874464,6.769375 8.94003899,6.642 9.03984405,6.641125 L9.81046394,6.63525 L10.0542378,5.90275 C10.0855517,5.807875 10.21954,5.807875 10.2511033,5.90275 Z" id="Shape"></path>
                <path d="M10.2511033,9.7345 L10.4948772,10.467 L11.2654971,10.472875 C11.3653021,10.47375 11.4065965,10.60125 11.3263782,10.660625 L10.7064639,11.119375 L10.9390097,11.8555 C10.9692008,11.95075 10.8607875,12.02975 10.7795712,11.9715 L10.1526706,11.5225 L9.52576998,11.9715 C9.44455361,12.029625 9.33638986,11.95075 9.36633138,11.8555 L9.59887719,11.119375 L8.97896296,10.660625 C8.89874464,10.601125 8.94003899,10.47375 9.03984405,10.472875 L9.81046394,10.467 L10.0542378,9.7345 C10.0855517,9.639625 10.21954,9.639625 10.2511033,9.7345 Z" id="Shape"></path>
                <path d="M10.2511033,13.56625 L10.4948772,14.29875 L11.2654971,14.304625 C11.3653021,14.3055 11.4065965,14.433 11.3263782,14.492375 L10.7064639,14.951125 L10.9390097,15.68725 C10.9692008,15.7825 10.8607875,15.8615 10.7795712,15.80325 L10.1526706,15.35425 L9.52576998,15.80325 C9.44455361,15.861375 9.33638986,15.7825 9.36633138,15.68725 L9.59887719,14.951125 L8.97896296,14.492375 C8.89874464,14.432875 8.94003899,14.3055 9.03984405,14.304625 L9.81046394,14.29875 L10.0542378,13.56625 C10.0855517,13.4715 10.21954,13.4715 10.2511033,13.56625 Z" id="Shape"></path>
                <path d="M13.2194308,0.19225 L13.4632047,0.92475 L14.2338246,0.930625 C14.3336296,0.9315 14.374924,1.059 14.2947057,1.118375 L13.6747914,1.577125 L13.9073372,2.31325 C13.9375283,2.4085 13.829115,2.4875 13.7478986,2.42925 L13.1208733,1.98025 L12.4939727,2.42925 C12.4127563,2.487375 12.3045926,2.4085 12.3345341,2.31325 L12.5670799,1.577125 L11.9471657,1.118375 C11.8669474,1.058875 11.9082417,0.9315 12.0080468,0.930625 L12.7786667,0.92475 L13.0224405,0.19225 C13.0540039,0.097375 13.1878674,0.097375 13.2194308,0.19225 Z" id="Shape"></path>
                <path d="M13.2194308,4.024 L13.4632047,4.7565 L14.2338246,4.762375 C14.3336296,4.76325 14.374924,4.89075 14.2947057,4.950125 L13.6747914,5.408875 L13.9073372,6.145 C13.9375283,6.24025 13.829115,6.31925 13.7478986,6.261 L13.1208733,5.812 L12.4939727,6.261 C12.4127563,6.319125 12.3045926,6.24025 12.3345341,6.145 L12.5670799,5.408875 L11.9471657,4.950125 C11.8669474,4.890625 11.9082417,4.76325 12.0080468,4.762375 L12.7786667,4.7565 L13.0224405,4.024 C13.0540039,3.92925 13.1878674,3.92925 13.2194308,4.024 Z" id="Shape"></path>
                <path d="M13.2194308,7.85575 L13.4632047,8.58825 L14.2338246,8.594125 C14.3336296,8.595 14.374924,8.7225 14.2947057,8.781875 L13.6747914,9.240625 L13.9073372,9.97675 C13.9375283,10.072 13.829115,10.151 13.7478986,10.09275 L13.1208733,9.64375 L12.4939727,10.09275 C12.4127563,10.150875 12.3045926,10.072 12.3345341,9.97675 L12.5670799,9.240625 L11.9471657,8.781875 C11.8669474,8.722375 11.9082417,8.595 12.0080468,8.594125 L12.7786667,8.58825 L13.0224405,7.85575 C13.0540039,7.761 13.1878674,7.761 13.2194308,7.85575 Z" id="Shape"></path>
                <path d="M13.2194308,11.687625 L13.4632047,12.420125 L14.2338246,12.426 C14.3336296,12.426875 14.374924,12.554375 14.2947057,12.61375 L13.6747914,13.0725 L13.9073372,13.808625 C13.9375283,13.903875 13.829115,13.982875 13.7478986,13.924625 L13.1208733,13.475625 L12.4939727,13.924625 C12.4127563,13.98275 12.3045926,13.903875 12.3345341,13.808625 L12.5670799,13.0725 L11.9471657,12.61375 C11.8669474,12.55425 11.9082417,12.426875 12.0080468,12.426 L12.7786667,12.420125 L13.0224405,11.687625 C13.0540039,11.59275 13.1878674,11.59275 13.2194308,11.687625 Z" id="Shape"></path>
                <path d="M13.2194308,15.519375 L13.4632047,16.251875 L14.2338246,16.25775 C14.3336296,16.258625 14.374924,16.386125 14.2947057,16.4455 L13.6747914,16.90425 L13.9073372,17.640375 C13.9375283,17.735625 13.829115,17.814625 13.7478986,17.756375 L13.1208733,17.307375 L12.4939727,17.756375 C12.4127563,17.8145 12.3045926,17.735625 12.3345341,17.640375 L12.5670799,16.90425 L11.9471657,16.4455 C11.8669474,16.386 11.9082417,16.258625 12.0080468,16.25775 L12.7786667,16.251875 L13.0224405,15.519375 C13.0540039,15.424375 13.1878674,15.424375 13.2194308,15.519375 Z" id="Shape"></path>
                <path d="M16.1877583,2.070875 L16.4315322,2.803375 L17.202152,2.80925 C17.3019571,2.810125 17.3432515,2.937625 17.2630331,2.997 L16.6431189,3.45575 L16.8756647,4.191875 C16.9058558,4.287125 16.7974425,4.366125 16.7162261,4.307875 L16.0893255,3.858875 L15.462425,4.307875 C15.3812086,4.366 15.2730448,4.287125 15.3029864,4.191875 L15.5355322,3.45575 L14.9156179,2.997 C14.8353996,2.9375 14.876694,2.810125 14.976499,2.80925 L15.7471189,2.803375 L15.9908928,2.070875 C16.0224561,1.976125 16.1561949,1.976125 16.1877583,2.070875 Z" id="Shape"></path>
                <path d="M16.1877583,5.90275 L16.4315322,6.63525 L17.202152,6.641125 C17.3019571,6.642 17.3432515,6.7695 17.2630331,6.828875 L16.6431189,7.287625 L16.8756647,8.02375 C16.9058558,8.119 16.7974425,8.198 16.7162261,8.13975 L16.0893255,7.69075 L15.462425,8.13975 C15.3812086,8.197875 15.2730448,8.119125 15.3029864,8.02375 L15.5355322,7.287625 L14.9156179,6.828875 C14.8353996,6.769375 14.876694,6.642 14.976499,6.641125 L15.7471189,6.63525 L15.9908928,5.90275 C16.0224561,5.807875 16.1561949,5.807875 16.1877583,5.90275 Z" id="Shape"></path>
                <path d="M16.1877583,9.7345 L16.4315322,10.467 L17.202152,10.472875 C17.3019571,10.47375 17.3432515,10.60125 17.2630331,10.660625 L16.6431189,11.119375 L16.8756647,11.8555 C16.9058558,11.95075 16.7974425,12.02975 16.7162261,11.9715 L16.0893255,11.5225 L15.462425,11.9715 C15.3812086,12.029625 15.2730448,11.95075 15.3029864,11.8555 L15.5355322,11.119375 L14.9156179,10.660625 C14.8353996,10.601125 14.876694,10.47375 14.976499,10.472875 L15.7471189,10.467 L15.9908928,9.7345 C16.0224561,9.639625 16.1561949,9.639625 16.1877583,9.7345 Z" id="Shape"></path>
                <path d="M16.1877583,13.56625 L16.4315322,14.29875 L17.202152,14.304625 C17.3019571,14.3055 17.3432515,14.433 17.2630331,14.492375 L16.6431189,14.951125 L16.8756647,15.68725 C16.9058558,15.7825 16.7974425,15.8615 16.7162261,15.80325 L16.0893255,15.35425 L15.462425,15.80325 C15.3812086,15.861375 15.2730448,15.7825 15.3029864,15.68725 L15.5355322,14.951125 L14.9156179,14.492375 C14.8353996,14.432875 14.876694,14.3055 14.976499,14.304625 L15.7471189,14.29875 L15.9908928,13.56625 C16.0224561,13.4715 16.1561949,13.4715 16.1877583,13.56625 Z" id="Shape"></path>
                <path d="M19.1562105,0.19225 L19.3999844,0.92475 L20.1706043,0.930625 C20.2704094,0.9315 20.3117037,1.059 20.2314854,1.118375 L19.6115712,1.577125 L19.844117,2.31325 C19.874308,2.4085 19.7658947,2.4875 19.6846784,2.42925 L19.0577778,1.98025 L18.4308772,2.42925 C18.3496608,2.487375 18.2414971,2.4085 18.2714386,2.31325 L18.5039844,1.577125 L17.8840702,1.118375 C17.8038519,1.058875 17.8451462,0.9315 17.9449513,0.930625 L18.7155712,0.92475 L18.959345,0.19225 C18.9906589,0.097375 19.1246472,0.097375 19.1562105,0.19225 Z" id="Shape"></path>
                <path d="M19.1562105,4.024 L19.3999844,4.7565 L20.1706043,4.762375 C20.2704094,4.76325 20.3117037,4.89075 20.2314854,4.950125 L19.6115712,5.408875 L19.844117,6.145 C19.874308,6.24025 19.7658947,6.31925 19.6846784,6.261 L19.0577778,5.812 L18.4308772,6.261 C18.3496608,6.319125 18.2414971,6.24025 18.2714386,6.145 L18.5039844,5.408875 L17.8840702,4.950125 C17.8038519,4.890625 17.8451462,4.76325 17.9449513,4.762375 L18.7155712,4.7565 L18.959345,4.024 C18.9906589,3.92925 19.1246472,3.92925 19.1562105,4.024 Z" id="Shape"></path>
                <path d="M19.1562105,7.85575 L19.3999844,8.58825 L20.1706043,8.594125 C20.2704094,8.595 20.3117037,8.7225 20.2314854,8.781875 L19.6115712,9.240625 L19.844117,9.97675 C19.874308,10.072 19.7658947,10.151 19.6846784,10.09275 L19.0577778,9.64375 L18.4308772,10.09275 C18.3496608,10.150875 18.2414971,10.072 18.2714386,9.97675 L18.5039844,9.240625 L17.8840702,8.781875 C17.8038519,8.722375 17.8451462,8.595 17.9449513,8.594125 L18.7155712,8.58825 L18.959345,7.85575 C18.9906589,7.761 19.1246472,7.761 19.1562105,7.85575 Z" id="Shape"></path>
                <path d="M19.1562105,11.687625 L19.3999844,12.420125 L20.1706043,12.426 C20.2704094,12.426875 20.3117037,12.554375 20.2314854,12.61375 L19.6115712,13.0725 L19.844117,13.808625 C19.874308,13.903875 19.7658947,13.982875 19.6846784,13.924625 L19.0577778,13.475625 L18.4308772,13.924625 C18.3496608,13.98275 18.2414971,13.903875 18.2714386,13.808625 L18.5039844,13.0725 L17.8840702,12.61375 C17.8038519,12.55425 17.8451462,12.426875 17.9449513,12.426 L18.7155712,12.420125 L18.959345,11.687625 C18.9906589,11.59275 19.1246472,11.59275 19.1562105,11.687625 Z" id="Shape"></path>
                <path d="M19.1562105,15.519375 L19.3999844,16.251875 L20.1706043,16.25775 C20.2704094,16.258625 20.3117037,16.386125 20.2314854,16.4455 L19.6115712,16.90425 L19.844117,17.640375 C19.874308,17.735625 19.7658947,17.814625 19.6846784,17.756375 L19.0577778,17.307375 L18.4308772,17.756375 C18.3496608,17.8145 18.2414971,17.735625 18.2714386,17.640375 L18.5039844,16.90425 L17.8840702,16.4455 C17.8038519,16.386 17.8451462,16.258625 17.9449513,16.25775 L18.7155712,16.251875 L18.959345,15.519375 C18.9906589,15.424375 19.1246472,15.424375 19.1562105,15.519375 Z" id="Shape"></path>
                <path d="M22.124538,2.070875 L22.3683119,2.803375 L23.1389318,2.80925 C23.2387368,2.810125 23.2800312,2.937625 23.1998129,2.997 L22.5798986,3.45575 L22.8124444,4.191875 C22.8426355,4.287125 22.7342222,4.366125 22.6530058,4.307875 L22.0261053,3.858875 L21.3992047,4.307875 C21.3179883,4.366 21.2098246,4.287125 21.2397661,4.191875 L21.4723119,3.45575 L20.8523977,2.997 C20.7721793,2.9375 20.8134737,2.810125 20.9132788,2.80925 L21.6838986,2.803375 L21.9276725,2.070875 C21.9591111,1.976125 22.0930994,1.976125 22.124538,2.070875 Z" id="Shape"></path>
                <path d="M22.124538,5.90275 L22.3683119,6.63525 L23.1389318,6.641125 C23.2387368,6.642 23.2800312,6.7695 23.1998129,6.828875 L22.5798986,7.287625 L22.8124444,8.02375 C22.8426355,8.119 22.7342222,8.198 22.6530058,8.13975 L22.0261053,7.69075 L21.3992047,8.13975 C21.3179883,8.197875 21.2098246,8.119125 21.2397661,8.02375 L21.4723119,7.287625 L20.8523977,6.828875 C20.7721793,6.769375 20.8134737,6.642 20.9132788,6.641125 L21.6838986,6.63525 L21.9276725,5.90275 C21.9591111,5.807875 22.0930994,5.807875 22.124538,5.90275 Z" id="Shape"></path>
                <path d="M22.124538,9.7345 L22.3683119,10.467 L23.1389318,10.472875 C23.2387368,10.47375 23.2800312,10.60125 23.1998129,10.660625 L22.5798986,11.119375 L22.8124444,11.8555 C22.8426355,11.95075 22.7342222,12.02975 22.6530058,11.9715 L22.0261053,11.5225 L21.3992047,11.9715 C21.3179883,12.029625 21.2098246,11.95075 21.2397661,11.8555 L21.4723119,11.119375 L20.8523977,10.660625 C20.7721793,10.601125 20.8134737,10.47375 20.9132788,10.472875 L21.6838986,10.467 L21.9276725,9.7345 C21.9591111,9.639625 22.0930994,9.639625 22.124538,9.7345 Z" id="Shape"></path>
                <path d="M22.124538,13.56625 L22.3683119,14.29875 L23.1389318,14.304625 C23.2387368,14.3055 23.2800312,14.433 23.1998129,14.492375 L22.5798986,14.951125 L22.8124444,15.68725 C22.8426355,15.7825 22.7342222,15.8615 22.6530058,15.80325 L22.0261053,15.35425 L21.3992047,15.80325 C21.3179883,15.861375 21.2098246,15.7825 21.2397661,15.68725 L21.4723119,14.951125 L20.8523977,14.492375 C20.7721793,14.432875 20.8134737,14.3055 20.9132788,14.304625 L21.6838986,14.29875 L21.9276725,13.56625 C21.9591111,13.4715 22.0930994,13.4715 22.124538,13.56625 Z" id="Shape"></path>
                <path d="M25.0929903,0.19225 L25.3367641,0.92475 L26.107384,0.930625 C26.2071891,0.9315 26.2484834,1.059 26.1682651,1.118375 L25.5483509,1.577125 L25.7808967,2.31325 C25.8110877,2.4085 25.7026745,2.4875 25.6214581,2.42925 L24.9945575,1.98025 L24.3676569,2.42925 C24.2864405,2.487375 24.1782768,2.4085 24.2082183,2.31325 L24.4407641,1.577125 L23.8208499,1.118375 C23.7406316,1.058875 23.7819259,0.9315 23.881731,0.930625 L24.6523509,0.92475 L24.8961248,0.19225 C24.9275634,0.097375 25.0613021,0.097375 25.0929903,0.19225 Z" id="Shape"></path>
                <path d="M25.0929903,4.024 L25.3367641,4.7565 L26.107384,4.762375 C26.2071891,4.76325 26.2484834,4.89075 26.1682651,4.950125 L25.5483509,5.408875 L25.7808967,6.145 C25.8110877,6.24025 25.7026745,6.31925 25.6214581,6.261 L24.9945575,5.812 L24.3676569,6.261 C24.2864405,6.319125 24.1782768,6.24025 24.2082183,6.145 L24.4407641,5.408875 L23.8208499,4.950125 C23.7406316,4.890625 23.7819259,4.76325 23.881731,4.762375 L24.6523509,4.7565 L24.8961248,4.024 C24.9275634,3.92925 25.0613021,3.92925 25.0929903,4.024 Z" id="Shape"></path>
                <path d="M25.0929903,7.85575 L25.3367641,8.58825 L26.107384,8.594125 C26.2071891,8.595 26.2484834,8.7225 26.1682651,8.781875 L25.5483509,9.240625 L25.7808967,9.97675 C25.8110877,10.072 25.7026745,10.151 25.6214581,10.09275 L24.9945575,9.64375 L24.3676569,10.09275 C24.2864405,10.150875 24.1782768,10.072 24.2082183,9.97675 L24.4407641,9.240625 L23.8208499,8.781875 C23.7406316,8.722375 23.7819259,8.595 23.881731,8.594125 L24.6523509,8.58825 L24.8961248,7.85575 C24.9275634,7.761 25.0613021,7.761 25.0929903,7.85575 Z" id="Shape"></path>
                <path d="M25.0929903,11.687625 L25.3367641,12.420125 L26.107384,12.426 C26.2071891,12.426875 26.2484834,12.554375 26.1682651,12.61375 L25.5483509,13.0725 L25.7808967,13.808625 C25.8110877,13.903875 25.7026745,13.982875 25.6214581,13.924625 L24.9945575,13.475625 L24.3676569,13.924625 C24.2864405,13.98275 24.1782768,13.903875 24.2082183,13.808625 L24.4407641,13.0725 L23.8208499,12.61375 C23.7406316,12.55425 23.7819259,12.426875 23.881731,12.426 L24.6523509,12.420125 L24.8961248,11.687625 C24.9275634,11.59275 25.0613021,11.59275 25.0929903,11.687625 Z" id="Shape"></path>
                <path d="M25.0929903,15.519375 L25.3367641,16.251875 L26.107384,16.25775 C26.2071891,16.258625 26.2484834,16.386125 26.1682651,16.4455 L25.5483509,16.90425 L25.7808967,17.640375 C25.8110877,17.735625 25.7026745,17.814625 25.6214581,17.756375 L24.9945575,17.307375 L24.3676569,17.756375 C24.2864405,17.8145 24.1782768,17.735625 24.2082183,17.640375 L24.4407641,16.90425 L23.8208499,16.4455 C23.7406316,16.386 23.7819259,16.258625 23.881731,16.25775 L24.6523509,16.251875 L24.8961248,15.519375 C24.9275634,15.424375 25.0613021,15.424375 25.0929903,15.519375 Z" id="Shape"></path>
            </g>
        </g>
    </g>
</svg>