<svg id="icons" xmlns="http://www.w3.org/2000/svg" viewBox="0 0 64 64"><defs><style>.cls-1,.cls-2,.cls-3{fill:none;stroke:#5ec1ea;stroke-linecap:round;stroke-linejoin:round;}.cls-1{stroke-width:3px;}.cls-2{stroke-width:4px;}.cls-3{stroke-width:2px;}</style></defs><title>uip-icons-light-blue</title><g id="boost"><path class="cls-1" d="M55.53,14.63l4-10-10,4a54.65,54.65,0,0,0-10.19,5.3c-10.5,7-19.14,16.46-27,26.46h0L18,46.1l5.74,5.74h0c10-7.88,19.45-16.52,26.46-27A54.65,54.65,0,0,0,55.53,14.63Z"/><polyline class="cls-2" points="59.43 4.55 37.06 60.11 30 59.5 30 53"/><polyline class="cls-2" points="59.5 4.63 3.98 26.97 4.62 34 11 34"/><rect class="cls-3" x="11.33" y="45.57" width="10.83" height="3.61" transform="translate(38.4 2.04) rotate(45)"/><path class="cls-1" d="M10,48.33c-3.47,1.4-4,8.06-5.58,11.32,3.26-1.6,9.92-2.11,11.32-5.58"/><circle class="cls-3" cx="43.55" cy="20.57" r="2.71" transform="translate(-1.79 36.82) rotate(-45)"/><circle class="cls-3" cx="35.89" cy="28.23" r="2.71" transform="translate(-9.45 33.65) rotate(-45)"/><circle class="cls-3" cx="28.23" cy="35.89" r="2.71" transform="translate(-17.11 30.47) rotate(-45)"/></g></svg>