<?xml version="1.0" encoding="UTF-8" standalone="no"?>
<!-- Created with Inkscape (http://www.inkscape.org/) -->

<svg
   xmlns:dc="http://purl.org/dc/elements/1.1/"
   xmlns:cc="http://creativecommons.org/ns#"
   xmlns:rdf="http://www.w3.org/1999/02/22-rdf-syntax-ns#"
   xmlns:svg="http://www.w3.org/2000/svg"
   xmlns="http://www.w3.org/2000/svg"
   xmlns:sodipodi="http://sodipodi.sourceforge.net/DTD/sodipodi-0.dtd"
   xmlns:inkscape="http://www.inkscape.org/namespaces/inkscape"
   width="104.26514mm"
   height="20.130329mm"
   viewBox="0 0 104.26514 20.130329"
   version="1.1"
   id="svg8"
   inkscape:version="0.92.3 (2405546, 2018-03-11)"
   sodipodi:docname="brugglifting.svg">
  <defs
     id="defs2" />
  <sodipodi:namedview
     id="base"
     pagecolor="#ffffff"
     bordercolor="#666666"
     borderopacity="1.0"
     inkscape:pageopacity="0.0"
     inkscape:pageshadow="2"
     inkscape:zoom="0.35"
     inkscape:cx="-260.10636"
     inkscape:cy="206.613"
     inkscape:document-units="mm"
     inkscape:current-layer="layer1"
     showgrid="false"
     fit-margin-top="0"
     fit-margin-left="0"
     fit-margin-right="0"
     fit-margin-bottom="0"
     inkscape:window-width="1920"
     inkscape:window-height="1012"
     inkscape:window-x="0"
     inkscape:window-y="0"
     inkscape:window-maximized="1" />
  <metadata
     id="metadata5">
    <rdf:RDF>
      <cc:Work
         rdf:about="">
        <dc:format>image/svg+xml</dc:format>
        <dc:type
           rdf:resource="http://purl.org/dc/dcmitype/StillImage" />
        <dc:title></dc:title>
      </cc:Work>
    </rdf:RDF>
  </metadata>
  <g
     inkscape:label="Layer 1"
     inkscape:groupmode="layer"
     id="layer1"
     transform="translate(-35.557903,-183.36936)">
    <g
       id="g1447"
       transform="matrix(0.26458333,0,0,0.26458333,34.964707,182.36659)"
       inkscape:export-xdpi="96"
       inkscape:export-ydpi="96">
      <g
         id="g1380">
        <path
           id="path1368"
           d="M 123.229,71.018 C 82.979,80.756 40.67,75.666 4.096,56.682 L 2.242,60.254 C 39.68,79.687 82.983,84.897 124.176,74.929 165.376,64.96 201.501,40.522 225.896,6.118 L 222.61,3.79 c -23.832,33.611 -59.127,57.484 -99.381,67.228"
           inkscape:connector-curvature="0"
           style="fill:#009de0" />
        <path
           id="path1370"
           d="m 22.486,37.009 h 6.222 c 2.184,0 3.872,-0.596 3.872,-2.714 0,-1.986 -1.82,-2.747 -3.542,-2.747 h -6.553 v 5.461 z m 0,-9.696 h 4.336 c 2.978,0 4.732,-0.827 4.732,-2.681 0,-1.985 -1.489,-2.647 -4.17,-2.647 H 22.486 Z M 15.736,17.55 H 29.8 c 6.354,0 8.902,2.847 8.902,5.892 0,2.712 -1.986,4.831 -5.063,5.592 V 29.1 c 3.706,0.33 6.089,2.614 6.089,5.659 0,3.243 -2.316,6.685 -9.895,6.685 H 15.736 Z"
           inkscape:connector-curvature="0"
           style="fill:#009de0" />
        <path
           id="path1372"
           d="m 53,27.744 h 5.526 c 3.178,0 4.203,-0.992 4.203,-2.813 0,-2.317 -1.82,-2.748 -5.163,-2.748 H 53 Z M 46.049,17.55 h 14.595 c 5.758,0 9.034,2.085 9.034,6.255 0,3.044 -2.482,5.163 -6.056,5.792 v 0.066 c 2.019,0.132 3.905,0.596 4.699,2.085 1.159,2.185 1.291,7.215 2.284,9.696 h -7.38 c -0.76,-2.316 -0.661,-5.757 -1.323,-7.413 -0.431,-1.092 -1.49,-1.655 -4.269,-1.655 H 53 v 9.067 H 46.05 V 17.55 Z"
           inkscape:connector-curvature="0"
           style="fill:#009de0" />
        <path
           id="path1374"
           d="m 101.746,30.811 c 0,8.273 -4.6,11.548 -12.906,11.548 -8.339,0 -12.939,-3.01 -12.939,-10.623 V 17.838 h 6.95 v 13.403 c 0,4.302 2.151,6.221 5.99,6.221 4.567,0 5.957,-2.879 5.957,-7.082 V 17.838 h 6.949 v 12.973 z"
           inkscape:connector-curvature="0"
           style="fill:#009de0" />
        <path
           id="path1376"
           d="m 121.701,28.306 h 12.676 v 12.643 c -3.872,0.595 -7.777,1.126 -11.716,1.126 -8.604,0 -15.19,-3.245 -15.19,-12.113 0,-9.101 5.891,-13.04 14.694,-13.04 5.991,0 12.311,1.854 12.542,8.208 h -7.148 c -0.099,-2.614 -2.416,-3.575 -5.361,-3.575 -5.56,0 -7.579,3.476 -7.579,7.778 0,5.262 2.913,8.108 8.472,8.108 1.654,0 3.541,-0.298 4.932,-0.596 v -4.104 h -6.322 z"
           inkscape:connector-curvature="0"
           style="fill:#009de0" />
        <path
           id="path1378"
           d="m 154.696,28.306 h 12.675 v 12.643 c -3.872,0.595 -7.777,1.126 -11.715,1.126 -8.604,0 -15.19,-3.245 -15.19,-12.113 0,-9.101 5.89,-13.04 14.694,-13.04 5.99,0 12.311,1.854 12.542,8.208 h -7.148 c -0.1,-2.614 -2.416,-3.575 -5.362,-3.575 -5.559,0 -7.578,3.476 -7.578,7.778 0,5.262 2.912,8.108 8.472,8.108 1.654,0 3.541,-0.298 4.932,-0.596 v -4.104 h -6.322 z"
           inkscape:connector-curvature="0"
           style="fill:#009de0" />
      </g>
      <g
         id="g1396">
        <path
           id="path1382"
           d="m 239.126,17.594 h 3.446 v 21.203 h 13.78 v 2.716 H 239.125 V 17.594 Z"
           inkscape:connector-curvature="0"
           style="fill:#20201e" />
        <path
           id="path1384"
           d="m 263.011,17.594 h 3.446 v 23.919 h -3.446 z"
           inkscape:connector-curvature="0"
           style="fill:#20201e" />
        <path
           id="path1386"
           d="m 275.499,17.594 h 16.996 v 2.716 h -13.55 v 7.819 h 12.888 v 2.717 h -12.888 v 10.667 h -3.446 z"
           inkscape:connector-curvature="0"
           style="fill:#20201e" />
        <path
           id="path1388"
           d="M 306.936,20.51 H 296.8 v -2.916 h 23.72 v 2.916 h -10.136 v 21.004 h -3.448 z"
           inkscape:connector-curvature="0"
           style="fill:#20201e" />
        <path
           id="path1390"
           d="m 326.977,17.594 h 3.446 v 23.919 h -3.446 z"
           inkscape:connector-curvature="0"
           style="fill:#20201e" />
        <path
           id="path1392"
           d="m 358.946,17.594 h 3.446 v 23.919 h -4.706 L 343.045,21.105 h -0.068 v 20.408 h -3.446 V 17.594 h 4.706 l 14.644,20.408 h 0.065 z"
           inkscape:connector-curvature="0"
           style="fill:#20201e" />
        <path
           id="path1394"
           d="m 385.216,29.023 h 11.099 v 10.801 c -4.01,1.657 -7.785,2.319 -11.53,2.319 -9.706,0 -14.113,-5.865 -14.113,-12.589 0,-5.997 3.745,-12.589 13.65,-12.589 6.726,0 10.966,1.954 11.761,6.824 h -3.645 c -0.827,-3.048 -3.908,-4.108 -7.785,-4.108 -6.727,0 -10.337,4.407 -10.337,9.839 0,5.268 3.646,9.906 10.602,9.906 2.617,0 5.633,-0.597 7.951,-1.524 V 31.74 h -7.652 v -2.717 z"
           inkscape:connector-curvature="0"
           style="fill:#20201e" />
      </g>
      <g
         id="g1414">
        <path
           id="path1398"
           d="m 245.466,64.497 v -2.51 h 6.188 v 7.548 c -1.108,0.357 -2.216,0.566 -3.387,0.671 -0.731,0.062 -1.485,0.146 -3.472,0.146 -2.991,0 -7.091,-1.86 -7.091,-7.862 0,-6.002 4.1,-7.863 7.091,-7.863 4.371,0 7.067,1.317 7.089,4.915 h -3.45 c 0,-1.926 -1.253,-2.573 -3.032,-2.573 -2.865,0 -4.247,2.114 -4.247,5.521 0,3.41 1.382,5.521 4.247,5.521 1.296,0 2.154,-0.168 3.011,-0.335 v -3.179 z"
           inkscape:connector-curvature="0"
           style="fill:#009de0" />
        <path
           id="path1400"
           d="m 259.81,70.352 c -3.431,0 -5.479,-2.257 -5.479,-5.562 0,-3.303 2.048,-5.562 5.479,-5.562 3.43,0 5.479,2.26 5.479,5.562 0,3.305 -2.05,5.562 -5.479,5.562 z m 0,-2.091 c 1.924,0 2.238,-1.798 2.238,-3.472 0,-1.672 -0.314,-3.472 -2.238,-3.472 -1.926,0 -2.239,1.8 -2.239,3.472 -0.001,1.674 0.313,3.472 2.239,3.472 z"
           inkscape:connector-curvature="0"
           style="fill:#009de0" />
        <path
           id="path1402"
           d="m 271.122,54.939 v 2.697 h -3.346 v -2.697 z m -0.104,4.602 v 10.498 h -3.139 V 59.541 Z"
           inkscape:connector-curvature="0"
           style="fill:#009de0" />
        <path
           id="path1404"
           d="m 277.205,60.754 0.043,0.062 c 0.649,-0.961 1.631,-1.589 3.222,-1.589 1.047,0 3.075,0.773 3.45,2.3 0.167,0.649 0.21,1.317 0.21,1.674 v 6.839 h -3.137 v -6.315 c -0.023,-1.13 -0.335,-2.406 -1.884,-2.406 -0.981,0 -1.84,0.878 -1.881,2.406 v 6.315 h -3.139 V 59.541 h 3.115 v 1.213 z"
           inkscape:connector-curvature="0"
           style="fill:#009de0" />
        <path
           id="path1406"
           d="m 297.221,69.098 c 0,2.447 -0.545,5.125 -5.146,5.082 -2.32,0 -4.811,-0.563 -4.872,-3.389 h 2.97 c 0.041,0.941 0.88,1.298 1.736,1.298 2.385,0 2.3,-2.175 2.174,-3.702 h -0.041 c -0.648,1.025 -1.757,1.443 -2.948,1.443 -2.847,0 -4.31,-2.678 -4.31,-5.229 0,-2.676 1.527,-5.375 4.454,-5.375 1.403,0 2.302,0.459 2.804,1.527 h 0.041 V 59.54 h 3.139 v 9.558 z m -5.167,-1.36 c 1.716,0 2.028,-1.756 2.028,-3.115 0,-1.549 -0.312,-3.306 -2.028,-3.306 -1.715,0 -2.028,1.757 -2.028,3.306 -0.001,1.359 0.313,3.115 2.028,3.115 z"
           inkscape:connector-curvature="0"
           style="fill:#009de0" />
        <path
           id="path1408"
           d="m 313.341,68.741 c -0.668,0.963 -1.65,1.61 -3.241,1.61 -1.044,0 -3.072,-0.792 -3.45,-2.321 -0.167,-0.646 -0.209,-1.315 -0.209,-1.672 v -6.817 h 3.137 v 6.294 c 0.021,1.13 0.335,2.426 1.883,2.426 0.982,0 1.841,-0.898 1.881,-2.426 v -6.294 h 3.139 v 8.615 c 0.02,0.628 0.062,1.256 0.126,1.883 h -3.139 z"
           inkscape:connector-curvature="0"
           style="fill:#009de0" />
        <path
           id="path1410"
           d="m 322.627,60.754 h 0.041 c 0.585,-0.88 1.714,-1.527 2.803,-1.527 3.263,0 4.913,2.74 4.913,5.562 0,2.699 -1.44,5.562 -4.516,5.562 -1.36,0 -2.53,-0.564 -3.2,-1.798 h -0.041 v 5.502 H 319.49 V 61.631 c 0,-0.689 -0.063,-1.4 -0.106,-2.09 h 3.18 z m 2.259,7.507 c 2.008,0 2.257,-1.861 2.257,-3.472 0,-1.611 -0.249,-3.472 -2.257,-3.472 -1.695,0 -2.259,2.028 -2.259,3.472 0,1.444 0.563,3.472 2.259,3.472 z"
           inkscape:connector-curvature="0"
           style="fill:#009de0" />
        <path
           id="path1412"
           d="m 332.853,70.039 v -2.781 h 2.654 v 2.781 z"
           inkscape:connector-curvature="0"
           style="fill:#009de0" />
      </g>
    </g>
  </g>
</svg>
