<?xml version="1.0" encoding="UTF-8"?>
<svg width="64px" height="42px" viewBox="0 0 64 42" version="1.1" xmlns="http://www.w3.org/2000/svg" xmlns:xlink="http://www.w3.org/1999/xlink">
    <!-- Generator: Sketch 51.2 (57519) - http://www.bohemiancoding.com/sketch -->
    <title>flag/64x64/Spain</title>
    <desc>Created with Sketch.</desc>
    <defs>
        <rect id="path-1" x="0" y="0" width="64" height="42" rx="4"></rect>
    </defs>
    <g id="flag/64x64/Spain" stroke="none" stroke-width="1" fill="none" fill-rule="evenodd">
        <mask id="mask-2" fill="white">
            <use xlink:href="#path-1"></use>
        </mask>
        <g id="Mask"></g>
        <g id="128-spain" mask="url(#mask-2)" fill-rule="nonzero">
            <path d="M1.1185575,42.9648065 L63.7548635,42.9648065 C64.3725536,42.9648065 64.8734211,42.4589167 64.8734211,41.8350327 L64.8734211,1.16509524 C64.8734211,0.54121131 64.3725536,0.0353214286 63.7548635,0.0353214286 L1.1185575,0.0353214286 C0.500867446,0.0354494048 0,0.54121131 0,1.16509524 L0,41.8350327 C0,42.4590446 0.500867446,42.9648065 1.1185575,42.9648065 Z" id="Shape" fill="#C8414B"></path>
            <rect id="Rectangle-path" fill="#FFD250" x="0" y="9.07363988" width="64.8732943" height="24.854256"></rect>
            <path d="M27.4033918,21.500128 L28.3517836,17.1897619 C28.4392105,16.7927798 28.1400585,16.4162738 27.7373879,16.4162738 L27.0693957,16.4162738 C26.6668519,16.4162738 26.3678265,16.7927798 26.455,17.1897619 L27.4033918,21.500128 Z" id="Shape" fill="#C8414B"></path>
            <rect id="Rectangle-path" fill="#F5F5F5" x="26.2850877" y="19.2400685" width="2.2369883" height="9.60205357"></rect>
            <rect id="Rectangle-path" fill="#FAB446" x="25.7250487" y="18.1113185" width="3.35554581" height="1.12977381"></rect>
            <g id="Group" transform="translate(9.629630, 16.380952)" fill="#C8414B">
                <rect id="Rectangle-path" x="13.8590643" y="5.1191756" width="5.59278752" height="1.12977381"></rect>
                <polygon id="Shape" points="19.4514717 9.63801488 16.0959259 8.50836905 16.0959259 7.37859524 19.4514717 8.50836905"></polygon>
                <path d="M0.996159844,5.1191756 L1.94455166,0.808809524 C2.03197856,0.411827381 1.73282651,0.0353214286 1.33015595,0.0353214286 L0.662163743,0.0353214286 C0.259619883,0.0353214286 -0.0394054581,0.411827381 0.0477680312,0.808809524 L0.996159844,5.1191756 Z" id="Shape"></path>
            </g>
            <path d="M14.540614,18.1109345 C13.922924,18.1109345 13.4220565,18.6168244 13.4220565,19.2407083 L13.4220565,26.5838542 C13.4220565,27.9563988 14.6903801,30.5379345 19.0145906,30.5379345 C23.3388012,30.5379345 24.6071248,27.9565268 24.6071248,26.5838542 L24.6071248,19.2407083 C24.6071248,18.6168244 24.1062573,18.1109345 23.4885673,18.1109345 L14.540614,18.1109345 Z" id="Shape" fill="#F5F5F5"></path>
            <g id="Group" transform="translate(13.304094, 18.044643)" fill="#C8414B">
                <path d="M5.71049708,5.71490476 L0.117962963,5.71490476 L0.117962963,1.19606548 C0.117962963,0.572181548 0.618830409,0.0662916667 1.23652047,0.0662916667 L5.71049708,0.0662916667 L5.71049708,5.71490476 Z" id="Shape"></path>
                <path d="M5.71049708,5.71490476 L11.3030312,5.71490476 L11.3030312,8.53921131 C11.3030312,10.0991131 10.0511793,11.3635179 8.50676413,11.3635179 C6.96234893,11.3635179 5.71049708,10.0991131 5.71049708,8.53921131 L5.71049708,5.71490476 Z" id="Shape"></path>
            </g>
            <path d="M13.4220565,23.7595476 L19.0145906,23.7595476 L19.0145906,26.5838542 C19.0145906,28.143756 17.7627388,29.4081607 16.2183236,29.4081607 C14.6739084,29.4081607 13.4220565,28.143756 13.4220565,26.5838542 L13.4220565,23.7595476 Z" id="Shape" fill="#FAB446"></path>
            <g id="Group" transform="translate(14.444444, 23.675595)" fill="#C8414B">
                <path d="M3.45158869,5.15500893 L3.45158869,0.083952381 L2.33303119,0.083952381 L2.33303119,5.67561607 C2.74913255,5.59038393 3.12506823,5.40430655 3.45158869,5.15500893 Z" id="Shape"></path>
                <path d="M1.21460039,5.67561607 L1.21460039,0.083952381 L0.096042885,0.083952381 L0.096042885,5.15500893 C0.422690058,5.40430655 0.798625731,5.59038393 1.21460039,5.67561607 Z" id="Shape"></path>
            </g>
            <rect id="Rectangle-path" fill="#FFB441" x="14.5407407" y="21.500128" width="3.35554581" height="1.12977381"></rect>
            <g id="Group" transform="translate(14.444444, 19.196429)" fill="#FAB446">
                <rect id="Rectangle-path" x="0.0962962963" y="0.043639881" width="3.35554581" height="1.12977381"></rect>
                <rect id="Rectangle-path" x="0.655068226" y="0.715514881" width="2.2369883" height="2.04659524"></rect>
            </g>
            <rect id="Rectangle-path" fill="#F5F5F5" x="9.50672515" y="19.2400685" width="2.2369883" height="9.60205357"></rect>
            <g id="Group" transform="translate(8.869396, 18.044643)" fill="#FAB446">
                <rect id="Rectangle-path" x="0.0785575049" y="10.2343839" width="3.35554581" height="1.12977381"></rect>
                <rect id="Rectangle-path" x="0.0785575049" y="0.0666755952" width="3.35554581" height="1.12977381"></rect>
            </g>
            <rect id="Rectangle-path" fill="#5064AA" x="8.38918129" y="29.4077768" width="4.47397661" height="1.12977381"></rect>
            <rect id="Rectangle-path" fill="#FAB446" x="26.2850877" y="28.2790268" width="3.35554581" height="1.12977381"></rect>
            <rect id="Rectangle-path" fill="#5064AA" x="25.1662768" y="29.4077768" width="4.47397661" height="1.12977381"></rect>
            <rect id="Rectangle-path" fill="#FAB446" x="15.6595517" y="16.9812887" width="6.71109162" height="1.12977381"></rect>
            <rect id="Rectangle-path" fill="#FFB441" x="18.4559454" y="13.5924792" width="1.1185575" height="3.38919345"></rect>
            <g id="Group" transform="translate(13.937622, 11.773810)" fill="#F5F5F5">
                <path d="M3.95841131,3.51281845 C3.03320663,3.51281845 2.28070175,2.75263988 2.28070175,1.81828571 C2.28070175,0.883803571 3.03333333,0.123752976 3.95841131,0.123752976 C4.88361598,0.123752976 5.63612086,0.883931548 5.63612086,1.81828571 C5.63624756,2.75263988 4.88361598,3.51281845 3.95841131,3.51281845 Z M3.95841131,1.25339881 C3.64988304,1.25339881 3.39913255,1.50653571 3.39913255,1.81828571 C3.39913255,2.12990774 3.64975634,2.38317262 3.95841131,2.38317262 C4.26706628,2.38317262 4.51769006,2.13003571 4.51769006,1.81828571 C4.51769006,1.50666369 4.26706628,1.25339881 3.95841131,1.25339881 Z" id="Shape"></path>
                <path d="M6.19552632,3.51281845 C5.27032164,3.51281845 4.51781676,2.75263988 4.51781676,1.81828571 C4.51781676,0.883803571 5.27044834,0.123752976 6.19552632,0.123752976 C7.12073099,0.123752976 7.87323587,0.883931548 7.87323587,1.81828571 C7.87323587,2.75263988 7.12060429,3.51281845 6.19552632,3.51281845 Z M6.19552632,1.25339881 C5.88699805,1.25339881 5.63624756,1.50653571 5.63624756,1.81828571 C5.63624756,2.12990774 5.88687135,2.38317262 6.19552632,2.38317262 C6.50405458,2.38317262 6.75480507,2.13003571 6.75480507,1.81828571 C6.75467836,1.50666369 6.50405458,1.25339881 6.19552632,1.25339881 Z" id="Shape"></path>
                <path d="M8.43251462,4.64259226 C7.50730994,4.64259226 6.75480507,3.88241369 6.75480507,2.94805952 C6.75480507,2.01357738 7.50743665,1.25352679 8.43251462,1.25352679 C9.3577193,1.25352679 10.1102242,2.01370536 10.1102242,2.94805952 C10.1102242,3.88241369 9.35759259,4.64259226 8.43251462,4.64259226 Z M8.43251462,2.38317262 C8.12398635,2.38317262 7.87323587,2.63630952 7.87323587,2.94805952 C7.87323587,3.25968155 8.12385965,3.51294643 8.43251462,3.51294643 C8.74104288,3.51294643 8.99179337,3.25980952 8.99179337,2.94805952 C8.99179337,2.63630952 8.74104288,2.38317262 8.43251462,2.38317262 Z" id="Shape"></path>
                <path d="M1.721423,4.64259226 C0.796218324,4.64259226 0.0437134503,3.88241369 0.0437134503,2.94805952 C0.0437134503,2.01357738 0.796345029,1.25352679 1.721423,1.25352679 C2.64662768,1.25352679 3.39913255,2.01370536 3.39913255,2.94805952 C3.39925926,3.88241369 2.64662768,4.64259226 1.721423,4.64259226 Z M1.721423,2.38317262 C1.41289474,2.38317262 1.16214425,2.63630952 1.16214425,2.94805952 C1.16214425,3.25968155 1.41276803,3.51294643 1.721423,3.51294643 C2.03007797,3.51294643 2.28070175,3.25968155 2.28070175,2.94793155 C2.28070175,2.63630952 2.03007797,2.38317262 1.721423,2.38317262 Z" id="Shape"></path>
            </g>
            <path d="M22.3701365,26.0189673 L22.3701365,26.5838542 C22.3701365,26.8953482 22.1192593,27.1487411 21.8108577,27.1487411 C21.5024561,27.1487411 21.2515789,26.8953482 21.2515789,26.5838542 L21.2515789,26.0189673 L22.3701365,26.0189673 Z M23.4885673,24.8893214 L20.1330214,24.8893214 L20.1330214,26.5838542 C20.1330214,27.5183363 20.885653,28.2783869 21.810731,28.2783869 C22.7359357,28.2783869 23.4884405,27.5182083 23.4884405,26.5838542 L23.4884405,24.8893214 L23.4885673,24.8893214 Z" id="Shape" fill="#FAB446"></path>
            <path d="M21.8108577,22.6299018 C21.1931676,22.6299018 20.6923002,22.1240119 20.6923002,21.500128 L20.6923002,20.3703542 C20.6923002,19.7464702 21.1931676,19.2405804 21.8108577,19.2405804 C22.4285478,19.2405804 22.9294152,19.7464702 22.9294152,20.3703542 L22.9294152,21.500128 C22.9294152,22.1240119 22.4285478,22.6299018 21.8108577,22.6299018 Z" id="Shape" fill="#FFA0D2"></path>
            <ellipse id="Oval" fill="#5064AA" cx="19.0147173" cy="23.7589077" rx="1.67770955" ry="1.69453274"></ellipse>
            <rect id="Rectangle-path" fill="#FAB446" x="18.4559454" y="11.3324196" width="1.1185575" height="3.38919345"></rect>
            <path d="M15.6590448,16.9812887 L14.5404873,15.8515149 L15.1956823,15.18975 C16.2084405,14.1668363 17.5821832,13.5920952 19.0145906,13.5920952 C20.4469981,13.5920952 21.820614,14.1668363 22.833499,15.18975 L23.488694,15.8515149 L22.3701365,16.9812887 L15.6590448,16.9812887 Z" id="Shape" fill="#C8414B"></path>
            <g id="Group" transform="translate(16.091618, 15.229167)" fill="#FFD250">
                <ellipse id="Oval" cx="2.92309942" cy="0.622092262" rx="1" ry="1"></ellipse>
                <ellipse id="Oval" cx="0.685477583" cy="0.622092262" rx="1" ry="1"></ellipse>
                <ellipse id="Oval" cx="5.15945419" cy="0.622092262" rx="1" ry="1"></ellipse>
            </g>
            <g id="Group" transform="translate(8.869396, 21.500000)" fill="#C8414B">
                <rect id="Rectangle-path" x="0.0785575049" y="0.00012797619" width="5.59278752" height="1.12977381"></rect>
                <polygon id="Shape" points="0.0786842105 4.51896726 3.43410331 3.38932143 3.43410331 2.25954762 0.0786842105 3.38932143"></polygon>
            </g>
        </g>
    </g>
</svg>